<svg id="Layer_1" enable-background="new 0 0 512 512" viewBox="0 0 512 512" xmlns="http://www.w3.org/2000/svg"><g clip-rule="evenodd" fill-rule="evenodd"><path d="m255.44 221.29c37.9 0 68.63 30.73 68.63 68.66 0 37.9-30.73 68.63-68.63 68.63-37.93 0-68.66-30.73-68.66-68.63 0-37.94 30.73-68.66 68.66-68.66z" fill="#fed402"/><path d="m255.44 243.77c25.48 0 46.15 20.66 46.15 46.18 0 25.48-20.66 46.15-46.15 46.15-25.48 0-46.15-20.66-46.15-46.15 0-25.52 20.67-46.18 46.15-46.18z" fill="#fb8500"/><path d="m295.01 278.04c5.67 0 10.26 4.59 10.26 10.26s-4.59 10.26-10.26 10.26-10.26-4.59-10.26-10.26 4.59-10.26 10.26-10.26z" fill="#ffec91"/><path d="m331.64 326.91c-7.17-12.44 17.06-24.29 24.69-12.42 1.02 1.45 4.51 6.92 5.53 8.25-3.12-10.94 18.77-20.86 28.49-4.03 19.08 33.05 7.17 14.49 26.22 46.8l10.23 34.64 16.75 28.23c3.43 5.81 1.33 13.35-4.48 16.72l-57.26 33.05c-5.81 3.37-13.21 1.28-16.7-4.48l-15.9-26.28c-23.47-12.53-84.19-41.44-57.91-81.5-14.12-26.62-19.42-34.24-34.53-60.43-3.74-6.43-1.5-14.77 4.93-18.48 6.46-3.71 14.77-1.47 18.51 4.96l26.48 45.89c-2.72-11.69 18.2-22.63 24.95-10.92z" fill="#f2858b"/><path d="m331.64 326.91c-7.17-12.44 17.06-24.29 24.69-12.42 1.02 1.45 4.51 6.92 5.53 8.25-3.12-10.94 18.77-20.86 28.49-4.03 19.08 33.05 7.17 14.49 26.22 46.8l10.23 34.64 2.41 4.05c-4.76 4.2-10.06 7.85-15.87 10.91-39.17 20.58-90.37 7.43-128.49-28.86-.14-6.41 1.79-13.21 6.46-20.35-14.12-26.62-19.42-34.24-34.53-60.43-3.74-6.43-1.5-14.77 4.93-18.48 6.46-3.71 14.77-1.47 18.51 4.96l26.48 45.89c-2.73-11.7 18.19-22.64 24.94-10.93z" fill="#ff9aa2"/><path d="m255.44 32.56c30.47 0 55.16 24.72 55.16 55.19s-24.69 55.16-55.16 55.16-55.19-24.69-55.19-55.16c0-30.48 24.72-55.19 55.19-55.19z" fill="#b3b3b3"/><path d="m306.32 66.37c2.75 6.58 4.28 13.78 4.28 21.37 0 30.47-24.69 55.16-55.16 55.16-12.47 0-23.95-4.14-33.19-11.11-2.78-6.55-4.31-13.78-4.31-21.34 0-30.47 24.72-55.19 55.19-55.19 12.44 0 23.95 4.14 33.19 11.11z" fill="#e6e6e6"/><path d="m425.75 129.95c30.47 0 55.16 24.69 55.16 55.16s-24.69 55.19-55.16 55.19-55.19-24.72-55.19-55.19c-.01-30.47 24.71-55.16 55.19-55.16z" fill="#b3b3b3"/><path d="m475.01 160.26c3.77 7.48 5.9 15.93 5.9 24.86 0 30.47-24.69 55.19-55.16 55.19-11.76 0-22.62-3.69-31.58-9.92-3.77-7.48-5.9-15.93-5.9-24.86 0-30.47 24.69-55.19 55.16-55.19 11.74 0 22.62 3.68 31.58 9.92z" fill="#e6e6e6"/><path d="m86.07 129.7c30.47 0 55.19 24.69 55.19 55.16s-24.72 55.19-55.19 55.19-55.16-24.72-55.16-55.19 24.69-55.16 55.16-55.16z" fill="#b3b3b3"/><path d="m132.5 155.01c5.53 8.62 8.76 18.85 8.76 29.85 0 30.47-24.72 55.19-55.19 55.19-8.62 0-16.81-2.01-24.09-5.56-5.53-8.59-8.76-18.85-8.76-29.85 0-30.47 24.69-55.16 55.16-55.16 8.64.01 16.84 1.99 24.12 5.53z" fill="#e6e6e6"/><path d="m94.91 340.48c30.47 0 55.19 24.69 55.19 55.16s-24.72 55.19-55.19 55.19-55.16-24.72-55.16-55.19 24.69-55.16 55.16-55.16z" fill="#b3b3b3"/><path d="m146.87 377.02c2.07 5.84 3.23 12.1 3.23 18.62 0 30.47-24.72 55.19-55.19 55.19-13.41 0-25.68-4.79-35.23-12.73-2.1-5.84-3.23-12.1-3.23-18.62 0-30.47 24.72-55.19 55.19-55.19 13.38 0 25.68 4.8 35.23 12.73z" fill="#e6e6e6"/><path d="m290.08 130.66c-9.47 7.65-21.52 12.25-34.64 12.25-13.15 0-25.2-4.59-34.67-12.25v-4.42c0-18.51 15.14-33.65 33.65-33.65h2.04c18.48 0 33.62 15.14 33.62 33.65z" fill="#db3bd8"/><path d="m255.44 59.17c9.84 0 17.83 7.99 17.83 17.83 0 9.86-7.99 17.86-17.83 17.86-9.86 0-17.86-7.99-17.86-17.86 0-9.83 8-17.83 17.86-17.83z" fill="#ff9aa2"/><path d="m460.38 228.06c-9.47 7.65-21.52 12.25-34.64 12.25-13.15 0-25.2-4.59-34.67-12.25v-4.45c0-18.48 15.14-33.62 33.65-33.62h2.04c18.48 0 33.62 15.14 33.62 33.62z" fill="#db3bd8"/><path d="m425.75 156.57c9.84 0 17.83 7.97 17.83 17.83 0 9.84-7.99 17.83-17.83 17.83-9.86 0-17.86-7.99-17.86-17.83 0-9.86 7.99-17.83 17.86-17.83z" fill="#ff9aa2"/><path d="m120.74 227.78c-9.47 7.68-21.51 12.27-34.67 12.27-13.12 0-25.17-4.59-34.64-12.27v-4.42c0-18.48 15.14-33.62 33.65-33.62h2.01c18.51 0 33.65 15.14 33.65 33.62z" fill="#db3bd8"/><path d="m86.07 156.29c9.86 0 17.86 7.99 17.86 17.86 0 9.84-7.99 17.83-17.86 17.83-9.84 0-17.83-7.99-17.83-17.83 0-9.87 7.99-17.86 17.83-17.86z" fill="#ff9aa2"/><path d="m129.58 438.56c-9.47 7.68-21.54 12.27-34.67 12.27s-25.17-4.59-34.67-12.27v-4.42c0-18.48 15.14-33.62 33.65-33.62h2.04c18.51 0 33.65 15.14 33.65 33.62z" fill="#db3bd8"/><path d="m94.91 367.1c9.86 0 17.83 7.97 17.83 17.83 0 9.84-7.97 17.83-17.83 17.83-9.84 0-17.83-7.99-17.83-17.83 0-9.86 8-17.83 17.83-17.83z" fill="#ff9aa2"/></g><path d="m94.91 360.1c19.84 0 31.61 22.14 20.72 38.55 9.21 5.16 16.19 13.75 19.25 23.92 21.43-31.78-1.3-75.09-39.97-75.09-26.62 0-48.16 21.54-48.16 48.16 0 9.98 3 19.25 8.19 26.93 3.06-10.18 10.03-18.77 19.28-23.92-10.88-16.41.88-38.55 20.69-38.55zm8.03 48.33c-2.52.88-5.22 1.33-8.02 1.33s-5.5-.45-8.02-1.33c-5.39 1.47-10.12 4.62-13.58 8.82-4.25 5.16-6.07 10.86-6.07 17.86 16.58 11.62 38.75 11.62 55.33 0 0-7-1.81-12.7-6.07-17.86-3.45-4.2-8.19-7.35-13.57-8.82zm-.37-31.18c-6.8-6.8-18.48-1.96-18.48 7.68s11.68 14.46 18.48 7.65c4.25-4.22 4.25-11.08 0-15.33zm-5.33 80.53c-34.89 1.3-64.49-26.56-64.49-62.14 0-34.33 27.84-62.16 62.16-62.16 34.33 0 62.19 27.84 62.19 62.16.01 33.48-26.36 60.78-59.86 62.14zm-11.14-308.47c19.81 0 31.58 22.14 20.69 38.55 9.21 5.16 16.19 13.75 19.25 23.92 12.9-19.13 10.37-44.73-5.9-61-18.79-18.79-49.32-18.79-68.12 0-16.27 16.27-18.79 41.87-5.9 61 3.06-10.18 10.03-18.79 19.25-23.92-10.88-16.41.89-38.55 20.73-38.55zm7.99 48.34c-2.49.88-5.22 1.33-7.99 1.33-2.81 0-5.53-.45-8.02-1.33-5.41 1.47-10.12 4.62-13.58 8.82-4.25 5.16-6.07 10.86-6.07 17.86 16.55 11.62 38.75 11.62 55.3 0 0-7-1.81-12.7-6.07-17.86-3.45-4.2-8.15-7.35-13.57-8.82zm-.34-31.19c-6.8-6.8-18.51-1.96-18.51 7.68 0 9.61 11.71 14.46 18.51 7.65 4.23-4.21 4.23-11.07 0-15.33zm-5.33 80.54c-34.92 1.3-64.52-26.56-64.52-62.14 0-34.33 27.84-62.16 62.19-62.16 34.33 0 62.16 27.84 62.16 62.16.01 33.48-26.35 60.78-59.83 62.14zm337.33-97.43c19.81 0 31.58 22.14 20.69 38.55 9.21 5.16 16.21 13.75 19.25 23.92 12.9-19.13 10.4-44.7-5.9-61-18.79-18.79-49.32-18.79-68.12 0-16.27 16.3-18.79 41.87-5.9 61 3.06-10.18 10.03-18.77 19.25-23.92-10.88-16.41.88-38.55 20.73-38.55zm7.99 48.33c-2.49.88-5.19 1.33-7.99 1.33s-5.5-.45-8.02-1.33c-5.41 1.5-10.12 4.62-13.58 8.82-4.25 5.16-6.07 10.86-6.07 17.86 16.55 11.62 38.75 11.62 55.3 0 0-7-1.81-12.7-6.04-17.86-3.48-4.2-8.19-7.32-13.6-8.82zm-.34-31.15c-6.8-6.83-18.51-1.98-18.51 7.65s11.71 14.46 18.51 7.65c4.22-4.22 4.22-11.08 0-15.3zm-5.33 80.5c-34.92 1.3-64.52-26.56-64.52-62.14 0-34.33 27.84-62.16 62.19-62.16 34.33 0 62.16 27.84 62.16 62.16.01 33.51-26.35 60.78-59.83 62.14zm-172.63-195.08c19.81 0 31.58 22.17 20.69 38.55 9.24 5.16 16.21 13.78 19.25 23.92 12.93-19.11 10.4-44.7-5.9-60.97-18.79-18.82-49.29-18.82-68.12 0-16.27 16.27-18.79 41.87-5.9 60.97 3.06-10.15 10.03-18.77 19.25-23.92-10.88-16.38.89-38.55 20.73-38.55zm7.99 48.36c-2.49.85-5.19 1.3-7.99 1.3-2.81 0-5.5-.45-8.02-1.3-5.39 1.47-10.12 4.59-13.58 8.82-4.25 5.13-6.07 10.83-6.07 17.83 16.55 11.65 38.75 11.65 55.33 0 0-7-1.84-12.7-6.07-17.83-3.45-4.23-8.18-7.35-13.6-8.82zm-.34-31.18c-6.8-6.8-18.51-1.98-18.51 7.65s11.71 14.48 18.51 7.68c4.23-4.25 4.23-11.11 0-15.33zm-5.33 80.5c-34.89 1.3-64.52-26.53-64.52-62.11 0-34.36 27.84-62.19 62.19-62.19 34.33 0 62.16 27.84 62.16 62.19.01 33.48-26.35 60.78-59.83 62.11zm-71.06 108.46-38.75-22.37c-3.32-1.93-4.45-6.21-2.52-9.55 1.93-3.32 6.21-4.45 9.52-2.52l38.75 22.37c12.56-17.72 32.34-29.57 54.74-31.61v-44.76c0-3.85 3.12-7 7-7 3.86 0 7 3.15 7 7v44.73c22.39 2.07 42.18 13.92 54.74 31.63l38.72-22.37c3.34-1.93 7.63-.79 9.55 2.52 1.93 3.34.79 7.63-2.55 9.55l-38.75 22.37c7.48 16.24 8.99 34.84 4.05 52.27 7.94-8.56 23.75-11.65 32.23-2.21 4.45-3.94 10.6-5.98 16.7-5.61 7.09.43 14.37 4.03 19.25 12.47 18.88 32.68 7.14 14.34 26.19 46.74.28.51.51 1.02.68 1.56l9.98 33.79 16.47 27.78c5.24 9.27 1.79 20.98-7 25.99h.03l-57.4 33.11c-9.18 5.3-20.78 2.07-26.22-6.92l-14.88-24.63-2.3-1.19c-7.48-3.94-17.32-9.13-27.21-15.62-25.03-16.44-48.25-40.05-31.44-70.1-.85-1.59-1.67-3.12-2.47-4.56-32 11.48-67.61-.03-87.11-27.55l-38.75 22.37c-3.32 1.96-7.6.79-9.52-2.52-1.93-3.34-.79-7.63 2.52-9.55l38.75-22.37c-9.21-19.99-9.21-43.23 0-63.24zm87.25 90.45-11.57-19.87-.06 3c0 3.85-3.15 6.97-7 6.97-3.86 0-7-3.12-7-6.97v-4.34c-9.75-2.35-18.08-9.84-19.02-20.04-.37-3.83 2.47-7.23 6.29-7.57 3.86-.34 7.23 2.47 7.6 6.32.43 4.59 5.84 7.6 10.63 8.05-3.63-6.26-6.86-10.77-5.61-18.74-10.2-2.38-19.02-6.46-19.02-21.4 0-11 8.67-19.36 19.13-21.88v-4.31c0-3.91 3.09-7 7.2-7v.03c3.97 0 7.06 3.23 6.97 7.09l-.08 4.17c10.52 2.49 19.28 10.86 19.28 21.91 0 2.75-1.59 5.13-3.88 6.26 3.4 1.76 6.38 4.45 8.42 8.02l.03-.03 19.42 33.68c1.28-1.25 2.72-2.38 4.28-3.34 2.15-4.11 3.88-8.48 5.1-13.07 10.26-38.95-19.11-77.41-59.61-77.41-34.04 0-61.65 27.61-61.65 61.65-.01 41.73 40.52 71.18 80.15 58.82zm-18.45-65.93c3.8-3.09 8.65-4.73 13.46-4.62-2.49-3.54.28-5.95-4.34-9.72-7.77-6.35-21.43-1.96-21.43 5.7 0 5.86 5.99 7.39 12.31 8.64zm82.71 37.5c-.79.96-1.13 2.07-.54 3.09 1.93 3.34.77 7.6-2.55 9.52-3.34 1.93-7.6.77-9.52-2.58-2.52-4.37-13.07 1.67-12.08 5.9h-.03c1.81 7.74-8.84 11.99-12.84 5.07l-26.5-45.89h.03c-2.95-4.99-10.49-4.08-11.99 1.59-.65 2.44 0 3.74.94 5.56l7.8 13.32c9.58 16.21 15.39 25.68 26.56 46.74h-.03c1.16 2.18 1.13 4.9-.31 7.09-14.51 22.08 4.79 41.05 25.23 54.45 9.07 5.95 18.71 11.03 26.08 14.91.45.23.96.51 3.6 1.9 1.28.57 2.38 1.5 3.15 2.81l15.9 26.28c1.5 2.49 4.73 3.49 7.23 2.04l57.34-33.14v.03c2.38-1.45 3.26-4.65 1.96-6.92l-16.84-28.4c-.28-.48-.51-1.02-.68-1.59l-10.01-33.85c-9.64-16.33-11.2-19.42-13.07-23.07-1.67-3.34-3.63-7.17-12.76-22.96-5.81-10.12-16.36-3.74-15.68-1.42h-.03c.77 2.66-.11 5.64-2.44 7.43-3.06 2.38-7.46 1.81-9.81-1.25l-5.87-8.73c-2.09-3.26-9.29-1.45-12.24 2.07z"/></svg>