<svg xmlns="http://www.w3.org/2000/svg" xmlns:xlink="http://www.w3.org/1999/xlink" width="326.25" height="143.092" viewBox="0 0 326.25 143.092">
  <defs>
    <linearGradient id="linear-gradient" x1="24.722" y1="10.044" x2="24.377" y2="10.512" gradientUnits="objectBoundingBox">
      <stop offset="0" stop-color="#814a8f"/>
      <stop offset="0.37" stop-color="#6c2b73"/>
      <stop offset="1" stop-color="#6c2b73"/>
    </linearGradient>
    <linearGradient id="linear-gradient-2" x1="20.406" y1="10.89" x2="21.11" y2="10.532" gradientUnits="objectBoundingBox">
      <stop offset="0" stop-color="#5568a3"/>
      <stop offset="1" stop-color="#3f2e6f"/>
    </linearGradient>
    <linearGradient id="linear-gradient-3" x1="12.826" y1="16.681" x2="13.566" y2="16.522" gradientUnits="objectBoundingBox">
      <stop offset="0" stop-color="#518b80"/>
      <stop offset="0.24" stop-color="#518b80"/>
      <stop offset="0.8" stop-color="#37615d"/>
      <stop offset="1" stop-color="#37615d"/>
    </linearGradient>
    <linearGradient id="linear-gradient-4" x1="12.067" y1="21.003" x2="12.326" y2="20.953" gradientUnits="objectBoundingBox">
      <stop offset="0" stop-color="#86b44e"/>
      <stop offset="0.46" stop-color="#589950"/>
      <stop offset="0.88" stop-color="#3a6446"/>
      <stop offset="1" stop-color="#3a6446"/>
    </linearGradient>
    <linearGradient id="linear-gradient-5" x1="16.61" y1="12.706" x2="16.135" y2="11.901" gradientUnits="objectBoundingBox">
      <stop offset="0" stop-color="#77954a"/>
      <stop offset="1" stop-color="#a6b646"/>
    </linearGradient>
    <linearGradient id="linear-gradient-6" x1="35.271" y1="10.037" x2="35.735" y2="9.853" gradientUnits="objectBoundingBox">
      <stop offset="0" stop-color="#87602e"/>
      <stop offset="1" stop-color="#c89936"/>
    </linearGradient>
    <linearGradient id="linear-gradient-7" x1="5.922" y1="5.705" x2="6.69" y2="4.848" gradientUnits="objectBoundingBox">
      <stop offset="0" stop-color="#c13c2f"/>
      <stop offset="0.19" stop-color="#b43930"/>
      <stop offset="0.71" stop-color="#963133"/>
      <stop offset="1" stop-color="#8b2e34"/>
    </linearGradient>
    <linearGradient id="linear-gradient-8" x1="8.956" y1="7.459" x2="9.885" y2="6.444" xlink:href="#linear-gradient-7"/>
    <linearGradient id="linear-gradient-9" x1="15.458" y1="7.225" x2="16.264" y2="6.319" xlink:href="#linear-gradient-7"/>
    <linearGradient id="linear-gradient-10" x1="10.444" y1="7.105" x2="11.319" y2="6.196" xlink:href="#linear-gradient-7"/>
    <linearGradient id="linear-gradient-11" x1="11.697" y1="5.757" x2="12.477" y2="4.927" xlink:href="#linear-gradient-7"/>
    <linearGradient id="linear-gradient-12" x1="8.966" y1="7.087" x2="9.733" y2="6.277" xlink:href="#linear-gradient-7"/>
    <linearGradient id="linear-gradient-13" x1="12.124" y1="23.946" x2="12.875" y2="24.097" gradientUnits="objectBoundingBox">
      <stop offset="0" stop-color="#813a29"/>
      <stop offset="0.54" stop-color="#813a29"/>
      <stop offset="1" stop-color="#b3632f"/>
    </linearGradient>
    <linearGradient id="linear-gradient-14" x1="14.327" y1="16.884" x2="13.991" y2="16.2" gradientUnits="objectBoundingBox">
      <stop offset="0" stop-color="#99272d"/>
      <stop offset="0.59" stop-color="#822229"/>
      <stop offset="1" stop-color="#6c1a27"/>
    </linearGradient>
    <linearGradient id="linear-gradient-15" x1="17.348" y1="12.675" x2="18.22" y2="11.945" gradientUnits="objectBoundingBox">
      <stop offset="0" stop-color="#844529"/>
      <stop offset="0.52" stop-color="#c07131"/>
      <stop offset="1" stop-color="#c07131"/>
    </linearGradient>
  </defs>
  <g id="azista_logo-svc_-no-tagline" data-name="azista logo-svc -no-tagline" transform="translate(-334 -364)">
    <path id="Path_1" data-name="Path 1" d="M200.83,100.17l-3.9-11.72a15.44,15.44,0,0,0,5.25-11.76,15.22,15.22,0,0,0-.74-4.53,14.511,14.511,0,0,0-1.55-3.36,15.331,15.331,0,0,0-2.26-2.8,15.11,15.11,0,0,0-2.81-2.16,15.62,15.62,0,0,0-3.22-1.47,5.76,5.76,0,0,0-.59-.18l-.6-.17-.61-.13-.61-.11.52.08.88.16.88.2.86.23.85.26a22.529,22.529,0,0,1,4.63,2.12,21.89,21.89,0,0,1,7.27,7.1,21.279,21.279,0,0,1,2.23,4.83,22,22,0,0,1,.21,12.82,22.39,22.39,0,0,1-6.69,10.58Z" transform="translate(298 342.92)" fill-rule="evenodd" fill="url(#linear-gradient)"/>
    <path id="Path_2" data-name="Path 2" d="M200.69,61.84a20.491,20.491,0,0,1,4.23,1.94,19.88,19.88,0,0,1,8.66,11,20.17,20.17,0,0,1,.9,7.91,20.427,20.427,0,0,1-13.65,17.52,22.39,22.39,0,0,0,6.69-10.58,22,22,0,0,0-.21-12.82,21.28,21.28,0,0,0-2.23-4.83,21.89,21.89,0,0,0-7.27-7.1,22.53,22.53,0,0,0-4.63-2.12q-.59-.19-1.2-.36c-.4-.11-.81-.2-1.22-.29s-.82-.16-1.24-.23l-1.25-.16a22.17,22.17,0,0,1,3.17-.69,21,21,0,0,1,3.16-.19,21.4,21.4,0,0,1,3.1.29,20.121,20.121,0,0,1,2.99.71Z" transform="translate(298 342.92)" fill="#a9337b" fill-rule="evenodd"/>
    <path id="Path_3" data-name="Path 3" d="M171.26,98.65l5.11-11.26h1.69l.84-.1a4,4,0,0,0,.83-.14,15.5,15.5,0,0,0,3.4-1.09,15.78,15.78,0,0,0,3.08-1.84,15.22,15.22,0,0,0,2.6-2.54,15.669,15.669,0,0,0,2-3.19A14.859,14.859,0,0,0,192.07,74a14.68,14.68,0,0,0-.09-4.44,15.51,15.51,0,0,0-1.33-4.19,15.9,15.9,0,0,0-2.45-3.69h.09A22.75,22.75,0,0,1,193.72,73a21.63,21.63,0,0,1,.13,6.38A21.18,21.18,0,0,1,192,85.75a22.18,22.18,0,0,1-11,10.9,22.789,22.789,0,0,1-4.9,1.58l-1.19.2-1.21.14c-.4,0-.81.06-1.22.07S171.67,98.66,171.26,98.65Z" transform="translate(298 342.92)" fill-rule="evenodd" fill="url(#linear-gradient-2)"/>
    <path id="Path_4" data-name="Path 4" d="M188.29,61.68a20.65,20.65,0,0,1,10.34,11.47A20,20,0,0,1,198,88.53a20.831,20.831,0,0,1-2.61,4.21,20.51,20.51,0,0,1-7.48,5.8,21,21,0,0,1-4.49,1.44,20.419,20.419,0,0,1-3,.37,19.76,19.76,0,0,1-3.07-.09,20.291,20.291,0,0,1-3.06-.56,21.2,21.2,0,0,1-3-1h1.22a7.136,7.136,0,0,0,1.22-.07l1.21-.14,1.19-.2a22.79,22.79,0,0,0,4.9-1.58,22.17,22.17,0,0,0,11-10.9,21.18,21.18,0,0,0,1.84-6.35,21.631,21.631,0,0,0-.13-6.38,22.75,22.75,0,0,0-5.43-11.34Z" transform="translate(298 342.92)" fill="#528bc7" fill-rule="evenodd"/>
    <path id="Path_5" data-name="Path 5" d="M151.66,79.58l11.1-5.46a15.071,15.071,0,0,0,2.7,1.86,15.81,15.81,0,0,0,3,1.25,16.65,16.65,0,0,0,3.21.59,15.87,15.87,0,0,0,3.3-.1l1.18-.21c.39-.09.78-.19,1.16-.31s.77-.25,1.16-.39a11.4,11.4,0,0,0,1.13-.5,14.79,14.79,0,0,0,3.79-2.62,15.13,15.13,0,0,0,2.74-3.5,16,16,0,0,0,2.06-8.51h.08a22.82,22.82,0,0,1-2.95,12.23,21.64,21.64,0,0,1-9.39,8.81c-.54.26-1.09.5-1.64.72s-1.1.4-1.66.57-1.12.31-1.68.44-1.13.22-1.69.3a22.26,22.26,0,0,1-4.75.15,22.53,22.53,0,0,1-4.61-.9,21.92,21.92,0,0,1-4.34-1.79,22.829,22.829,0,0,1-3.9-2.63Z" transform="translate(298 342.92)" fill-rule="evenodd" fill="url(#linear-gradient-3)"/>
    <path id="Path_6" data-name="Path 6" d="M188.28,61.67a20.65,20.65,0,0,1,.77,15.44,20.35,20.35,0,0,1-3.86,6.7,20,20,0,0,1-6.37,4.87c-.49.24-1,.46-1.5.65s-1,.38-1.52.53-1,.29-1.54.4-1,.21-1.55.28a20,20,0,0,1-6.27-.1,20.711,20.711,0,0,1-5.89-2,20.36,20.36,0,0,1-8.89-8.91,22.83,22.83,0,0,0,3.9,2.67A21.92,21.92,0,0,0,159.9,84a22.53,22.53,0,0,0,4.62.85,22.26,22.26,0,0,0,4.75-.15c.56-.08,1.13-.18,1.69-.3s1.12-.27,1.68-.44,1.11-.36,1.66-.57,1.1-.46,1.64-.72a21.64,21.64,0,0,0,9.39-8.81,22.82,22.82,0,0,0,2.95-12.23Z" transform="translate(298 342.92)" fill="#6fb0b8" fill-rule="evenodd"/>
    <path id="Path_7" data-name="Path 7" d="M148.49,52.69a22.28,22.28,0,0,0,16.95,17.65c.56.13,1.13.24,1.7.32a16.149,16.149,0,0,0,1.69.18,15.693,15.693,0,0,0,1.68,0c.56-.06,1.11,0,1.66-.08a22.46,22.46,0,0,0,12.24-5.08,23.16,23.16,0,0,0,3.16-3.18l.31.42a20.35,20.35,0,0,1-2.7,5.49A20.76,20.76,0,0,1,176,75.83a20.09,20.09,0,0,1-5.81,1.41,15.4,15.4,0,0,1-1.54.08h-1.56a9.928,9.928,0,0,1-1.57-.17c-.52-.08-1.05-.18-1.58-.3a20.18,20.18,0,0,1-7.33-3.28A20.44,20.44,0,0,1,148.4,60.7a20.22,20.22,0,0,1,.09-8.01Z" transform="translate(298 342.92)" fill="#5ea453" fill-rule="evenodd"/>
    <path id="Path_8" data-name="Path 8" d="M148.49,52.69l12.06,2.75A15.437,15.437,0,0,0,172.31,67.7c.39.1.79.17,1.18.23a11.792,11.792,0,0,0,1.18.12h1.16a7.582,7.582,0,0,0,1.16-.06,15,15,0,0,0,3.26-.66,15.321,15.321,0,0,0,3-1.33,15.709,15.709,0,0,0,2.67-1.92,16.15,16.15,0,0,0,2.23-2.44h.09a23.18,23.18,0,0,1-7,6.28,22.36,22.36,0,0,1-4.34,1.91,21.3,21.3,0,0,1-4.7,1c-.55,0-1.1.08-1.66.08h-1.68a10.8,10.8,0,0,1-1.69-.19c-.56-.09-1.14-.19-1.7-.32a22.22,22.22,0,0,1-14.89-11.61,21.9,21.9,0,0,1-2.09-6.1Z" transform="translate(298 342.92)" fill-rule="evenodd" fill="url(#linear-gradient-4)"/>
    <path id="Path_9" data-name="Path 9" d="M188.24,61.67a1.323,1.323,0,0,1-.08.33l-.09.33-.09.32a1.042,1.042,0,0,1-.1.33l-.32-.42.17-.22.17-.22c.06-.08.12-.15.17-.23Z" transform="translate(298 342.92)" fill="#5ea453" fill-rule="evenodd"/>
    <path id="Path_10" data-name="Path 10" d="M161.41,31.05l8.09,9.34a15.45,15.45,0,0,0-.21,12.92,15.012,15.012,0,0,0,8.43,8.07,15.831,15.831,0,0,0,3.44.89,16.21,16.21,0,0,0,3.55.09,5.177,5.177,0,0,0,.87-.11c.29-.05.57-.08.86-.14s.57-.12.85-.19.56-.15.84-.24h.09c-.4.13-.8.24-1.21.35l-1.23.27c-.41.08-.82.15-1.24.21s-.83.11-1.24.14a23,23,0,0,1-5.11-.12,22.53,22.53,0,0,1-4.95-1.28,21.4,21.4,0,0,1-4.58-2.42,21,21,0,0,1-4-3.58,22.311,22.311,0,0,1-3.57-5.6,22.639,22.639,0,0,1-1.71-6.19,22.37,22.37,0,0,1,.12-6.33,21.85,21.85,0,0,1,1.91-6.08Z" transform="translate(298 342.92)" fill-rule="evenodd" fill="url(#linear-gradient-5)"/>
    <path id="Path_11" data-name="Path 11" d="M161.41,31.05a21.849,21.849,0,0,0-1.9,6.07,22.37,22.37,0,0,0-.12,6.33,22.639,22.639,0,0,0,1.71,6.19,22.31,22.31,0,0,0,3.57,5.6,21,21,0,0,0,4,3.58,21.4,21.4,0,0,0,4.58,2.42,22.53,22.53,0,0,0,4.95,1.28,23,23,0,0,0,5.11.12,8.718,8.718,0,0,0,1.24-.14c.41-.06.83-.13,1.24-.21L187,62c.41-.11.81-.22,1.21-.35a20.53,20.53,0,0,1-8.45,4.25,19.92,19.92,0,0,1-3.06.5,20.285,20.285,0,0,1-15.32-35.35Z" transform="translate(298 342.92)" fill="#bfce46" fill-rule="evenodd"/>
    <path id="Path_12" data-name="Path 12" d="M188.1,21.08V33.44a15.4,15.4,0,0,0-9.3,14.14,15,15,0,0,0,2.2,7.79,15.28,15.28,0,0,0,2.48,3.11,15.9,15.9,0,0,0,3.18,2.4l-.6-.35a22.72,22.72,0,0,1-8.15-7.91,22,22,0,0,1-2.32-5.3,21.379,21.379,0,0,1-.83-5.92,22.14,22.14,0,0,1,1-6.55,21.561,21.561,0,0,1,2.76-5.76,22,22,0,0,1,4.23-4.69,21.679,21.679,0,0,1,5.35-3.32Z" transform="translate(298 342.92)" fill-rule="evenodd" fill="url(#linear-gradient-6)"/>
    <path id="Path_13" data-name="Path 13" d="M188.1,21.08a21.68,21.68,0,0,0-5.4,3.32,22,22,0,0,0-4.23,4.69,21.56,21.56,0,0,0-2.76,5.76,22.14,22.14,0,0,0-1,6.55,21.37,21.37,0,0,0,1,6.54,22.06,22.06,0,0,0,2.82,5.74,23,23,0,0,0,9.73,8,20.76,20.76,0,0,1-7.8-1.68A21,21,0,0,1,174,55.64a20.44,20.44,0,0,1-4.35-6.41,19.9,19.9,0,0,1-1.6-7.84,20.28,20.28,0,0,1,20-20.31Z" transform="translate(298 342.92)" fill="#eadb3e" fill-rule="evenodd"/>
    <path id="Path_14" data-name="Path 14" d="M116.29,162.65h-20l-5.79-18.1H61.61l-5.73,18.1H36L65.64,81.32H87.36ZM86.34,130.5l-8.73-27.34a36.459,36.459,0,0,1-1.38-7.32h-.44a31.5,31.5,0,0,1-1.42,7.09L65.53,130.5Z" transform="translate(298 342.92)" fill-rule="evenodd" fill="url(#linear-gradient-7)"/>
    <path id="Path_15" data-name="Path 15" d="M170.69,162.65H118.56v-7.43l29.15-37.42H121.46V104.57h49v8.85l-27.63,36.01h27.86Z" transform="translate(298 342.92)" fill-rule="evenodd" fill="url(#linear-gradient-8)"/>
    <path id="Path_16" data-name="Path 16" d="M197.68,143a7.94,7.94,0,0,0,1.76,5.6,6.17,6.17,0,0,0,4.71,1.9,15.259,15.259,0,0,0,2.94-.29q1.5-.27,3-.57v12.61a63.929,63.929,0,0,1-6.83,1.37,49.422,49.422,0,0,1-7.51.55,17.07,17.07,0,0,1-6.51-1.19,13.78,13.78,0,0,1-5-3.44,15.61,15.61,0,0,1-3.2-5.4,21.44,21.44,0,0,1-1.14-7.17v-42.4h17.81Z" transform="translate(298 342.92)" fill-rule="evenodd" fill="url(#linear-gradient-9)"/>
    <path id="Path_17" data-name="Path 17" d="M213.79,161.12V146.6a38.519,38.519,0,0,0,8.83,4,29.11,29.11,0,0,0,8.31,1.3,17.77,17.77,0,0,0,7.51-1.3,4.2,4.2,0,0,0,2.75-4,3.66,3.66,0,0,0-1.24-2.84,11.19,11.19,0,0,0-3.22-2,36.5,36.5,0,0,0-4.27-1.53c-1.55-.46-3.05-1-4.48-1.53a46.721,46.721,0,0,1-6.1-2.8,17.66,17.66,0,0,1-4.43-3.51,13.55,13.55,0,0,1-2.71-4.59,17.86,17.86,0,0,1-1-6.17,16,16,0,0,1,2.13-8.41,17.19,17.19,0,0,1,5.67-5.74,26,26,0,0,1,8.12-3.3,42.82,42.82,0,0,1,9.5-1,50.889,50.889,0,0,1,7.82.6,57.488,57.488,0,0,1,7.83,1.72v13.84a28,28,0,0,0-7.28-3,30.84,30.84,0,0,0-7.63-1,15.781,15.781,0,0,0-3.31.31,10.13,10.13,0,0,0-2.77.9A4.9,4.9,0,0,0,232,118.1a3.49,3.49,0,0,0-.68,2.13,3.9,3.9,0,0,0,1,2.71,8.89,8.89,0,0,0,2.67,2,24.071,24.071,0,0,0,3.66,1.47l4,1.34a50.82,50.82,0,0,1,6.46,2.73,20.63,20.63,0,0,1,5,3.46,13.57,13.57,0,0,1,3.18,4.65,16.66,16.66,0,0,1,1.1,6.35,16.44,16.44,0,0,1-2.25,8.83,17.76,17.76,0,0,1-5.94,5.94,26.88,26.88,0,0,1-8.58,3.35,47.351,47.351,0,0,1-10.06,1,52.16,52.16,0,0,1-17.77-2.94Z" transform="translate(298 342.92)" fill-rule="evenodd" fill="url(#linear-gradient-10)"/>
    <path id="Path_18" data-name="Path 18" d="M303.82,162q-4,2.09-12,2.09-18.93,0-19-19.67V117.79h-9.41V104.57h9.41V92.05l17.87-5.12v17.64h13.05v13.22H290.77v23.47q0,9.09,7.2,9.08a12,12,0,0,0,5.85-1.65Z" transform="translate(298 342.92)" fill-rule="evenodd" fill="url(#linear-gradient-11)"/>
    <path id="Path_19" data-name="Path 19" d="M362.25,162.65h-17v-8.34h-.23q-5.83,9.75-17.29,9.76-8.47,0-13.32-4.79c-3.23-3.19-4.84-7.47-4.84-12.79q0-16.91,20-19.52l15.78-2.09q0-9.52-10.34-9.52a35.21,35.21,0,0,0-19.73,6.17V108a43.939,43.939,0,0,1,10.24-3.41,53.31,53.31,0,0,1,11.83-1.47q24.82,0,24.84,24.78v34.71Zm-16.84-23.6v-3.91l-10.55,1.36q-8.75,1.13-8.74,7.9a6.52,6.52,0,0,0,2.11,5,8.27,8.27,0,0,0,5.77,2,10.62,10.62,0,0,0,8.23-3.49,12.63,12.63,0,0,0,3.18-8.86Z" transform="translate(298 342.92)" fill-rule="evenodd" fill="url(#linear-gradient-12)"/>
    <path id="Path_20" data-name="Path 20" d="M227.56,52.21l-12,2.86a14.75,14.75,0,0,0-2.21-2.39,15.58,15.58,0,0,0-5.62-3.14,15,15,0,0,0-3.21-.62c-.39,0-.79-.05-1.19-.06s-.79,0-1.19,0a8.309,8.309,0,0,0-1.21.14c-.4.06-.81.14-1.21.23a15,15,0,0,0-6.81,3.65,15.459,15.459,0,0,0-2.43,2.92,16.31,16.31,0,0,0-1.66,3.41l.36-1a23.239,23.239,0,0,1,2.39-4.91,22.59,22.59,0,0,1,3.49-4.19,21.38,21.38,0,0,1,9.78-5.24c.58-.14,1.16-.25,1.74-.34s1.16-.15,1.73-.19,1.15-.06,1.72-.06a12.026,12.026,0,0,1,1.7.08,22.005,22.005,0,0,1,12.68,5.42,21.44,21.44,0,0,1,3.15,3.43Z" transform="translate(298 342.92)" fill-rule="evenodd" fill="url(#linear-gradient-13)"/>
    <path id="Path_21" data-name="Path 21" d="M209.65,37a20.3,20.3,0,0,1,17.91,15.24,21.441,21.441,0,0,0-3.16-3.43,22.005,22.005,0,0,0-12.68-5.42c-.56,0-1.13-.07-1.7-.08a14.2,14.2,0,0,0-1.72.06c-.58.06-1.15.1-1.73.19s-1.16.2-1.74.34a21.27,21.27,0,0,0-6.1,2.46,21.93,21.93,0,0,0-4.93,4.05,22.821,22.821,0,0,0-3.55,5.24,23.081,23.081,0,0,0-2,6.05,20.62,20.62,0,0,1,2.6-15.24,20.17,20.17,0,0,1,5.22-5.68,19.78,19.78,0,0,1,7.23-3.32c.53-.13,1.06-.23,1.6-.31s1.06-.14,1.59-.18,1.05,0,1.58,0A10.4,10.4,0,0,1,209.65,37Z" transform="translate(298 342.92)" fill="#c9562f" fill-rule="evenodd"/>
    <path id="Path_22" data-name="Path 22" d="M224.22,80.18l-11-5.63a15,15,0,0,0-.32-4.39,15.679,15.679,0,0,0-1.53-4.11,15.94,15.94,0,0,0-2.66-3.54,15.58,15.58,0,0,0-3.71-2.7q-.54-.27-1.08-.51c-.36-.15-.73-.29-1.1-.41s-.74-.24-1.11-.33-.75-.17-1.13-.23a14.66,14.66,0,0,0-2.8-.2,14.23,14.23,0,0,0-2.76.31,15.77,15.77,0,0,0-5.15,2l.82-.5a22.62,22.62,0,0,1,11.37-3.39,21.76,21.76,0,0,1,4,.29c.54.09,1.08.21,1.61.34s1.07.29,1.6.46,1.06.38,1.58.6,1,.47,1.55.74a21.95,21.95,0,0,1,9.14,9,22.23,22.23,0,0,1,2.66,12.2Z" transform="translate(298 342.92)" fill-rule="evenodd" fill="url(#linear-gradient-14)"/>
    <path id="Path_23" data-name="Path 23" d="M209.58,51.18c.5.08,1,.19,1.5.31s1,.27,1.48.43,1,.36,1.47.56a13.419,13.419,0,0,1,1.43.68,20.312,20.312,0,0,1,8.76,27.02A22.14,22.14,0,0,0,212.42,59c-.51-.27-1-.51-1.55-.74s-1.05-.42-1.58-.6-1.06-.33-1.6-.46-1.07-.25-1.61-.34a22.461,22.461,0,0,0-13.82,2.21,23,23,0,0,0-4,2.6A20.62,20.62,0,0,1,203.33,51.1,20.1,20.1,0,0,1,209.58,51.18Z" transform="translate(298 342.92)" fill="#c02c2f" fill-rule="evenodd"/>
    <path id="Path_24" data-name="Path 24" d="M211.75,28.68l-7.21,10-.83-.16a7.863,7.863,0,0,1-.83-.11l-.84-.07h-.84A15.46,15.46,0,0,0,194.32,40a15.66,15.66,0,0,0-3,2,16,16,0,0,0-2.54,2.76,14.69,14.69,0,0,0-1.87,3.51A14.881,14.881,0,0,0,186,52a15.92,15.92,0,0,0,1.1,7.48l-.39-1a23.161,23.161,0,0,1-1.44-5.29,22.331,22.331,0,0,1-.14-5.48,22.08,22.08,0,0,1,1.25-5.39,21.39,21.39,0,0,1,2.69-5,22.3,22.3,0,0,1,3.65-4,21.9,21.9,0,0,1,4.34-2.87,22.62,22.62,0,0,1,4.82-1.75,22.16,22.16,0,0,1,5.07-.59h1.2c.4,0,.8.05,1.2.09s.79.1,1.19.17S211.36,28.6,211.75,28.68Z" transform="translate(298 342.92)" fill-rule="evenodd" fill="url(#linear-gradient-15)"/>
    <path id="Path_25" data-name="Path 25" d="M200.14,25a20.32,20.32,0,0,1,3,.22,19.44,19.44,0,0,1,3,.68A20.708,20.708,0,0,1,209,27.07a21.109,21.109,0,0,1,2.74,1.61c-.39-.08-.79-.16-1.19-.22s-.79-.13-1.19-.17-.8-.07-1.2-.09-.8,0-1.2,0a22.16,22.16,0,0,0-5.07.59,22.621,22.621,0,0,0-4.82,1.75,21.9,21.9,0,0,0-4.34,2.87,22.3,22.3,0,0,0-3.65,4,21.449,21.449,0,0,0-3,5.88,21.67,21.67,0,0,0-1.06,6.3,22.641,22.641,0,0,0,.77,6.29,23.089,23.089,0,0,0,2.47,5.87,20.69,20.69,0,0,1-8-13.21,20.33,20.33,0,0,1,.2-7.73,19.92,19.92,0,0,1,3.27-7.28,20.42,20.42,0,0,1,3.36-3.63,19.93,19.93,0,0,1,4-2.64,20.769,20.769,0,0,1,4.43-1.6,20.33,20.33,0,0,1,4.62-.66Z" transform="translate(298 342.92)" fill="#d48a35" fill-rule="evenodd"/>
  </g>
</svg>
