<svg id="login-img-3" xmlns="http://www.w3.org/2000/svg" width="643.973" height="549.937" viewBox="0 0 643.973 549.937">
  <path id="Path_9909" data-name="Path 9909" d="M289.735,54.368c19.341-17.216,49.7-20.745,77.331-19.374C453.866,39.3,532.223,81.211,600,128.613c24.5,17.156,48.687,35.65,64.618,59.281,32.445,48.1,22.8,114.742-22.281,154.364C627,355.747,608.4,366.1,589.319,375.24c-33.941,16.3-70.564,29.372-109.087,33.107-27.472,2.649-55.282.5-82.589-3.2-76.3-10.362-151.2-33.246-213.97-72.392-27.532-17.169-53.481-38.517-64.83-66.293s-4.085-62.983,24.029-79.424c11.627-6.8,25.525-9.866,39.139-12.753,20.03-4.244,40.39-8.429,58.467-17.057,18.672-8.912,40.781-26.154,37.08-45.88C273.6,90.176,270.413,71.583,289.735,54.368Z" transform="translate(-113.715 -34.727)" fill="#6c63ff" opacity="0.1"/>
  <path id="Path_9910" data-name="Path 9910" d="M499.58,285.365v77.848a34.842,34.842,0,0,0,34.868,34.862H580.93a31.3,31.3,0,0,0,31.319-31.339v-81.37a56.335,56.335,0,0,0-112.67,0Z" transform="translate(-244.084 -100.374)" fill="#65617d"/>
  <path id="Path_9911" data-name="Path 9911" d="M499.58,285.365v77.848a34.842,34.842,0,0,0,34.868,34.862H580.93a31.3,31.3,0,0,0,31.319-31.339v-81.37a56.335,56.335,0,0,0-112.67,0Z" transform="translate(-244.084 -100.374)" opacity="0.1"/>
  <path id="Path_9912" data-name="Path 9912" d="M502.11,287.48v75.537a33.809,33.809,0,0,0,33.829,33.822h45.1a30.366,30.366,0,0,0,30.386-30.379V287.48a54.66,54.66,0,1,0-109.319,0Z" transform="translate(-244.939 -101.655)" fill="#65617d"/>
  <path id="Path_9913" data-name="Path 9913" d="M522.609,309.036V371.86a30.134,30.134,0,0,0,4.562,16.083c4.6,7.284,12.223,12.044,20.864,12.044h33.908c8.237,0,15.454-4.814,19.467-12.044a27.148,27.148,0,0,0,3.37-13.243V309.036c0-25.1-18.394-45.456-41.086-45.456A39.071,39.071,0,0,0,534.647,276.9,47.846,47.846,0,0,0,522.609,309.036Z" transform="translate(-251.864 -112.047)" opacity="0.1"/>
  <circle id="Ellipse_1267" data-name="Ellipse 1267" cx="6.217" cy="6.217" r="6.217" transform="translate(378.118 406.575)" fill="#333f4f"/>
  <circle id="Ellipse_1268" data-name="Ellipse 1268" cx="6.217" cy="6.217" r="6.217" transform="translate(366.994 430.902)" fill="#333f4f"/>
  <circle id="Ellipse_1269" data-name="Ellipse 1269" cx="6.217" cy="6.217" r="6.217" transform="translate(256.066 435.306)" fill="#333f4f"/>
  <circle id="Ellipse_1270" data-name="Ellipse 1270" cx="6.217" cy="6.217" r="6.217" transform="translate(231.282 403.569)" fill="#333f4f"/>
  <rect id="Rectangle_489" data-name="Rectangle 489" width="7.787" height="48.647" transform="translate(307.653 302.99)" fill="#333f4f"/>
  <rect id="Rectangle_490" data-name="Rectangle 490" width="7.787" height="7.879" transform="translate(307.653 343.765)" fill="#333f4f" opacity="0.1"/>
  <rect id="Rectangle_491" data-name="Rectangle 491" width="10.793" height="53.978" transform="translate(316.943 399.59) rotate(180)" fill="#333f4f"/>
  <path id="Path_9914" data-name="Path 9914" d="M468.652,636.2l70.657-2.893v11.349h-82a12.528,12.528,0,0,1,11.342-8.456Z" transform="translate(-229.802 -236.965)" fill="#333f4f"/>
  <path id="Path_9915" data-name="Path 9915" d="M651.813,636.2,581.15,633.31v11.349h82.006a12.528,12.528,0,0,0-11.342-8.456Z" transform="translate(-271.643 -236.965)" fill="#333f4f"/>
  <path id="Path_9916" data-name="Path 9916" d="M558.859,634.486l56.408,27.81a14.276,14.276,0,0,1,7.946,12.812v.841L557.33,647.225l-9.27-.662-54.785,34.981h0a14.289,14.289,0,0,1,5.9-13.567L548.06,633.36Z" transform="translate(-241.91 -236.982)" fill="#333f4f"/>
  <path id="Path_9917" data-name="Path 9917" d="M578.36,492.32v5.244q2.033.079,4.165.079c1.225,0,2.43,0,3.615-.06V492.32Z" transform="translate(-270.701 -189.33)" fill="#333f4f" opacity="0.1"/>
  <ellipse id="Ellipse_1271" data-name="Ellipse 1271" cx="28.73" cy="8.403" rx="28.73" ry="8.403" transform="translate(283.094 289.662)" fill="#333f4f"/>
  <path id="Path_9918" data-name="Path 9918" d="M541.64,480.589a3.417,3.417,0,0,0,1.225,2.43,7.7,7.7,0,0,0,.914.755c4.277,3.059,14.567,5.218,26.585,5.218s22.393-2.178,26.651-5.264a6.468,6.468,0,0,0,.609-.477A3.615,3.615,0,0,0,599.1,480.6c0-4.635-12.859-8.4-28.737-8.4S541.64,475.948,541.64,480.589Z" transform="translate(-258.294 -182.532)" fill="#333f4f"/>
  <path id="Path_9919" data-name="Path 9919" d="M541.64,480.589a3.417,3.417,0,0,0,1.225,2.43,7.7,7.7,0,0,0,.914.755c4.277,3.059,14.567,5.218,26.585,5.218s22.393-2.178,26.651-5.264a6.468,6.468,0,0,0,.609-.477A3.615,3.615,0,0,0,599.1,480.6c0-4.635-12.859-8.4-28.737-8.4S541.64,475.948,541.64,480.589Z" transform="translate(-258.294 -182.532)" fill="#333f4f" opacity="0.1"/>
  <path id="Path_9920" data-name="Path 9920" d="M541.27,480.589a3.41,3.41,0,0,0,1.225,2.43c3.662-.907,6.191-1.669,6.191-1.669s25.32,1.417,48.568,1.9a3.609,3.609,0,0,0,1.477-2.649c0-4.635-12.859-8.4-28.737-8.4S541.27,475.948,541.27,480.589Z" transform="translate(-258.169 -182.532)" fill="#333f4f" opacity="0.1"/>
  <path id="Path_9921" data-name="Path 9921" d="M511.27,458.65a33.769,33.769,0,0,0,27.763,14.488h45.1a30.359,30.359,0,0,0,25.9-14.488Z" transform="translate(-248.034 -177.954)" fill="#333f4f" opacity="0.1"/>
  <path id="Path_9922" data-name="Path 9922" d="M541.64,480.589a3.417,3.417,0,0,0,1.225,2.43,7.7,7.7,0,0,0,.914.755,432.8,432.8,0,0,0,53.236-.046,6.467,6.467,0,0,0,.609-.477A3.615,3.615,0,0,0,599.1,480.6c0-4.635-12.859-8.4-28.737-8.4S541.64,475.948,541.64,480.589Z" transform="translate(-258.294 -182.532)" fill="#333f4f" opacity="0.1"/>
  <path id="Path_9923" data-name="Path 9923" d="M498.745,475.919a435.337,435.337,0,0,0,109.107,0,7.634,7.634,0,0,0,7.668-7.634h0a7.634,7.634,0,0,0-7.635-7.634H498.745a7.634,7.634,0,0,0-7.634,7.634h0a7.634,7.634,0,0,0,7.634,7.634Z" transform="translate(-241.222 -178.63)" fill="#333f4f"/>
  <path id="Path_9924" data-name="Path 9924" d="M645.611,609.29s7.529,7.707,12.667,8.442,9.363,17.255,2.2,18.54-20.93-3.854-22.95-6.059-9.363-15.229-9.363-15.229Z" transform="translate(-287.529 -228.849)" fill="#65617d"/>
  <path id="Path_9925" data-name="Path 9925" d="M574.146,481.249s18.361,35.06,18.725,39.834,15.971,25,15.971,25l-19.46,24.565s-2.569-6.244-6.972-8.449-3.49-7.158-3.49-7.158-4.589,0-7.893-5.509-7.343-11.011-7.343-13.382S539.45,508.8,539.45,508.8l1.834-26.618,4.959-8.442Z" transform="translate(-257.554 -183.052)" fill="#3f3d56"/>
  <path id="Path_9926" data-name="Path 9926" d="M644.008,483.633l.159.139c2.225,1.986,27.194,24.115,27.194,24.638s8.992,15.421-2.2,28.273-36.9,33.961-36.9,33.961-11.2,8.078-12.667,9.733-23.678,0-10.462-15.057,25.7-31.942,25.7-31.942-22.029-5.3-23.493-8.992,29-49.568,29-49.568Z" transform="translate(-279.683 -183.417)" opacity="0.1"/>
  <path id="Path_9927" data-name="Path 9927" d="M632.832,483.633l.159.139c2.225,1.986,27.194,24.115,27.194,24.638s8.992,15.421-2.2,28.273-36.9,33.961-36.9,33.961-11.2,8.078-12.667,9.733-23.685,0-10.462-15.057,25.7-31.942,25.7-31.942-22.029-5.3-23.5-8.992-30.458-48.654-30.458-48.654l59.48-.914Z" transform="translate(-267.771 -183.417)" fill="#3f3d56"/>
  <path id="Path_9928" data-name="Path 9928" d="M569.12,327.056l2.2,20.01s22.579,9,23.135,8.813,15.05-13.243,12.667-21.851a76.68,76.68,0,0,1-1.986-15.229c-.238-4.906-.205-8.641-.205-8.641s-32.862-11.753-29.922-3.675c1.066,2.933.583,6.449-.464,9.733A45.333,45.333,0,0,1,569.12,327.056Z" transform="translate(-267.579 -125.585)" fill="#fbbebe"/>
  <path id="Path_9929" data-name="Path 9929" d="M577.29,316.19c.2.232.4.45.609.662a22.016,22.016,0,0,0,29.982,1.907c-.252-4.86-.205-8.641-.205-8.641s-32.862-11.753-29.922-3.675C578.82,309.39,578.336,312.906,577.29,316.19Z" transform="translate(-270.339 -125.571)" opacity="0.1"/>
  <path id="Path_9930" data-name="Path 9930" d="M569.12,288.439a21.89,21.89,0,1,0,6.41-15.618A22.023,22.023,0,0,0,569.12,288.439Z" transform="translate(-267.578 -113.003)" fill="#fbbebe"/>
  <path id="Path_9931" data-name="Path 9931" d="M596.01,360.583s8.608-19.123,11.568-19.123,7.535,98.917,7.535,98.917l-44.972.7L568.3,389.147l9.171-46.005S585.727,361.291,596.01,360.583Z" transform="translate(-267.302 -138.36)" opacity="0.1"/>
  <path id="Path_9932" data-name="Path 9932" d="M593.858,362.8s8.608-19.123,11.568-19.123,7.535,98.91,7.535,98.91l-51.031.775,4.218-52,9.184-46.039S583.575,363.511,593.858,362.8Z" transform="translate(-265.15 -139.11)" opacity="0.1"/>
  <path id="Path_9933" data-name="Path 9933" d="M593.858,361.693s8.608-19.123,11.568-19.123,7.535,98.943,7.535,98.943l-51.031.775,4.218-52,9.184-46.039S583.575,362.4,593.858,361.693Z" transform="translate(-265.15 -138.735)" fill="#65617d"/>
  <path id="Path_9934" data-name="Path 9934" d="M622.79,332.625s1.543-2.258,3.748-1.523,3.854-1.285,6.059.735,11.011,4.774,12.667,3.854,7.522,3.125,8.813,5.509,5.5,8.813,5.5,8.813,3.675,4.4,3.125,6.794,1.285,5.138,3.483,6.237,6.621,12.117,6.621,12.117-1.2,14.739,3.754,17.3,1.285,13.772,1.285,13.772l-23.413-5.555-6.621-15.057s2.569,44.065,5.688,48.1,3.489,6.621,3.489,6.621-12.117,2.569-14.686,4.767-9.363-.55-9.363-.55L626.319,386s-2.384-11.018-2.384-16.706S622.79,332.625,622.79,332.625Z" transform="translate(-285.712 -134.795)" opacity="0.1"/>
  <path id="Path_9935" data-name="Path 9935" d="M623.9,332.625s1.543-2.258,3.748-1.523,3.854-1.285,6.059.735,11.011,4.774,12.667,3.854,7.522,3.125,8.806,5.509,5.509,8.813,5.509,8.813,3.675,4.4,3.125,6.794,1.285,5.138,3.483,6.237,6.621,12.117,6.621,12.117-1.185,14.733,3.774,17.3c1.238.662,1.94,2.073,2.291,3.86a11.534,11.534,0,0,1-11.806,13.547L655.6,404.652l-6.621-19.03s2.569,44.065,5.688,48.1,3.489,6.621,3.489,6.621-12.117,2.569-14.686,4.767-9.363-.55-9.363-.55L627.482,386s-2.384-11.018-2.384-16.706S623.9,332.625,623.9,332.625Z" transform="translate(-286.087 -134.795)" fill="#00bfa6"/>
  <path id="Path_9936" data-name="Path 9936" d="M680.021,381.66s-2.2,6.059-8.263,5.509S680.021,381.66,680.021,381.66Z" transform="translate(-301.751 -151.942)" opacity="0.1"/>
  <path id="Path_9937" data-name="Path 9937" d="M673.225,367.8s-4.039.735-5.509,4.218S673.225,367.8,673.225,367.8Z" transform="translate(-300.822 -147.259)" opacity="0.1"/>
  <path id="Path_9938" data-name="Path 9938" d="M658.416,358.37c0,.735-2.576,13.587,0,18.911a26.471,26.471,0,0,1,2.2,11.568Z" transform="translate(-297.362 -144.073)" opacity="0.1"/>
  <path id="Path_9939" data-name="Path 9939" d="M557.734,326.046s-1.437-1.688-2.907-1.5-2.384,1.1-4.224,1.834-6.237.92-6.237,1.47-3.86,2.755-6.429,3.311-10.647,6.059-12.667,16.706-5.509,13.766-5.509,13.766l19.46,9.561s-15.05,63.883-16.885,68.472-1.986,31.783-1.986,31.783,11.919,5.3,15.05,6.972,1.834-15.785,8.263-25.883,13.766-24.784,13.766-24.784l11.164-31.4s7.164-41.854,1.106-49.568S557.184,328.814,557.734,326.046Z" transform="translate(-250.902 -132.639)" opacity="0.1"/>
  <path id="Path_9940" data-name="Path 9940" d="M556.637,326.046s-1.437-1.688-2.907-1.5-2.384,1.1-4.224,1.834-6.237.92-6.237,1.47-3.854,2.755-6.429,3.311-10.66,6.052-12.647,16.7-5.5,13.766-5.5,13.766L538.1,371.19s-15.05,63.883-16.885,68.472-1.986,31.783-1.986,31.783,11.919,5.3,15.05,6.972,1.834-15.852,8.257-25.923S556.3,427.711,556.3,427.711l11.2-31.359s7.164-41.854,1.106-49.568S556.088,328.814,556.637,326.046Z" transform="translate(-250.54 -132.639)" fill="#00bfa6"/>
  <path id="Path_9941" data-name="Path 9941" d="M514.44,421.117c.543.086,1.238.172,2.039.245,5.88.536,17.421.662,17.421.662s8.608-17.077,15.971-16.553c0,0-6.794-7.707-9.541-6.787-.464.152-.755-.185-.894-.848-.735-3.311,1.808-14.567,1.808-14.567l3.49-15.229-20.2,4.953c-1.834.371-7.529,3.311-7.529,3.311s-.179,7.893-1.649,9.733-3.119,10.647-2.94,12.845-2.019,12.488.185,15.229S509.884,420.382,514.44,421.117Z" transform="translate(-248.151 -147.34)" opacity="0.1"/>
  <path id="Path_9942" data-name="Path 9942" d="M618.554,624s1.106,6.059-.179,9.932-1.106,12.3-.185,15.229,4.039,6.972-4.4,8.806-14.137.185-14.507-1.285-2.2-7.343-.735-10.647,1.986-11.919-.735-16.891-.914-12.667,1.655-13.58,6.979-2.94,6.979-2.94-4.774,8.608-.371,10.468S618.554,624,618.554,624Z" transform="translate(-276.814 -229.974)" fill="#65617d"/>
  <path id="Path_9943" data-name="Path 9943" d="M569.113,288.447a21.891,21.891,0,0,0,6.019,15.123.774.774,0,0,0,.053-.106,9.641,9.641,0,0,0,1.225-4.377c-.06-1.847-1.126-3.516-1.47-5.343-.43-2.3.324-4.635,1.066-6.873.543-1.629,1.6-3.609,3.311-3.41a3.814,3.814,0,0,0,1.013.119c.907-.139,1.093-1.324,1.2-2.238a10.164,10.164,0,0,1,8.3-8.714,2.569,2.569,0,0,1,1.45.1c.662.285.987.973,1.563,1.371,1.861,1.291,4.231-1.179,6.5-.987,1.927.159,3.1,2.125,3.893,3.887s1.781,3.768,3.668,4.178a1.159,1.159,0,0,0,.894-.1c.583-.43.179-1.324-.119-1.986a4.052,4.052,0,0,1,.662-4.377A22.023,22.023,0,0,0,569.1,288.46Z" transform="translate(-267.572 -113.011)" opacity="0.1"/>
  <path id="Path_9944" data-name="Path 9944" d="M600.069,268.264c.3.662.708,1.576.113,1.986a1.112,1.112,0,0,1-.887.1c-1.887-.4-2.88-2.417-3.675-4.178s-1.986-3.728-3.887-3.887c-2.265-.192-4.635,2.278-6.5.987-.569-.4-.92-1.086-1.556-1.371a2.569,2.569,0,0,0-1.45-.093,10.164,10.164,0,0,0-8.3,8.707c-.093.907-.285,2.1-1.192,2.238a3.786,3.786,0,0,1-1.013-.119c-1.708-.2-2.754,1.775-3.311,3.4-.742,2.231-1.5,4.575-1.066,6.88.344,1.827,1.41,3.5,1.47,5.35a10.136,10.136,0,0,1-1.225,4.37c-.629,1.391-1.669,3.019-3.178,2.821-1.245-.159-1.927-1.477-2.523-2.582s-1.669-2.284-2.874-1.94c-.543.159-1.1.616-1.589.338a1.159,1.159,0,0,1-.464-.8c-.589-2.562.258-5.449-.993-7.767-.96-1.781-2.907-2.748-4.489-4.013a12.859,12.859,0,0,1-1.741-18.407c1.7-1.986,4.132-3.734,4.271-6.337.1-1.986-1.238-3.807-1.251-5.794a6.982,6.982,0,0,1,2.649-4.973,17.1,17.1,0,0,1,15.375-4.052,12.265,12.265,0,0,0,4.3.7c1.688-.212,3.092-1.324,4.635-2.106a11.786,11.786,0,0,1,14.706,3.973c1.735,2.708,2.417,6.237,5.012,8.138,1.7,1.245,4.152,1.715,5.092,3.6a6.439,6.439,0,0,1,.232,3.734,8.74,8.74,0,0,1-2.794,5.35C600.367,264.159,599.01,265.874,600.069,268.264Z" transform="translate(-259.985 -102.932)" fill="#512e4e"/>
  <g id="Group_3305" data-name="Group 3305" transform="translate(286.855 145.951)" opacity="0.1">
    <path id="Path_9945" data-name="Path 9945" d="M556.371,256.68a9.791,9.791,0,0,1-.391-1.53A9.6,9.6,0,0,1,556.371,256.68Z" transform="translate(-549.994 -255.15)"/>
    <path id="Path_9946" data-name="Path 9946" d="M626.393,274.993a5.961,5.961,0,0,0-.364-.98c-1.059-2.4.3-4.105,1.88-5.708a8.76,8.76,0,0,0,2.788-5.35,13.235,13.235,0,0,0,.159-1.7,3.627,3.627,0,0,1,.344.53,6.439,6.439,0,0,1,.232,3.734,8.74,8.74,0,0,1-2.794,5.35C627.432,272.112,626.359,273.4,626.393,274.993Z" transform="translate(-573.534 -257.214)"/>
    <path id="Path_9947" data-name="Path 9947" d="M563.446,313.158c1.205-.351,2.278.841,2.874,1.94s1.278,2.423,2.523,2.582c1.51.192,2.549-1.437,3.178-2.821a10.02,10.02,0,0,0,1.225-4.37,5.166,5.166,0,0,0-.053-.55,9.93,9.93,0,0,1,.788,3.119,10.136,10.136,0,0,1-1.225,4.37c-.629,1.391-1.669,3.019-3.178,2.821-1.245-.159-1.927-1.477-2.523-2.582s-1.669-2.284-2.874-1.94c-.543.159-1.1.616-1.589.338a1.159,1.159,0,0,1-.463-.8,10.181,10.181,0,0,1-.219-1.748C562.387,313.727,562.93,313.29,563.446,313.158Z" transform="translate(-551.998 -273.661)"/>
    <path id="Path_9948" data-name="Path 9948" d="M550.853,293.617c1.583,1.265,3.536,2.231,4.5,4.013a6.37,6.37,0,0,1,.662,2.483c-.973-1.722-2.88-2.682-4.436-3.926a12.971,12.971,0,0,1-4.635-7.846A12.886,12.886,0,0,0,550.853,293.617Z" transform="translate(-546.94 -266.364)"/>
    <path id="Path_9949" data-name="Path 9949" d="M577.441,294.15a14.406,14.406,0,0,1-.7-2.265c-.43-2.3.324-4.635,1.066-6.88.543-1.629,1.6-3.6,3.311-3.4a3.813,3.813,0,0,0,1.013.119c.907-.139,1.1-1.324,1.192-2.245a10.177,10.177,0,0,1,8.3-8.7,2.51,2.51,0,0,1,1.45.093c.662.285.987.973,1.556,1.371,1.867,1.324,4.238-1.179,6.5-.987,1.92.159,3.1,2.125,3.893,3.887s1.788,3.768,3.668,4.178a1.112,1.112,0,0,0,.887-.1.715.715,0,0,0,.291-.55,4.339,4.339,0,0,0,.331,1.119c.3.662.709,1.576.113,1.986a1.112,1.112,0,0,1-.887.1c-1.887-.4-2.88-2.417-3.675-4.178s-1.986-3.728-3.887-3.887c-2.264-.192-4.635,2.278-6.5.987-.569-.4-.92-1.086-1.556-1.371a2.569,2.569,0,0,0-1.45-.093,10.164,10.164,0,0,0-8.3,8.707c-.093.907-.285,2.1-1.192,2.238a3.787,3.787,0,0,1-1.013-.119c-1.708-.2-2.755,1.775-3.311,3.4C577.838,289.707,577.13,291.945,577.441,294.15Z" transform="translate(-556.968 -260.407)"/>
  </g>
  <path id="Path_9950" data-name="Path 9950" d="M519,436.566c5.88.536,17.421.662,17.421.662s8.608-17.077,15.971-16.553c0,0-6.794-7.707-9.541-6.787-.464.152-.755-.185-.894-.848-7.191,2.2-20.9,7.568-22.241,17C519.331,432.606,519.1,434.752,519,436.566Z" transform="translate(-250.645 -162.544)" opacity="0.1"/>
  <path id="Path_9951" data-name="Path 9951" d="M517.85,436.566c5.88.536,17.421.662,17.421.662s8.608-17.077,15.971-16.553c0,0-6.787-7.707-9.541-6.787-.464.152-.748-.185-.894-.848-7.191,2.2-20.9,7.568-22.241,17C518.208,432.606,517.982,434.752,517.85,436.566Z" transform="translate(-250.257 -162.544)" fill="#6c63ff"/>
  <path id="Path_9952" data-name="Path 9952" d="M585.884,521.508s-16.553-4.039-19.089-1.834S585.884,521.508,585.884,521.508Z" transform="translate(-266.723 -198.349)" opacity="0.1"/>
  <path id="Path_9953" data-name="Path 9953" d="M663.3,546.63s-6.972,4.039-7.707,7.343S663.3,546.63,663.3,546.63Z" transform="translate(-296.781 -207.679)" opacity="0.1"/>
  <path id="Path_9954" data-name="Path 9954" d="M618.859,658.684s-9.548-1.47-11.991.119S618.859,658.684,618.859,658.684Z" transform="translate(-280.238 -245.328)" opacity="0.1"/>
  <path id="Path_9955" data-name="Path 9955" d="M481.07,788.5s37-1.986,46.019-7.284,21.784-5.3,21.851-5.3l147.326-32.14,61.248-14.567,10.925-1.437-36.087-41.291-1.1-.477L678.056,663s-23.837,1.324-28.545,16.858a18.653,18.653,0,0,0-.662,3.35A19.421,19.421,0,0,0,652.61,696.8c1.88,2.576,4.191,6.217,4.92,9.435a5.581,5.581,0,0,1-.662,4.767,38.861,38.861,0,0,1-6.542,5.224c-12.971,8.608-45.76,22.791-103.042,1.066,0,0-24.5-24.168-43.039-13.9S481.07,788.5,481.07,788.5Z" transform="translate(-237.83 -246.996)" fill="#e1dee5"/>
  <path id="Path_9956" data-name="Path 9956" d="M743.063,706.264a5.581,5.581,0,0,1-.662,4.767,38.864,38.864,0,0,1-6.542,5.224l111.517,8.323-30.564-38.57L763.616,663s-23.837,1.324-28.545,16.858a18.653,18.653,0,0,0-.662,3.35A19.421,19.421,0,0,0,738.17,696.8C740.024,699.418,742.335,703.046,743.063,706.264Z" transform="translate(-323.39 -246.996)" opacity="0.1"/>
  <path id="Path_9957" data-name="Path 9957" d="M751.735,464.31,660.36,466.3V575.675l86.74,58.8,20.857-19.2-4.3-63.565,4.3-59.261Z" transform="translate(-223.113 -156.87)" fill="#65617d"/>
  <path id="Path_9958" data-name="Path 9958" d="M749.525,454.876,642.842,422.028a16.023,16.023,0,0,0-5.959-.662L382.025,439.972a120.324,120.324,0,0,0-60.692,21.407c-16.494,11.634-32.829,29.492-40.39,56.527a107.929,107.929,0,0,0,1.145,60.791l22.48,72.835S287.684,493.28,456.2,485.335Z" transform="translate(-168.926 -165.341)" fill="#d9d6df"/>
  <path id="Path_9959" data-name="Path 9959" d="M738.13,705.444c1.88,2.576,4.191,6.217,4.92,9.435,2.887-3.344,3.509-7.118-.662-10.131-5.224-3.8-6.966-10.4-7.356-16.249a18.66,18.66,0,0,0-.662,3.35A19.421,19.421,0,0,0,738.13,705.444Z" transform="translate(-323.376 -255.611)" fill="#fff" opacity="0.1"/>
  <path id="Path_9960" data-name="Path 9960" d="M336.07,671.57l12.581,42.708,28.472,27.81,35.755,7.284,55.62-9.932V541.79s-9.6-6.29-10.594-6.29-27.81,4.3-27.81,4.3l-60.718,43.549-2.516,1.808-27.148,40.391Z" transform="translate(-188.84 -203.919)" fill="#65617d"/>
  <path id="Path_9961" data-name="Path 9961" d="M419.623,497.81V703.735l-5.363.96V497.81Z" transform="translate(-139.966 -168.188)" fill="#65617d"/>
  <path id="Path_9962" data-name="Path 9962" d="M751.735,464.31,660.36,466.3V575.675l86.74,58.8,20.857-19.2-4.3-63.565,4.3-59.261Z" transform="translate(-223.113 -156.87)" opacity="0.1"/>
  <path id="Path_9963" data-name="Path 9963" d="M419.623,497.81V703.735l-5.363.96V497.81Z" transform="translate(-139.966 -168.188)" opacity="0.1"/>
  <path id="Path_9964" data-name="Path 9964" d="M384.57,597.105c39.728-32.643,83.893-37.444,100.314-38.04V541.79s-9.6-6.29-10.594-6.29-27.81,4.3-27.81,4.3l-60.718,43.549Z" transform="translate(-205.226 -203.919)" opacity="0.1"/>
  <path id="Path_9965" data-name="Path 9965" d="M1002.073,562.822s-4.1,10.833-8.5,23.446c-3.893,11.21-8.025,23.837-9.714,31.511a22.987,22.987,0,0,1-4.675,8.919c-10.72,13.607-35.424,26.79-39.689,31.471-5.2,5.708-34.431,9.82-34.431,9.82V492.33l19.533-6.29h24.83l32.114,14.567,16.553,24.5Z" transform="translate(-381.083 -187.208)" fill="#65617d"/>
  <path id="Path_9966" data-name="Path 9966" d="M536.963,437.4c1.285,1.563,40.3,1.927,42.317,1.47l3.668-.828s18.831,10.137,31.783-6.449c.556-.708,1.1-1.463,1.629-2.271,12.945-19.732-30.2-5.3-30.2-5.3s-16.52.093-20.745.093h-.437c-4.39-.179-13.143-2.841-13.143-2.841S535.685,435.84,536.963,437.4Z" transform="translate(-256.69 -164.533)" fill="#fbbebe"/>
  <path id="Path_9967" data-name="Path 9967" d="M606.349,431.45s16.52.093,20.745.139h.1c.556-.708,1.1-1.463,1.629-2.271,12.945-19.732-30.2-5.3-30.2-5.3s-16.52.093-20.745.093h-.437c-.417.543-.828,1.112-1.232,1.715C563.038,445.388,606.349,431.45,606.349,431.45Z" transform="translate(-269.131 -164.533)" opacity="0.1"/>
  <path id="Path_9968" data-name="Path 9968" d="M640.63,430.2s-9.33-2.953-13.554-3-20.745-.132-20.745-.132-43.3,13.9-30.141-5.661,33.511-8.35,33.511-8.35l3.675-.788c2.026-.437,41.053.364,42.3,1.94S640.63,430.2,640.63,430.2Z" transform="translate(-269.127 -161.469)" fill="#fbbebe"/>
  <path id="Path_9969" data-name="Path 9969" d="M692.033,416.545s-.265,12.733-9.091,13.461c-18.54,1.516-13.825-5.648-13.825-5.648l1.6-14.262,8.734-7.906s3.834,1.761,4.33,1.463S692.033,416.545,692.033,416.545Z" transform="translate(-301.183 -158.878)" fill="#6c63ff"/>
  <path id="Path_9970" data-name="Path 9970" d="M513.323,421.117c.543.086,1.238.172,2.039.245,5.88.536,17.421.662,17.421.662s8.608-17.077,15.971-16.553c0,0-6.787-7.707-9.541-6.787-.464.152-.748-.185-.894-.848-.728-3.311,1.808-14.567,1.808-14.567l3.49-15.229-20.209,4.979c-1.834.371-7.522,3.311-7.522,3.311s-.185,7.893-1.655,9.733-3.119,10.647-2.94,12.845-2.019,12.488.185,15.229S508.734,420.382,513.323,421.117Z" transform="translate(-247.769 -147.34)" fill="#00bfa6"/>
  <path id="Path_9971" data-name="Path 9971" d="M537.1,387.76s-16.885,1.834-17.62,6.059S537.1,387.76,537.1,387.76Z" transform="translate(-250.8 -154.003)" opacity="0.1"/>
  <path id="Path_9972" data-name="Path 9972" d="M526.3,412.71c-1.1.371-7.522,2.02-8.806,5.88S526.3,412.71,526.3,412.71Z" transform="translate(-250.098 -162.432)" opacity="0.1"/>
  <path id="Path_9973" data-name="Path 9973" d="M519,437.6c5.88.536,17.421.662,17.421.662s8.608-17.077,15.971-16.553c0,0-6.794-7.707-9.541-6.787-.464.152-.755-.185-.894-.848-7.191,2.2-20.9,7.568-22.241,17C519.331,433.636,519.1,435.782,519,437.6Z" transform="translate(-250.645 -162.892)" opacity="0.1"/>
  <path id="Path_9974" data-name="Path 9974" d="M698.532,351.32v73.451c0,1.265-.662,1.443-1.781,2.059a24.615,24.615,0,0,1-23.923-.079c-1.132-.6-1.828-.8-1.828-2.079v-72.9S685,357.438,698.532,351.32Z" transform="translate(-302 -141.691)" fill="#333f4f"/>
  <ellipse id="Ellipse_1272" data-name="Ellipse 1272" cx="13.766" cy="2.927" rx="13.766" ry="2.927" transform="translate(369 206.656)" fill="#2d394a" stroke="#40868e" stroke-miterlimit="10" stroke-width="1"/>
  <g id="Group_3306" data-name="Group 3306" transform="translate(369.94 239.822)" opacity="0.8">
    <circle id="Ellipse_1273" data-name="Ellipse 1273" cx="0.311" cy="0.311" r="0.311" transform="translate(25.022)"/>
    <circle id="Ellipse_1274" data-name="Ellipse 1274" cx="0.311" cy="0.311" r="0.311" transform="translate(23.46 0.437)"/>
    <circle id="Ellipse_1275" data-name="Ellipse 1275" cx="0.311" cy="0.311" r="0.311" transform="translate(21.52 1.053)"/>
    <circle id="Ellipse_1276" data-name="Ellipse 1276" cx="0.311" cy="0.311" r="0.311" transform="translate(18.043 1.801)"/>
    <circle id="Ellipse_1277" data-name="Ellipse 1277" cx="0.311" cy="0.311" r="0.311" transform="translate(14.382 2.245)"/>
    <circle id="Ellipse_1278" data-name="Ellipse 1278" cx="0.311" cy="0.311" r="0.311" transform="translate(10.594 2.423)"/>
    <circle id="Ellipse_1279" data-name="Ellipse 1279" cx="0.311" cy="0.311" r="0.311" transform="translate(5.145 1.675)"/>
    <circle id="Ellipse_1280" data-name="Ellipse 1280" cx="0.311" cy="0.311" r="0.311" transform="translate(6.952 2.112)"/>
    <circle id="Ellipse_1281" data-name="Ellipse 1281" cx="0.311" cy="0.311" r="0.311" transform="translate(1.781 1.053)"/>
    <circle id="Ellipse_1282" data-name="Ellipse 1282" cx="0.311" cy="0.311" r="0.311" transform="translate(3.403 1.364)"/>
    <circle id="Ellipse_1283" data-name="Ellipse 1283" cx="0.311" cy="0.311" r="0.311" transform="translate(0 0.437)"/>
    <circle id="Ellipse_1284" data-name="Ellipse 1284" cx="0.311" cy="0.311" r="0.311" transform="translate(19.745 1.496)"/>
    <circle id="Ellipse_1285" data-name="Ellipse 1285" cx="0.311" cy="0.311" r="0.311" transform="translate(16.163 2.112)"/>
    <circle id="Ellipse_1286" data-name="Ellipse 1286" cx="0.311" cy="0.311" r="0.311" transform="translate(12.276 2.423)"/>
    <circle id="Ellipse_1287" data-name="Ellipse 1287" cx="0.311" cy="0.311" r="0.311" transform="translate(8.734 2.423)"/>
  </g>
  <g id="Group_3307" data-name="Group 3307" transform="translate(369.94 241.339)" opacity="0.8">
    <circle id="Ellipse_1288" data-name="Ellipse 1288" cx="0.311" cy="0.311" r="0.311" transform="translate(25.022)"/>
    <circle id="Ellipse_1289" data-name="Ellipse 1289" cx="0.311" cy="0.311" r="0.311" transform="translate(23.46 0.444)"/>
    <circle id="Ellipse_1290" data-name="Ellipse 1290" cx="0.311" cy="0.311" r="0.311" transform="translate(21.52 1.059)"/>
    <circle id="Ellipse_1291" data-name="Ellipse 1291" cx="0.311" cy="0.311" r="0.311" transform="translate(18.043 1.808)"/>
    <circle id="Ellipse_1292" data-name="Ellipse 1292" cx="0.311" cy="0.311" r="0.311" transform="translate(14.382 2.251)"/>
    <circle id="Ellipse_1293" data-name="Ellipse 1293" cx="0.311" cy="0.311" r="0.311" transform="translate(10.594 2.423)"/>
    <circle id="Ellipse_1294" data-name="Ellipse 1294" cx="0.311" cy="0.311" r="0.311" transform="translate(5.145 1.675)"/>
    <circle id="Ellipse_1295" data-name="Ellipse 1295" cx="0.311" cy="0.311" r="0.311" transform="translate(6.952 2.119)"/>
    <circle id="Ellipse_1296" data-name="Ellipse 1296" cx="0.311" cy="0.311" r="0.311" transform="translate(1.781 1.059)"/>
    <circle id="Ellipse_1297" data-name="Ellipse 1297" cx="0.311" cy="0.311" r="0.311" transform="translate(3.403 1.371)"/>
    <circle id="Ellipse_1298" data-name="Ellipse 1298" cx="0.311" cy="0.311" r="0.311" transform="translate(0 0.444)"/>
    <circle id="Ellipse_1299" data-name="Ellipse 1299" cx="0.311" cy="0.311" r="0.311" transform="translate(19.745 1.496)"/>
    <circle id="Ellipse_1300" data-name="Ellipse 1300" cx="0.311" cy="0.311" r="0.311" transform="translate(16.163 2.119)"/>
    <circle id="Ellipse_1301" data-name="Ellipse 1301" cx="0.311" cy="0.311" r="0.311" transform="translate(12.276 2.423)"/>
    <circle id="Ellipse_1302" data-name="Ellipse 1302" cx="0.311" cy="0.311" r="0.311" transform="translate(8.734 2.423)"/>
  </g>
  <g id="Group_3308" data-name="Group 3308" transform="translate(369.94 242.862)" opacity="0.8">
    <circle id="Ellipse_1303" data-name="Ellipse 1303" cx="0.311" cy="0.311" r="0.311" transform="translate(25.022)"/>
    <circle id="Ellipse_1304" data-name="Ellipse 1304" cx="0.311" cy="0.311" r="0.311" transform="translate(23.46 0.437)"/>
    <circle id="Ellipse_1305" data-name="Ellipse 1305" cx="0.311" cy="0.311" r="0.311" transform="translate(21.52 1.053)"/>
    <circle id="Ellipse_1306" data-name="Ellipse 1306" cx="0.311" cy="0.311" r="0.311" transform="translate(18.043 1.801)"/>
    <circle id="Ellipse_1307" data-name="Ellipse 1307" cx="0.311" cy="0.311" r="0.311" transform="translate(14.382 2.245)"/>
    <circle id="Ellipse_1308" data-name="Ellipse 1308" cx="0.311" cy="0.311" r="0.311" transform="translate(10.594 2.423)"/>
    <circle id="Ellipse_1309" data-name="Ellipse 1309" cx="0.311" cy="0.311" r="0.311" transform="translate(5.145 1.675)"/>
    <circle id="Ellipse_1310" data-name="Ellipse 1310" cx="0.311" cy="0.311" r="0.311" transform="translate(6.952 2.112)"/>
    <circle id="Ellipse_1311" data-name="Ellipse 1311" cx="0.311" cy="0.311" r="0.311" transform="translate(1.781 1.053)"/>
    <circle id="Ellipse_1312" data-name="Ellipse 1312" cx="0.311" cy="0.311" r="0.311" transform="translate(3.403 1.364)"/>
    <circle id="Ellipse_1313" data-name="Ellipse 1313" cx="0.311" cy="0.311" r="0.311" transform="translate(0 0.437)"/>
    <circle id="Ellipse_1314" data-name="Ellipse 1314" cx="0.311" cy="0.311" r="0.311" transform="translate(19.745 1.496)"/>
    <circle id="Ellipse_1315" data-name="Ellipse 1315" cx="0.311" cy="0.311" r="0.311" transform="translate(16.163 2.112)"/>
    <circle id="Ellipse_1316" data-name="Ellipse 1316" cx="0.311" cy="0.311" r="0.311" transform="translate(12.276 2.423)"/>
    <circle id="Ellipse_1317" data-name="Ellipse 1317" cx="0.311" cy="0.311" r="0.311" transform="translate(8.734 2.423)"/>
  </g>
  <g id="Group_3309" data-name="Group 3309" transform="translate(369.94 244.384)" opacity="0.8">
    <circle id="Ellipse_1318" data-name="Ellipse 1318" cx="0.311" cy="0.311" r="0.311" transform="translate(25.022)"/>
    <circle id="Ellipse_1319" data-name="Ellipse 1319" cx="0.311" cy="0.311" r="0.311" transform="translate(23.46 0.437)"/>
    <circle id="Ellipse_1320" data-name="Ellipse 1320" cx="0.311" cy="0.311" r="0.311" transform="translate(21.52 1.053)"/>
    <circle id="Ellipse_1321" data-name="Ellipse 1321" cx="0.311" cy="0.311" r="0.311" transform="translate(18.043 1.801)"/>
    <circle id="Ellipse_1322" data-name="Ellipse 1322" cx="0.311" cy="0.311" r="0.311" transform="translate(14.382 2.245)"/>
    <circle id="Ellipse_1323" data-name="Ellipse 1323" cx="0.311" cy="0.311" r="0.311" transform="translate(10.594 2.417)"/>
    <circle id="Ellipse_1324" data-name="Ellipse 1324" cx="0.311" cy="0.311" r="0.311" transform="translate(5.145 1.669)"/>
    <circle id="Ellipse_1325" data-name="Ellipse 1325" cx="0.311" cy="0.311" r="0.311" transform="translate(6.952 2.112)"/>
    <circle id="Ellipse_1326" data-name="Ellipse 1326" cx="0.311" cy="0.311" r="0.311" transform="translate(1.781 1.053)"/>
    <circle id="Ellipse_1327" data-name="Ellipse 1327" cx="0.311" cy="0.311" r="0.311" transform="translate(3.403 1.364)"/>
    <circle id="Ellipse_1328" data-name="Ellipse 1328" cx="0.311" cy="0.311" r="0.311" transform="translate(0 0.437)"/>
    <circle id="Ellipse_1329" data-name="Ellipse 1329" cx="0.311" cy="0.311" r="0.311" transform="translate(19.745 1.49)"/>
    <circle id="Ellipse_1330" data-name="Ellipse 1330" cx="0.311" cy="0.311" r="0.311" transform="translate(16.163 2.112)"/>
    <circle id="Ellipse_1331" data-name="Ellipse 1331" cx="0.311" cy="0.311" r="0.311" transform="translate(12.276 2.417)"/>
    <circle id="Ellipse_1332" data-name="Ellipse 1332" cx="0.311" cy="0.311" r="0.311" transform="translate(8.734 2.417)"/>
  </g>
  <g id="Group_3310" data-name="Group 3310" transform="translate(369.94 245.901)" opacity="0.8">
    <circle id="Ellipse_1333" data-name="Ellipse 1333" cx="0.311" cy="0.311" r="0.311" transform="translate(25.022)"/>
    <circle id="Ellipse_1334" data-name="Ellipse 1334" cx="0.311" cy="0.311" r="0.311" transform="translate(23.46 0.437)"/>
    <circle id="Ellipse_1335" data-name="Ellipse 1335" cx="0.311" cy="0.311" r="0.311" transform="translate(21.52 1.059)"/>
    <circle id="Ellipse_1336" data-name="Ellipse 1336" cx="0.311" cy="0.311" r="0.311" transform="translate(18.043 1.808)"/>
    <circle id="Ellipse_1337" data-name="Ellipse 1337" cx="0.311" cy="0.311" r="0.311" transform="translate(14.382 2.251)"/>
    <circle id="Ellipse_1338" data-name="Ellipse 1338" cx="0.311" cy="0.311" r="0.311" transform="translate(10.594 2.423)"/>
    <circle id="Ellipse_1339" data-name="Ellipse 1339" cx="0.311" cy="0.311" r="0.311" transform="translate(5.145 1.675)"/>
    <circle id="Ellipse_1340" data-name="Ellipse 1340" cx="0.311" cy="0.311" r="0.311" transform="translate(6.952 2.112)"/>
    <circle id="Ellipse_1341" data-name="Ellipse 1341" cx="0.311" cy="0.311" r="0.311" transform="translate(1.781 1.059)"/>
    <circle id="Ellipse_1342" data-name="Ellipse 1342" cx="0.311" cy="0.311" r="0.311" transform="translate(3.403 1.364)"/>
    <circle id="Ellipse_1343" data-name="Ellipse 1343" cx="0.311" cy="0.311" r="0.311" transform="translate(0 0.437)"/>
    <circle id="Ellipse_1344" data-name="Ellipse 1344" cx="0.311" cy="0.311" r="0.311" transform="translate(19.745 1.496)"/>
    <circle id="Ellipse_1345" data-name="Ellipse 1345" cx="0.311" cy="0.311" r="0.311" transform="translate(16.163 2.112)"/>
    <circle id="Ellipse_1346" data-name="Ellipse 1346" cx="0.311" cy="0.311" r="0.311" transform="translate(12.276 2.423)"/>
    <circle id="Ellipse_1347" data-name="Ellipse 1347" cx="0.311" cy="0.311" r="0.311" transform="translate(8.734 2.423)"/>
  </g>
  <g id="Group_3311" data-name="Group 3311" transform="translate(369.94 247.424)" opacity="0.8">
    <circle id="Ellipse_1348" data-name="Ellipse 1348" cx="0.311" cy="0.311" r="0.311" transform="translate(25.022)"/>
    <circle id="Ellipse_1349" data-name="Ellipse 1349" cx="0.311" cy="0.311" r="0.311" transform="translate(23.46 0.437)"/>
    <circle id="Ellipse_1350" data-name="Ellipse 1350" cx="0.311" cy="0.311" r="0.311" transform="translate(21.52 1.053)"/>
    <circle id="Ellipse_1351" data-name="Ellipse 1351" cx="0.311" cy="0.311" r="0.311" transform="translate(18.043 1.801)"/>
    <circle id="Ellipse_1352" data-name="Ellipse 1352" cx="0.311" cy="0.311" r="0.311" transform="translate(14.382 2.245)"/>
    <circle id="Ellipse_1353" data-name="Ellipse 1353" cx="0.311" cy="0.311" r="0.311" transform="translate(10.594 2.417)"/>
    <circle id="Ellipse_1354" data-name="Ellipse 1354" cx="0.311" cy="0.311" r="0.311" transform="translate(5.145 1.669)"/>
    <circle id="Ellipse_1355" data-name="Ellipse 1355" cx="0.311" cy="0.311" r="0.311" transform="translate(6.952 2.112)"/>
    <circle id="Ellipse_1356" data-name="Ellipse 1356" cx="0.311" cy="0.311" r="0.311" transform="translate(1.781 1.053)"/>
    <circle id="Ellipse_1357" data-name="Ellipse 1357" cx="0.311" cy="0.311" r="0.311" transform="translate(3.403 1.364)"/>
    <circle id="Ellipse_1358" data-name="Ellipse 1358" cx="0.311" cy="0.311" r="0.311" transform="translate(0 0.437)"/>
    <circle id="Ellipse_1359" data-name="Ellipse 1359" cx="0.311" cy="0.311" r="0.311" transform="translate(19.745 1.49)"/>
    <circle id="Ellipse_1360" data-name="Ellipse 1360" cx="0.311" cy="0.311" r="0.311" transform="translate(16.163 2.112)"/>
    <circle id="Ellipse_1361" data-name="Ellipse 1361" cx="0.311" cy="0.311" r="0.311" transform="translate(12.276 2.417)"/>
    <circle id="Ellipse_1362" data-name="Ellipse 1362" cx="0.311" cy="0.311" r="0.311" transform="translate(8.734 2.417)"/>
  </g>
  <g id="Group_3312" data-name="Group 3312" transform="translate(369.94 248.94)" opacity="0.8">
    <circle id="Ellipse_1363" data-name="Ellipse 1363" cx="0.311" cy="0.311" r="0.311" transform="translate(25.022)"/>
    <circle id="Ellipse_1364" data-name="Ellipse 1364" cx="0.311" cy="0.311" r="0.311" transform="translate(23.46 0.437)"/>
    <circle id="Ellipse_1365" data-name="Ellipse 1365" cx="0.311" cy="0.311" r="0.311" transform="translate(21.52 1.059)"/>
    <circle id="Ellipse_1366" data-name="Ellipse 1366" cx="0.311" cy="0.311" r="0.311" transform="translate(18.043 1.808)"/>
    <circle id="Ellipse_1367" data-name="Ellipse 1367" cx="0.311" cy="0.311" r="0.311" transform="translate(14.382 2.251)"/>
    <circle id="Ellipse_1368" data-name="Ellipse 1368" cx="0.311" cy="0.311" r="0.311" transform="translate(10.594 2.423)"/>
    <circle id="Ellipse_1369" data-name="Ellipse 1369" cx="0.311" cy="0.311" r="0.311" transform="translate(5.145 1.675)"/>
    <circle id="Ellipse_1370" data-name="Ellipse 1370" cx="0.311" cy="0.311" r="0.311" transform="translate(6.952 2.112)"/>
    <circle id="Ellipse_1371" data-name="Ellipse 1371" cx="0.311" cy="0.311" r="0.311" transform="translate(1.781 1.059)"/>
    <circle id="Ellipse_1372" data-name="Ellipse 1372" cx="0.311" cy="0.311" r="0.311" transform="translate(3.403 1.364)"/>
    <circle id="Ellipse_1373" data-name="Ellipse 1373" cx="0.311" cy="0.311" r="0.311" transform="translate(0 0.437)"/>
    <circle id="Ellipse_1374" data-name="Ellipse 1374" cx="0.311" cy="0.311" r="0.311" transform="translate(19.745 1.496)"/>
    <circle id="Ellipse_1375" data-name="Ellipse 1375" cx="0.311" cy="0.311" r="0.311" transform="translate(16.163 2.112)"/>
    <circle id="Ellipse_1376" data-name="Ellipse 1376" cx="0.311" cy="0.311" r="0.311" transform="translate(12.276 2.423)"/>
    <circle id="Ellipse_1377" data-name="Ellipse 1377" cx="0.311" cy="0.311" r="0.311" transform="translate(8.734 2.423)"/>
  </g>
  <g id="Group_3313" data-name="Group 3313" transform="translate(369.94 250.463)" opacity="0.8">
    <circle id="Ellipse_1378" data-name="Ellipse 1378" cx="0.311" cy="0.311" r="0.311" transform="translate(25.022)"/>
    <circle id="Ellipse_1379" data-name="Ellipse 1379" cx="0.311" cy="0.311" r="0.311" transform="translate(23.46 0.437)"/>
    <circle id="Ellipse_1380" data-name="Ellipse 1380" cx="0.311" cy="0.311" r="0.311" transform="translate(21.52 1.053)"/>
    <circle id="Ellipse_1381" data-name="Ellipse 1381" cx="0.311" cy="0.311" r="0.311" transform="translate(18.043 1.801)"/>
    <circle id="Ellipse_1382" data-name="Ellipse 1382" cx="0.311" cy="0.311" r="0.311" transform="translate(14.382 2.245)"/>
    <circle id="Ellipse_1383" data-name="Ellipse 1383" cx="0.311" cy="0.311" r="0.311" transform="translate(10.594 2.423)"/>
    <circle id="Ellipse_1384" data-name="Ellipse 1384" cx="0.311" cy="0.311" r="0.311" transform="translate(5.145 1.675)"/>
    <circle id="Ellipse_1385" data-name="Ellipse 1385" cx="0.311" cy="0.311" r="0.311" transform="translate(6.952 2.112)"/>
    <circle id="Ellipse_1386" data-name="Ellipse 1386" cx="0.311" cy="0.311" r="0.311" transform="translate(1.781 1.053)"/>
    <circle id="Ellipse_1387" data-name="Ellipse 1387" cx="0.311" cy="0.311" r="0.311" transform="translate(3.403 1.364)"/>
    <circle id="Ellipse_1388" data-name="Ellipse 1388" cx="0.311" cy="0.311" r="0.311" transform="translate(0 0.437)"/>
    <circle id="Ellipse_1389" data-name="Ellipse 1389" cx="0.311" cy="0.311" r="0.311" transform="translate(19.745 1.496)"/>
    <circle id="Ellipse_1390" data-name="Ellipse 1390" cx="0.311" cy="0.311" r="0.311" transform="translate(16.163 2.112)"/>
    <circle id="Ellipse_1391" data-name="Ellipse 1391" cx="0.311" cy="0.311" r="0.311" transform="translate(12.276 2.423)"/>
    <circle id="Ellipse_1392" data-name="Ellipse 1392" cx="0.311" cy="0.311" r="0.311" transform="translate(8.734 2.423)"/>
  </g>
  <g id="Group_3314" data-name="Group 3314" transform="translate(369.94 251.979)" opacity="0.8">
    <circle id="Ellipse_1393" data-name="Ellipse 1393" cx="0.311" cy="0.311" r="0.311" transform="translate(25.022)"/>
    <circle id="Ellipse_1394" data-name="Ellipse 1394" cx="0.311" cy="0.311" r="0.311" transform="translate(23.46 0.437)"/>
    <circle id="Ellipse_1395" data-name="Ellipse 1395" cx="0.311" cy="0.311" r="0.311" transform="translate(21.52 1.059)"/>
    <circle id="Ellipse_1396" data-name="Ellipse 1396" cx="0.311" cy="0.311" r="0.311" transform="translate(18.043 1.808)"/>
    <circle id="Ellipse_1397" data-name="Ellipse 1397" cx="0.311" cy="0.311" r="0.311" transform="translate(14.382 2.251)"/>
    <circle id="Ellipse_1398" data-name="Ellipse 1398" cx="0.311" cy="0.311" r="0.311" transform="translate(10.594 2.423)"/>
    <circle id="Ellipse_1399" data-name="Ellipse 1399" cx="0.311" cy="0.311" r="0.311" transform="translate(5.145 1.675)"/>
    <circle id="Ellipse_1400" data-name="Ellipse 1400" cx="0.311" cy="0.311" r="0.311" transform="translate(6.952 2.112)"/>
    <circle id="Ellipse_1401" data-name="Ellipse 1401" cx="0.311" cy="0.311" r="0.311" transform="translate(1.781 1.059)"/>
    <circle id="Ellipse_1402" data-name="Ellipse 1402" cx="0.311" cy="0.311" r="0.311" transform="translate(3.403 1.364)"/>
    <circle id="Ellipse_1403" data-name="Ellipse 1403" cx="0.311" cy="0.311" r="0.311" transform="translate(0 0.437)"/>
    <circle id="Ellipse_1404" data-name="Ellipse 1404" cx="0.311" cy="0.311" r="0.311" transform="translate(19.745 1.496)"/>
    <circle id="Ellipse_1405" data-name="Ellipse 1405" cx="0.311" cy="0.311" r="0.311" transform="translate(16.163 2.112)"/>
    <circle id="Ellipse_1406" data-name="Ellipse 1406" cx="0.311" cy="0.311" r="0.311" transform="translate(12.276 2.423)"/>
    <circle id="Ellipse_1407" data-name="Ellipse 1407" cx="0.311" cy="0.311" r="0.311" transform="translate(8.734 2.423)"/>
  </g>
  <g id="Group_3315" data-name="Group 3315" transform="translate(369.94 253.502)" opacity="0.8">
    <circle id="Ellipse_1408" data-name="Ellipse 1408" cx="0.311" cy="0.311" r="0.311" transform="translate(25.022)"/>
    <circle id="Ellipse_1409" data-name="Ellipse 1409" cx="0.311" cy="0.311" r="0.311" transform="translate(23.46 0.437)"/>
    <circle id="Ellipse_1410" data-name="Ellipse 1410" cx="0.311" cy="0.311" r="0.311" transform="translate(21.52 1.053)"/>
    <circle id="Ellipse_1411" data-name="Ellipse 1411" cx="0.311" cy="0.311" r="0.311" transform="translate(18.043 1.801)"/>
    <circle id="Ellipse_1412" data-name="Ellipse 1412" cx="0.311" cy="0.311" r="0.311" transform="translate(14.382 2.245)"/>
    <circle id="Ellipse_1413" data-name="Ellipse 1413" cx="0.311" cy="0.311" r="0.311" transform="translate(10.594 2.423)"/>
    <circle id="Ellipse_1414" data-name="Ellipse 1414" cx="0.311" cy="0.311" r="0.311" transform="translate(5.145 1.675)"/>
    <circle id="Ellipse_1415" data-name="Ellipse 1415" cx="0.311" cy="0.311" r="0.311" transform="translate(6.952 2.112)"/>
    <circle id="Ellipse_1416" data-name="Ellipse 1416" cx="0.311" cy="0.311" r="0.311" transform="translate(1.781 1.053)"/>
    <circle id="Ellipse_1417" data-name="Ellipse 1417" cx="0.311" cy="0.311" r="0.311" transform="translate(3.403 1.364)"/>
    <circle id="Ellipse_1418" data-name="Ellipse 1418" cx="0.311" cy="0.311" r="0.311" transform="translate(0 0.437)"/>
    <circle id="Ellipse_1419" data-name="Ellipse 1419" cx="0.311" cy="0.311" r="0.311" transform="translate(19.745 1.496)"/>
    <circle id="Ellipse_1420" data-name="Ellipse 1420" cx="0.311" cy="0.311" r="0.311" transform="translate(16.163 2.112)"/>
    <circle id="Ellipse_1421" data-name="Ellipse 1421" cx="0.311" cy="0.311" r="0.311" transform="translate(12.276 2.423)"/>
    <circle id="Ellipse_1422" data-name="Ellipse 1422" cx="0.311" cy="0.311" r="0.311" transform="translate(8.734 2.423)"/>
  </g>
  <g id="Group_3316" data-name="Group 3316" transform="translate(369.94 255.018)" opacity="0.8">
    <circle id="Ellipse_1423" data-name="Ellipse 1423" cx="0.311" cy="0.311" r="0.311" transform="translate(25.022)"/>
    <circle id="Ellipse_1424" data-name="Ellipse 1424" cx="0.311" cy="0.311" r="0.311" transform="translate(23.46 0.444)"/>
    <circle id="Ellipse_1425" data-name="Ellipse 1425" cx="0.311" cy="0.311" r="0.311" transform="translate(21.52 1.059)"/>
    <circle id="Ellipse_1426" data-name="Ellipse 1426" cx="0.311" cy="0.311" r="0.311" transform="translate(18.043 1.808)"/>
    <circle id="Ellipse_1427" data-name="Ellipse 1427" cx="0.311" cy="0.311" r="0.311" transform="translate(14.382 2.251)"/>
    <circle id="Ellipse_1428" data-name="Ellipse 1428" cx="0.311" cy="0.311" r="0.311" transform="translate(10.594 2.423)"/>
    <circle id="Ellipse_1429" data-name="Ellipse 1429" cx="0.311" cy="0.311" r="0.311" transform="translate(5.145 1.675)"/>
    <circle id="Ellipse_1430" data-name="Ellipse 1430" cx="0.311" cy="0.311" r="0.311" transform="translate(6.952 2.119)"/>
    <circle id="Ellipse_1431" data-name="Ellipse 1431" cx="0.311" cy="0.311" r="0.311" transform="translate(1.781 1.059)"/>
    <circle id="Ellipse_1432" data-name="Ellipse 1432" cx="0.311" cy="0.311" r="0.311" transform="translate(3.403 1.371)"/>
    <circle id="Ellipse_1433" data-name="Ellipse 1433" cx="0.311" cy="0.311" r="0.311" transform="translate(0 0.444)"/>
    <circle id="Ellipse_1434" data-name="Ellipse 1434" cx="0.311" cy="0.311" r="0.311" transform="translate(19.745 1.496)"/>
    <circle id="Ellipse_1435" data-name="Ellipse 1435" cx="0.311" cy="0.311" r="0.311" transform="translate(16.163 2.119)"/>
    <circle id="Ellipse_1436" data-name="Ellipse 1436" cx="0.311" cy="0.311" r="0.311" transform="translate(12.276 2.423)"/>
    <circle id="Ellipse_1437" data-name="Ellipse 1437" cx="0.311" cy="0.311" r="0.311" transform="translate(8.734 2.423)"/>
  </g>
  <g id="Group_3317" data-name="Group 3317" transform="translate(369.94 256.541)" opacity="0.8">
    <circle id="Ellipse_1438" data-name="Ellipse 1438" cx="0.311" cy="0.311" r="0.311" transform="translate(25.022)"/>
    <circle id="Ellipse_1439" data-name="Ellipse 1439" cx="0.311" cy="0.311" r="0.311" transform="translate(23.46 0.437)"/>
    <circle id="Ellipse_1440" data-name="Ellipse 1440" cx="0.311" cy="0.311" r="0.311" transform="translate(21.52 1.053)"/>
    <circle id="Ellipse_1441" data-name="Ellipse 1441" cx="0.311" cy="0.311" r="0.311" transform="translate(18.043 1.801)"/>
    <circle id="Ellipse_1442" data-name="Ellipse 1442" cx="0.311" cy="0.311" r="0.311" transform="translate(14.382 2.245)"/>
    <circle id="Ellipse_1443" data-name="Ellipse 1443" cx="0.311" cy="0.311" r="0.311" transform="translate(10.594 2.423)"/>
    <circle id="Ellipse_1444" data-name="Ellipse 1444" cx="0.311" cy="0.311" r="0.311" transform="translate(5.145 1.675)"/>
    <circle id="Ellipse_1445" data-name="Ellipse 1445" cx="0.311" cy="0.311" r="0.311" transform="translate(6.952 2.112)"/>
    <circle id="Ellipse_1446" data-name="Ellipse 1446" cx="0.311" cy="0.311" r="0.311" transform="translate(1.781 1.053)"/>
    <circle id="Ellipse_1447" data-name="Ellipse 1447" cx="0.311" cy="0.311" r="0.311" transform="translate(3.403 1.364)"/>
    <circle id="Ellipse_1448" data-name="Ellipse 1448" cx="0.311" cy="0.311" r="0.311" transform="translate(0 0.437)"/>
    <circle id="Ellipse_1449" data-name="Ellipse 1449" cx="0.311" cy="0.311" r="0.311" transform="translate(19.745 1.496)"/>
    <circle id="Ellipse_1450" data-name="Ellipse 1450" cx="0.311" cy="0.311" r="0.311" transform="translate(16.163 2.112)"/>
    <circle id="Ellipse_1451" data-name="Ellipse 1451" cx="0.311" cy="0.311" r="0.311" transform="translate(12.276 2.423)"/>
    <circle id="Ellipse_1452" data-name="Ellipse 1452" cx="0.311" cy="0.311" r="0.311" transform="translate(8.734 2.423)"/>
  </g>
  <g id="Group_3318" data-name="Group 3318" transform="translate(369.94 258.064)" opacity="0.8">
    <circle id="Ellipse_1453" data-name="Ellipse 1453" cx="0.311" cy="0.311" r="0.311" transform="translate(25.022)"/>
    <circle id="Ellipse_1454" data-name="Ellipse 1454" cx="0.311" cy="0.311" r="0.311" transform="translate(23.46 0.437)"/>
    <circle id="Ellipse_1455" data-name="Ellipse 1455" cx="0.311" cy="0.311" r="0.311" transform="translate(21.52 1.053)"/>
    <circle id="Ellipse_1456" data-name="Ellipse 1456" cx="0.311" cy="0.311" r="0.311" transform="translate(18.043 1.801)"/>
    <circle id="Ellipse_1457" data-name="Ellipse 1457" cx="0.311" cy="0.311" r="0.311" transform="translate(14.382 2.245)"/>
    <circle id="Ellipse_1458" data-name="Ellipse 1458" cx="0.311" cy="0.311" r="0.311" transform="translate(10.594 2.417)"/>
    <circle id="Ellipse_1459" data-name="Ellipse 1459" cx="0.311" cy="0.311" r="0.311" transform="translate(5.145 1.669)"/>
    <circle id="Ellipse_1460" data-name="Ellipse 1460" cx="0.311" cy="0.311" r="0.311" transform="translate(6.952 2.112)"/>
    <circle id="Ellipse_1461" data-name="Ellipse 1461" cx="0.311" cy="0.311" r="0.311" transform="translate(1.781 1.053)"/>
    <circle id="Ellipse_1462" data-name="Ellipse 1462" cx="0.311" cy="0.311" r="0.311" transform="translate(3.403 1.364)"/>
    <circle id="Ellipse_1463" data-name="Ellipse 1463" cx="0.311" cy="0.311" r="0.311" transform="translate(0 0.437)"/>
    <circle id="Ellipse_1464" data-name="Ellipse 1464" cx="0.311" cy="0.311" r="0.311" transform="translate(19.745 1.49)"/>
    <circle id="Ellipse_1465" data-name="Ellipse 1465" cx="0.311" cy="0.311" r="0.311" transform="translate(16.163 2.112)"/>
    <circle id="Ellipse_1466" data-name="Ellipse 1466" cx="0.311" cy="0.311" r="0.311" transform="translate(12.276 2.417)"/>
    <circle id="Ellipse_1467" data-name="Ellipse 1467" cx="0.311" cy="0.311" r="0.311" transform="translate(8.734 2.417)"/>
  </g>
  <g id="Group_3319" data-name="Group 3319" transform="translate(369.94 259.581)" opacity="0.8">
    <circle id="Ellipse_1468" data-name="Ellipse 1468" cx="0.311" cy="0.311" r="0.311" transform="translate(25.022)"/>
    <circle id="Ellipse_1469" data-name="Ellipse 1469" cx="0.311" cy="0.311" r="0.311" transform="translate(23.46 0.437)"/>
    <circle id="Ellipse_1470" data-name="Ellipse 1470" cx="0.311" cy="0.311" r="0.311" transform="translate(21.52 1.059)"/>
    <circle id="Ellipse_1471" data-name="Ellipse 1471" cx="0.311" cy="0.311" r="0.311" transform="translate(18.043 1.808)"/>
    <circle id="Ellipse_1472" data-name="Ellipse 1472" cx="0.311" cy="0.311" r="0.311" transform="translate(14.382 2.251)"/>
    <circle id="Ellipse_1473" data-name="Ellipse 1473" cx="0.311" cy="0.311" r="0.311" transform="translate(10.594 2.423)"/>
    <circle id="Ellipse_1474" data-name="Ellipse 1474" cx="0.311" cy="0.311" r="0.311" transform="translate(5.145 1.675)"/>
    <circle id="Ellipse_1475" data-name="Ellipse 1475" cx="0.311" cy="0.311" r="0.311" transform="translate(6.952 2.112)"/>
    <circle id="Ellipse_1476" data-name="Ellipse 1476" cx="0.311" cy="0.311" r="0.311" transform="translate(1.781 1.059)"/>
    <circle id="Ellipse_1477" data-name="Ellipse 1477" cx="0.311" cy="0.311" r="0.311" transform="translate(3.403 1.364)"/>
    <circle id="Ellipse_1478" data-name="Ellipse 1478" cx="0.311" cy="0.311" r="0.311" transform="translate(0 0.437)"/>
    <circle id="Ellipse_1479" data-name="Ellipse 1479" cx="0.311" cy="0.311" r="0.311" transform="translate(19.745 1.496)"/>
    <circle id="Ellipse_1480" data-name="Ellipse 1480" cx="0.311" cy="0.311" r="0.311" transform="translate(16.163 2.112)"/>
    <circle id="Ellipse_1481" data-name="Ellipse 1481" cx="0.311" cy="0.311" r="0.311" transform="translate(12.276 2.423)"/>
    <circle id="Ellipse_1482" data-name="Ellipse 1482" cx="0.311" cy="0.311" r="0.311" transform="translate(8.734 2.423)"/>
  </g>
  <g id="Group_3320" data-name="Group 3320" transform="translate(369.94 261.103)" opacity="0.8">
    <circle id="Ellipse_1483" data-name="Ellipse 1483" cx="0.311" cy="0.311" r="0.311" transform="translate(25.022)"/>
    <circle id="Ellipse_1484" data-name="Ellipse 1484" cx="0.311" cy="0.311" r="0.311" transform="translate(23.46 0.437)"/>
    <circle id="Ellipse_1485" data-name="Ellipse 1485" cx="0.311" cy="0.311" r="0.311" transform="translate(21.52 1.053)"/>
    <circle id="Ellipse_1486" data-name="Ellipse 1486" cx="0.311" cy="0.311" r="0.311" transform="translate(18.043 1.801)"/>
    <circle id="Ellipse_1487" data-name="Ellipse 1487" cx="0.311" cy="0.311" r="0.311" transform="translate(14.382 2.245)"/>
    <circle id="Ellipse_1488" data-name="Ellipse 1488" cx="0.311" cy="0.311" r="0.311" transform="translate(10.594 2.417)"/>
    <circle id="Ellipse_1489" data-name="Ellipse 1489" cx="0.311" cy="0.311" r="0.311" transform="translate(5.145 1.669)"/>
    <circle id="Ellipse_1490" data-name="Ellipse 1490" cx="0.311" cy="0.311" r="0.311" transform="translate(6.952 2.112)"/>
    <circle id="Ellipse_1491" data-name="Ellipse 1491" cx="0.311" cy="0.311" r="0.311" transform="translate(1.781 1.053)"/>
    <circle id="Ellipse_1492" data-name="Ellipse 1492" cx="0.311" cy="0.311" r="0.311" transform="translate(3.403 1.364)"/>
    <circle id="Ellipse_1493" data-name="Ellipse 1493" cx="0.311" cy="0.311" r="0.311" transform="translate(0 0.437)"/>
    <circle id="Ellipse_1494" data-name="Ellipse 1494" cx="0.311" cy="0.311" r="0.311" transform="translate(19.745 1.49)"/>
    <circle id="Ellipse_1495" data-name="Ellipse 1495" cx="0.311" cy="0.311" r="0.311" transform="translate(16.163 2.112)"/>
    <circle id="Ellipse_1496" data-name="Ellipse 1496" cx="0.311" cy="0.311" r="0.311" transform="translate(12.276 2.417)"/>
    <circle id="Ellipse_1497" data-name="Ellipse 1497" cx="0.311" cy="0.311" r="0.311" transform="translate(8.734 2.417)"/>
  </g>
  <g id="Group_3321" data-name="Group 3321" transform="translate(369.94 262.62)" opacity="0.8">
    <circle id="Ellipse_1498" data-name="Ellipse 1498" cx="0.311" cy="0.311" r="0.311" transform="translate(25.022)"/>
    <circle id="Ellipse_1499" data-name="Ellipse 1499" cx="0.311" cy="0.311" r="0.311" transform="translate(23.46 0.437)"/>
    <circle id="Ellipse_1500" data-name="Ellipse 1500" cx="0.311" cy="0.311" r="0.311" transform="translate(21.52 1.059)"/>
    <circle id="Ellipse_1501" data-name="Ellipse 1501" cx="0.311" cy="0.311" r="0.311" transform="translate(18.043 1.808)"/>
    <circle id="Ellipse_1502" data-name="Ellipse 1502" cx="0.311" cy="0.311" r="0.311" transform="translate(14.382 2.251)"/>
    <circle id="Ellipse_1503" data-name="Ellipse 1503" cx="0.311" cy="0.311" r="0.311" transform="translate(10.594 2.423)"/>
    <circle id="Ellipse_1504" data-name="Ellipse 1504" cx="0.311" cy="0.311" r="0.311" transform="translate(5.145 1.675)"/>
    <circle id="Ellipse_1505" data-name="Ellipse 1505" cx="0.311" cy="0.311" r="0.311" transform="translate(6.952 2.112)"/>
    <circle id="Ellipse_1506" data-name="Ellipse 1506" cx="0.311" cy="0.311" r="0.311" transform="translate(1.781 1.059)"/>
    <circle id="Ellipse_1507" data-name="Ellipse 1507" cx="0.311" cy="0.311" r="0.311" transform="translate(3.403 1.364)"/>
    <circle id="Ellipse_1508" data-name="Ellipse 1508" cx="0.311" cy="0.311" r="0.311" transform="translate(0 0.437)"/>
    <circle id="Ellipse_1509" data-name="Ellipse 1509" cx="0.311" cy="0.311" r="0.311" transform="translate(19.745 1.496)"/>
    <circle id="Ellipse_1510" data-name="Ellipse 1510" cx="0.311" cy="0.311" r="0.311" transform="translate(16.163 2.112)"/>
    <circle id="Ellipse_1511" data-name="Ellipse 1511" cx="0.311" cy="0.311" r="0.311" transform="translate(12.276 2.423)"/>
    <circle id="Ellipse_1512" data-name="Ellipse 1512" cx="0.311" cy="0.311" r="0.311" transform="translate(8.734 2.423)"/>
  </g>
  <g id="Group_3322" data-name="Group 3322" transform="translate(369.94 264.143)" opacity="0.8">
    <circle id="Ellipse_1513" data-name="Ellipse 1513" cx="0.311" cy="0.311" r="0.311" transform="translate(25.022)"/>
    <circle id="Ellipse_1514" data-name="Ellipse 1514" cx="0.311" cy="0.311" r="0.311" transform="translate(23.46 0.437)"/>
    <circle id="Ellipse_1515" data-name="Ellipse 1515" cx="0.311" cy="0.311" r="0.311" transform="translate(21.52 1.053)"/>
    <circle id="Ellipse_1516" data-name="Ellipse 1516" cx="0.311" cy="0.311" r="0.311" transform="translate(18.043 1.801)"/>
    <circle id="Ellipse_1517" data-name="Ellipse 1517" cx="0.311" cy="0.311" r="0.311" transform="translate(14.382 2.245)"/>
    <circle id="Ellipse_1518" data-name="Ellipse 1518" cx="0.311" cy="0.311" r="0.311" transform="translate(10.594 2.423)"/>
    <circle id="Ellipse_1519" data-name="Ellipse 1519" cx="0.311" cy="0.311" r="0.311" transform="translate(5.145 1.675)"/>
    <circle id="Ellipse_1520" data-name="Ellipse 1520" cx="0.311" cy="0.311" r="0.311" transform="translate(6.952 2.112)"/>
    <circle id="Ellipse_1521" data-name="Ellipse 1521" cx="0.311" cy="0.311" r="0.311" transform="translate(1.781 1.053)"/>
    <circle id="Ellipse_1522" data-name="Ellipse 1522" cx="0.311" cy="0.311" r="0.311" transform="translate(3.403 1.364)"/>
    <circle id="Ellipse_1523" data-name="Ellipse 1523" cx="0.311" cy="0.311" r="0.311" transform="translate(0 0.437)"/>
    <circle id="Ellipse_1524" data-name="Ellipse 1524" cx="0.311" cy="0.311" r="0.311" transform="translate(19.745 1.496)"/>
    <circle id="Ellipse_1525" data-name="Ellipse 1525" cx="0.311" cy="0.311" r="0.311" transform="translate(16.163 2.112)"/>
    <circle id="Ellipse_1526" data-name="Ellipse 1526" cx="0.311" cy="0.311" r="0.311" transform="translate(12.276 2.423)"/>
    <circle id="Ellipse_1527" data-name="Ellipse 1527" cx="0.311" cy="0.311" r="0.311" transform="translate(8.734 2.423)"/>
  </g>
  <g id="Group_3323" data-name="Group 3323" transform="translate(369.94 265.659)" opacity="0.8">
    <circle id="Ellipse_1528" data-name="Ellipse 1528" cx="0.311" cy="0.311" r="0.311" transform="translate(25.022)"/>
    <circle id="Ellipse_1529" data-name="Ellipse 1529" cx="0.311" cy="0.311" r="0.311" transform="translate(23.46 0.437)"/>
    <circle id="Ellipse_1530" data-name="Ellipse 1530" cx="0.311" cy="0.311" r="0.311" transform="translate(21.52 1.059)"/>
    <circle id="Ellipse_1531" data-name="Ellipse 1531" cx="0.311" cy="0.311" r="0.311" transform="translate(18.043 1.808)"/>
    <circle id="Ellipse_1532" data-name="Ellipse 1532" cx="0.311" cy="0.311" r="0.311" transform="translate(14.382 2.251)"/>
    <circle id="Ellipse_1533" data-name="Ellipse 1533" cx="0.311" cy="0.311" r="0.311" transform="translate(10.594 2.423)"/>
    <circle id="Ellipse_1534" data-name="Ellipse 1534" cx="0.311" cy="0.311" r="0.311" transform="translate(5.145 1.675)"/>
    <circle id="Ellipse_1535" data-name="Ellipse 1535" cx="0.311" cy="0.311" r="0.311" transform="translate(6.952 2.112)"/>
    <circle id="Ellipse_1536" data-name="Ellipse 1536" cx="0.311" cy="0.311" r="0.311" transform="translate(1.781 1.059)"/>
    <circle id="Ellipse_1537" data-name="Ellipse 1537" cx="0.311" cy="0.311" r="0.311" transform="translate(3.403 1.364)"/>
    <circle id="Ellipse_1538" data-name="Ellipse 1538" cx="0.311" cy="0.311" r="0.311" transform="translate(0 0.437)"/>
    <circle id="Ellipse_1539" data-name="Ellipse 1539" cx="0.311" cy="0.311" r="0.311" transform="translate(19.745 1.496)"/>
    <circle id="Ellipse_1540" data-name="Ellipse 1540" cx="0.311" cy="0.311" r="0.311" transform="translate(16.163 2.112)"/>
    <circle id="Ellipse_1541" data-name="Ellipse 1541" cx="0.311" cy="0.311" r="0.311" transform="translate(12.276 2.423)"/>
    <circle id="Ellipse_1542" data-name="Ellipse 1542" cx="0.311" cy="0.311" r="0.311" transform="translate(8.734 2.423)"/>
  </g>
  <g id="Group_3324" data-name="Group 3324" transform="translate(369.94 267.182)" opacity="0.8">
    <circle id="Ellipse_1543" data-name="Ellipse 1543" cx="0.311" cy="0.311" r="0.311" transform="translate(25.022)"/>
    <circle id="Ellipse_1544" data-name="Ellipse 1544" cx="0.311" cy="0.311" r="0.311" transform="translate(23.46 0.437)"/>
    <circle id="Ellipse_1545" data-name="Ellipse 1545" cx="0.311" cy="0.311" r="0.311" transform="translate(21.52 1.053)"/>
    <circle id="Ellipse_1546" data-name="Ellipse 1546" cx="0.311" cy="0.311" r="0.311" transform="translate(18.043 1.801)"/>
    <circle id="Ellipse_1547" data-name="Ellipse 1547" cx="0.311" cy="0.311" r="0.311" transform="translate(14.382 2.245)"/>
    <circle id="Ellipse_1548" data-name="Ellipse 1548" cx="0.311" cy="0.311" r="0.311" transform="translate(10.594 2.423)"/>
    <circle id="Ellipse_1549" data-name="Ellipse 1549" cx="0.311" cy="0.311" r="0.311" transform="translate(5.145 1.675)"/>
    <circle id="Ellipse_1550" data-name="Ellipse 1550" cx="0.311" cy="0.311" r="0.311" transform="translate(6.952 2.112)"/>
    <circle id="Ellipse_1551" data-name="Ellipse 1551" cx="0.311" cy="0.311" r="0.311" transform="translate(1.781 1.053)"/>
    <circle id="Ellipse_1552" data-name="Ellipse 1552" cx="0.311" cy="0.311" r="0.311" transform="translate(3.403 1.364)"/>
    <circle id="Ellipse_1553" data-name="Ellipse 1553" cx="0.311" cy="0.311" r="0.311" transform="translate(0 0.437)"/>
    <circle id="Ellipse_1554" data-name="Ellipse 1554" cx="0.311" cy="0.311" r="0.311" transform="translate(19.745 1.496)"/>
    <circle id="Ellipse_1555" data-name="Ellipse 1555" cx="0.311" cy="0.311" r="0.311" transform="translate(16.163 2.112)"/>
    <circle id="Ellipse_1556" data-name="Ellipse 1556" cx="0.311" cy="0.311" r="0.311" transform="translate(12.276 2.423)"/>
    <circle id="Ellipse_1557" data-name="Ellipse 1557" cx="0.311" cy="0.311" r="0.311" transform="translate(8.734 2.423)"/>
  </g>
  <g id="Group_3325" data-name="Group 3325" transform="translate(369.94 268.698)" opacity="0.8">
    <circle id="Ellipse_1558" data-name="Ellipse 1558" cx="0.311" cy="0.311" r="0.311" transform="translate(25.022)"/>
    <circle id="Ellipse_1559" data-name="Ellipse 1559" cx="0.311" cy="0.311" r="0.311" transform="translate(23.46 0.444)"/>
    <circle id="Ellipse_1560" data-name="Ellipse 1560" cx="0.311" cy="0.311" r="0.311" transform="translate(21.52 1.059)"/>
    <circle id="Ellipse_1561" data-name="Ellipse 1561" cx="0.311" cy="0.311" r="0.311" transform="translate(18.043 1.808)"/>
    <circle id="Ellipse_1562" data-name="Ellipse 1562" cx="0.311" cy="0.311" r="0.311" transform="translate(14.382 2.251)"/>
    <circle id="Ellipse_1563" data-name="Ellipse 1563" cx="0.311" cy="0.311" r="0.311" transform="translate(10.594 2.423)"/>
    <circle id="Ellipse_1564" data-name="Ellipse 1564" cx="0.311" cy="0.311" r="0.311" transform="translate(5.145 1.675)"/>
    <circle id="Ellipse_1565" data-name="Ellipse 1565" cx="0.311" cy="0.311" r="0.311" transform="translate(6.952 2.119)"/>
    <circle id="Ellipse_1566" data-name="Ellipse 1566" cx="0.311" cy="0.311" r="0.311" transform="translate(1.781 1.059)"/>
    <circle id="Ellipse_1567" data-name="Ellipse 1567" cx="0.311" cy="0.311" r="0.311" transform="translate(3.403 1.371)"/>
    <circle id="Ellipse_1568" data-name="Ellipse 1568" cx="0.311" cy="0.311" r="0.311" transform="translate(0 0.444)"/>
    <circle id="Ellipse_1569" data-name="Ellipse 1569" cx="0.311" cy="0.311" r="0.311" transform="translate(19.745 1.496)"/>
    <circle id="Ellipse_1570" data-name="Ellipse 1570" cx="0.311" cy="0.311" r="0.311" transform="translate(16.163 2.119)"/>
    <circle id="Ellipse_1571" data-name="Ellipse 1571" cx="0.311" cy="0.311" r="0.311" transform="translate(12.276 2.423)"/>
    <circle id="Ellipse_1572" data-name="Ellipse 1572" cx="0.311" cy="0.311" r="0.311" transform="translate(8.734 2.423)"/>
  </g>
  <g id="Group_3326" data-name="Group 3326" transform="translate(369.94 270.221)" opacity="0.8">
    <circle id="Ellipse_1573" data-name="Ellipse 1573" cx="0.311" cy="0.311" r="0.311" transform="translate(25.022)"/>
    <circle id="Ellipse_1574" data-name="Ellipse 1574" cx="0.311" cy="0.311" r="0.311" transform="translate(23.46 0.437)"/>
    <circle id="Ellipse_1575" data-name="Ellipse 1575" cx="0.311" cy="0.311" r="0.311" transform="translate(21.52 1.053)"/>
    <circle id="Ellipse_1576" data-name="Ellipse 1576" cx="0.311" cy="0.311" r="0.311" transform="translate(18.043 1.801)"/>
    <circle id="Ellipse_1577" data-name="Ellipse 1577" cx="0.311" cy="0.311" r="0.311" transform="translate(14.382 2.245)"/>
    <circle id="Ellipse_1578" data-name="Ellipse 1578" cx="0.311" cy="0.311" r="0.311" transform="translate(10.594 2.423)"/>
    <circle id="Ellipse_1579" data-name="Ellipse 1579" cx="0.311" cy="0.311" r="0.311" transform="translate(5.145 1.675)"/>
    <circle id="Ellipse_1580" data-name="Ellipse 1580" cx="0.311" cy="0.311" r="0.311" transform="translate(6.952 2.112)"/>
    <circle id="Ellipse_1581" data-name="Ellipse 1581" cx="0.311" cy="0.311" r="0.311" transform="translate(1.781 1.053)"/>
    <circle id="Ellipse_1582" data-name="Ellipse 1582" cx="0.311" cy="0.311" r="0.311" transform="translate(3.403 1.364)"/>
    <circle id="Ellipse_1583" data-name="Ellipse 1583" cx="0.311" cy="0.311" r="0.311" transform="translate(0 0.437)"/>
    <circle id="Ellipse_1584" data-name="Ellipse 1584" cx="0.311" cy="0.311" r="0.311" transform="translate(19.745 1.496)"/>
    <circle id="Ellipse_1585" data-name="Ellipse 1585" cx="0.311" cy="0.311" r="0.311" transform="translate(16.163 2.112)"/>
    <circle id="Ellipse_1586" data-name="Ellipse 1586" cx="0.311" cy="0.311" r="0.311" transform="translate(12.276 2.423)"/>
    <circle id="Ellipse_1587" data-name="Ellipse 1587" cx="0.311" cy="0.311" r="0.311" transform="translate(8.734 2.423)"/>
  </g>
  <g id="Group_3327" data-name="Group 3327" transform="translate(369.94 271.737)" opacity="0.8">
    <circle id="Ellipse_1588" data-name="Ellipse 1588" cx="0.311" cy="0.311" r="0.311" transform="translate(25.022)"/>
    <circle id="Ellipse_1589" data-name="Ellipse 1589" cx="0.311" cy="0.311" r="0.311" transform="translate(23.46 0.444)"/>
    <circle id="Ellipse_1590" data-name="Ellipse 1590" cx="0.311" cy="0.311" r="0.311" transform="translate(21.52 1.059)"/>
    <circle id="Ellipse_1591" data-name="Ellipse 1591" cx="0.311" cy="0.311" r="0.311" transform="translate(18.043 1.808)"/>
    <circle id="Ellipse_1592" data-name="Ellipse 1592" cx="0.311" cy="0.311" r="0.311" transform="translate(14.382 2.251)"/>
    <circle id="Ellipse_1593" data-name="Ellipse 1593" cx="0.311" cy="0.311" r="0.311" transform="translate(10.594 2.423)"/>
    <circle id="Ellipse_1594" data-name="Ellipse 1594" cx="0.311" cy="0.311" r="0.311" transform="translate(5.145 1.675)"/>
    <circle id="Ellipse_1595" data-name="Ellipse 1595" cx="0.311" cy="0.311" r="0.311" transform="translate(6.952 2.119)"/>
    <circle id="Ellipse_1596" data-name="Ellipse 1596" cx="0.311" cy="0.311" r="0.311" transform="translate(1.781 1.059)"/>
    <circle id="Ellipse_1597" data-name="Ellipse 1597" cx="0.311" cy="0.311" r="0.311" transform="translate(3.403 1.371)"/>
    <circle id="Ellipse_1598" data-name="Ellipse 1598" cx="0.311" cy="0.311" r="0.311" transform="translate(0 0.444)"/>
    <circle id="Ellipse_1599" data-name="Ellipse 1599" cx="0.311" cy="0.311" r="0.311" transform="translate(19.745 1.496)"/>
    <circle id="Ellipse_1600" data-name="Ellipse 1600" cx="0.311" cy="0.311" r="0.311" transform="translate(16.163 2.119)"/>
    <circle id="Ellipse_1601" data-name="Ellipse 1601" cx="0.311" cy="0.311" r="0.311" transform="translate(12.276 2.423)"/>
    <circle id="Ellipse_1602" data-name="Ellipse 1602" cx="0.311" cy="0.311" r="0.311" transform="translate(8.734 2.423)"/>
  </g>
  <g id="Group_3328" data-name="Group 3328" transform="translate(369.94 273.26)" opacity="0.8">
    <circle id="Ellipse_1603" data-name="Ellipse 1603" cx="0.311" cy="0.311" r="0.311" transform="translate(25.022)"/>
    <circle id="Ellipse_1604" data-name="Ellipse 1604" cx="0.311" cy="0.311" r="0.311" transform="translate(23.46 0.437)"/>
    <circle id="Ellipse_1605" data-name="Ellipse 1605" cx="0.311" cy="0.311" r="0.311" transform="translate(21.52 1.059)"/>
    <circle id="Ellipse_1606" data-name="Ellipse 1606" cx="0.311" cy="0.311" r="0.311" transform="translate(18.043 1.808)"/>
    <circle id="Ellipse_1607" data-name="Ellipse 1607" cx="0.311" cy="0.311" r="0.311" transform="translate(14.382 2.251)"/>
    <circle id="Ellipse_1608" data-name="Ellipse 1608" cx="0.311" cy="0.311" r="0.311" transform="translate(10.594 2.423)"/>
    <circle id="Ellipse_1609" data-name="Ellipse 1609" cx="0.311" cy="0.311" r="0.311" transform="translate(5.145 1.675)"/>
    <circle id="Ellipse_1610" data-name="Ellipse 1610" cx="0.311" cy="0.311" r="0.311" transform="translate(6.952 2.112)"/>
    <circle id="Ellipse_1611" data-name="Ellipse 1611" cx="0.311" cy="0.311" r="0.311" transform="translate(1.781 1.059)"/>
    <circle id="Ellipse_1612" data-name="Ellipse 1612" cx="0.311" cy="0.311" r="0.311" transform="translate(3.403 1.364)"/>
    <circle id="Ellipse_1613" data-name="Ellipse 1613" cx="0.311" cy="0.311" r="0.311" transform="translate(0 0.437)"/>
    <circle id="Ellipse_1614" data-name="Ellipse 1614" cx="0.311" cy="0.311" r="0.311" transform="translate(19.745 1.496)"/>
    <circle id="Ellipse_1615" data-name="Ellipse 1615" cx="0.311" cy="0.311" r="0.311" transform="translate(16.163 2.112)"/>
    <circle id="Ellipse_1616" data-name="Ellipse 1616" cx="0.311" cy="0.311" r="0.311" transform="translate(12.276 2.423)"/>
    <circle id="Ellipse_1617" data-name="Ellipse 1617" cx="0.311" cy="0.311" r="0.311" transform="translate(8.734 2.423)"/>
  </g>
  <g id="Group_3329" data-name="Group 3329" transform="translate(369.94 274.783)" opacity="0.8">
    <circle id="Ellipse_1618" data-name="Ellipse 1618" cx="0.311" cy="0.311" r="0.311" transform="translate(25.022)"/>
    <circle id="Ellipse_1619" data-name="Ellipse 1619" cx="0.311" cy="0.311" r="0.311" transform="translate(23.46 0.437)"/>
    <circle id="Ellipse_1620" data-name="Ellipse 1620" cx="0.311" cy="0.311" r="0.311" transform="translate(21.52 1.053)"/>
    <circle id="Ellipse_1621" data-name="Ellipse 1621" cx="0.311" cy="0.311" r="0.311" transform="translate(18.043 1.801)"/>
    <circle id="Ellipse_1622" data-name="Ellipse 1622" cx="0.311" cy="0.311" r="0.311" transform="translate(14.382 2.245)"/>
    <circle id="Ellipse_1623" data-name="Ellipse 1623" cx="0.311" cy="0.311" r="0.311" transform="translate(10.594 2.417)"/>
    <circle id="Ellipse_1624" data-name="Ellipse 1624" cx="0.311" cy="0.311" r="0.311" transform="translate(5.145 1.669)"/>
    <circle id="Ellipse_1625" data-name="Ellipse 1625" cx="0.311" cy="0.311" r="0.311" transform="translate(6.952 2.112)"/>
    <circle id="Ellipse_1626" data-name="Ellipse 1626" cx="0.311" cy="0.311" r="0.311" transform="translate(1.781 1.053)"/>
    <circle id="Ellipse_1627" data-name="Ellipse 1627" cx="0.311" cy="0.311" r="0.311" transform="translate(3.403 1.364)"/>
    <circle id="Ellipse_1628" data-name="Ellipse 1628" cx="0.311" cy="0.311" r="0.311" transform="translate(0 0.437)"/>
    <circle id="Ellipse_1629" data-name="Ellipse 1629" cx="0.311" cy="0.311" r="0.311" transform="translate(19.745 1.49)"/>
    <circle id="Ellipse_1630" data-name="Ellipse 1630" cx="0.311" cy="0.311" r="0.311" transform="translate(16.163 2.112)"/>
    <circle id="Ellipse_1631" data-name="Ellipse 1631" cx="0.311" cy="0.311" r="0.311" transform="translate(12.276 2.417)"/>
    <circle id="Ellipse_1632" data-name="Ellipse 1632" cx="0.311" cy="0.311" r="0.311" transform="translate(8.734 2.417)"/>
  </g>
  <circle id="Ellipse_1633" data-name="Ellipse 1633" cx="14.322" cy="14.322" r="14.322" transform="translate(530.608 47.173)" fill="#6c63ff" opacity="0.1"/>
  <circle id="Ellipse_1634" data-name="Ellipse 1634" cx="11.263" cy="11.263" r="11.263" transform="translate(597.233 85.325)" fill="#6c63ff" opacity="0.1"/>
  <circle id="Ellipse_1635" data-name="Ellipse 1635" cx="3.973" cy="3.973" r="3.973" transform="translate(636.027 38.34)" fill="#6c63ff" opacity="0.1"/>
  <path id="Path_9975" data-name="Path 9975" d="M231.233,724.25s4.721,6.178-2.178,15.5-12.581,17.216-10.3,23.016c0,0,10.415-17.322,18.9-17.56S240.6,734.679,231.233,724.25Z" transform="translate(-149.032 -267.69)" fill="#00bfa6"/>
  <path id="Path_9976" data-name="Path 9976" d="M231.366,724.25a7.607,7.607,0,0,1,.967,1.933c8.27,9.72,12.68,18.792,4.728,19.023-7.409.212-16.3,13.455-18.421,16.8a6.034,6.034,0,0,0,.252.761s10.415-17.322,18.9-17.56S240.729,734.679,231.366,724.25Z" transform="translate(-149.165 -267.69)" opacity="0.1"/>
  <path id="Path_9977" data-name="Path 9977" d="M250.566,735.429c0,2.172-.245,3.933-.543,3.933s-.543-1.761-.543-3.933.3-1.152.6-1.152S250.566,733.25,250.566,735.429Z" transform="translate(-159.585 -270.996)" fill="#ffd037"/>
  <path id="Path_9978" data-name="Path 9978" d="M253.769,739.3c-1.907,1.04-3.569,1.669-3.715,1.4s1.285-1.324,3.2-2.364,1.152-.285,1.324,0S255.683,738.259,253.769,739.3Z" transform="translate(-159.776 -272.27)" fill="#ffd037"/>
  <path id="Path_9979" data-name="Path 9979" d="M194.763,724.25s-4.721,6.178,2.178,15.5,12.581,17.216,10.3,23.016c0,0-10.422-17.322-18.9-17.56S185.433,734.679,194.763,724.25Z" transform="translate(-137.517 -267.69)" fill="#00bfa6"/>
  <path id="Path_9980" data-name="Path 9980" d="M194.763,724.25a7.608,7.608,0,0,0-.967,1.933c-8.27,9.72-12.68,18.792-4.728,19.023,7.409.212,16.3,13.455,18.427,16.8a7.32,7.32,0,0,1-.252.761s-10.422-17.322-18.9-17.56S185.433,734.679,194.763,724.25Z" transform="translate(-137.517 -267.69)" opacity="0.1"/>
  <path id="Path_9981" data-name="Path 9981" d="M186.91,735.429c0,2.172.245,3.933.543,3.933s.543-1.761.543-3.933-.3-1.152-.6-1.152S186.91,733.25,186.91,735.429Z" transform="translate(-138.445 -270.996)" fill="#ffd037"/>
  <path id="Path_9982" data-name="Path 9982" d="M181.754,739.3c1.907,1.04,3.569,1.669,3.715,1.4s-1.285-1.324-3.2-2.364-1.152-.285-1.324,0S179.841,738.259,181.754,739.3Z" transform="translate(-136.302 -272.27)" fill="#ffd037"/>
  <ellipse id="Ellipse_1636" data-name="Ellipse 1636" cx="49.396" cy="7.581" rx="49.396" ry="7.581" transform="matrix(0.998, -0.071, 0.071, 0.998, 19.871, 530.701)" fill="#6c63ff" opacity="0.1"/>
  <path id="Path_9983" data-name="Path 9983" d="M231.46,768.377l-.238,1.927-.331,2.728-.132,1.132-.331,2.728-.146,1.139-.331,2.721L226.17,811.74c-.338,2.768-4.853,4.92-10.309,4.92H196.215c-5.456,0-9.965-2.152-10.3-4.92l-3.787-30.988-.331-2.721-.139-1.139-.338-2.728-.132-1.132-.331-2.728-.238-1.927c-.192-1.569,2.258-2.887,5.343-2.887h40.165C229.2,765.49,231.652,766.808,231.46,768.377Z" transform="translate(-136.314 -281.623)" fill="#65617d"/>
  <path id="Path_9984" data-name="Path 9984" d="M117.636,738.04l-.331,2.721H67.591l-.331-2.721Z" transform="translate(-22.728 -249.353)" fill="#9d9cb5"/>
  <path id="Path_9985" data-name="Path 9985" d="M117.405,743.87l-.331,2.728H68.308l-.338-2.728Z" transform="translate(-22.968 -251.323)" fill="#9d9cb5"/>
  <path id="Path_9986" data-name="Path 9986" d="M117.172,749.7l-.331,2.721H69.021L68.69,749.7Z" transform="translate(-23.211 -253.292)" fill="#9d9cb5"/>
  <path id="Path_9987" data-name="Path 9987" d="M687.355,403.44l18.09.92-29.816,9.389-15.269-.881Z" transform="translate(-223.113 -136.305)" opacity="0.1"/>
  <path id="Path_9988" data-name="Path 9988" d="M687.342,402.25l18.09.927-29.823,9.389-15.269-.887Z" transform="translate(-223.107 -135.902)" fill="#fff"/>
  <path id="Path_9989" data-name="Path 9989" d="M811.61,440.033c.708-.311,1.477.252,2.238.384.437.079.887,0,1.324.066.887.106,1.775.662,2.649.377Z" transform="translate(-349.507 -171.633)" fill="#d3dae1"/>
  <path id="Path_9990" data-name="Path 9990" d="M810.21,440.873c.708-.311,1.477.252,2.238.384.437.079.887,0,1.324.066.887.106,1.775.662,2.615.371Z" transform="translate(-349.034 -171.916)" fill="#d3dae1"/>
  <path id="Path_9991" data-name="Path 9991" d="M807,442.553c.708-.311,1.477.252,2.245.384.43.079.881,0,1.324.066.887.106,1.775.662,2.649.371Z" transform="translate(-347.949 -172.484)" fill="#d3dae1"/>
  <path id="Path_9992" data-name="Path 9992" d="M875.969,432.82s-2.265,10.541,7.807,11.786l.622-1.165S876.578,436.1,875.969,432.82Z" transform="translate(-371.177 -169.227)" fill="#00ac95"/>
  <path id="Path_9993" data-name="Path 9993" d="M889.187,440.652l-2.344.5-.232.046s-6.251-5.072-6.171-16.395a27.954,27.954,0,0,0,2.986,4.721C885.9,432.8,888.716,437.175,889.187,440.652Z" transform="translate(-372.761 -166.517)" fill="#00ac95"/>
  <path id="Path_9994" data-name="Path 9994" d="M892,439.747a1.47,1.47,0,0,1-1.258.159c-6.012-1.4-3.973-21-3.973-21,.331.159.7,2.649,2.079,5.867C891.266,430.431,893.934,438.324,892,439.747Z" transform="translate(-374.788 -164.527)" fill="#00ac95"/>
  <path id="Path_9995" data-name="Path 9995" d="M909.743,432.82s.391,10.541-9.68,11.786l-.622-1.165S909.081,436.1,909.743,432.82Z" transform="translate(-379.181 -169.227)" fill="#00ac95"/>
  <path id="Path_9996" data-name="Path 9996" d="M905.2,424.8a19.5,19.5,0,0,1-8.038,16.395l-.238-.046-2.337-.5c.464-3.476,3.311-7.853,5.754-11.131A25.474,25.474,0,0,1,905.2,424.8Z" transform="translate(-377.542 -166.517)" fill="#00ac95"/>
  <path id="Path_9997" data-name="Path 9997" d="M896.164,438.721a3.8,3.8,0,0,1-1.324,1.026h0a2.556,2.556,0,0,1-.5.159c-1.477.351-1.986-.722-1.907-2.529.139-3.231,2.165-8.826,3.973-13.011a16.242,16.242,0,0,1,3.774-5.456S900.09,434.2,896.164,438.721Z" transform="translate(-376.812 -164.527)" fill="#00ac95"/>
  <path id="Path_9998" data-name="Path 9998" d="M893.856,408.53s-6.714,23.837-.934,27.406S895.339,410.642,893.856,408.53Z" transform="translate(-376.186 -161.02)" fill="#00ac95"/>
  <path id="Path_9999" data-name="Path 9999" d="M875.969,432.82s-2.265,10.541,7.807,11.786l.622-1.165S876.578,436.1,875.969,432.82Z" transform="translate(-371.177 -169.227)" opacity="0.1"/>
  <path id="Path_10000" data-name="Path 10000" d="M889.187,440.652l-2.344.5-.232.046s-6.251-5.072-6.171-16.395a27.954,27.954,0,0,0,2.986,4.721C885.9,432.8,888.716,437.175,889.187,440.652Z" transform="translate(-372.761 -166.517)" opacity="0.1"/>
  <path id="Path_10001" data-name="Path 10001" d="M892,439.747a1.47,1.47,0,0,1-1.258.159c-6.012-1.4-3.973-21-3.973-21,.331.159.7,2.649,2.079,5.867C891.266,430.431,893.934,438.324,892,439.747Z" transform="translate(-374.788 -164.527)" opacity="0.1"/>
  <path id="Path_10002" data-name="Path 10002" d="M909.743,432.82s.391,10.541-9.68,11.786l-.622-1.165S909.081,436.1,909.743,432.82Z" transform="translate(-379.181 -169.227)" opacity="0.1"/>
  <path id="Path_10003" data-name="Path 10003" d="M905.2,424.8a19.5,19.5,0,0,1-8.038,16.395l-.238-.046-2.337-.5c.464-3.476,3.311-7.853,5.754-11.131A25.474,25.474,0,0,1,905.2,424.8Z" transform="translate(-377.542 -166.517)" opacity="0.1"/>
  <path id="Path_10004" data-name="Path 10004" d="M896.164,438.721a3.8,3.8,0,0,1-1.324,1.026h0a2.556,2.556,0,0,1-.5.159c-1.477.351-1.986-.722-1.907-2.529.139-3.231,2.165-8.826,3.973-13.011a16.242,16.242,0,0,1,3.774-5.456S900.09,434.2,896.164,438.721Z" transform="translate(-376.812 -164.527)" opacity="0.1"/>
  <path id="Path_10005" data-name="Path 10005" d="M893.856,408.53s-6.714,23.837-.934,27.406S895.339,410.642,893.856,408.53Z" transform="translate(-376.186 -161.02)" opacity="0.1"/>
  <path id="Path_10006" data-name="Path 10006" d="M876.051,432.82s-1.324,10.541,8.74,11.786l.622-1.165S876.66,436.1,876.051,432.82Z" transform="translate(-371.259 -169.227)" fill="#00bfa6"/>
  <path id="Path_10007" data-name="Path 10007" d="M890.12,440.652l-2.344.5-.232.046s-7.184-5.072-7.1-16.395c0,0,1.841,1.986,3.92,4.721C886.836,432.8,889.65,437.175,890.12,440.652Z" transform="translate(-372.761 -166.517)" fill="#00bfa6"/>
  <path id="Path_10008" data-name="Path 10008" d="M892.121,443.061l-2.344.5c-2.218-1.953-3.1-7.039-3.417-11.627C888.836,435.208,891.651,439.584,892.121,443.061Z" transform="translate(-374.762 -168.926)" opacity="0.1"/>
  <path id="Path_10009" data-name="Path 10009" d="M893.068,439.747a1.489,1.489,0,0,1-1.265.159c-6.012-1.4-4.913-21-4.913-21,.331.159,1.635,2.649,3.013,5.867C892.333,430.431,894.994,438.324,893.068,439.747Z" transform="translate(-374.914 -164.527)" fill="#00bfa6"/>
  <path id="Path_10010" data-name="Path 10010" d="M910.223,432.82s1.324,10.541-8.74,11.786l-.622-1.165S909.561,436.1,910.223,432.82Z" transform="translate(-379.661 -169.227)" fill="#00bfa6"/>
  <path id="Path_10011" data-name="Path 10011" d="M905.68,424.8c.079,11.323-7.1,16.395-7.1,16.395l-.232-.046-2.344-.5c.464-3.476,3.311-7.853,5.761-11.131C903.84,426.773,905.68,424.8,905.68,424.8Z" transform="translate(-378.019 -166.517)" fill="#00bfa6"/>
  <path id="Path_10012" data-name="Path 10012" d="M901.761,431.93c-.3,4.277-1.086,8.985-2.986,11.19a4.493,4.493,0,0,1-.43.437l-2.344-.5C896.464,439.584,899.311,435.208,901.761,431.93Z" transform="translate(-378.019 -168.926)" opacity="0.1"/>
  <path id="Path_10013" data-name="Path 10013" d="M897.574,438.721a3.721,3.721,0,0,1-1.324,1.026h0a2.651,2.651,0,0,1-.49.159c-1.483.351-1.986-.722-1.914-2.529.146-3.231,2.172-8.826,3.973-13.011,1.324-3.019,2.523-5.3,2.841-5.456C900.66,418.91,901.507,434.2,897.574,438.721Z" transform="translate(-377.289 -164.527)" fill="#00bfa6"/>
  <path id="Path_10014" data-name="Path 10014" d="M894.463,442.741a1.689,1.689,0,0,1-.953-.3c-2.827-1.761-2.887-8.376-2.212-14.666C893.728,433.425,896.39,441.317,894.463,442.741Z" transform="translate(-376.31 -167.521)" opacity="0.1"/>
  <path id="Path_10015" data-name="Path 10015" d="M897.578,441.505c-.324.7-.761,1.073-1.324,1.026h0a1.987,1.987,0,0,1-.8-.3,4.338,4.338,0,0,1-1.6-2.066c.146-3.231,2.172-8.826,3.973-13.011C898.472,432.957,898.69,439.121,897.578,441.505Z" transform="translate(-377.292 -167.311)" opacity="0.1"/>
  <path id="Path_10016" data-name="Path 10016" d="M894.221,408.53s-5.774,23.837,0,27.406S895.7,410.642,894.221,408.53Z" transform="translate(-376.551 -161.02)" fill="#00bfa6"/>
  <path id="Path_10017" data-name="Path 10017" d="M786.455,416.96l-.4,2.106-1.47,7.727H770.6l-1.47-7.727-.4-2.106Z" transform="translate(-259.727 -140.872)" fill="#65617d"/>
  <path id="Path_10018" data-name="Path 10018" d="M786.455,416.96l-.4,2.106H769.134l-.4-2.106Z" transform="translate(-259.727 -140.872)" opacity="0.1"/>
  <rect id="Rectangle_492" data-name="Rectangle 492" width="24.042" height="3.979" transform="translate(505.646 273.744)" fill="#65617d"/>
  <path id="Path_10019" data-name="Path 10019" d="M951.42,499s47.515,29.8,37.12,77.735c-.848,3.913-1.583,7.84-2.066,11.806-1.9,15.534-13.3,60.1-81.4,80.629V673.8l28.889-8.058,19.613-10.813L968.543,641.5l18.3-22.321,8.5-18.209,3.112-23.983,1.768-27.386-4.377-23.453L985.52,510.872l-12.581-9.786Z" transform="translate(-381.083 -191.587)" fill="#d9d6df"/>
  <path id="Path_10020" data-name="Path 10020" d="M312.766,616.808c-4.489,23.837-1.006,48.634,10.713,69.9,34.173,61.989,106.8,43.748,128.223,36.716,5.1-1.675,10.263-3.125,15.494-4.311l236.013-53.488c81.225-14.123,98-79.9,98-79.9,16.083-50.733,5.059-80.291-9.5-97.043a57.454,57.454,0,0,0-46.489-19.427l-28,1.483L468.375,497.881C352.044,499.126,320.969,573.173,312.766,616.808Zm23.049,2.986c7.846-37.517,38.623-91.931,137.606-95.288,4.542-.159,9.078-.556,13.587-1.159l222.558-29.73,25.77-1.324a55.153,55.153,0,0,1,48.78,24.175c10.25,15.421,15.792,39.728,3.112,77.517,0,0-15.514,57.421-90.627,69.756l-218,46.681c-4.959,1.059-9.859,2.357-14.7,3.854-19.771,6.1-85.515,21.586-117.45-30.405-11.74-19.116-15.236-42.119-10.641-64.075Z" transform="translate(-180.328 -181.503)" fill="#e1dee5"/>
</svg>
