<svg id="personal-contact-icon" xmlns="http://www.w3.org/2000/svg" width="57.997" height="59.925" viewBox="0 0 57.997 59.925">
  <path id="Path_10088" data-name="Path 10088" d="M25.477,0A17.24,17.24,0,0,1,38.42,28.629a.96.96,0,0,0-.151,1.05,15.783,15.783,0,0,0,1.947,3.081.577.577,0,0,1-.374.935,11.076,11.076,0,0,1-5.451-1.228.958.958,0,0,0-.859.021A17.156,17.156,0,0,1,25.7,34.48,17.241,17.241,0,1,1,25.477,0Z" transform="translate(-8.237)" fill="#fd6930"/>
  <path id="Path_10089" data-name="Path 10089" d="M173.74,32.805a.577.577,0,0,1-.373.935,7.751,7.751,0,0,1-2.944-.293l.121-.013a.577.577,0,0,0,.373-.935,15.829,15.829,0,0,1-1.946-3.08.963.963,0,0,1,.151-1.051A17.241,17.241,0,0,0,159.461.052a17.239,17.239,0,0,1,12.484,28.622.964.964,0,0,0-.151,1.051A15.823,15.823,0,0,0,173.74,32.805Z" transform="translate(-141.761 -0.046)" fill="#fd5426"/>
  <g id="Group_3356" data-name="Group 3356" transform="translate(5.983 14.899)">
    <g id="Group_3355" data-name="Group 3355" transform="translate(0)">
      <g id="Group_3352" data-name="Group 3352" transform="translate(17.849)">
        <circle id="Ellipse_1637" data-name="Ellipse 1637" cx="2.333" cy="2.333" r="2.333" fill="#ffeee7"/>
      </g>
      <g id="Group_3353" data-name="Group 3353" transform="translate(8.925)">
        <circle id="Ellipse_1638" data-name="Ellipse 1638" cx="2.333" cy="2.333" r="2.333" fill="#ffeee7"/>
      </g>
      <g id="Group_3354" data-name="Group 3354">
        <circle id="Ellipse_1639" data-name="Ellipse 1639" cx="2.333" cy="2.333" r="2.333" fill="#ffeee7"/>
      </g>
    </g>
  </g>
  <g id="Group_3358" data-name="Group 3358" transform="translate(13.755 3.997)">
    <path id="Path_10090" data-name="Path 10090" d="M168.89,42.416a14.05,14.05,0,0,0-4.281-5.666c-2.054-1.6-4.992-3.4-7.671-2.225a4.432,4.432,0,0,0-1.806,1.485,5.9,5.9,0,0,0-.776,1.476c-.043.116-1.789,5.648-2.437,8.342-.433,1.8-.105,3.048,1.048,4.032a6.691,6.691,0,0,0,1.325.856c1.24.629,2.529,1.157,3.822,1.679l.541.218,1.519.576-.559,1.595A55.811,55.811,0,0,1,145.5,76.605l-1.052,1.127-1.331-1.265a29.854,29.854,0,0,0-3.132-3.09c-2.021-1.589-3.61-1.681-5.654-.136a64.529,64.529,0,0,0-6.891,5.849c-2.341,2.353-2.178,4.606.118,7.012A12.935,12.935,0,0,0,134.83,89.9c3.636.658,7.764-.579,10.943-2.431a48.16,48.16,0,0,0,7.521-5.388l3.173-3.057a53.453,53.453,0,0,0,12.076-21.713c1.4-4.651,2.269-10.3.348-14.893Z" transform="translate(-125.758 -34.148)" fill="#a79ba7"/>
    <path id="Path_10091" data-name="Path 10091" d="M356.148,53.261c1.8-5.216,3.409-10.7,4.773-16.167-.111-.093-.225-.184-.339-.272-1.848-1.428-4.332-2.976-6.767-2.507a4.841,4.841,0,0,0-3.6,3.6c-.82,2.65-1.669,5.3-2.317,7.99-.569,2.368.173,3.772,2.372,4.887,1.413.717,2.892,1.305,4.363,1.9Z" transform="translate(-321.733 -34.22)" fill="#7a6d79"/>
    <path id="Path_10092" data-name="Path 10092" d="M144.449,364.3c-1.85,1.89-3.8,3.736-5.822,5.563a70.971,70.971,0,0,1-6.959,5.664,12.379,12.379,0,0,1-4.108-2.857c-2.3-2.406-2.46-4.658-.119-7.011a64.494,64.494,0,0,1,6.891-5.849c2.045-1.546,3.633-1.452,5.654.136a30.019,30.019,0,0,1,3.133,3.088Z" transform="translate(-125.759 -320.712)" fill="#7a6d79"/>
    <g id="ADEcVW_1_" transform="translate(0.07 5.329)">
      <g id="Group_3357" data-name="Group 3357">
        <path id="Path_10093" data-name="Path 10093" d="M169.072,97.507c-3.857,12.846-11,23.306-22.77,30.158-3.179,1.852-7.307,3.089-10.943,2.431a12.932,12.932,0,0,1-7.272-3.795,6.13,6.13,0,0,1-1.729-2.933c.051.057.105.114.16.171a12.933,12.933,0,0,0,7.272,3.795c3.636.658,7.764-.579,10.943-2.431,11.77-6.852,18.912-17.312,22.77-30.158,1.4-4.651,2.269-10.3.348-14.893-.025-.059-.05-.118-.077-.177a14.327,14.327,0,0,1,1.646,2.94C171.341,87.2,170.468,92.856,169.072,97.507Z" transform="translate(-126.358 -79.675)" fill="#918291"/>
      </g>
    </g>
    <path id="Path_10094" data-name="Path 10094" d="M133.789,456.953a12.932,12.932,0,0,1-7.272-3.795c-.054-.057-.108-.114-.16-.171l0,.015c.009.044.018.089.029.133a4.646,4.646,0,0,0,.191.574,5.593,5.593,0,0,0,.565,1.06,8.608,8.608,0,0,0,.726.923,11.7,11.7,0,0,0,.878.876,12.443,12.443,0,0,0,1.791,1.349,12.641,12.641,0,0,0,1.31.706c.089.041.178.083.269.121.025.012.05.023.075.034.814-.571,1.581-1.141,2.319-1.719q-.365-.04-.726-.106Z" transform="translate(-126.288 -403.965)" fill="#685e68"/>
  </g>
</svg>
