<svg id="Layer_1" enable-background="new 0 0 512 512" viewBox="0 0 512 512" xmlns="http://www.w3.org/2000/svg"><g><g><path d="m180.22 93.11h43.54v10h-43.54z" fill="#1a3b70"/></g><g><path d="m328.25 305.7h-144.5c-8.27 0-15-6.73-15-15v-69.4c0-8.27 6.73-15 15-15h144.49c8.27 0 15 6.73 15 15v69.4c.01 8.27-6.72 15-14.99 15zm-144.5-89.4c-2.76 0-5 2.24-5 5v69.4c0 2.76 2.24 5 5 5h144.49c2.76 0 5-2.24 5-5v-69.4c0-2.76-2.24-5-5-5z" fill="#1a3b70"/></g><g><path d="m318.25 261h-21.64c-2.76 0-5-2.24-5-5s2.24-5 5-5h21.64c2.76 0 5 2.24 5 5s-2.24 5-5 5z" fill="#1a3b70"/></g><g><path d="m266.82 261h-21.64c-2.76 0-5-2.24-5-5s2.24-5 5-5h21.64c2.76 0 5 2.24 5 5s-2.24 5-5 5z" fill="#1a3b70"/></g><g><path d="m215.39 261h-21.64c-2.76 0-5-2.24-5-5s2.24-5 5-5h21.64c2.76 0 5 2.24 5 5s-2.24 5-5 5z" fill="#1a3b70"/></g><g><path d="m378.25 147.81h-144.5c-8.27 0-15-6.73-15-15v-69.4c0-8.27 6.73-15 15-15h144.49c8.27 0 15 6.73 15 15v69.4c.01 8.27-6.72 15-14.99 15zm-144.5-89.4c-2.76 0-5 2.24-5 5v69.4c0 2.76 2.24 5 5 5h144.49c2.76 0 5-2.24 5-5v-69.4c0-2.76-2.24-5-5-5z" fill="#1a3b70"/></g><g><path d="m368.25 103.11h-21.64c-2.76 0-5-2.24-5-5s2.24-5 5-5h21.64c2.76 0 5 2.24 5 5s-2.24 5-5 5z" fill="#1a3b70"/></g><g><path d="m316.82 103.11h-21.64c-2.76 0-5-2.24-5-5s2.24-5 5-5h21.64c2.76 0 5 2.24 5 5s-2.24 5-5 5z" fill="#1a3b70"/></g><g><path d="m265.39 103.11h-21.64c-2.76 0-5-2.24-5-5s2.24-5 5-5h21.64c2.76 0 5 2.24 5 5s-2.24 5-5 5z" fill="#1a3b70"/></g><g><path d="m388.25 261h-50v-10h50c40.77 0 73.95-33.17 73.95-73.95 0-40.77-33.17-73.95-73.95-73.95v-10c46.29 0 83.95 37.66 83.95 83.95-.01 46.29-37.67 83.95-83.95 83.95z" fill="#1a3b70"/></g><g><path d="m123.75 418.89c-46.29 0-83.95-37.66-83.95-83.95s37.66-83.95 83.95-83.95h50v10h-50c-40.77 0-73.95 33.17-73.95 73.95 0 40.77 33.17 73.95 73.95 73.95z" fill="#1a3b70"/></g><g><path d="m278.25 463.59h-144.5c-8.27 0-15-6.73-15-15v-69.4c0-8.27 6.73-15 15-15h144.49c8.27 0 15 6.73 15 15v69.4c.01 8.27-6.72 15-14.99 15zm-144.5-89.4c-2.76 0-5 2.24-5 5v69.4c0 2.76 2.24 5 5 5h144.49c2.76 0 5-2.24 5-5v-69.4c0-2.76-2.24-5-5-5z" fill="#1a3b70"/></g><g><path d="m268.25 418.89h-21.64c-2.76 0-5-2.24-5-5s2.24-5 5-5h21.64c2.76 0 5 2.24 5 5s-2.24 5-5 5z" fill="#1a3b70"/></g><g><path d="m216.82 418.89h-21.64c-2.76 0-5-2.24-5-5s2.24-5 5-5h21.64c2.76 0 5 2.24 5 5s-2.24 5-5 5z" fill="#1a3b70"/></g><g><path d="m165.39 418.89h-21.64c-2.76 0-5-2.24-5-5s2.24-5 5-5h21.64c2.76 0 5 2.24 5 5s-2.24 5-5 5z" fill="#1a3b70"/></g><g><path d="m288.25 408.89h43.54v10h-43.54z" fill="#1a3b70"/></g><g><path d="m98.11 185.22c-3.03 0-6.05-.16-9.06-.47-6.69-.7-11.8-5.86-12.42-12.56l-1.1-11.87c-.15-1.66-1.35-2.32-1.86-2.53s-1.83-.58-3.1.5l-9.11 7.68c-5.14 4.34-12.4 4.44-17.66.24-4.9-3.91-9.4-8.37-13.35-13.24-4.24-5.22-4.2-12.49.09-17.66l7.61-9.17c1.06-1.28.69-2.6.47-3.11s-.89-1.7-2.55-1.84l-11.88-1.01c-6.71-.57-11.91-5.64-12.66-12.33-.69-6.24-.72-12.56-.07-18.8.69-6.69 5.86-11.8 12.56-12.42l11.87-1.1c1.66-.15 2.32-1.35 2.53-1.86s.58-1.83-.5-3.1l-7.68-9.11c-4.34-5.14-4.44-12.4-.24-17.66 3.91-4.9 8.37-9.39 13.24-13.35 5.22-4.24 12.49-4.2 17.66.09l9.17 7.61c1.28 1.06 2.6.69 3.11.47.51-.21 1.7-.89 1.84-2.55l1.01-11.88c.57-6.71 5.64-11.91 12.33-12.66 6.24-.69 12.56-.72 18.79-.07 6.69.7 11.8 5.86 12.42 12.56l1.1 11.87c.15 1.66 1.35 2.32 1.86 2.53s1.83.58 3.1-.5l9.11-7.68c5.14-4.34 12.4-4.43 17.66-.24 4.9 3.91 9.4 8.37 13.35 13.24 4.24 5.22 4.2 12.49-.1 17.66l-7.61 9.17c-1.06 1.28-.68 2.6-.47 3.11s.89 1.7 2.55 1.84l11.88 1.01c6.71.57 11.91 5.64 12.66 12.33.69 6.24.72 12.56.07 18.8-.69 6.69-5.86 11.8-12.56 12.42l-11.87 1.1c-1.66.15-2.32 1.35-2.53 1.86s-.58 1.83.5 3.1l7.68 9.11c4.34 5.14 4.44 12.4.24 17.66-3.92 4.91-8.37 9.4-13.24 13.35-5.22 4.24-12.49 4.2-17.66-.09l-9.17-7.61c-1.28-1.06-2.6-.69-3.11-.47-.51.21-1.7.89-1.84 2.55l-1.01 11.88c-.57 6.71-5.64 11.91-12.33 12.66-3.21.36-6.46.54-9.72.54zm-25.59-37.66c1.66 0 3.34.32 4.94.98 4.5 1.84 7.58 6 8.03 10.86l1.1 11.87c.18 1.92 1.58 3.34 3.5 3.54 5.52.58 11.13.55 16.66-.06 1.91-.21 3.31-1.64 3.47-3.56l1.01-11.88c.41-4.86 3.46-9.04 7.94-10.92 4.49-1.88 9.61-1.11 13.36 2l9.17 7.61c1.48 1.23 3.48 1.24 4.97.03 4.32-3.5 8.26-7.48 11.73-11.83 1.2-1.5 1.17-3.5-.07-4.97l-7.68-9.11c-3.14-3.73-3.95-8.84-2.11-13.34s6-7.58 10.86-8.03l11.87-1.1c1.92-.18 3.34-1.58 3.54-3.5.57-5.52.55-11.13-.06-16.66-.21-1.91-1.65-3.31-3.56-3.47l-11.9-1.02c-4.86-.41-9.04-3.46-10.92-7.94-1.88-4.49-1.11-9.61 2-13.36l7.61-9.17c1.23-1.48 1.24-3.48.03-4.97-3.5-4.32-7.48-8.26-11.83-11.73-1.5-1.2-3.5-1.17-4.97.07l-9.11 7.68c-3.73 3.14-8.84 3.95-13.34 2.11s-7.58-6-8.03-10.86l-1.1-11.87c-.18-1.92-1.58-3.34-3.5-3.54-5.52-.58-11.13-.55-16.66.06-1.91.21-3.31 1.64-3.47 3.56l-1 11.88c-.41 4.86-3.46 9.04-7.94 10.92-4.49 1.88-9.6 1.11-13.36-2l-9.17-7.61c-1.48-1.23-3.48-1.24-4.97-.03-4.32 3.51-8.27 7.49-11.73 11.83-1.2 1.5-1.17 3.5.07 4.97l7.68 9.11c3.14 3.73 3.95 8.84 2.11 13.34s-6.01 7.58-10.86 8.03l-11.87 1.1c-1.92.18-3.34 1.58-3.54 3.5-.57 5.52-.55 11.13.06 16.66.21 1.91 1.65 3.31 3.56 3.47l11.88 1.01c4.86.41 9.04 3.46 10.92 7.94 1.88 4.49 1.11 9.61-2 13.36l-7.61 9.17c-1.23 1.48-1.24 3.48-.03 4.97 3.5 4.32 7.48 8.26 11.83 11.73 1.5 1.2 3.5 1.17 4.97-.07l9.11-7.68c2.41-2.02 5.39-3.08 8.41-3.08z" fill="#f88125"/></g><g><path d="m98.11 139.63c-22.9 0-41.53-18.63-41.53-41.53s18.63-41.52 41.53-41.52 41.52 18.63 41.52 41.52c0 22.91-18.62 41.53-41.52 41.53zm0-73.05c-17.38 0-31.53 14.14-31.53 31.52s14.14 31.53 31.53 31.53c17.38 0 31.52-14.14 31.52-31.53s-14.14-31.52-31.52-31.52z" fill="#f88125"/></g><g><path d="m413.89 501c-48.03 0-87.11-39.08-87.11-87.11s39.08-87.11 87.11-87.11 87.11 39.08 87.11 87.11-39.08 87.11-87.11 87.11zm0-164.22c-42.52 0-77.11 34.59-77.11 77.11s34.59 77.11 77.11 77.11 77.11-34.59 77.11-77.11-34.59-77.11-77.11-77.11z" fill="#f88125"/></g><g><path d="m394.08 452.76c-1.12 0-2.25-.11-3.36-.33-4.69-.95-8.66-3.73-11.16-7.83l-20.2-32.92s0-.01-.01-.01c-4.9-8.03-2.35-18.55 5.68-23.45s18.55-2.35 23.45 5.68l10.51 17.13 44.78-32.73c3.67-2.69 8.18-3.79 12.68-3.1s8.47 3.1 11.16 6.78 3.8 8.18 3.1 12.69c-.69 4.51-3.1 8.47-6.78 11.17l-59.74 43.65c-2.96 2.14-6.52 3.27-10.11 3.27zm-26.19-46.3 20.21 32.93c1.04 1.71 2.67 2.85 4.61 3.24 1.98.4 3.98-.04 5.64-1.24l59.71-43.63c1.52-1.11 2.51-2.75 2.8-4.62.29-1.86-.17-3.73-1.28-5.25-1.12-1.52-2.76-2.52-4.62-2.81s-3.73.17-5.25 1.28l-49.17 35.93c-1.13.82-2.55 1.14-3.92.87s-2.56-1.1-3.29-2.29l-13.35-21.76c-2.03-3.33-6.39-4.39-9.71-2.36-3.35 2.03-4.41 6.38-2.38 9.71z" fill="#f88125"/></g></g></svg>