<svg id="hhcl-main-division-logo" xmlns="http://www.w3.org/2000/svg" width="86.738" height="68.67" viewBox="0 0 86.738 68.67">
  <path id="Path_639" data-name="Path 639" d="M215.665,395.676a3.672,3.672,0,1,0-3.528,3.808,3.672,3.672,0,0,0,3.528-3.808Z" transform="translate(-128.93 -360.645)" fill="#0072bc" fill-rule="evenodd"/>
  <path id="Path_640" data-name="Path 640" d="M213.338,375.927a3.672,3.672,0,1,0-.614,5.153,3.672,3.672,0,0,0,.614-5.153Z" transform="translate(-128.441 -355.05)" fill="#0072bc" fill-rule="evenodd"/>
  <path id="Path_641" data-name="Path 641" d="M199.831,408.942a3.672,3.672,0,1,0,5.091-1.01,3.672,3.672,0,0,0-5.091,1.01Z" transform="translate(-126.035 -365.461)" fill="#0072bc" fill-rule="evenodd"/>
  <path id="Path_642" data-name="Path 642" d="M99.334,393.1a3.672,3.672,0,1,0-3.6,3.74,3.672,3.672,0,0,0,3.6-3.74Z" transform="translate(-91.991 -359.806)" fill="#0072bc" fill-rule="evenodd"/>
  <path id="Path_643" data-name="Path 643" d="M99.788,408.61a3.672,3.672,0,1,0-.717,5.139,3.672,3.672,0,0,0,.717-5.139Z" transform="translate(-92.368 -365.409)" fill="#0072bc" fill-rule="evenodd"/>
  <path id="Path_644" data-name="Path 644" d="M102.072,376.09a3.672,3.672,0,1,0,5.112-.908,3.672,3.672,0,0,0-5.112.908Z" transform="translate(-94.98 -355.049)" fill="#0072bc" fill-rule="evenodd"/>
  <path id="Path_645" data-name="Path 645" d="M175.644,364.6c-.266,2.894-.273,5.166-.6,6.927-.355,1.9-2.675,6.688-4.1,9.828a10.586,10.586,0,0,1-.055,1.3c-.287,3.344-2.232,7.4-3.549,10.49-1.686,3.965-4.463,7.378-6.538,11.158-1.576,2.873-4.3,7.562-6.511,9.486-1.153,1-2.129.928-3.569.764a16.9,16.9,0,0,1-5.426-1.426,4.094,4.094,0,0,1-2.1-2.443c-1.228-3.576-.682-10.237-3.412-14.2-3.3-4.777-2.914-5.644-7.589-9.07-1.536-1.126-11.138-2.621-10.919-4.518.218-2.047,2.4-3.576,4.443-3.911,2.518-.409,4.729-.682,10.066,1.181,2.866,1.01,10.155,7.773,12.926,6.531a17.454,17.454,0,0,0,5.583-4.218,18.475,18.475,0,0,0,8.811.956l.812-.13c2.73-.444,5.521-2.484,5.828-5.378.171-1.638-1.365-2.58-2.628-3.146a31.355,31.355,0,0,0-4.047-1.365l-.86-.239a56.646,56.646,0,0,0,4.709-7.507c.642-1.256,1.365-3.713,1.911-5.036.682-1.7,1.679-3.331,2.443-4.88.607-1.242,1.2-3.132,1.822-4.17,1.488-2.47,4.02-5.228,7.1-5.562,2.122-.232,4.19.607,2.5,3.153-1.877,2.812-3.74,5.009-5.03,8.135-.99,2.4-1.167,4.893-1.993,7.282h0Z" transform="translate(-101.289 -345.985)" fill="#0072bc" fill-rule="evenodd"/>
  <path id="Path_646" data-name="Path 646" d="M106.57,396.054c.266-2.894.273-5.166.6-6.927.355-1.9,2.675-6.688,4.1-9.828a10.578,10.578,0,0,1,.055-1.3c.287-3.344,2.238-7.4,3.549-10.489,1.686-3.965,4.463-7.378,6.538-11.158,1.577-2.873,4.3-7.562,6.511-9.486,1.153-1,2.129-.928,3.569-.764a16.892,16.892,0,0,1,5.426,1.426,4.1,4.1,0,0,1,2.1,2.443c1.228,3.576.682,10.237,3.412,14.2,3.3,4.777,2.914,5.644,7.589,9.07,1.536,1.126,11.138,2.621,10.919,4.518-.218,2.047-2.4,3.576-4.443,3.911-2.518.409-4.729.682-10.066-1.181-2.866-1.01-10.155-7.773-12.926-6.531a17.457,17.457,0,0,0-5.583,4.218,18.475,18.475,0,0,0-8.811-.955l-.812.13c-2.73.444-5.521,2.484-5.828,5.378-.171,1.638,1.365,2.58,2.628,3.146a31.268,31.268,0,0,0,4.047,1.365l.86.239a56.643,56.643,0,0,0-4.709,7.507c-.642,1.256-1.365,3.713-1.911,5.037-.682,1.7-1.679,3.33-2.443,4.873-.607,1.242-1.2,3.132-1.822,4.17-1.488,2.471-4.02,5.228-7.1,5.562-2.122.232-4.19-.607-2.5-3.153,1.877-2.812,3.74-5.009,5.03-8.135.99-2.4,1.167-4.893,1.993-7.282h0Z" transform="translate(-94.183 -345.995)" fill="#0072bc" fill-rule="evenodd"/>
  <path id="Path_647" data-name="Path 647" d="M175.644,364.6c-.266,2.894-.273,5.166-.6,6.927-.355,1.9-2.675,6.688-4.1,9.828a10.586,10.586,0,0,1-.055,1.3c-.287,3.344-2.232,7.4-3.549,10.49-1.686,3.965-4.463,7.378-6.538,11.158-1.576,2.873-4.3,7.562-6.511,9.486-1.153,1-2.129.928-3.569.764a16.9,16.9,0,0,1-5.426-1.426,4.094,4.094,0,0,1-2.1-2.443c-1.228-3.576-.682-10.237-3.412-14.2-3.3-4.777-2.914-5.644-7.589-9.07-1.536-1.126-11.138-2.621-10.919-4.518.218-2.047,2.4-3.576,4.443-3.911,2.518-.409,4.729-.682,10.066,1.181,2.866,1.01,10.155,7.773,12.926,6.531a17.454,17.454,0,0,0,5.583-4.218,18.475,18.475,0,0,0,8.811.956l.812-.13c2.73-.444,5.521-2.484,5.828-5.378.171-1.638-1.365-2.58-2.628-3.146a31.355,31.355,0,0,0-4.047-1.365l-.86-.239a56.646,56.646,0,0,0,4.709-7.507c.642-1.256,1.365-3.713,1.911-5.036.682-1.7,1.679-3.331,2.443-4.88.607-1.242,1.2-3.132,1.822-4.17,1.488-2.47,4.02-5.228,7.1-5.562,2.122-.232,4.19.607,2.5,3.153-1.877,2.812-3.74,5.009-5.03,8.135-.99,2.4-1.167,4.893-1.993,7.282h0Z" transform="translate(-101.289 -345.985)" fill="#e11b22" fill-rule="evenodd"/>
  <path id="Path_648" data-name="Path 648" d="M106.57,396.054c.266-2.894.273-5.166.6-6.927.355-1.9,2.675-6.688,4.1-9.828a10.578,10.578,0,0,1,.055-1.3c.287-3.344,2.238-7.4,3.549-10.489,1.686-3.965,4.463-7.378,6.538-11.158,1.577-2.873,4.3-7.562,6.511-9.486,1.153-1,2.129-.928,3.569-.764a16.892,16.892,0,0,1,5.426,1.426,4.1,4.1,0,0,1,2.1,2.443c1.228,3.576.682,10.237,3.412,14.2,3.3,4.777,2.914,5.644,7.589,9.07,1.536,1.126,11.138,2.621,10.919,4.518-.218,2.047-2.4,3.576-4.443,3.911-2.518.409-4.729.682-10.066-1.181-2.866-1.01-10.155-7.773-12.926-6.531a17.457,17.457,0,0,0-5.583,4.218,18.475,18.475,0,0,0-8.811-.955l-.812.13c-2.73.444-5.521,2.484-5.828,5.378-.171,1.638,1.365,2.58,2.628,3.146a31.268,31.268,0,0,0,4.047,1.365l.86.239a56.643,56.643,0,0,0-4.709,7.507c-.642,1.256-1.365,3.713-1.911,5.037-.682,1.7-1.679,3.33-2.443,4.873-.607,1.242-1.2,3.132-1.822,4.17-1.488,2.471-4.02,5.228-7.1,5.562-2.122.232-4.19-.607-2.5-3.153,1.877-2.812,3.74-5.009,5.03-8.135.99-2.4,1.167-4.893,1.993-7.282h0Z" transform="translate(-94.183 -345.995)" fill="#0072bc" fill-rule="evenodd"/>
</svg>
