<svg xmlns="http://www.w3.org/2000/svg" xmlns:xlink="http://www.w3.org/1999/xlink" width="65.531" height="66.74" viewBox="0 0 65.531 66.74">
  <defs>
    <linearGradient id="linear-gradient" x1="0.522" y1="0.303" x2="0.17" y2="0.772" gradientUnits="objectBoundingBox">
      <stop offset="0" stop-color="#9b499b"/>
      <stop offset="0.37" stop-color="#7d2677"/>
      <stop offset="1" stop-color="#7d2677"/>
    </linearGradient>
    <linearGradient id="linear-gradient-2" x1="0.009" y1="0.773" x2="0.721" y2="0.417" gradientUnits="objectBoundingBox">
      <stop offset="0" stop-color="#4a68b0"/>
      <stop offset="1" stop-color="#432671"/>
    </linearGradient>
    <linearGradient id="linear-gradient-3" x1="0.153" y1="0.62" x2="0.891" y2="0.464" gradientUnits="objectBoundingBox">
      <stop offset="0" stop-color="#0f9586"/>
      <stop offset="0.24" stop-color="#0f9586"/>
      <stop offset="0.8" stop-color="#02605b"/>
      <stop offset="1" stop-color="#02605b"/>
    </linearGradient>
    <linearGradient id="linear-gradient-4" x1="0.389" y1="0.48" x2="0.648" y2="0.432" gradientUnits="objectBoundingBox">
      <stop offset="0" stop-color="#6ebd44"/>
      <stop offset="0.46" stop-color="#0da34b"/>
      <stop offset="0.88" stop-color="#0a6442"/>
      <stop offset="1" stop-color="#0a6442"/>
    </linearGradient>
    <linearGradient id="linear-gradient-5" x1="0.607" y1="0.904" x2="0.124" y2="0.105" gradientUnits="objectBoundingBox">
      <stop offset="0" stop-color="#689f42"/>
      <stop offset="1" stop-color="#a9bf38"/>
    </linearGradient>
    <linearGradient id="linear-gradient-6" x1="0.468" y1="0.642" x2="0.942" y2="0.458" gradientUnits="objectBoundingBox">
      <stop offset="0" stop-color="#9e5f26"/>
      <stop offset="1" stop-color="#e0a226"/>
    </linearGradient>
    <linearGradient id="linear-gradient-7" x1="0.142" y1="0.471" x2="0.892" y2="0.618" gradientUnits="objectBoundingBox">
      <stop offset="0" stop-color="#9e3722"/>
      <stop offset="0.54" stop-color="#9e3722"/>
      <stop offset="1" stop-color="#d46227"/>
    </linearGradient>
    <linearGradient id="linear-gradient-8" x1="0.831" y1="1.055" x2="0.491" y2="0.379" gradientUnits="objectBoundingBox">
      <stop offset="0" stop-color="#bc2128"/>
      <stop offset="0.59" stop-color="#a01d24"/>
      <stop offset="1" stop-color="#7e1322"/>
    </linearGradient>
    <linearGradient id="linear-gradient-9" x1="-0.025" y1="0.752" x2="0.857" y2="0.032" gradientUnits="objectBoundingBox">
      <stop offset="0" stop-color="#9e4222"/>
      <stop offset="0.52" stop-color="#e07227"/>
      <stop offset="1" stop-color="#e07227"/>
    </linearGradient>
  </defs>
  <g id="azista-icon" transform="translate(-727.349 -245.71)">
    <path id="Path_35" data-name="Path 35" d="M165.82,97.46l-3.21-9.88A12.78,12.78,0,0,0,165,84.75a13.34,13.34,0,0,0,1.48-3.37,13.18,13.18,0,0,0-.12-7.53,12.5,12.5,0,0,0-3.14-5.18,13.509,13.509,0,0,0-2.31-1.82,13.7,13.7,0,0,0-2.66-1.24l-.49-.15-.49-.14-.5-.11a4.543,4.543,0,0,1-.51-.09l.43.07.73.13.72.17.71.19.7.22a18.22,18.22,0,0,1,9.8,7.77,18.569,18.569,0,0,1,1.85,4.07,18.987,18.987,0,0,1-5.35,19.72Z" transform="translate(605 214.9)" fill-rule="evenodd" fill="url(#linear-gradient)"/>
    <path id="Path_36" data-name="Path 36" d="M165.71,65.16a16.829,16.829,0,0,1,3.49,1.64,16.18,16.18,0,0,1,3,2.4,16.389,16.389,0,0,1,2.43,3.1,17.37,17.37,0,0,1,.69,16.63,16.91,16.91,0,0,1-3.86,5.14,16.59,16.59,0,0,1-5.66,3.39,18.987,18.987,0,0,0,5.35-19.72A18.2,18.2,0,0,0,159.5,65.9q-.48-.16-1-.3l-1-.25-1-.19c-.34,0-.69-.1-1-.13a15.829,15.829,0,0,1,2.61-.58,15.2,15.2,0,0,1,2.6-.16,15.63,15.63,0,0,1,2.56.24,17.061,17.061,0,0,1,2.44.63Z" transform="translate(605 214.9)" fill="#cc2d7d" fill-rule="evenodd"/>
    <path id="Path_37" data-name="Path 37" d="M141.46,96.17l4.21-9.48h1.39a2.283,2.283,0,0,0,.69-.07l.69-.12a12.941,12.941,0,0,0,2.8-.92A12.521,12.521,0,0,0,153.78,84a13.529,13.529,0,0,0,2.14-2.14,12.89,12.89,0,0,0,2.61-10.15,13.591,13.591,0,0,0-1.09-3.54,13.829,13.829,0,0,0-2-3.11h.07a19.519,19.519,0,0,1,2.9,4.46A19.78,19.78,0,0,1,160,74.58a19,19,0,0,1,.11,5.38,18.68,18.68,0,0,1-1.52,5.35,18.941,18.941,0,0,1-2.35,3.86,18,18,0,0,1-3.08,3.09,18.26,18.26,0,0,1-7.68,3.56c-.33.07-.66.12-1,.17s-.66.09-1,.12-.67,0-1,.06A4.967,4.967,0,0,1,141.46,96.17Z" transform="translate(605 214.9)" fill-rule="evenodd" fill="url(#linear-gradient-2)"/>
    <path id="Path_38" data-name="Path 38" d="M155.49,65a17.16,17.16,0,0,1,5.25,4.06,17.65,17.65,0,0,1,3.27,5.6,17.43,17.43,0,0,1,1,6.42,17,17,0,0,1-1.53,6.54,17.3,17.3,0,0,1-2.15,3.55A16.839,16.839,0,0,1,158.52,94a16.2,16.2,0,0,1-3.34,2,16.549,16.549,0,0,1-3.7,1.22,17,17,0,0,1-2.48.31,16.491,16.491,0,0,1-2.53-.07,16.82,16.82,0,0,1-5-1.37h1a5.6,5.6,0,0,0,1-.06c.33-.06.66-.07,1-.12s.66-.1,1-.17a18.26,18.26,0,0,0,7.68-3.56,18,18,0,0,0,3.08-3.09,18.939,18.939,0,0,0,2.35-3.86,18.68,18.68,0,0,0,1.5-5.23,19,19,0,0,0-.11-5.38,19.78,19.78,0,0,0-1.58-5.09,19.521,19.521,0,0,0-2.9-4.53Z" transform="translate(605 214.9)" fill="#0095d7" fill-rule="evenodd"/>
    <path id="Path_39" data-name="Path 39" d="M125.31,80.11l9.14-4.6a12.585,12.585,0,0,0,10.08,3.03q.48-.08,1-.18c.33-.07.65-.15,1-.25a8.853,8.853,0,0,0,.95-.34,9.528,9.528,0,0,0,.93-.42,12.27,12.27,0,0,0,3.12-2.2,12.86,12.86,0,0,0,2.26-3,13.68,13.68,0,0,0,1.7-7.17h.07a19.929,19.929,0,0,1-.52,5.34,19.39,19.39,0,0,1-1.92,5,18.47,18.47,0,0,1-3.25,4.24,17.51,17.51,0,0,1-4.49,3.18c-.44.22-.89.42-1.34.6s-.91.34-1.37.48a13.559,13.559,0,0,1-1.39.37c-.46.11-.92.19-1.39.26a18.112,18.112,0,0,1-11.3-2.1,18.55,18.55,0,0,1-3.28-2.24Z" transform="translate(605 214.9)" fill-rule="evenodd" fill="url(#linear-gradient-3)"/>
    <path id="Path_40" data-name="Path 40" d="M155.49,65a17.83,17.83,0,0,1,.63,13,17.15,17.15,0,0,1-3.19,5.64,16.23,16.23,0,0,1-5.24,4.1c-.41.21-.82.39-1.23.56s-.84.31-1.26.44-.84.25-1.27.34-.85.18-1.28.24a16.74,16.74,0,0,1-14.2-4.83,17.43,17.43,0,0,1-3.14-4.41,18.55,18.55,0,0,0,3.21,2.25,18.09,18.09,0,0,0,7.39,2.22,18.319,18.319,0,0,0,3.91-.12c.47-.07.93-.15,1.39-.26a13.562,13.562,0,0,0,1.39-.37c.46-.14.91-.3,1.37-.48s.9-.38,1.34-.6a17.51,17.51,0,0,0,4.49-3.18,18.47,18.47,0,0,0,3.25-4.24,19.39,19.39,0,0,0,1.92-5A19.931,19.931,0,0,0,155.49,65Z" transform="translate(605 214.9)" fill="#3cbbc3" fill-rule="evenodd"/>
    <path id="Path_41" data-name="Path 41" d="M122.7,57.45a19.15,19.15,0,0,0,4.71,9.47,18.53,18.53,0,0,0,4.15,3.36,18.3,18.3,0,0,0,5.1,2c.47.11.94.2,1.4.27s.94.12,1.4.15.92,0,1.38,0a8.921,8.921,0,0,0,1.37-.07,17.89,17.89,0,0,0,3.65-.73,18.7,18.7,0,0,0,9.04-6.23l.26.36a18,18,0,0,1-2.23,4.62,17.59,17.59,0,0,1-3.36,3.68A16.84,16.84,0,0,1,145.36,77a16.21,16.21,0,0,1-4.78,1.19c-.42,0-.85.06-1.27.07s-.86,0-1.29,0a9.42,9.42,0,0,1-1.29-.14c-.43-.06-.87-.15-1.3-.25a16.44,16.44,0,0,1-6-2.77A17,17,0,0,1,125,70.27a17.44,17.44,0,0,1-2.28-12.82Z" transform="translate(605 214.9)" fill="#00af4c" fill-rule="evenodd"/>
    <path id="Path_42" data-name="Path 42" d="M122.7,57.45l9.93,2.32a13.46,13.46,0,0,0,1.18,3.53,12.69,12.69,0,0,0,8.51,6.8c.33.08.65.14,1,.19s.65.08,1,.11.64,0,1,0h1a12.26,12.26,0,0,0,2.69-.56,12.571,12.571,0,0,0,2.48-1.12,12.93,12.93,0,0,0,2.21-1.62,14.471,14.471,0,0,0,1.7-2.1h.07a19.66,19.66,0,0,1-2.65,3,19.361,19.361,0,0,1-3.16,2.33,18.859,18.859,0,0,1-3.58,1.61,17.51,17.51,0,0,1-3.87.8c-.45,0-.91.06-1.37.07s-.92,0-1.38,0a9.654,9.654,0,0,1-1.4-.15c-.47-.07-.93-.16-1.4-.27a18.3,18.3,0,0,1-5.1-2,18.789,18.789,0,0,1-8.86-12.94Z" transform="translate(605 214.9)" fill-rule="evenodd" fill="url(#linear-gradient-4)"/>
    <path id="Path_43" data-name="Path 43" d="M155.45,65l-.14.56a1.343,1.343,0,0,1-.07.27c-.02.09-.06.19-.08.28l-.27-.35a1.33,1.33,0,0,0,.14-.19l.14-.18.14-.19Z" transform="translate(605 214.9)" fill="#00af4c" fill-rule="evenodd"/>
    <path id="Path_44" data-name="Path 44" d="M133.35,39.21,140,47.09a13.24,13.24,0,0,0-1.15,7.27,12.82,12.82,0,0,0,1,3.61,13.121,13.121,0,0,0,2,3.29,12.92,12.92,0,0,0,2.29,2.1,12.281,12.281,0,0,0,2.62,1.41,12.8,12.8,0,0,0,2.84.75,13,13,0,0,0,2.92.08,1.982,1.982,0,0,0,.72-.09l.71-.12.7-.16.69-.2h.08l-1,.29c-.34.09-.68.16-1,.23s-.68.13-1,.18l-1,.12a19.14,19.14,0,0,1-4.21-.11,18.18,18.18,0,0,1-4.08-1.07,17.66,17.66,0,0,1-3.77-2,18,18,0,0,1-3.29-3,18.866,18.866,0,0,1-4.25-15.27,18.621,18.621,0,0,1,1.53-5.19Z" transform="translate(605 214.9)" fill-rule="evenodd" fill="url(#linear-gradient-5)"/>
    <path id="Path_45" data-name="Path 45" d="M133.35,39.21a18.62,18.62,0,0,0-1.57,5.12A19.045,19.045,0,0,0,136,59.6a18,18,0,0,0,3.29,3,17.66,17.66,0,0,0,3.77,2,18.18,18.18,0,0,0,4.08,1.07,19.14,19.14,0,0,0,4.21.11l1-.12q.51-.07,1-.18c.33-.07.67-.14,1-.23l1-.29a18,18,0,0,1-2.18,1.58,17.242,17.242,0,0,1-2.34,1.2,16.691,16.691,0,0,1-2.45.8A15.411,15.411,0,0,1,146,69a16.61,16.61,0,0,1-3.86-.1,17,17,0,0,1-3.74-1,16.21,16.21,0,0,1-3.51-1.9,16.67,16.67,0,0,1-3-2.77,16.94,16.94,0,0,1-3.27-5.88,17.51,17.51,0,0,1,.78-12.78A17,17,0,0,1,133.35,39.21Z" transform="translate(605 214.9)" fill="#c3d833" fill-rule="evenodd"/>
    <path id="Path_46" data-name="Path 46" d="M155.34,30.81V41.23a12.56,12.56,0,0,0-3.09,1.94,13.28,13.28,0,0,0-2.43,2.75,13.13,13.13,0,0,0-2.14,7.22,12.751,12.751,0,0,0,.47,3.47,13.19,13.19,0,0,0,6,7.74l-.5-.29a18.92,18.92,0,0,1-6.71-6.67,18.56,18.56,0,0,1-2.6-9.45,19,19,0,0,1,.82-5.519,18.16,18.16,0,0,1,2.27-4.861,18.761,18.761,0,0,1,3.48-4,18.11,18.11,0,0,1,4.43-2.75Z" transform="translate(605 214.9)" fill-rule="evenodd" fill="url(#linear-gradient-6)"/>
    <path id="Path_47" data-name="Path 47" d="M155.34,30.81a18.11,18.11,0,0,0-4.46,2.8,18.76,18.76,0,0,0-3.48,4,18.16,18.16,0,0,0-2.27,4.86,19,19,0,0,0-.82,5.52,18.561,18.561,0,0,0,.84,5.51,18.34,18.34,0,0,0,2.33,4.84A18.9,18.9,0,0,0,151,62.22a18.669,18.669,0,0,0,4.47,2.8A16.63,16.63,0,0,1,149,63.6a17.1,17.1,0,0,1-10.2-15.67,17.47,17.47,0,0,1,1.29-6.62,17.19,17.19,0,0,1,3.54-5.41,16.74,16.74,0,0,1,5.24-3.68,16.49,16.49,0,0,1,6.47-1.41Z" transform="translate(605 214.9)" fill="#f9e629" fill-rule="evenodd"/>
    <path id="Path_54" data-name="Path 54" d="M187.85,57.05,178,59.46a12.5,12.5,0,0,0-1.82-2A13.31,13.31,0,0,0,174,55.87a12.81,12.81,0,0,0-2.46-1.07,12.36,12.36,0,0,0-2.64-.53h-1a8.19,8.19,0,0,0-1,0,6.948,6.948,0,0,0-1,.11c-.34.05-.67.12-1,.2a12,12,0,0,0-5.61,3.08A13.23,13.23,0,0,0,155.92,63l.3-.88a19.421,19.421,0,0,1,2-4.14,19,19,0,0,1,2.87-3.53A17.71,17.71,0,0,1,169.12,50c.48-.11,1-.2,1.43-.28a13.9,13.9,0,0,1,1.43-.16c.43-.03,1,0,1.42,0a9.72,9.72,0,0,1,1.4.07,17.3,17.3,0,0,1,3.8.76,17.81,17.81,0,0,1,3.52,1.54,18.4,18.4,0,0,1,5.73,5.16Z" transform="translate(605 214.9)" fill-rule="evenodd" fill="url(#linear-gradient-7)"/>
    <path id="Path_55" data-name="Path 55" d="M173.09,44.2a16.21,16.21,0,0,1,5,1.25,16.88,16.88,0,0,1,4.33,2.69,17.15,17.15,0,0,1,5.46,8.91,18.4,18.4,0,0,0-5.73-5.16,17.81,17.81,0,0,0-3.52-1.54,17.3,17.3,0,0,0-3.8-.76c-.47,0-.93-.06-1.4-.07s-.94,0-1.42,0a9.934,9.934,0,0,0-1.43.16,14.487,14.487,0,0,0-1.43.28,17.51,17.51,0,0,0-5,2.08A18.479,18.479,0,0,0,160,55.5a19.26,19.26,0,0,0-2.92,4.42,19.88,19.88,0,0,0-1.64,5.1,17.86,17.86,0,0,1-.12-6.75,17.44,17.44,0,0,1,2.27-6.09,16.67,16.67,0,0,1,4.3-4.79,16.06,16.06,0,0,1,6-2.8c.43-.11.87-.19,1.31-.26s.88-.12,1.31-.15.87,0,1.3,0S172.66,44.16,173.09,44.2Z" transform="translate(605 214.9)" fill="#ef5327" fill-rule="evenodd"/>
    <path id="Path_56" data-name="Path 56" d="M185.09,80.61,176,75.87a13.1,13.1,0,0,0-.26-3.7,13.29,13.29,0,0,0-1.26-3.46,12.87,12.87,0,0,0-5.25-5.26c-.29-.15-.59-.3-.89-.43s-.6-.25-.91-.35-.61-.19-.91-.27-.62-.15-.93-.2a12,12,0,0,0-2.31-.17,13.26,13.26,0,0,0-2.27.26,13,13,0,0,0-2.2.67A12.441,12.441,0,0,0,156.79,64l.68-.43a18.39,18.39,0,0,1,6.1-2.48,17.9,17.9,0,0,1,3.27-.37,16.77,16.77,0,0,1,3.31.24c.44.08.89.18,1.33.29s.88.24,1.32.39.87.32,1.3.5.85.4,1.27.62a18.21,18.21,0,0,1,4.39,3.27,18.48,18.48,0,0,1,3.14,4.29,19,19,0,0,1,1.81,5,18.511,18.511,0,0,1,.38,5.29Z" transform="translate(605 214.9)" fill-rule="evenodd" fill="url(#linear-gradient-8)"/>
    <path id="Path_57" data-name="Path 57" d="M173,56.18c.41.07.82.16,1.23.26s.82.23,1.22.36.81.3,1.21.47.79.37,1.18.58a16.65,16.65,0,0,1,5.1,4.21,17.2,17.2,0,0,1,3,5.67,17.6,17.6,0,0,1,.78,6.42,17.29,17.29,0,0,1-1.71,6.46,18.51,18.51,0,0,0-.38-5.31,19,19,0,0,0-1.81-5,18.48,18.48,0,0,0-3.14-4.29,18.21,18.21,0,0,0-4.39-3.27c-.42-.22-.84-.43-1.27-.62s-.87-.35-1.3-.5-.88-.28-1.32-.39-.89-.21-1.33-.29a17.71,17.71,0,0,0-7.76.42,18.55,18.55,0,0,0-3.63,1.44,18.75,18.75,0,0,0-3.2,2.2,17.7,17.7,0,0,1,3.26-4.34,17,17,0,0,1,4.26-3,16.51,16.51,0,0,1,4.89-1.55,15.9,15.9,0,0,1,5.11.07Z" transform="translate(605 214.9)" fill="#ea2629" fill-rule="evenodd"/>
    <path id="Path_58" data-name="Path 58" d="M174.82,37.22l-5.94,8.45c-.23-.05-.45-.1-.68-.13l-.69-.1h-1.38a12.45,12.45,0,0,0-2.91.35,12.59,12.59,0,0,0-2.76,1,12.74,12.74,0,0,0-4.58,4,12.29,12.29,0,0,0-1.54,3,12.921,12.921,0,0,0-.72,3.16,13.59,13.59,0,0,0,.91,6.31l-.32-.8A19.579,19.579,0,0,1,153,57.93a19.21,19.21,0,0,1-.11-4.61,19,19,0,0,1,1-4.55,18.3,18.3,0,0,1,5.23-7.59,18.092,18.092,0,0,1,11.72-4.42h1l1,.08a5.866,5.866,0,0,1,1,.14C174.18,37.04,174.5,37.15,174.82,37.22Z" transform="translate(605 214.9)" fill-rule="evenodd" fill="url(#linear-gradient-9)"/>
    <path id="Path_59" data-name="Path 59" d="M165.25,34.15a16.06,16.06,0,0,1,2.49.19,15.24,15.24,0,0,1,2.45.57,15.079,15.079,0,0,1,2.37,1,15.33,15.33,0,0,1,2.26,1.35c-.32-.07-.65-.14-1-.19s-.65-.1-1-.14l-1-.08h-1a18.091,18.091,0,0,0-11.72,4.42,18.32,18.32,0,0,0-5.47,8.29,18.91,18.91,0,0,0-.87,5.31A19.55,19.55,0,0,0,155.5,65a17.38,17.38,0,0,1-4.43-5,17.69,17.69,0,0,1-2.21-6.14,17.4,17.4,0,0,1,.17-6.51,16.65,16.65,0,0,1,2.69-6.13,17.28,17.28,0,0,1,2.76-3.06A16.53,16.53,0,0,1,157.77,36a16.74,16.74,0,0,1,3.65-1.36,16.449,16.449,0,0,1,3.83-.49Z" transform="translate(605 214.9)" fill="#f49428" fill-rule="evenodd"/>
  </g>
</svg>
