<svg id="login-img-2" xmlns="http://www.w3.org/2000/svg" width="485.995" height="522.931" viewBox="0 0 485.995 522.931">
  <path id="Path_9207" data-name="Path 9207" d="M619.283,435.731l-210.08,54.1a27.779,27.779,0,0,1-33.79-19.951L311.88,223.157a27.779,27.779,0,0,1,19.951-33.79l195.445-50.329L577.3,161.432l61.934,240.509a27.779,27.779,0,0,1-19.951,33.79Z" transform="translate(-311.004 -139.037)" fill="#f2f2f2"/>
  <path id="Path_9208" data-name="Path 9208" d="M335.335,198.7a19.782,19.782,0,0,0-14.208,24.063l63.534,246.721a19.782,19.782,0,0,0,24.063,14.208l210.079-54.1a19.782,19.782,0,0,0,14.208-24.063L572.037,168.747l-43.963-19.681Z" transform="translate(-312.516 -140.634)" fill="#fff"/>
  <path id="Path_9209" data-name="Path 9209" d="M617.618,162.829,585.105,171.2a9.241,9.241,0,0,1-11.254-6.645l-6.184-24.014a.578.578,0,0,1,.794-.672l49.247,21.87a.578.578,0,0,1-.091,1.088Z" transform="translate(-351.855 -139.162)" fill="#f2f2f2"/>
  <path id="Path_9210" data-name="Path 9210" d="M587.535,416.043l-95.646,24.63a4.621,4.621,0,0,1-2.3-8.949l95.646-24.63a4.621,4.621,0,1,1,2.3,8.949Z" transform="translate(-338.877 -181.682)" fill="#ccc"/>
  <path id="Path_9211" data-name="Path 9211" d="M610.618,428.351l-114.1,29.383a4.621,4.621,0,0,1-2.3-8.949l114.1-29.383a4.621,4.621,0,1,1,2.3,8.949Z" transform="translate(-339.613 -183.641)" fill="#ccc"/>
  <circle id="Ellipse_44" data-name="Ellipse 44" cx="16.331" cy="16.331" r="16.331" transform="translate(97.643 255.994)" fill="#e6e6e6"/>
  <path id="Path_9212" data-name="Path 9212" d="M562.172,342.03l-127.028,32.7a14.31,14.31,0,0,1-17.406-10.28l-26.62-103.414A14.31,14.31,0,0,1,401.4,243.629l127.028-32.7a14.31,14.31,0,0,1,17.406,10.279l26.62,103.414a14.31,14.31,0,0,1-10.28,17.407Z" transform="translate(-323.684 -150.409)" fill="#fff"/>
  <path id="Path_9213" data-name="Path 9213" d="M562.172,342.03l-127.028,32.7a14.31,14.31,0,0,1-17.406-10.28l-26.62-103.414A14.31,14.31,0,0,1,401.4,243.629l127.028-32.7a14.31,14.31,0,0,1,17.406,10.279l26.62,103.414a14.31,14.31,0,0,1-10.28,17.407ZM401.816,245.258a12.627,12.627,0,0,0-9.07,15.358l26.62,103.414a12.627,12.627,0,0,0,15.358,9.07l127.028-32.7a12.627,12.627,0,0,0,9.07-15.358L544.2,221.629a12.627,12.627,0,0,0-15.358-9.07Z" transform="translate(-323.684 -150.409)" fill="#e6e6e6"/>
  <path id="Path_411" data-name="Path 411" d="M534.157,251.51l-64.109,16.5a2.3,2.3,0,0,1-2.782-1.445,2.212,2.212,0,0,1,1.558-2.808l65.259-16.8c2.636,1.336,1.943,4.068.073,4.549Z" transform="translate(-335.86 -156.216)" fill="#f2f2f2"/>
  <path id="Path_412" data-name="Path 412" d="M537.6,264.884l-64.109,16.5a2.3,2.3,0,0,1-2.782-1.445,2.212,2.212,0,0,1,1.558-2.808l65.259-16.8c2.636,1.336,1.943,4.068.073,4.549Z" transform="translate(-336.408 -158.345)" fill="#f2f2f2"/>
  <path id="Path_413" data-name="Path 413" d="M454.1,291.931l-19.566,5.036a2.491,2.491,0,0,1-3.03-1.789l-5.943-23.089a2.491,2.491,0,0,1,1.789-3.03l19.566-5.036a2.491,2.491,0,0,1,3.03,1.789l5.943,23.089A2.491,2.491,0,0,1,454.1,291.931Z" transform="translate(-329.225 -158.919)" fill="#e6e6e6"/>
  <path id="Path_414" data-name="Path 414" d="M538.041,292.324,440.2,317.51a2.3,2.3,0,0,1-2.782-1.445,2.212,2.212,0,0,1,1.558-2.808l98.993-25.482c2.636,1.336,1.943,4.068.073,4.549Z" transform="translate(-331.109 -162.712)" fill="#f2f2f2"/>
  <path id="Path_415" data-name="Path 415" d="M541.485,305.7l-97.843,25.186a2.3,2.3,0,0,1-2.782-1.445,2.212,2.212,0,0,1,1.558-2.808l98.993-25.482c2.636,1.336,1.943,4.068.073,4.549Z" transform="translate(-331.657 -164.842)" fill="#f2f2f2"/>
  <path id="Path_416" data-name="Path 416" d="M544.926,319.071l-97.842,25.186a2.3,2.3,0,0,1-2.782-1.445A2.212,2.212,0,0,1,445.86,340l98.993-25.482c2.636,1.336,1.943,4.068.073,4.549Z" transform="translate(-332.205 -166.97)" fill="#f2f2f2"/>
  <path id="Path_417" data-name="Path 417" d="M548.37,332.448l-97.843,25.186a2.3,2.3,0,0,1-2.782-1.445,2.212,2.212,0,0,1,1.558-2.808L548.3,327.9c2.636,1.336,1.943,4.068.073,4.549Z" transform="translate(-332.753 -169.099)" fill="#f2f2f2"/>
  <path id="Path_418" data-name="Path 418" d="M551.811,345.818,453.969,371a2.3,2.3,0,0,1-2.782-1.445,2.212,2.212,0,0,1,1.558-2.808l98.993-25.482c2.636,1.336,1.943,4.068.073,4.549Z" transform="translate(-333.301 -171.227)" fill="#f2f2f2"/>
  <path id="Path_395" data-name="Path 395" d="M446.741,467.109a1.694,1.694,0,0,1-1.071-.074l-.021-.009-4.449-1.886A1.706,1.706,0,0,1,442.535,462l2.883,1.226,3.778-8.887a1.7,1.7,0,0,1,2.236-.9h0l-.023.058.024-.058a1.707,1.707,0,0,1,.9,2.237l-4.444,10.449a1.706,1.706,0,0,1-1.148.982Z" transform="translate(-331.562 -189.06)" fill="#fff"/>
  <path id="Path_9214" data-name="Path 9214" d="M727.155,544.98H510.222a27.779,27.779,0,0,1-27.747-27.747V262.462a27.779,27.779,0,0,1,27.747-27.747h201.82L754.9,268.877V517.233a27.779,27.779,0,0,1-27.746,27.747Z" transform="translate(-338.297 -154.267)" fill="#e6e6e6"/>
  <path id="Path_9215" data-name="Path 9215" d="M511.733,244.215a19.782,19.782,0,0,0-19.759,19.759v254.77A19.782,19.782,0,0,0,511.733,538.5H728.667a19.782,19.782,0,0,0,19.76-19.759V274.237L710.76,244.214Z" transform="translate(-339.809 -155.779)" fill="#fff"/>
  <path id="Path_9216" data-name="Path 9216" d="M703.722,330.57H604.955a4.621,4.621,0,0,1,0-9.241h98.767a4.621,4.621,0,1,1,0,9.241Z" transform="translate(-357.058 -168.053)" fill="#00bfa6"/>
  <path id="Path_9217" data-name="Path 9217" d="M722.782,349.117H604.955a4.621,4.621,0,0,1,0-9.241H722.782a4.621,4.621,0,0,1,0,9.241Z" transform="translate(-357.058 -171.005)" fill="#00bfa6"/>
  <path id="Path_9218" data-name="Path 9218" d="M703.723,404.443H604.959a4.62,4.62,0,0,0,0,9.241h98.763a4.62,4.62,0,0,0,0-9.241Z" transform="translate(-357.058 -181.283)" fill="#ccc"/>
  <path id="Path_9219" data-name="Path 9219" d="M722.784,422.993H604.959a4.62,4.62,0,0,0,0,9.241H722.784a4.62,4.62,0,0,0,0-9.241Z" transform="translate(-357.058 -184.236)" fill="#ccc"/>
  <path id="Path_9220" data-name="Path 9220" d="M703.722,496.8H604.955a4.621,4.621,0,0,1,0-9.241h98.767a4.621,4.621,0,1,1,0,9.241Z" transform="translate(-357.058 -194.513)" fill="#ccc"/>
  <path id="Path_9221" data-name="Path 9221" d="M722.782,515.352H604.955a4.621,4.621,0,0,1,0-9.241H722.782a4.621,4.621,0,0,1,0,9.241Z" transform="translate(-357.058 -197.466)" fill="#ccc"/>
  <circle id="Ellipse_44-2" data-name="Ellipse 44" cx="16.331" cy="16.331" r="16.331" transform="translate(190.438 149.362)" fill="#00bfa6"/>
  <path id="Path_395-2" data-name="Path 395" d="M553.941,341.155a1.693,1.693,0,0,1-1.019-.339l-.018-.014-3.838-2.936a1.706,1.706,0,0,1,2.076-2.707l2.486,1.906L559.5,329.4a1.7,1.7,0,0,1,2.39-.316h0l-.036.051.037-.051a1.707,1.707,0,0,1,.315,2.391l-6.91,9.011a1.706,1.706,0,0,1-1.357.665Z" transform="translate(-348.791 -169.232)" fill="#fff"/>
  <path id="Path_9222" data-name="Path 9222" d="M572.151,416.121a16.331,16.331,0,0,1-16.329,16.337,3.511,3.511,0,0,1-.42-.017,16.331,16.331,0,1,1,16.749-16.32Z" transform="translate(-347.373 -180.542)" fill="#ccc"/>
  <circle id="Ellipse_44-3" data-name="Ellipse 44" cx="16.331" cy="16.331" r="16.331" transform="translate(190.438 289.136)" fill="#ccc"/>
  <path id="Path_9223" data-name="Path 9223" d="M797.377,270.1H763.8a9.241,9.241,0,0,1-9.241-9.241v-24.8a.578.578,0,0,1,.936-.453l42.237,33.461a.578.578,0,0,1-.359,1.03Z" transform="translate(-381.607 -154.389)" fill="#ccc"/>
  <path id="Path_9224" data-name="Path 9224" d="M574.682,416.165A16.331,16.331,0,0,1,558.354,432.5a3.511,3.511,0,0,1-.42-.017,35.357,35.357,0,0,1,3.17-32.422A16.34,16.34,0,0,1,574.682,416.165Z" transform="translate(-349.904 -180.586)" fill="#00bfa6"/>
  <path id="Path_9225" data-name="Path 9225" d="M600.334,409.068a4.633,4.633,0,0,1,4.625-4.625H629.57a34.957,34.957,0,0,1,3.035,9.241H604.958a4.625,4.625,0,0,1-4.625-4.615Z" transform="translate(-357.057 -181.283)" fill="#00bfa6"/>
  <path id="Path_9226" data-name="Path 9226" d="M633.177,422.993a35.252,35.252,0,0,1-1.228,9.241H604.959a4.62,4.62,0,1,1,0-9.241Z" transform="translate(-357.058 -184.236)" fill="#00bfa6"/>
  <path id="Path_9227" data-name="Path 9227" d="M698.9,482.521a5.045,5.045,0,0,1-6.934,1.68l-58.862-35.9a5.045,5.045,0,1,1,5.254-8.614l58.862,35.9a5.045,5.045,0,0,1,1.68,6.934Z" transform="translate(-361.889 -186.775)" fill="#3f3d56"/>
  <path id="Path_9228" data-name="Path 9228" d="M627.647,436.45a40.36,40.36,0,1,1-13.439-55.473,40.36,40.36,0,0,1,13.439,55.473Zm-60.3-36.779a30.27,30.27,0,1,0,41.6-10.079,30.27,30.27,0,0,0-41.6,10.079Z" transform="translate(-349.495 -176.607)" fill="#3f3d56"/>
  <circle id="Ellipse_1163" data-name="Ellipse 1163" cx="20.652" cy="20.652" r="20.652" transform="translate(386.812 203.994)" fill="#a0616a"/>
  <path id="Path_9229" data-name="Path 9229" d="M793.931,528.854a9.251,9.251,0,0,1,7-11.9,8.8,8.8,0,0,1,1.227-.151l21.753-34.914L804.039,463a7.931,7.931,0,1,1,11.032-11.4l27.435,27.053.055.067a7.185,7.185,0,0,1-.5,8.564l-30.48,36.049a8.665,8.665,0,0,1,.227.879,9.251,9.251,0,0,1-8.3,11.029q-.394.034-.784.034A9.28,9.28,0,0,1,793.931,528.854Z" transform="translate(-387.803 -188.434)" fill="#a0616a"/>
  <path id="Path_9230" data-name="Path 9230" d="M441.271,601.474H430.963l-4.9-39.761h15.214Z" transform="translate(-67.821 -89.41)" fill="#a0616a"/>
  <path id="Path_9231" data-name="Path 9231" d="M751.985,757.393H718.746v-.42a12.937,12.937,0,0,1,12.938-12.937h20.3Z" transform="translate(-375.906 -235.337)" fill="#2f2e41"/>
  <path id="Path_9232" data-name="Path 9232" d="M559.682,585.583l-8.857,5.274L526.268,559.2l13.072-7.784Z" transform="translate(-83.772 -87.772)" fill="#a0616a"/>
  <path id="Path_9233" data-name="Path 9233" d="M879.979,737.526l-28.559,17-.215-.361a12.937,12.937,0,0,1,4.5-17.735h0l17.443-10.386Z" transform="translate(-396.699 -232.474)" fill="#2f2e41"/>
  <path id="Path_9234" data-name="Path 9234" d="M734.517,691.641c-6.906-81.313-11.014-156.852,14.23-187.667l.2-.239,42.483,16.994.07.152c.143.312,14.272,31.391,10.976,52.295l10.479,48.2,34.168,57.211a3.785,3.785,0,0,1-1.724,5.4l-14.848,6.533a3.8,3.8,0,0,1-4.749-1.485l-37.168-60.607-20.994-46.486a1.261,1.261,0,0,0-2.4.386L753.595,691.724a3.777,3.777,0,0,1-3.762,3.384H738.289a3.809,3.809,0,0,1-3.772-3.466Z" transform="translate(-377.58 -197.088)" fill="#2f2e41"/>
  <path id="Path_9235" data-name="Path 9235" d="M752.458,494.327l-.2-.1-.032-.223c-1.587-11.107.292-23.449,5.583-36.681a29.123,29.123,0,0,1,33.8-17.441h0a29.088,29.088,0,0,1,18.549,14.264,28.774,28.774,0,0,1,2,23.06c-6.671,19.507-15.325,37.759-15.411,37.941l-.181.381Z" transform="translate(-381.148 -186.796)" fill="#00bfa6"/>
  <path id="Path_9236" data-name="Path 9236" d="M696.815,468.408a9.251,9.251,0,0,1,13.6,2.387,8.8,8.8,0,0,1,.571,1.1l40.321,8.149,10.736-25.228a7.931,7.931,0,1,1,14.538,6.343l-15.732,35.172-.044.075a7.185,7.185,0,0,1-8.2,2.531l-44.44-15.926a8.663,8.663,0,0,1-.744.521,9.251,9.251,0,0,1-13.238-3.915q-.17-.357-.307-.722a9.28,9.28,0,0,1,2.939-10.483Z" transform="translate(-371.855 -188.543)" fill="#a0616a"/>
  <path id="Path_9237" data-name="Path 9237" d="M865.468,422.821c-1.989-3.525-4.887-6.753-8.719-8.056-4.948-1.682-10.306.109-15.393,1.305a28.521,28.521,0,0,1-11.965.708c-3.95-.778-7.761-3.077-9.559-6.68-2.644-5.3-.417-11.621-.578-17.542a21.3,21.3,0,0,0-26.842-20.021c-4.871-1.406-9.282-1.536-12.3,2.209a14.294,14.294,0,0,0-14.294,14.294h13.668a13.579,13.579,0,0,0,2.063,10.032c2.413,3.545,6.608,6.109,7.416,10.32.783,4.081-1.991,7.953-4.9,10.92s-6.285,5.906-7.194,9.961a12.351,12.351,0,0,0,1.769,8.883A28.927,28.927,0,0,0,784.855,446a91.147,91.147,0,0,0,37.869,19.373c9.841,2.369,20.605,2.983,29.741-1.375a29.534,29.534,0,0,0,13-41.172Z" transform="translate(-383.399 -176.06)" fill="#2f2e41"/>
  <path id="Path_9238" data-name="Path 9238" d="M857.6,760.645H697.842a.841.841,0,0,1,0-1.682H857.6a.841.841,0,0,1,0,1.682Z" transform="translate(-372.444 -237.713)" fill="#ccc"/>
</svg>
