<svg id="login-img-1" xmlns="http://www.w3.org/2000/svg" width="740.675" height="473.948" viewBox="0 0 740.675 473.948">
  <path id="Path_33" data-name="Path 33" d="M341.173,342.449a122.041,122.041,0,0,1,10.1-38.517q2.28-5.092,5.018-9.961a.744.744,0,0,0-1.284-.75A123.729,123.729,0,0,0,341.24,331.2q-1.034,5.584-1.554,11.246c-.088.952,1.4.946,1.486,0Z" transform="translate(-229.662 -213.026)" fill="#e6e6e6"/>
  <circle id="Ellipse_2" data-name="Ellipse 2" cx="9.414" cy="9.414" r="9.414" transform="translate(120.816 64.5)" fill="#e6e6e6"/>
  <path id="Path_34" data-name="Path 34" d="M342.136,342.7a79.175,79.175,0,0,1,6.553-24.988q1.479-3.3,3.255-6.462a.483.483,0,0,0-.833-.487A80.269,80.269,0,0,0,342.18,335.4q-.671,3.622-1.008,7.3c-.057.618.908.614.964,0Z" transform="translate(-229.662 -213.026)" fill="#e6e6e6"/>
  <circle id="Ellipse_3" data-name="Ellipse 3" cx="6.108" cy="6.108" r="6.108" transform="translate(118.51 87.554)" fill="#e6e6e6"/>
  <path id="Path_35" data-name="Path 35" d="M340.919,342.122a79.175,79.175,0,0,1-10.2-23.733q-.866-3.514-1.408-7.1a.483.483,0,0,0-.956.128,80.269,80.269,0,0,0,8.113,24.923q1.7,3.269,3.693,6.373c.335.522,1.093-.074.76-.593Z" transform="translate(-229.662 -213.026)" fill="#e6e6e6"/>
  <circle id="Ellipse_4" data-name="Ellipse 4" cx="6.108" cy="6.108" r="6.108" transform="translate(92.576 87.125)" fill="#e6e6e6"/>
  <path id="Path_36" data-name="Path 36" d="M322.169,347.526v-12a4.505,4.505,0,0,1,4.5-4.5h28a4.5,4.5,0,0,1,4.5,4.5v12a4.505,4.505,0,0,1-4.5,4.5h-28a4.505,4.505,0,0,1-4.5-4.5Z" transform="translate(-229.662 -213.026)" fill="#f2f2f2"/>
  <path id="Path_37" data-name="Path 37" d="M353.669,271.026h-12a4.505,4.505,0,0,1-4.5-4.5v-49a4.505,4.505,0,0,1,4.5-4.5h12a4.505,4.505,0,0,1,4.5,4.5v49A4.505,4.505,0,0,1,353.669,271.026Z" transform="translate(-229.662 -213.026)" fill="#f2f2f2"/>
  <rect id="Rectangle_1" data-name="Rectangle 1" width="20" height="4" transform="translate(108.007 9.5)" fill="#ccc"/>
  <rect id="Rectangle_2" data-name="Rectangle 2" width="20" height="4" transform="translate(108.007 40.5)" fill="#ccc"/>
  <path id="Path_38" data-name="Path 38" d="M383.669,271.026h-12a4.505,4.505,0,0,1-4.5-4.5v-49a4.505,4.505,0,0,1,4.5-4.5h12a4.505,4.505,0,0,1,4.5,4.5v49A4.505,4.505,0,0,1,383.669,271.026Z" transform="translate(-229.662 -213.026)" fill="#f2f2f2"/>
  <rect id="Rectangle_3" data-name="Rectangle 3" width="20" height="4" transform="translate(138.007 9.5)" fill="#ccc"/>
  <rect id="Rectangle_4" data-name="Rectangle 4" width="20" height="4" transform="translate(138.007 40.5)" fill="#ccc"/>
  <path id="Path_39" data-name="Path 39" d="M413.669,271.026h-12a4.505,4.505,0,0,1-4.5-4.5v-49a4.505,4.505,0,0,1,4.5-4.5h12a4.505,4.505,0,0,1,4.5,4.5v49A4.505,4.505,0,0,1,413.669,271.026Z" transform="translate(-229.662 -213.026)" fill="#f2f2f2"/>
  <rect id="Rectangle_5" data-name="Rectangle 5" width="20" height="4" transform="translate(168.007 9.5)" fill="#ccc"/>
  <rect id="Rectangle_6" data-name="Rectangle 6" width="20" height="4" transform="translate(168.007 40.5)" fill="#ccc"/>
  <path id="Path_40" data-name="Path 40" d="M429.669,352.026h-12a4.505,4.505,0,0,1-4.5-4.5v-49a4.505,4.505,0,0,1,4.5-4.5h12a4.505,4.505,0,0,1,4.5,4.5v49A4.505,4.505,0,0,1,429.669,352.026Z" transform="translate(-229.662 -213.026)" fill="#f2f2f2"/>
  <rect id="Rectangle_7" data-name="Rectangle 7" width="20" height="4" transform="translate(184.007 90.5)" fill="#ccc"/>
  <rect id="Rectangle_8" data-name="Rectangle 8" width="20" height="4" transform="translate(184.007 121.5)" fill="#ccc"/>
  <path id="Path_41" data-name="Path 41" d="M459.669,352.026h-12a4.505,4.505,0,0,1-4.5-4.5v-49a4.505,4.505,0,0,1,4.5-4.5h12a4.505,4.505,0,0,1,4.5,4.5v49A4.505,4.505,0,0,1,459.669,352.026Z" transform="translate(-229.662 -213.026)" fill="#f2f2f2"/>
  <rect id="Rectangle_9" data-name="Rectangle 9" width="20" height="4" transform="translate(214.007 90.5)" fill="#ccc"/>
  <rect id="Rectangle_10" data-name="Rectangle 10" width="20" height="4" transform="translate(214.007 121.5)" fill="#ccc"/>
  <path id="Path_42" data-name="Path 42" d="M489.669,352.026h-12a4.505,4.505,0,0,1-4.5-4.5v-49a4.505,4.505,0,0,1,4.5-4.5h12a4.505,4.505,0,0,1,4.5,4.5v49A4.505,4.505,0,0,1,489.669,352.026Z" transform="translate(-229.662 -213.026)" fill="#f2f2f2"/>
  <rect id="Rectangle_11" data-name="Rectangle 11" width="20" height="4" transform="translate(244.007 90.5)" fill="#ccc"/>
  <rect id="Rectangle_12" data-name="Rectangle 12" width="20" height="4" transform="translate(244.007 121.5)" fill="#ccc"/>
  <path id="Path_43" data-name="Path 43" d="M350.669,433.026h-12a4.505,4.505,0,0,1-4.5-4.5v-49a4.505,4.505,0,0,1,4.5-4.5h12a4.505,4.505,0,0,1,4.5,4.5v49a4.505,4.505,0,0,1-4.5,4.5Z" transform="translate(-229.662 -213.026)" fill="#f2f2f2"/>
  <rect id="Rectangle_13" data-name="Rectangle 13" width="20" height="4" transform="translate(105.007 171.5)" fill="#ccc"/>
  <rect id="Rectangle_14" data-name="Rectangle 14" width="20" height="4" transform="translate(105.007 202.5)" fill="#ccc"/>
  <path id="Path_44" data-name="Path 44" d="M380.669,433.026h-12a4.505,4.505,0,0,1-4.5-4.5v-49a4.505,4.505,0,0,1,4.5-4.5h12a4.505,4.505,0,0,1,4.5,4.5v49a4.505,4.505,0,0,1-4.5,4.5Z" transform="translate(-229.662 -213.026)" fill="#f2f2f2"/>
  <rect id="Rectangle_15" data-name="Rectangle 15" width="20" height="4" transform="translate(135.007 171.5)" fill="#ccc"/>
  <rect id="Rectangle_16" data-name="Rectangle 16" width="20" height="4" transform="translate(135.007 202.5)" fill="#ccc"/>
  <path id="Path_45" data-name="Path 45" d="M410.669,433.026h-12a4.505,4.505,0,0,1-4.5-4.5v-49a4.505,4.505,0,0,1,4.5-4.5h12a4.505,4.505,0,0,1,4.5,4.5v49a4.505,4.505,0,0,1-4.5,4.5Z" transform="translate(-229.662 -213.026)" fill="#f2f2f2"/>
  <rect id="Rectangle_17" data-name="Rectangle 17" width="20" height="4" transform="translate(165.007 171.5)" fill="#ccc"/>
  <rect id="Rectangle_18" data-name="Rectangle 18" width="20" height="4" transform="translate(165.007 202.5)" fill="#ccc"/>
  <path id="Path_46" data-name="Path 46" d="M443.669,271.026h-12a4.505,4.505,0,0,1-4.5-4.5v-49a4.505,4.505,0,0,1,4.5-4.5h12a4.505,4.505,0,0,1,4.5,4.5v49A4.505,4.505,0,0,1,443.669,271.026Z" transform="translate(-229.662 -213.026)" fill="#f2f2f2"/>
  <rect id="Rectangle_19" data-name="Rectangle 19" width="20" height="4" transform="translate(198.007 9.5)" fill="#ccc"/>
  <rect id="Rectangle_20" data-name="Rectangle 20" width="20" height="4" transform="translate(198.007 40.5)" fill="#ccc"/>
  <path id="Path_47" data-name="Path 47" d="M473.669,271.026h-12a4.505,4.505,0,0,1-4.5-4.5v-49a4.505,4.505,0,0,1,4.5-4.5h12a4.505,4.505,0,0,1,4.5,4.5v49a4.505,4.505,0,0,1-4.5,4.5Z" transform="translate(-229.662 -213.026)" fill="#f2f2f2"/>
  <rect id="Rectangle_21" data-name="Rectangle 21" width="20" height="4" transform="translate(228.007 9.5)" fill="#ccc"/>
  <rect id="Rectangle_22" data-name="Rectangle 22" width="20" height="4" transform="translate(228.007 40.5)" fill="#ccc"/>
  <path id="Path_48" data-name="Path 48" d="M503.669,271.026h-12a4.505,4.505,0,0,1-4.5-4.5v-49a4.505,4.505,0,0,1,4.5-4.5h12a4.505,4.505,0,0,1,4.5,4.5v49a4.505,4.505,0,0,1-4.5,4.5Z" transform="translate(-229.662 -213.026)" fill="#f2f2f2"/>
  <rect id="Rectangle_23" data-name="Rectangle 23" width="20" height="4" transform="translate(258.007 9.5)" fill="#ccc"/>
  <rect id="Rectangle_24" data-name="Rectangle 24" width="20" height="4" transform="translate(258.007 40.5)" fill="#ccc"/>
  <path id="Path_49" data-name="Path 49" d="M533.669,271.026h-12a4.505,4.505,0,0,1-4.5-4.5v-49a4.5,4.5,0,0,1,4.5-4.5h12a4.505,4.505,0,0,1,4.5,4.5v49A4.505,4.505,0,0,1,533.669,271.026Z" transform="translate(-229.662 -213.026)" fill="#f2f2f2"/>
  <rect id="Rectangle_25" data-name="Rectangle 25" width="20" height="4" transform="translate(288.007 9.5)" fill="#ccc"/>
  <rect id="Rectangle_26" data-name="Rectangle 26" width="20" height="4" transform="translate(288.007 40.5)" fill="#ccc"/>
  <path id="Path_50" data-name="Path 50" d="M578.61,272.526h-285a1,1,0,0,1,0-2h285a1,1,0,0,1,0,2Z" transform="translate(-229.662 -213.026)" fill="#ccc"/>
  <path id="Path_51" data-name="Path 51" d="M578.61,353.526h-285a1,1,0,0,1,0-2h285a1,1,0,0,1,0,2Z" transform="translate(-229.662 -213.026)" fill="#ccc"/>
  <path id="Path_52" data-name="Path 52" d="M578.61,434.526h-285a1,1,0,0,1,0-2h285a1,1,0,0,1,0,2Z" transform="translate(-229.662 -213.026)" fill="#ccc"/>
  <path id="Path_53" data-name="Path 53" d="M561.732,591.508c0-7.732-29.1-14-65-14s-65,6.268-65,14c0,4.955,11.964,9.306,30,11.794v76.706a6.5,6.5,0,0,0,13,0V604.684c6.872.532,14.277.824,22,.824s15.128-.292,22-.824v75.324a6.5,6.5,0,0,0,13,0V603.3C549.768,600.814,561.732,596.463,561.732,591.508Z" transform="translate(-229.662 -213.026)" fill="#ccc"/>
  <path id="Path_54" data-name="Path 54" d="M319.563,460.906h12.26l5.832-47.288H319.561Z" transform="translate(0 0)" fill="#a0616a"/>
  <path id="Path_55" data-name="Path 55" d="M546.6,670.428h38.531v14.887H561.485A14.887,14.887,0,0,1,546.6,670.428h0Z" transform="translate(902.096 1142.692) rotate(179.997)" fill="#2f2e41"/>
  <path id="Path_56" data-name="Path 56" d="M338.7,454.064l11.7-3.671-8.592-46.865-17.264,5.417Z" transform="translate(0 0)" fill="#a0616a"/>
  <path id="Path_57" data-name="Path 57" d="M566.152,658.424h38.531v14.887H581.039a14.887,14.887,0,0,1-14.887-14.887h0Z" transform="translate(1113.688 912.876) rotate(162.577)" fill="#2f2e41"/>
  <path id="Path_58" data-name="Path 58" d="M560.161,645.324l-22.427-58.871c-5.031,1.182-47.227,10.518-61.359-4.528-4.843-5.157-5.788-12.629-2.808-22.208l8.248-10.364.256.014c3.118.164,76.435,4.273,81.461,26.389,4.238,18.644,11.977,53.405,14.247,63.615a4.516,4.516,0,0,1-2.814,5.184l-9.019,3.382a4.461,4.461,0,0,1-1.572.286,4.513,4.513,0,0,1-4.213-2.9Z" transform="translate(-229.662 -213.026)" fill="#2f2e41"/>
  <path id="Path_59" data-name="Path 59" d="M547.161,652.324l-22.427-58.871c-5.032,1.182-47.227,10.518-61.359-4.528-4.843-5.157-5.788-12.629-2.808-22.208l8.248-10.364.256.014c3.118.164,76.435,4.273,81.461,26.389,4.238,18.644,11.977,53.405,14.247,63.615a4.516,4.516,0,0,1-2.814,5.184l-9.019,3.382a4.462,4.462,0,0,1-1.572.286,4.513,4.513,0,0,1-4.213-2.9Z" transform="translate(-229.662 -213.026)" fill="#2f2e41"/>
  <path id="Path_60" data-name="Path 60" d="M577.469,511.2a10.524,10.524,0,0,0-.885,1.4l-49.32,5.2-7.1-9.734-16.091,8.794,13.945,23.621,60.487-15.422a10.5,10.5,0,1,0-1.036-13.857Z" transform="translate(-229.662 -213.026)" fill="#a0616a"/>
  <path id="Path_61" data-name="Path 61" d="M460.25,569.825a4.507,4.507,0,0,1-1.819-4.349c2.782-18.343-.419-44.619-3.595-63.433A24.8,24.8,0,0,1,482.4,473.282a79.868,79.868,0,0,1,9.913,1.954h0A24.6,24.6,0,0,1,510.891,499.7c-.475,18.154,3.211,40.806,4.818,49.7a4.519,4.519,0,0,1-.834,3.511,4.392,4.392,0,0,1-3.1,1.75c-17.808,1.817-37.012,10.5-46.875,15.517a4.5,4.5,0,0,1-2.05.5A4.429,4.429,0,0,1,460.25,569.825Z" transform="translate(-229.662 -213.026)" fill="#00bfa6"/>
  <path id="Path_62" data-name="Path 62" d="M508.321,522.514a4.471,4.471,0,0,1-2.474-2.4l-9.931-22.942a11.5,11.5,0,0,1,21.107-9.136l9.932,22.942a4.506,4.506,0,0,1-2.342,5.917l-12.848,5.562a4.469,4.469,0,0,1-3.444.055Z" transform="translate(-229.662 -213.026)" fill="#00bfa6"/>
  <path id="Path_63" data-name="Path 63" d="M530.469,509.2a10.523,10.523,0,0,0-.885,1.4l-49.32,5.2-7.1-9.734-16.091,8.794,13.944,23.621,60.487-15.422a10.5,10.5,0,1,0-1.036-13.857Z" transform="translate(-229.662 -213.026)" fill="#a0616a"/>
  <path id="Path_64" data-name="Path 64" d="M461.321,523.514a4.471,4.471,0,0,1-2.474-2.4l-9.931-22.942a11.5,11.5,0,1,1,21.107-9.136l9.932,22.942a4.506,4.506,0,0,1-2.342,5.917l-12.848,5.562a4.469,4.469,0,0,1-3.444.055Z" transform="translate(-229.662 -213.026)" fill="#00bfa6"/>
  <circle id="Ellipse_5" data-name="Ellipse 5" cx="24.561" cy="24.561" r="24.561" transform="translate(226.345 203.33)" fill="#a0616a"/>
  <path id="Path_65" data-name="Path 65" d="M463.008,457.773a2.135,2.135,0,0,1,1.856-2.819,4.93,4.93,0,0,1,3.476,1.715,13.834,13.834,0,0,0,3.071,2.637c1.188.6,2.8.514,3.477-.628.636-1.072.2-2.508-.185-3.753a36.908,36.908,0,0,1-1.63-9.77c-.111-3.7.411-7.562,2.46-10.448,2.644-3.725,7.371-5.139,11.845-5.036s8.875,1.484,13.307,2.357c1.53.3,3.328.455,4.352-.73,1.088-1.261.688-3.3.226-5-1.2-4.417-2.475-8.985-5.265-12.552a18.9,18.9,0,0,0-12.061-6.79,28.939,28.939,0,0,0-13.462,1.528A36.1,36.1,0,0,0,456.792,420.8a29.236,29.236,0,0,0-5.578,21.6,26.668,26.668,0,0,0,9.886,16.855Z" transform="translate(-229.662 -213.026)" fill="#2f2e41"/>
  <path id="Path_66" data-name="Path 66" d="M369.228,516.9a122.043,122.043,0,0,1,10.1-38.517q2.28-5.092,5.018-9.961a.744.744,0,0,0-1.284-.75A123.727,123.727,0,0,0,369.3,505.656q-1.034,5.584-1.554,11.246c-.088.952,1.4.946,1.486,0Z" transform="translate(-229.662 -213.026)" fill="#3f3d56"/>
  <circle id="Ellipse_6" data-name="Ellipse 6" cx="9.414" cy="9.414" r="9.414" transform="translate(148.871 238.953)" fill="#00bfa6"/>
  <path id="Path_67" data-name="Path 67" d="M370.191,517.152a79.174,79.174,0,0,1,6.553-24.988q1.479-3.3,3.256-6.462a.483.483,0,0,0-.833-.487,80.27,80.27,0,0,0-8.932,24.641q-.671,3.622-1.008,7.3C369.169,517.77,370.134,517.766,370.191,517.152Z" transform="translate(-229.662 -213.026)" fill="#3f3d56"/>
  <circle id="Ellipse_7" data-name="Ellipse 7" cx="6.108" cy="6.108" r="6.108" transform="translate(146.565 262.008)" fill="#00bfa6"/>
  <path id="Path_68" data-name="Path 68" d="M368.974,516.576a79.175,79.175,0,0,1-10.2-23.733q-.866-3.515-1.408-7.1a.483.483,0,0,0-.956.128,80.268,80.268,0,0,0,8.113,24.923q1.7,3.268,3.693,6.373c.335.522,1.093-.074.76-.593Z" transform="translate(-229.662 -213.026)" fill="#3f3d56"/>
  <circle id="Ellipse_8" data-name="Ellipse 8" cx="6.108" cy="6.108" r="6.108" transform="translate(120.63 261.579)" fill="#00bfa6"/>
  <path id="Path_69" data-name="Path 69" d="M350.224,521.979v-12a4.505,4.505,0,0,1,4.5-4.5h28a4.505,4.505,0,0,1,4.5,4.5v12a4.505,4.505,0,0,1-4.5,4.5h-28A4.505,4.505,0,0,1,350.224,521.979Z" transform="translate(-229.662 -213.026)" fill="#ccc"/>
  <rect id="Rectangle_27" data-name="Rectangle 27" width="86" height="7" rx="3.5" transform="translate(289.07 305.482)" fill="#ccc"/>
  <path id="Path_70" data-name="Path 70" d="M654.232,525.508h-89a6.507,6.507,0,0,1-6.5-6.5v-49a6.507,6.507,0,0,1,6.5-6.5h89a6.507,6.507,0,0,1,6.5,6.5v49a6.507,6.507,0,0,1-6.5,6.5Z" transform="translate(-229.662 -213.026)" fill="#ccc"/>
  <circle id="Ellipse_9" data-name="Ellipse 9" cx="6" cy="6" r="6" transform="translate(374.07 275.482)" fill="#fff"/>
  <path id="Path_71" data-name="Path 71" d="M880.732,591.508c0-7.732-29.1-14-65-14s-65,6.268-65,14c0,4.955,11.964,9.306,30,11.794v76.706a6.5,6.5,0,0,0,13,0V604.684c6.872.532,14.277.824,22,.824s15.128-.292,22-.824v75.324a6.5,6.5,0,0,0,13,0V603.3C868.768,600.814,880.732,596.463,880.732,591.508Z" transform="translate(-229.662 -213.026)" fill="#ccc"/>
  <circle id="Ellipse_10" data-name="Ellipse 10" cx="28" cy="28" r="28" transform="translate(565.257 194.34)" fill="#2f2e41"/>
  <path id="Path_72" data-name="Path 72" d="M523.577,461.906h-12.26l-5.832-47.288h18.094Z" transform="translate(0 0)" fill="#ffb8b8"/>
  <path id="Path_73" data-name="Path 73" d="M502.56,458.4H526.2V473.29H487.673A14.887,14.887,0,0,1,502.56,458.4Z" transform="translate(0 0)" fill="#2f2e41"/>
  <path id="Path_74" data-name="Path 74" d="M504.439,455.064l-11.7-3.671,8.592-46.865,17.264,5.417Z" transform="translate(0 0)" fill="#ffb8b8"/>
  <path id="Path_75" data-name="Path 75" d="M712.668,659.424h23.644v14.887H697.781A14.887,14.887,0,0,1,712.668,659.424Z" transform="translate(2.906 -397.128) rotate(17.423)" fill="#2f2e41"/>
  <path id="Path_76" data-name="Path 76" d="M738.09,649.222a4.461,4.461,0,0,1-1.572-.286l-9.019-3.382a4.516,4.516,0,0,1-2.814-5.184c2.271-10.21,10.01-44.971,14.247-63.615,5.026-22.115,78.343-26.225,81.461-26.389l.256-.014,8.247,10.364c2.98,9.579,2.036,17.051-2.808,22.208-14.132,15.047-56.327,5.71-61.359,4.528L742.3,646.324A4.513,4.513,0,0,1,738.09,649.222Z" transform="translate(-229.662 -213.026)" fill="#2f2e41"/>
  <path id="Path_77" data-name="Path 77" d="M751.09,656.222a4.463,4.463,0,0,1-1.572-.286l-9.019-3.382a4.516,4.516,0,0,1-2.814-5.184c2.271-10.21,10.01-44.971,14.247-63.615,5.026-22.115,78.343-26.225,81.461-26.389l.256-.014,8.247,10.364c2.98,9.579,2.036,17.051-2.808,22.208-14.132,15.046-56.327,5.71-61.359,4.528L755.3,653.324A4.513,4.513,0,0,1,751.09,656.222Z" transform="translate(-229.662 -213.026)" fill="#2f2e41"/>
  <path id="Path_78" data-name="Path 78" d="M724.995,512.2a10.524,10.524,0,0,1,.885,1.4l49.32,5.2,7.1-9.734,16.091,8.794-13.945,23.621-60.487-15.423A10.5,10.5,0,1,1,725,512.2Z" transform="translate(-229.662 -213.026)" fill="#ffb8b8"/>
  <path id="Path_79" data-name="Path 79" d="M839.608,571.684a4.5,4.5,0,0,1-2.049-.5c-9.862-5.015-29.066-13.7-46.875-15.517a4.392,4.392,0,0,1-3.1-1.75,4.519,4.519,0,0,1-.834-3.511c1.607-8.9,5.293-31.547,4.818-49.7a24.6,24.6,0,0,1,18.582-24.468h0a79.866,79.866,0,0,1,9.913-1.954,24.8,24.8,0,0,1,27.559,28.762c-3.176,18.814-6.377,45.09-3.595,63.433a4.507,4.507,0,0,1-1.819,4.349A4.429,4.429,0,0,1,839.608,571.684Z" transform="translate(-229.662 -213.026)" fill="#00bfa6"/>
  <path id="Path_80" data-name="Path 80" d="M792.486,523.832a4.5,4.5,0,0,1-1.787-.373L777.852,517.9a4.506,4.506,0,0,1-2.342-5.917l9.932-22.942a11.5,11.5,0,0,1,21.107,9.136l-9.931,22.942a4.511,4.511,0,0,1-4.131,2.716Z" transform="translate(-229.662 -213.026)" fill="#00bfa6"/>
  <circle id="Ellipse_11" data-name="Ellipse 11" cx="24.561" cy="24.561" r="24.561" transform="translate(567.673 204.33)" fill="#ffb8b8"/>
  <path id="Path_81" data-name="Path 81" d="M796.893,429.85a88.59,88.59,0,0,0,38.326,12.628l-4.04-4.841a29.688,29.688,0,0,0,9.171,1.821c3.13-.049,6.41-1.254,8.186-3.832a9.342,9.342,0,0,0,.625-8.63,17.694,17.694,0,0,0-5.566-6.96,33.14,33.14,0,0,0-30.845-5.513,19.806,19.806,0,0,0-9.212,5.909c-2.328,2.872-6.811,5.432-5.619,8.932Z" transform="translate(-229.662 -213.026)" fill="#2f2e41"/>
  <path id="Path_82" data-name="Path 82" d="M826.026,410.029a75.486,75.486,0,0,0-27.463-17.759c-6.639-2.459-13.865-3.979-20.805-2.582s-13.5,6.2-15.44,13.008c-1.583,5.568.052,11.564,2.509,16.806s5.738,10.1,7.725,15.54A35.468,35.468,0,0,1,736.862,482.6c6.819.914,13.105,4.119,19.771,5.825s14.533,1.59,19.486-3.185c5.241-5.052,5.346-13.267,5.092-20.543l-1.13-32.445c-.192-5.515-.356-11.208,1.633-16.355s6.716-9.656,12.235-9.609c4.183.035,7.884,2.569,11.239,5.068s6.9,5.165,11.071,5.536,8.923-2.711,8.611-6.882" transform="translate(-229.662 -213.026)" fill="#2f2e41"/>
  <path id="Path_83" data-name="Path 83" d="M482.2,281.087l56.553,1.335,8.193,60.456-52.227,1.172Z" transform="translate(0 0)" fill="#e6e6e6"/>
  <path id="Path_84" data-name="Path 84" d="M771.995,510.2a10.516,10.516,0,0,1,.885,1.4l49.32,5.2,7.1-9.734,16.091,8.794-13.945,23.621-60.487-15.422A10.5,10.5,0,1,1,772,510.2Z" transform="translate(-229.662 -213.026)" fill="#ffb8b8"/>
  <path id="Path_85" data-name="Path 85" d="M839.486,524.832a4.5,4.5,0,0,1-1.787-.373L824.852,518.9a4.506,4.506,0,0,1-2.342-5.917l9.932-22.942a11.5,11.5,0,0,1,21.107,9.136l-9.931,22.942a4.511,4.511,0,0,1-4.131,2.716Z" transform="translate(-229.662 -213.026)" fill="#00bfa6"/>
  <path id="Path_86" data-name="Path 86" d="M723.232,524.508h-398a6.5,6.5,0,0,0,0,13h11.5v141.5a6.5,6.5,0,1,0,13,0V550L422.6,682.076a6.5,6.5,0,0,0,11.258-6.5L357.686,537.508H705.732v.084L629.6,675.576a6.5,6.5,0,1,0,11.258,6.5L705.732,564.5v114.51a6.5,6.5,0,0,0,13,0V540.935l1.891-3.427h2.609a6.5,6.5,0,0,0,0-13Z" transform="translate(-229.662 -213.026)" fill="#3f3d56"/>
  <path id="Path_87" data-name="Path 87" d="M969.147,686.974H230.853a1.191,1.191,0,1,1,0-2.381H969.147a1.191,1.191,0,0,1,0,2.381Z" transform="translate(-229.662 -213.026)" fill="#3f3d56"/>
</svg>
