<svg id="home-1" xmlns="http://www.w3.org/2000/svg" width="32.591" height="30.978" viewBox="0 0 32.591 30.978">
  <g id="Group_2" data-name="Group 2">
    <g id="Group_1" data-name="Group 1">
      <path id="Path_1" data-name="Path 1" d="M32.044,26.438,17.421,13.114a1.664,1.664,0,0,0-2.251,0L.547,26.438a1.671,1.671,0,0,0,1.126,2.907H4.009v13.35a.959.959,0,0,0,.958.958h8.015a.958.958,0,0,0,.958-.958V34.589h4.711v8.106a.959.959,0,0,0,.958.958h8.015a.958.958,0,0,0,.958-.958V29.345h2.336a1.671,1.671,0,0,0,1.125-2.907Z" transform="translate(0 -12.675)" fill="#3972bc"/>
    </g>
  </g>
  <g id="Group_4" data-name="Group 4" transform="translate(21.896 1.913)">
    <g id="Group_3" data-name="Group 3">
      <path id="Path_2" data-name="Path 2" d="M350.41,42.73h-6.437l7.4,6.724V43.688A.958.958,0,0,0,350.41,42.73Z" transform="translate(-343.973 -42.73)" fill="#3972bc"/>
    </g>
  </g>
</svg>
