<svg id="home-icon" xmlns="http://www.w3.org/2000/svg" width="38.721" height="30.111" viewBox="0 0 38.721 30.111">
  <path id="Icon_awesome-home" data-name="Icon awesome-home" d="M6.453,20.272V31.289a1.076,1.076,0,0,0,1.076,1.076l7.533-.019c.592,0,8.313,0,8.6,0l7.53.021a1.076,1.076,0,0,0,1.076-1.076V20.265ZM38.423,17,32.8,12.371V3.06A.807.807,0,0,0,32,2.254H28.232a.807.807,0,0,0-.807.807V7.941L21.407,2.99a3.227,3.227,0,0,0-4.1,0L.292,17a.807.807,0,0,0-.108,1.136L1.9,20.223a.807.807,0,0,0,.546.291c.213.021,4.009,0,4.009,0l25.812-.248s4.274.3,4.557-.04l1.714-2.084A.807.807,0,0,0,38.423,17Z" transform="translate(0.001 -2.254)" fill="#73b1da"/>
  <path id="Icon_awesome-home-2" data-name="Icon awesome-home" d="M18.846,10.065,6.453,20.272V31.289a1.076,1.076,0,0,0,1.076,1.076l7.533-.019a1.076,1.076,0,0,0,1.07-1.076V24.836a1.076,1.076,0,0,1,1.076-1.076h4.3a1.076,1.076,0,0,1,1.076,1.076v6.429a1.076,1.076,0,0,0,1.076,1.079l7.53.021a1.076,1.076,0,0,0,1.076-1.076V20.265l-12.391-10.2A.819.819,0,0,0,18.846,10.065ZM38.423,17,32.8,12.371V3.06A.807.807,0,0,0,32,2.254H28.232a.807.807,0,0,0-.807.807V7.941L21.407,2.99a3.227,3.227,0,0,0-4.1,0L.292,17a.807.807,0,0,0-.108,1.136L1.9,20.223a.807.807,0,0,0,1.137.11L18.846,7.309a.819.819,0,0,1,1.028,0L35.687,20.332a.807.807,0,0,0,1.136-.108l1.714-2.084A.807.807,0,0,0,38.423,17Z" transform="translate(0.001 -2.254)"/>
</svg>
