<svg id="Layer_1" height="512" viewBox="0 0 50 50" width="512" xmlns="http://www.w3.org/2000/svg"><g><g><path d="m17.3 31.3h-5.1v-2c0-.7.6-1.3 1.3-1.3h2.5c.7 0 1.3.6 1.3 1.3zm-4.1-1h3v-1c0-.1-.1-.2-.2-.2h-2.5c-.1 0-.2.1-.2.2v1z" fill="#425060"/></g><g><circle cx="39.5" cy="35.4" fill="#ffb95c" r="7"/></g><g><circle cx="14" cy="9.9" fill="#abb734" r="7"/></g><g><path d="m19 38.4h-8.6c-.9 0-1.6-.7-1.6-1.6v-5c0-.9.7-1.6 1.6-1.6h8.6c.9 0 1.6.7 1.6 1.6v5c-.1.9-.8 1.6-1.6 1.6z" fill="#fa4968"/></g><g><path d="m20.6 31.8v5.1c0 .8-.7 1.5-1.5 1.5h-8.7c-.8 0-1.5-.7-1.5-1.5v-5.1c0-.8.7-1.5 1.5-1.5h8.6c.9 0 1.6.6 1.6 1.5z" fill="#9b9b1b"/></g><g><path d="m20.6 31.8v.8c0 .8-.7 1.5-1.5 1.5h-8.7c-.8 0-1.5-.7-1.5-1.5v-.8c0-.8.7-1.5 1.5-1.5h8.6c.9 0 1.6.6 1.6 1.5z" fill="#c6cc4a"/></g><g><path d="m15.3 35.4h-1.1c-.3 0-.5-.2-.5-.5v-1.5c0-.3.2-.5.5-.5h1.1c.3 0 .5.2.5.5v1.5c-.1.3-.3.5-.5.5z" fill="#fff"/></g><g><path d="m26.8 34c0-1.5 1-2.7 2.6-3.5-.4-1.7-1-3.2-1.9-4.6-1.7.6-3.3.4-4.3-.6s-1.2-2.7-.6-4.4c-1.4-.9-2.9-1.5-4.5-1.9-.8 1.6-2 2.7-3.5 2.7s-2.6-1.1-3.4-2.7c-1.6.4-3.2 1-4.5 1.9.6 1.7.4 3.4-.6 4.4s-2.6 1.2-4.3.6c-.9 1.4-1.5 3-1.9 4.6 1.6.8 2.6 2.1 2.6 3.5s-1 2.7-2.6 3.5c.4 1.6 1 3.2 1.9 4.6 1.7-.6 3.3-.4 4.3.6s1.2 2.7.6 4.4c1.4.9 2.9 1.5 4.5 1.9.8-1.6 2-2.7 3.5-2.7 1.4 0 2.7 1.1 3.5 2.7 1.6-.4 3.2-1 4.5-1.9-.6-1.7-.4-3.3.6-4.4 1-1 2.6-1.2 4.3-.6.9-1.4 1.5-3 1.9-4.6-1.6-.8-2.7-2.1-2.7-3.5zm-12.1 9c-4.9 0-8.8-4-8.8-9 0-4.9 4-9 8.8-9 4.9 0 8.8 4 8.8 9 0 4.9-3.9 9-8.8 9z" fill="#559aff"/></g><g><path d="m45.4 14.3c0 2.7-1.1 5-2.8 6.8-1.7 1.7-4.1 2.8-6.8 2.8-2.1 0-4-.6-5.5-1.7l-4.1 1.7 1.8-4.1c-1.1-1.6-1.8-3.5-1.8-5.5 0-2.7 1.1-5 2.8-6.8 1.7-1.7 4.1-2.8 6.8-2.8s5.1 1.1 6.8 2.8 2.8 4.1 2.8 6.8z" fill="#fa4968"/></g><g opacity=".3"><path d="m29.8 10.9-.9-.5c.4-.6.8-1.2 1.3-1.7.9-.9 2-1.6 3.2-2l.3 1c-1.1.3-2 .9-2.8 1.7-.5.4-.8.9-1.1 1.5z" fill="#fff"/></g><g opacity=".3"><path d="m36.4 7.4c-.4 0-.7 0-1.1 0l-.1-1.1h1.3z" fill="#fff"/></g><g><path d="m32.7 11.1-3 3 6.3 6.2 11.9-11.9-3-2.9-8.9 8.9z" fill="#ffb95c"/></g><g opacity=".3"><g><path d="m42.2 8.2h1.1v4.3h-1.1z" fill="#fff" transform="matrix(.706 .708 -.708 .706 19.896 -27.239)"/></g><g><path d="m38.9 13.2h1.1v.8h-1.1z" fill="#fff" transform="matrix(.707 .708 -.708 .707 21.238 -23.911)"/></g></g><g><path d="m37.4 31.5-2.5 2.5 5.2 5.2 10-9.9-2.5-2.5-7.5 7.4z" fill="#abb734"/></g><g opacity=".3"><g><path d="m45.3 29.1h1.1v3.6h-1.1z" fill="#fff" transform="matrix(.707 .708 -.708 .707 35.285 -23.339)"/></g><g><path d="m42.5 33.3h1.1v.7h-1.1z" fill="#fff" transform="matrix(.707 .708 -.708 .707 36.42 -20.58)"/></g></g><g><path d="m12.1 5.7-2.5 2.5 5.2 5.2 9.9-9.9-2.4-2.5-7.5 7.4z" fill="#6cd8d5"/></g><g opacity=".3"><g><path d="m19.9 3.3h1.1v3.6h-1.1z" fill="#fff" transform="matrix(.706 .708 -.708 .706 9.61 -12.997)"/></g><g><path d="m17.2 7.5h1.1v.7h-1.1z" fill="#fff" transform="matrix(.707 .708 -.708 .707 10.736 -10.231)"/></g></g></g></svg>