<svg id="Component_63_1" data-name="Component 63 – 1" xmlns="http://www.w3.org/2000/svg" width="592.357" height="356.263" viewBox="0 0 592.357 356.263">
  <g id="Group_7016" data-name="Group 7016" transform="translate(0 116.418)">
    <g id="Group_7011" data-name="Group 7011" transform="translate(65.968 49.269)">
      <path id="Path_12245" data-name="Path 12245" d="M654.966,1071.322s-8.634-10.072-.532-16.47c0,0,5.917-3.582,10.743-3.291,0,0-6.837,11.464-4.625,12.6s6.7-13.324,6.7-13.324,13.466-1.306,17.8.777c0,0-11.512,9.421-9.087,9.981s14.858-8.685,14.858-8.685,12.533,2.133,11.865,9.778-4.987,10.006-6.885,9.8-13-4.442-13.243-2.886,6.442,6.637,11.122,6.875c0,0-8.836,9.745-14.709,6.932s-6.374-7.27-10.034-8.942-6.786-1.668-5.274.037,8.137,3.362,10.23,7.065,3.972,6.2-2.1,5.286-15.952-5.36-16.385-10.451Z" transform="translate(-640.373 -1050.438)" fill="#c8dbf4"/>
      <g id="Group_7010" data-name="Group 7010" transform="translate(0 12.402)">
        <path id="Path_12246" data-name="Path 12246" d="M686.05,1099.224s-34.04-1.312-41.558,8.423a24.619,24.619,0,0,1-6.779,9.513l-.8,2.173s5.9-6.219,8.009-6.6C644.926,1112.738,641.624,1100.677,686.05,1099.224Z" transform="translate(-629.9 -1099.165)" fill="#c8dbf4"/>
        <path id="Path_12247" data-name="Path 12247" d="M617.163,1167.358a21.376,21.376,0,0,0-7.814,15.059l1.326.118s2.333-9.983,6.552-13.887S617.163,1167.358,617.163,1167.358Z" transform="translate(-609.349 -1149.362)" fill="#c8dbf4"/>
      </g>
    </g>
    <g id="Group_7013" data-name="Group 7013" transform="translate(0 21.923)">
      <path id="Path_12248" data-name="Path 12248" d="M400.544,978.562s13.733-7.691,7.324-18.128c0,0-5.127-6.409-10.621-8.057,0,0,2.93,15.565,0,15.931s-2.014-17.579-2.014-17.579-14.466-6.958-20.143-6.409c0,0,8.973,15.2,6.043,14.832s-13-15.748-13-15.748-14.833-2.747-17.213,6.043,1.465,13.184,3.662,13.734,16.3.366,15.931,2.2-9.888,4.761-15.2,3.113c0,0,5.86,14.466,13.55,13.733s10.071-5.493,14.832-5.859,8.24.916,5.86,2.2-10.437.42-14.283,3.689-6.958,5.283.183,6.748,19.96.549,22.523-4.944Z" transform="translate(-350.169 -942.997)" fill="#c8dbf4"/>
      <g id="Group_7012" data-name="Group 7012" transform="translate(7.526 9.196)">
        <path id="Path_12249" data-name="Path 12249" d="M379.739,979.127s38.454,12.452,42.849,26.369a29.215,29.215,0,0,0,3.662,13.367v2.747s-4.029-9.339-6.226-10.621C420.024,1010.989,428.631,998.9,379.739,979.127Z" transform="translate(-379.739 -979.127)" fill="#c8dbf4"/>
        <path id="Path_12250" data-name="Path 12250" d="M557.093,1130.237a25.362,25.362,0,0,1,2.549,19.967l-1.526-.41s1.481-12.074-1.622-18.147S557.093,1130.237,557.093,1130.237Z" transform="translate(-510.582 -1090.501)" fill="#c8dbf4"/>
      </g>
    </g>
    <g id="Group_7015" data-name="Group 7015" transform="translate(60.323 0)">
      <path id="Path_12251" data-name="Path 12251" d="M599.07,903.746s-18.1-10.138-9.655-23.9c0,0,6.759-8.449,14-10.621,0,0-3.862,20.517,0,21s2.655-23.172,2.655-23.172,19.069-9.172,26.552-8.448c0,0-11.828,20.034-7.965,19.552S641.795,857.4,641.795,857.4s19.552-3.621,22.689,7.966-1.931,17.379-4.828,18.1-21.483.482-21,2.9,13.035,6.276,20.035,4.1c0,0-7.724,19.069-17.862,18.1s-13.276-7.242-19.552-7.724-10.862,1.207-7.724,2.9,13.759.554,18.828,4.863,9.172,6.965-.241,8.9-26.31.724-29.69-6.517Z" transform="translate(-587.169 -856.866)" fill="#d4e4f8"/>
      <g id="Group_7014" data-name="Group 7014" transform="translate(2.34 12.122)">
        <path id="Path_12252" data-name="Path 12252" d="M676.271,904.491s-50.69,16.414-56.483,34.759a38.508,38.508,0,0,1-4.828,17.621v3.621s5.31-12.31,8.207-14C623.168,946.491,611.823,930.56,676.271,904.491Z" transform="translate(-610.227 -904.491)" fill="#d4e4f8"/>
        <path id="Path_12253" data-name="Path 12253" d="M601.1,1103.682s-7.817,11.871-3.361,26.321l2.011-.54s-1.952-15.916,2.138-23.92S601.1,1103.682,601.1,1103.682Z" transform="translate(-596.363 -1051.303)" fill="#d4e4f8"/>
      </g>
    </g>
    <path id="Path_12254" data-name="Path 12254" d="M527.669,1232.943a35.462,35.462,0,0,0,35.462-35.462H492.207A35.462,35.462,0,0,0,527.669,1232.943Z" transform="translate(-456.054 -1110.785)" fill="#d4e4f8"/>
    <path id="Rectangle_1385" data-name="Rectangle 1385" d="M4.375,0H67.528A4.375,4.375,0,0,1,71.9,4.375v0a0,0,0,0,1,0,0H0a0,0,0,0,1,0,0v0A4.375,4.375,0,0,1,4.375,0Z" transform="translate(35.663 119.587)" fill="#d4e4f8"/>
    <rect id="Rectangle_1386" data-name="Rectangle 1386" width="72.896" height="1.088" transform="translate(34.986 86.696)" fill="#9fc1f4"/>
  </g>
  <g id="Group_7020" data-name="Group 7020" transform="translate(148.119 138.412)">
    <g id="Group_7017" data-name="Group 7017" transform="translate(91.159 119.123)">
      <path id="Path_12255" data-name="Path 12255" d="M1305.58,1509.308l.175,0a2.379,2.379,0,0,0,2.4-2.545l-9.559-95.465-8.341.744,13.726,95.979A1.553,1.553,0,0,0,1305.58,1509.308Z" transform="translate(-1290.26 -1411.295)" fill="#8cb4f4"/>
    </g>
    <g id="Group_7018" data-name="Group 7018" transform="translate(11.845 119.123)">
      <path id="Path_12256" data-name="Path 12256" d="M981.236,1509.308l-.175,0a2.379,2.379,0,0,1-2.4-2.545l9.559-95.465,8.341.744-13.726,95.979A1.553,1.553,0,0,1,981.236,1509.308Z" transform="translate(-978.645 -1411.295)" fill="#8cb4f4"/>
    </g>
    <g id="Group_7019" data-name="Group 7019" transform="translate(158.596 119.123)">
      <path id="Path_12257" data-name="Path 12257" d="M1570.531,1509.308l.176,0a2.379,2.379,0,0,0,2.4-2.545l-9.559-95.465-8.341.744,13.726,95.979A1.553,1.553,0,0,0,1570.531,1509.308Z" transform="translate(-1555.211 -1411.295)" fill="#8cb4f4"/>
    </g>
    <path id="Path_12258" data-name="Path 12258" d="M949.391,1048.513l-16.968-83.792c-2.178-11.345,7.223-21.718,19.429-21.44l32.723.747a25.85,25.85,0,0,1,24.241,18.66l24.825,85.824Z" transform="translate(-932.109 -943.276)" fill="#8cb4f4"/>
    <path id="Path_12259" data-name="Path 12259" d="M989.722,1048.513l-16.968-83.792c-2.178-11.345,7.223-21.718,19.429-21.44l32.723.747a25.849,25.849,0,0,1,24.241,18.66l24.825,85.824Z" transform="translate(-962.174 -943.276)" fill="#8cb4f4"/>
    <path id="Rectangle_1387" data-name="Rectangle 1387" d="M7.641,0H131.284a7.641,7.641,0,0,1,7.641,7.641v7.641a0,0,0,0,1,0,0H7.641A7.641,7.641,0,0,1,0,7.641v0A7.641,7.641,0,0,1,7.641,0Z" transform="translate(156.208 120.519) rotate(180)" fill="#8cb4f4"/>
    <rect id="Rectangle_1388" data-name="Rectangle 1388" width="90.152" height="15.282" rx="7.641" transform="translate(169.109 120.519) rotate(180)" fill="#8cb4f4"/>
  </g>
  <g id="Group_7025" data-name="Group 7025" transform="translate(21.014 240.738)">
    <path id="Path_12260" data-name="Path 12260" d="M538.487,1347.124v2.859c0,1-.324,1.818-.719,1.818H433.448c-.4,0-.719-.817-.719-1.818v-2.859c0-1,.324-1.818.719-1.818h104.32C538.163,1345.306,538.487,1346.125,538.487,1347.124Z" transform="translate(-432.729 -1345.306)" fill="#9abfe2"/>
    <path id="Path_12261" data-name="Path 12261" d="M601.807,1347.124v2.859c0,1-.3,1.818-.66,1.818H518.329c-.363,0-.661-.817-.661-1.818v-2.859c0-1,.3-1.818.661-1.818h82.818C601.51,1345.306,601.807,1346.125,601.807,1347.124Z" transform="translate(-496.049 -1345.306)" fill="#bad4f4"/>
    <rect id="Rectangle_1389" data-name="Rectangle 1389" width="74.06" height="107.946" transform="translate(5.295 6.496)" fill="#c8dbf4"/>
    <rect id="Rectangle_1390" data-name="Rectangle 1390" width="74.06" height="107.946" transform="translate(26.049 6.496)" fill="#dfebfd"/>
    <g id="Group_7024" data-name="Group 7024" transform="translate(30.03 9.545)">
      <g id="Group_7021" data-name="Group 7021">
        <path id="Path_12262" data-name="Path 12262" d="M616.813,1481.744h-66.1v-98.937h66.1Zm-65.387-.714H616.1v-97.51H551.426Z" transform="translate(-550.712 -1382.807)" fill="#b7d3f3"/>
      </g>
      <g id="Group_7022" data-name="Group 7022" transform="translate(0.357 32.729)">
        <rect id="Rectangle_1391" data-name="Rectangle 1391" width="65.387" height="0.714" fill="#b7d3f3"/>
      </g>
      <g id="Group_7023" data-name="Group 7023" transform="translate(0.357 66.096)">
        <rect id="Rectangle_1392" data-name="Rectangle 1392" width="65.387" height="0.714" fill="#b7d3f3"/>
      </g>
      <path id="Path_12263" data-name="Path 12263" d="M668.214,1401.6H656.081a1.074,1.074,0,0,1-1.071-1.071h0a1.073,1.073,0,0,1,1.071-1.07h12.134a1.074,1.074,0,0,1,1.071,1.07h0A1.074,1.074,0,0,1,668.214,1401.6Z" transform="translate(-628.463 -1395.224)" fill="#b7d3f3"/>
      <path id="Path_12264" data-name="Path 12264" d="M668.214,1529.8H656.081a1.073,1.073,0,0,1-1.071-1.071h0a1.074,1.074,0,0,1,1.071-1.071h12.134a1.074,1.074,0,0,1,1.071,1.071h0A1.074,1.074,0,0,1,668.214,1529.8Z" transform="translate(-628.463 -1490.79)" fill="#b7d3f3"/>
      <path id="Path_12265" data-name="Path 12265" d="M668.214,1663.437H656.081a1.074,1.074,0,0,1-1.071-1.071h0a1.074,1.074,0,0,1,1.071-1.071h12.134a1.074,1.074,0,0,1,1.071,1.071h0A1.074,1.074,0,0,1,668.214,1663.437Z" transform="translate(-628.463 -1590.413)" fill="#b7d3f3"/>
    </g>
  </g>
  <g id="Group_7032" data-name="Group 7032" transform="translate(366.65)">
    <path id="Rectangle_1393" data-name="Rectangle 1393" d="M15.394,0H39.386A15.394,15.394,0,0,1,54.78,15.394V37.751A15.394,15.394,0,0,1,39.386,53.145H15.395A15.395,15.395,0,0,1,0,37.751V15.394A15.394,15.394,0,0,1,15.394,0Z" fill="#c0d8fb"/>
    <path id="Rectangle_1394" data-name="Rectangle 1394" d="M14.06,0H35.973A14.061,14.061,0,0,1,50.034,14.061V34.48A14.061,14.061,0,0,1,35.973,48.54H14.061A14.061,14.061,0,0,1,0,34.48V14.06A14.06,14.06,0,0,1,14.06,0Z" transform="translate(2.373 2.302)" fill="#dfebfd"/>
    <g id="Group_7028" data-name="Group 7028" transform="translate(6.467 6.018)">
      <g id="Group_7026" data-name="Group 7026" transform="translate(19.788)">
        <circle id="Ellipse_1685" data-name="Ellipse 1685" cx="1.135" cy="1.135" r="1.135" fill="#b7d3f3"/>
        <path id="Path_12266" data-name="Path 12266" d="M1929.391,432.173a1.135,1.135,0,1,1,.441,1.543A1.135,1.135,0,0,1,1929.391,432.173Z" transform="translate(-1920.235 -429.435)" fill="#b7d3f3"/>
        <path id="Path_12267" data-name="Path 12267" d="M1959.108,457.837a1.135,1.135,0,1,1-.339,1.569A1.135,1.135,0,0,1,1959.108,457.837Z" transform="translate(-1942.107 -448.866)" fill="#b7d3f3"/>
        <path id="Path_12268" data-name="Path 12268" d="M1972.573,496.267a1.135,1.135,0,1,1-1.135,1.135A1.135,1.135,0,0,1,1972.573,496.267Z" transform="translate(-1951.686 -477.65)" fill="#b7d3f3"/>
        <path id="Path_12269" data-name="Path 12269" d="M1962.428,539.275a1.135,1.135,0,1,1-1.6,0A1.135,1.135,0,0,1,1962.428,539.275Z" transform="translate(-1943.526 -509.463)" fill="#b7d3f3"/>
        <path id="Path_12270" data-name="Path 12270" d="M1934.432,567.344a1.135,1.135,0,1,1-1.6,0A1.133,1.133,0,0,1,1934.432,567.344Z" transform="translate(-1922.656 -530.388)" fill="#b7d3f3"/>
        <path id="Path_12271" data-name="Path 12271" d="M1893.837,579.461a1.135,1.135,0,1,1,1.135,1.135A1.135,1.135,0,0,1,1893.837,579.461Z" transform="translate(-1893.837 -538.823)" fill="#b7d3f3"/>
      </g>
      <g id="Group_7027" data-name="Group 7027" transform="translate(0 2.155)">
        <path id="Path_12272" data-name="Path 12272" d="M1860.408,432.173a1.135,1.135,0,1,0-.441,1.543A1.135,1.135,0,0,0,1860.408,432.173Z" transform="translate(-1847.543 -431.589)" fill="#b7d3f3"/>
        <path id="Path_12273" data-name="Path 12273" d="M1830.691,457.837a1.135,1.135,0,1,0,.338,1.569A1.135,1.135,0,0,0,1830.691,457.837Z" transform="translate(-1825.671 -451.021)" fill="#b7d3f3"/>
        <path id="Path_12274" data-name="Path 12274" d="M1817.228,496.267a1.135,1.135,0,1,0,1.135,1.135A1.135,1.135,0,0,0,1817.228,496.267Z" transform="translate(-1816.093 -479.805)" fill="#b7d3f3"/>
        <path id="Path_12275" data-name="Path 12275" d="M1827.372,539.275a1.135,1.135,0,1,0,1.6,0A1.135,1.135,0,0,0,1827.372,539.275Z" transform="translate(-1824.254 -511.618)" fill="#b7d3f3"/>
        <circle id="Ellipse_1686" data-name="Ellipse 1686" cx="1.135" cy="1.135" r="1.135" transform="translate(9.912 34.468)" fill="#b7d3f3"/>
      </g>
    </g>
    <g id="Group_7031" data-name="Group 7031" transform="translate(27.084 11.594)">
      <path id="Path_12276" data-name="Path 12276" d="M1897.093,497.4a1.135,1.135,0,1,1,1.135,1.135A1.135,1.135,0,0,1,1897.093,497.4Z" transform="translate(-1897.093 -483.226)" fill="#b7d3f3"/>
      <g id="Group_7029" data-name="Group 7029" transform="translate(0.98)">
        <rect id="Rectangle_1395" data-name="Rectangle 1395" width="0.31" height="14.176" fill="#b7d3f3"/>
      </g>
      <g id="Group_7030" data-name="Group 7030" transform="translate(0.705 7.891)">
        <rect id="Rectangle_1396" data-name="Rectangle 1396" width="9.554" height="0.929" transform="translate(0 5.9) rotate(-38.132)" fill="#b7d3f3"/>
      </g>
    </g>
  </g>
  <g id="Group_7035" data-name="Group 7035" transform="translate(155.159 54.141)">
    <g id="Group_7034" data-name="Group 7034">
      <path id="Path_12277" data-name="Path 12277" d="M1289.474,1281.994c-7,12.19-15.813,16.9-15.813,16.9h-36.649S1294.817,1272.694,1289.474,1281.994Z" transform="translate(-1166.445 -1110.022)" fill="#233862"/>
      <g id="Group_7033" data-name="Group 7033">
        <path id="Path_12278" data-name="Path 12278" d="M1615.356,1683.717c-.4,3.845,4.952,4.839,11.155,5.214s4.314,1.627,12.8,3.258,11.922-.659,12.549-1.8c.559-1.013-3.378-2.65-7.572-4.5-.528-.231-1.057-.468-1.585-.706-4.721-2.136-7.336-6.418-10.992-10.4-3.462-3.773-6.66-15.769-6.66-15.769l-11.531-2.592s3.13,10.8,4.207,15.407c.634,2.71-.377,5.722-1.269,8.012A15.128,15.128,0,0,0,1615.356,1683.717Z" transform="translate(-1447.125 -1390.636)" fill="#ffb27d"/>
        <path id="Path_12279" data-name="Path 12279" d="M1631.819,1757.521c6.2.376,4.314,1.627,12.8,3.258s11.922-.659,12.549-1.8c.559-1.013-3.378-2.65-7.572-4.5l-.067.071a24.221,24.221,0,0,1-12.884.015c-5.61-1.588-11.014-5.009-14.879-6.136a15.123,15.123,0,0,0-1.1,3.877C1620.268,1756.152,1625.617,1757.146,1631.819,1757.521Z" transform="translate(-1452.433 -1459.226)" fill="#0f2549"/>
        <path id="Path_12280" data-name="Path 12280" d="M1226.368,1137.832c-6.2-4.357-47.249-12.124-68.2-14.371l-23.151-20.1s-19.706,29.188-19.862,51.517c-.073,10.411,4.723,11.445,4.724,11.448s74.216.551,77.47.886c5.325.549,12.349,13.814,14.1,25.9s32.7,61.224,32.7,61.224,6.454,2.068,9.439,1.893a9.432,9.432,0,0,0,4.7-1.264S1240.361,1147.658,1226.368,1137.832Z" transform="translate(-1075.607 -978.347)" fill="#233862"/>
        <path id="Path_12281" data-name="Path 12281" d="M1539.935,1683.717c-.4,3.845,4.952,4.839,11.155,5.214s4.314,1.627,12.8,3.258,11.922-.659,12.55-1.8c.559-1.013-3.378-2.65-7.573-4.5-.528-.231-1.056-.468-1.585-.706-4.72-2.136-7.336-6.418-10.991-10.4-3.462-3.773-6.66-15.769-6.66-15.769l-11.531-2.592s3.13,10.8,4.207,15.407c.634,2.71-.377,5.722-1.269,8.012A15.124,15.124,0,0,0,1539.935,1683.717Z" transform="translate(-1390.9 -1390.636)" fill="#ffb27d"/>
        <path id="Path_12282" data-name="Path 12282" d="M1556.4,1757.521c6.2.376,4.314,1.627,12.8,3.258s11.922-.659,12.55-1.8c.559-1.013-3.378-2.65-7.573-4.5l-.066.071a24.222,24.222,0,0,1-12.885.015c-5.61-1.588-11.014-5.009-14.878-6.136a15.129,15.129,0,0,0-1.105,3.877C1544.847,1756.152,1550.2,1757.146,1556.4,1757.521Z" transform="translate(-1396.208 -1459.226)" fill="#233862"/>
        <path id="Path_12283" data-name="Path 12283" d="M1150.28,1137.832c-5.391-3.785-21.6-6.719-39.5-8.9a12.039,12.039,0,0,1-10.219-9.036h0l-41.627-16.534s-19.706,29.188-19.862,51.517c-.073,10.411,4.723,11.445,4.724,11.448s74.216.551,77.47.886c5.325.549,12.349,13.814,14.1,25.9s32.7,61.224,32.7,61.224,6.454,2.068,9.438,1.893a9.432,9.432,0,0,0,4.7-1.264S1164.273,1147.658,1150.28,1137.832Z" transform="translate(-1018.885 -978.347)" fill="#2b478b"/>
        <path id="Path_12284" data-name="Path 12284" d="M1035.459,615.938c-5.72-3-14.424-3.41-15.838-3.6-16.921-2.274-27.106,22.314-27.7,29.765-1.1,13.733-8.369,15.827-18.594,24.427-20.5,17.245-14.491,37.283-3.279,44.729,6.727,4.468,18.583,0,18.583,0,.168.117,32.426-18.033,48.328-26.789C1060.792,681.08,1050.036,623.593,1035.459,615.938Z" transform="translate(-959.767 -612.19)" fill="#233862"/>
        <path id="Path_12285" data-name="Path 12285" d="M1177.016,794.372c.074.038-7.518,3.491-13,1.68-5.156-1.7-9.7-9.462-9.625-9.473,2.238-.324,4.513-2.532,5.148-15.615l.991.249,16.663,4.212s-.659,5.279-.931,10.27C1176.033,789.886,1176.08,793.874,1177.016,794.372Z" transform="translate(-1104.854 -730.552)" fill="#ffb27d"/>
        <path id="Path_12286" data-name="Path 12286" d="M1193.8,779.467s0,1.086-.622,6c-9.425-2.377-13.58-5.5-16.51-9.078Z" transform="translate(-1121.462 -734.594)" fill="#ed975d"/>
        <path id="Path_12287" data-name="Path 12287" d="M1181.033,684.3s-22.035,3.588-24.058-10.169-6.229-22.559,7.754-25.431,17.495,1.974,19.287,6.4S1186.712,683.017,1181.033,684.3Z" transform="translate(-1105.138 -638.767)" fill="#ffb27d"/>
        <path id="Path_12288" data-name="Path 12288" d="M1163.541,641.761s-10.007,15.8-18.94,19.537-13.322,1.842-13.322,1.842A37.623,37.623,0,0,0,1136.4,648.7a6.774,6.774,0,0,1,4.183-5.444C1147,640.693,1159.4,636.644,1163.541,641.761Z" transform="translate(-1087.625 -632.4)" fill="#233862"/>
        <path id="Path_12289" data-name="Path 12289" d="M1223.5,642.595s5.865,3.007,8.281,5.825c2.331,2.72,5.023,10.1,4.831,13.413,0,0,2.893-15.882-3.133-21.341C1227.084,634.7,1223.5,642.595,1223.5,642.595Z" transform="translate(-1156.37 -631.707)" fill="#233862"/>
        <path id="Path_12290" data-name="Path 12290" d="M1138.635,868.761c-.669,44.79-.184,35.431-5.083,39.681-1.18,1.023-4.5,1.633-8.868,1.922-13.734.912-37.877-1.351-38.8-3.889-3.168-8.782-.931-11.511-3.575-24.957-.275-1.43-.616-2.978-1.016-4.663-2.2-9.235-4.349-12.377,3.47-27.213,7.09-13.439,15.428-24.356,16.09-23.963,18.706,11.1,19.346,1.8,19.346,1.8S1138.963,846.913,1138.635,868.761Z" transform="translate(-1048.844 -771.333)" fill="#fff"/>
        <path id="Path_12291" data-name="Path 12291" d="M1240.13,832.766s19.144,3.245,21.4,11.532S1277.1,901.3,1277.1,901.3s-9.785,1.758-14.305-2.762-15.729-41.938-15.729-41.938Z" transform="translate(-1168.77 -776.623)" fill="#fff"/>
        <path id="Path_12292" data-name="Path 12292" d="M1133.637,1019.305c-13.734.912-37.877-1.351-38.8-3.889-3.168-8.782-.931-11.511-3.575-24.956l6.624-18.653s-1.1,20.772,5.031,26.235,25.081,10.546,28.059,15.112A16.71,16.71,0,0,1,1133.637,1019.305Z" transform="translate(-1057.797 -880.274)" fill="#ebf3ff"/>
        <path id="Path_12293" data-name="Path 12293" d="M1195.909,1117.955s13.55-3.017,15.736-1.814,7.53,5.581,8.2,7.105-4.867-1.157-6.668-1.64c-1.166-.312-4.236.754-5.755,1.261-6.4,2.132-10.313,1.035-10.313,1.035Z" transform="translate(-1135.805 -987.661)" fill="#ffb27d"/>
        <path id="Path_12294" data-name="Path 12294" d="M1032.685,825.709s-19.177,1.121-25.475,9.905c-8.866,12.365-26.453,65.065-16.374,72.093,11.351,7.915,51.662,2.071,51.662,2.071s1.341-6.27-.525-9.3-32.2-7.933-33.6-9.333,17.5-27.3,17.5-31.5S1032.685,825.709,1032.685,825.709Z" transform="translate(-980.672 -771.363)" fill="#fff"/>
        <path id="Path_12295" data-name="Path 12295" d="M1260.31,1131.787s2.839,3.662,3.77,4.1a2.776,2.776,0,0,0,1.532.328l-1.913-3.443Z" transform="translate(-1183.814 -999.536)" fill="#ffb27d"/>
        <path id="Path_12296" data-name="Path 12296" d="M1257.733,1116.97l8.255,4.008a1.471,1.471,0,0,1-1.368.528,19.681,19.681,0,0,1-3.58-.984Z" transform="translate(-1181.893 -988.49)" fill="#ffb27d"/>
      </g>
    </g>
  </g>
  <g id="Group_7036" data-name="Group 7036" transform="translate(223.07 150.371)">
    <path id="Path_12297" data-name="Path 12297" d="M1264.916,1145.353H1226.58a3.056,3.056,0,0,1,3.056-3.056h35.28Z" transform="translate(-1226.58 -1103.601)" fill="#ed7d2b"/>
    <path id="Path_12298" data-name="Path 12298" d="M1334,990.267h59.27l-14.217,41.752H1319.4Z" transform="translate(-1295.774 -990.266)" fill="#ed7d2b"/>
    <path id="Path_12299" data-name="Path 12299" d="M1396.7,990.264l-14.216,41.752h-59.655l14.6-41.752Z" transform="translate(-1298.33 -990.264)" fill="#f99746"/>
    <path id="Path_12300" data-name="Path 12300" d="M1470.368,1062.308a3.854,3.854,0,0,1-3.555,2.888,2.224,2.224,0,0,1-2.222-2.888,3.854,3.854,0,0,1,3.555-2.888A2.224,2.224,0,0,1,1470.368,1062.308Z" transform="translate(-1403.954 -1041.818)" fill="#fff"/>
  </g>
  <g id="Group_7040" data-name="Group 7040" transform="translate(198.886 192.125)">
    <rect id="Rectangle_1397" data-name="Rectangle 1397" width="263.697" height="9.393" rx="4.697" transform="translate(8.956)" fill="#182d4f"/>
    <g id="Group_7037" data-name="Group 7037" transform="translate(247.631 4.779)">
      <path id="Path_12301" data-name="Path 12301" d="M2133.874,1332.424l.112-.014a2.384,2.384,0,0,0,2.1-2.652l-23.146-156.678-8.474.243,27.233,157.525A1.947,1.947,0,0,0,2133.874,1332.424Z" transform="translate(-2104.47 -1173.08)" fill="#182d4f"/>
    </g>
    <g id="Group_7038" data-name="Group 7038" transform="translate(0 4.779)">
      <path id="Path_12302" data-name="Path 12302" d="M1133.8,1332.424l-.111-.014a2.385,2.385,0,0,1-2.1-2.652l23.146-156.678,8.474.243-27.233,157.525A1.947,1.947,0,0,1,1133.8,1332.424Z" transform="translate(-1131.564 -1173.08)" fill="#182d4f"/>
    </g>
    <g id="Group_7039" data-name="Group 7039" transform="translate(53.584 4.779)">
      <path id="Path_12303" data-name="Path 12303" d="M1344.325,1332.424l-.111-.014a2.385,2.385,0,0,1-2.1-2.652l23.146-156.678,8.474.243L1346.5,1330.848A1.947,1.947,0,0,1,1344.325,1332.424Z" transform="translate(-1342.09 -1173.08)" fill="#182d4f"/>
    </g>
  </g>
  <g id="Group_7041" data-name="Group 7041" transform="translate(370.96 38.867)">
    <path id="Path_12304" data-name="Path 12304" d="M1887.372,1729.829H1933.3c2.209-2.7,1.4-12.643,1.061-15.891-.069-.654-.116-1.036-.116-1.036s-15.685-12.545-17.839-2.939c-.065.3-.145.6-.232.887-2.714,8.985-14.889,13.068-21.919,14.205C1889.686,1725.8,1888,1728.173,1887.372,1729.829Z" transform="translate(-1867.073 -1412.576)" fill="#233862"/>
    <path id="Path_12305" data-name="Path 12305" d="M2090.611,1212.259c-1.658,0-78.677,14.461-91.416,30.23-6.364,7.878-7.31,98.86-7.31,98.86s7.874,9.762,24.878,4.094c0,0,12.468-62.249,11.547-81.129-.255-5.22,52.623-.755,62.3-3.26s33.325-23.558,28.115-33.815S2090.611,1212.259,2090.611,1212.259Z" transform="translate(-1944.984 -1044.25)" fill="#233862"/>
    <path id="Path_12306" data-name="Path 12306" d="M1937.917,1124.727s-15.536.21-19.21,1.784-11.127,5.189-9.133,5.744,11.511-.229,13.568.086a34.7,34.7,0,0,0,5.853-.087h7.135Z" transform="translate(-1883.375 -978.998)" fill="#ffb27d"/>
    <path id="Path_12307" data-name="Path 12307" d="M1858.247,917.654s-5.3-3.785-10.44-4.52a45.223,45.223,0,0,1-7.51-1.549c-4.746-1.673-14.242-10.211-13.523-11.213,2.3-3.21,13.39,3.583,15.325,2.854s-3.72-4.75-1.753-6.164c1.027-.739,3.43,2.963,5.394,3.335,2.657.5,4.735,4.255,5.535,4.451,1.557.381,8.378,5.454,8.378,5.454Z" transform="translate(-1821.869 -809.207)" fill="#ffb27d"/>
    <path id="Path_12308" data-name="Path 12308" d="M2100.084,804.589s-11.826,3.665-23.477,35.751-16.077,33.818-20.312,35.078-41.412,8.66-41.412,8.66V893.6h57.282s21.479-20.432,27.919-34.187S2100.084,804.589,2100.084,804.589Z" transform="translate(-1962.129 -740.343)" fill="#ed7d2b"/>
    <path id="Path_12309" data-name="Path 12309" d="M1807.619,1729.829h45.93c2.209-2.7,1.4-12.643,1.061-15.891-.069-.654-.116-1.036-.116-1.036s-15.685-12.545-17.839-2.939c-.066.3-.146.6-.232.887-2.714,8.985-14.889,13.068-21.919,14.205C1809.933,1725.8,1808.244,1728.173,1807.619,1729.829Z" transform="translate(-1807.619 -1412.576)" fill="#1b3051"/>
    <path id="Path_12310" data-name="Path 12310" d="M2001.442,1212.259c-1.659,0-78.677,14.461-91.417,30.23-6.364,7.878-7.31,98.86-7.31,98.86s7.874,9.762,24.879,4.094c0,0,12.468-62.249,11.547-81.129-.255-5.22,52.623-.755,62.3-3.26s33.325-23.558,28.114-33.815S2001.442,1212.259,2001.442,1212.259Z" transform="translate(-1878.51 -1044.25)" fill="#2b478b"/>
    <path id="Path_12311" data-name="Path 12311" d="M2295.417,723.889a74.782,74.782,0,0,0,16.371-3.563c6.276-2.037,11.335-5.013,8.075-10.749-3-5.287-7.867-17.1-7.539-26.881l-11.679,9.412-7.933,6.392a95.026,95.026,0,0,0,.9,10.373q.238,1.806.563,3.893a2.83,2.83,0,0,1-1.3,2.841l-.179.111A4.43,4.43,0,0,0,2295.417,723.889Z" transform="translate(-2167.667 -649.475)" fill="#ffb27d"/>
    <path id="Path_12312" data-name="Path 12312" d="M2298.564,724.283s-.406,1.368.292,6.421c7.072-1.154,13.684-6.795,13.684-6.795-3.6-.989-4.911-4.879-7.593-4.517Z" transform="translate(-2173.518 -676.814)" fill="#ed975d"/>
    <path id="Path_12313" data-name="Path 12313" d="M2257.659,611.382s27.205,4.52,29.759-12.465,7.785-27.841-9.477-31.445-21.619,2.369-23.85,7.831S2250.649,609.768,2257.659,611.382Z" transform="translate(-2139.155 -562.761)" fill="#ffb27d"/>
    <path id="Path_12314" data-name="Path 12314" d="M2242.754,557.2c-1.168,4.09,1.958,9.072,7.206,10.712,7.791,2.435,6.069,11.991,9.575,11.861s4.92-5.493,8.051-1.208c2.671,3.655-2.223,7.988-1.886,9.992.578,3.441,5.968,10.481,10.825,10.128s13.947-23.437,12.129-30.578-9.089-14.673-15.971-15.711-16.439,1.933-18.646,1.933S2243.385,554.993,2242.754,557.2Z" transform="translate(-2131.818 -552.177)" fill="#2b478b"/>
    <path id="Path_12315" data-name="Path 12315" d="M2292.506,802.256c-3.932-15.826-14.8-32.433-22.148-32.419-12.522.024-30.522,3.328-37.79,21.257-5.353,13.2-12.493,89.163-4.423,94.565,18.446,12.349,61.2,37.558,68.8,11.85C2303.9,873.954,2299.33,829.724,2292.506,802.256Z" transform="translate(-2118.402 -714.437)" fill="#f99746"/>
    <path id="Path_12316" data-name="Path 12316" d="M2030.62,807.441a14.831,14.831,0,0,0-22.951-6.392,140.344,140.344,0,0,0-15.74,14.709c-23.367,24.884-28.117,24.73-32.506,24.216s-41.468-8.384-41.468-8.384a11.212,11.212,0,0,0-3.016,3.665,6.906,6.906,0,0,0-.741,5.085c-1.452-.939,13.144,9.122,20.409,13.135,9.595,5.3,24.053,10.265,29.81,12.151a7.7,7.7,0,0,0,5.008-.075c8.547-3.081,37.249-14.306,60.613-33.785C2036.194,826.633,2033.933,816.057,2030.62,807.441Z" transform="translate(-1886.929 -735.371)" fill="#f99746"/>
    <path id="Path_12317" data-name="Path 12317" d="M2314.465,751.731l-2.835-6.387s-25.376,2.069-29.641,16.512C2281.989,761.856,2301.66,752.04,2314.465,751.731Z" transform="translate(-2161.249 -696.178)" fill="#fff"/>
  </g>
  <g id="Group_7045" data-name="Group 7045" transform="translate(441.626 138.863)">
    <g id="Group_7042" data-name="Group 7042" transform="translate(128.84 118.672)">
      <path id="Path_12318" data-name="Path 12318" d="M2606.768,1509.308l.175,0a2.379,2.379,0,0,0,2.4-2.545l-9.559-95.465-8.341.744,13.726,95.979A1.553,1.553,0,0,0,2606.768,1509.308Z" transform="translate(-2591.447 -1411.295)" fill="#8cb4f4"/>
    </g>
    <g id="Group_7043" data-name="Group 7043" transform="translate(79.639 118.672)">
      <path id="Path_12319" data-name="Path 12319" d="M2413.463,1509.308l.175,0a2.379,2.379,0,0,0,2.4-2.545l-9.559-95.465-8.341.744,13.725,95.979A1.553,1.553,0,0,0,2413.463,1509.308Z" transform="translate(-2398.143 -1411.295)" fill="#8cb4f4"/>
    </g>
    <g id="Group_7044" data-name="Group 7044" transform="translate(0 118.672)">
      <path id="Path_12320" data-name="Path 12320" d="M2087.844,1509.308l-.176,0a2.379,2.379,0,0,1-2.4-2.545l9.559-95.465,8.341.744-13.726,95.979A1.553,1.553,0,0,1,2087.844,1509.308Z" transform="translate(-2085.253 -1411.295)" fill="#73a2e5"/>
    </g>
    <path id="Path_12321" data-name="Path 12321" d="M2395.189,1050.2l9.073-79.734c1.189-11.49-2.656-22.741-19.237-23.612l-29.17-1.777c-17.289-.713-25.095,13.676-27.284,24.753l-17.317,87.647Z" transform="translate(-2253.731 -945.05)" fill="#8cb4f4"/>
    <path id="Rectangle_1399" data-name="Rectangle 1399" d="M7.641,0H138.926a0,0,0,0,1,0,0V7.641a7.641,7.641,0,0,1-7.641,7.641H7.641A7.641,7.641,0,0,1,0,7.641v0A7.641,7.641,0,0,1,7.641,0Z" transform="translate(2.388 104.785)" fill="#73a2e5"/>
    <path id="Rectangle_1400" data-name="Rectangle 1400" d="M7.641,0H83.79a0,0,0,0,1,0,0V7.641a7.642,7.642,0,0,1-7.642,7.642H7.641A7.641,7.641,0,0,1,0,7.641v0A7.641,7.641,0,0,1,7.641,0Z" transform="translate(57.523 104.785)" fill="#8cb4f4"/>
  </g>
</svg>
