<svg id="Layer_1" enable-background="new 0 0 512 512" viewBox="0 0 512 512" xmlns="http://www.w3.org/2000/svg"><path d="m263.9 286.62c-.04-53.31-43.42-96.66-96.73-96.66s-96.69 43.35-96.73 96.66c-.9 39.28 17.12 60.3 33.01 78.85 10.65 12.43 19.85 23.16 21.9 37.63.09.65.3 1.26.58 1.82v34.91 25.46c0 9.99 8.13 18.12 18.12 18.12h46.88c9.99 0 18.12-8.13 18.12-18.12v-25.46-37.08c2.15-14.3 11.27-24.97 21.84-37.29 15.9-18.54 33.91-39.56 33.01-78.84zm-116.48 8.12h-11.47c-6.33 0-11.47-5.15-11.47-11.47 0-6.33 5.15-11.47 11.47-11.47 6.33 0 11.47 5.15 11.47 11.47zm49.63 113.52v25.58h-59.11v-25.58zm0 57.04c0 3.37-2.74 6.12-6.12 6.12h-46.88c-3.37 0-6.12-2.74-6.12-6.12v-19.46h59.11v19.46zm24.73-107.64c-10.26 11.97-20 23.34-23.68 38.6h-10.52v-89.52h11.47c12.94 0 23.47-10.53 23.47-23.47s-10.53-23.47-23.47-23.47c-12.94 0-23.47 10.53-23.47 23.47v17.47 95.52h-16.15v-95.52-17.47c0-12.94-10.53-23.47-23.47-23.47s-23.47 10.53-23.47 23.47 10.53 23.47 23.47 23.47h11.47v89.52h-11.17c-3.68-15.27-13.43-26.64-23.68-38.6-15.21-17.75-30.94-36.1-30.13-70.83 0-.05 0-.09 0-.14 0-46.72 38.01-84.73 84.73-84.73s84.73 38.01 84.73 84.73v.14c.81 34.73-14.92 53.08-30.13 70.83zm-34.21-62.92v-11.47c0-6.33 5.15-11.47 11.47-11.47s11.47 5.15 11.47 11.47c0 6.33-5.15 11.47-11.47 11.47zm-26.4-124.41v-25.95c0-3.31 2.69-6 6-6s6 2.69 6 6v25.95c0 3.31-2.69 6-6 6s-6-2.68-6-6zm-112.75 124.75h-25.95c-3.31 0-6-2.69-6-6s2.69-6 6-6h25.96c3.31 0 6 2.69 6 6s-2.69 6-6.01 6zm21.11 50.38c1.66 2.87.67 6.54-2.2 8.2l-22.48 12.98c-.94.55-1.98.8-2.99.8-2.07 0-4.09-1.08-5.2-3-1.66-2.87-.67-6.54 2.2-8.2l22.48-12.98c2.86-1.66 6.53-.67 8.19 2.2zm20.09-178.7c-1.66-2.87-.67-6.54 2.2-8.2s6.54-.67 8.2 2.2l12.98 22.48c1.66 2.87.67 6.54-2.2 8.2-.95.55-1.98.8-2.99.8-2.07 0-4.09-1.08-5.2-3zm-20.09 65.95c-1.11 1.92-3.13 3-5.2 3-1.02 0-2.05-.26-2.99-.8l-22.48-12.98c-2.87-1.66-3.85-5.33-2.2-8.2 1.66-2.87 5.32-3.85 8.2-2.2l22.48 12.98c2.86 1.66 3.85 5.33 2.19 8.2zm195.29 0c-1.66-2.87-.67-6.54 2.2-8.2l22.48-12.98c2.87-1.66 6.54-.67 8.2 2.2s.67 6.54-2.2 8.2l-22.48 12.98c-.94.55-1.98.8-2.99.8-2.08 0-4.1-1.08-5.21-3zm53.06 56.37c0 3.31-2.69 6-6 6h-25.96c-3.31 0-6-2.69-6-6s2.69-6 6-6h25.96c3.31 0 6 2.69 6 6zm-20.19 75.35c-1.11 1.92-3.13 3-5.2 3-1.02 0-2.05-.26-2.99-.8l-22.48-12.98c-2.87-1.66-3.85-5.33-2.2-8.2 1.66-2.87 5.33-3.85 8.2-2.2l22.48 12.98c2.86 1.67 3.84 5.33 2.19 8.2zm-76.34-181.19 12.98-22.48c1.66-2.87 5.32-3.85 8.2-2.2 2.87 1.66 3.85 5.33 2.2 8.2l-12.98 22.48c-1.11 1.92-3.13 3-5.2 3-1.02 0-2.05-.26-2.99-.8-2.88-1.66-3.86-5.33-2.21-8.2zm240.32 125.81h-32.41c.01-.27.01-.53.01-.8 0-16.54-13.46-30-30-30s-30 13.46-30 30c0 .27 0 .54.01.8h-32.41c-3.31 0-6 2.69-6 6v124.79c0 3.31 2.69 6 6 6h41.39c2.12 0 4.09-1.12 5.17-2.95s1.11-4.09.08-5.95c-1.46-2.64-2.24-5.65-2.24-8.7 0-9.92 8.07-18 18-18s18 8.07 18 18c0 3.04-.77 6.05-2.24 8.7-1.03 1.86-1 4.12.08 5.95s3.04 2.95 5.17 2.95h41.39c3.31 0 6-2.69 6-6v-45.04c0-2.1-1.1-4.05-2.9-5.14s-4.04-1.15-5.9-.17c-2.6 1.38-5.43 2.07-8.4 2.07-9.92 0-18-8.07-18-18s8.07-18 18-18c2.97 0 5.79.7 8.4 2.07 1.86.98 4.1.92 5.9-.17s2.9-3.04 2.9-5.14v-37.3c0-3.28-2.69-5.97-6-5.97zm-6 34.99c-1.71-.3-3.46-.46-5.2-.46-16.54 0-30 13.46-30 30s13.46 30 30 30c1.75 0 3.49-.15 5.2-.46v30.72h-26.93c.35-1.84.53-3.72.53-5.6 0-16.54-13.46-30-30-30s-30 13.46-30 30c0 1.88.18 3.76.53 5.6h-26.93v-112.79h33.38c1.89 0 3.67-.89 4.81-2.41 1.13-1.52 1.48-3.48.95-5.29-.49-1.65-.73-3.37-.73-5.1 0-9.92 8.07-18 18-18s18 8.07 18 18c0 1.73-.25 3.45-.73 5.11-.54 1.81-.18 3.77.95 5.29s2.91 2.41 4.81 2.41h33.38v22.98zm-107.21-270.26c2.34 2.34 2.34 6.14 0 8.49l-33.13 33.13c-1.12 1.12-2.65 1.76-4.24 1.76s-3.12-.63-4.24-1.76l-19.8-19.8c-2.34-2.34-2.34-6.14 0-8.49 2.34-2.34 6.14-2.34 8.49 0l15.55 15.56 28.89-28.89c2.34-2.35 6.14-2.35 8.48 0zm119.21 80.14v-26.58c0-3.31-2.69-6-6-6h-83.61c3.65-8.19 5.69-17.24 5.69-26.76 0-36.39-29.61-66-66-66s-66 29.61-66 66 29.61 66 66 66c4.49 0 8.88-.45 13.12-1.31v92.87c0 3.31 2.69 6 6 6h41.39c2.12 0 4.09-1.12 5.17-2.95s1.11-4.09.08-5.95c-1.46-2.64-2.24-5.65-2.24-8.7 0-9.92 8.07-18 18-18s18 8.07 18 18c0 3.04-.77 6.05-2.24 8.7-1.03 1.86-1 4.12.08 5.95s3.04 2.95 5.17 2.95h41.39c3.31 0 6-2.69 6-6v-40.66c15.45-.5 27.86-13.21 27.86-28.78s-12.41-28.28-27.86-28.78zm-203.91-59.33c0-29.77 24.22-54 54-54s54 24.22 54 54-24.22 54-54 54c-29.78-.01-54-24.23-54-54zm202.98 104.91c-1.26 0-2.52-.14-3.74-.42-1.78-.4-3.65.02-5.07 1.16s-2.26 2.86-2.26 4.69v41.21h-26.93c.35-1.84.53-3.72.53-5.6 0-16.54-13.46-30-30-30s-30 13.46-30 30c0 1.88.18 3.76.53 5.6h-26.93v-90.54c11.35-4.69 21.11-12.46 28.25-22.26h84.55v27.13c0 1.82.83 3.55 2.26 4.69s3.29 1.57 5.07 1.16c1.22-.28 2.48-.42 3.74-.42 9.26 0 16.79 7.53 16.79 16.79 0 9.27-7.53 16.81-16.79 16.81z"/></svg>