<?xml version="1.0" encoding="UTF-8"?>
<svg xmlns="http://www.w3.org/2000/svg" xmlns:xlink="http://www.w3.org/1999/xlink" version="1.1" id="Capa_1" x="0px" y="0px" viewBox="0 0 512 512" style="enable-background:new 0 0 512 512;" xml:space="preserve" width="512" height="512">
<g>
	<path style="fill:none;stroke:#000000;stroke-width:15;stroke-linecap:round;stroke-linejoin:round;stroke-miterlimit:10;" d="&#10;&#9;&#9;M161.709,166.141c0.691-7.918,7.065-14.16,14.985-14.82l20.352-1.696c3.566-16.449,10.073-31.772,18.897-45.483l-13.23-15.636&#10;&#9;&#9;c-5.134-6.067-5.227-14.988-0.117-21.076c2.776-3.307,5.699-6.531,8.81-9.643c3.112-3.112,6.336-6.034,9.643-8.81&#10;&#9;&#9;c6.087-5.11,15.008-5.018,21.076,0.116l15.636,13.231c13.711-8.823,29.035-15.33,45.483-18.897l1.696-20.352&#10;&#9;&#9;c0.66-7.921,6.902-14.295,14.82-14.985C324.063,7.714,328.41,7.5,332.81,7.5c4.401,0,8.748,0.214,13.049,0.589&#10;&#9;&#9;c7.918,0.691,14.16,7.064,14.82,14.985l1.696,20.352c16.449,3.566,31.773,10.073,45.483,18.897l15.636-13.231&#10;&#9;&#9;c6.067-5.134,14.988-5.227,21.076-0.116c3.307,2.776,6.531,5.698,9.643,8.81c3.112,3.112,6.034,6.336,8.81,9.643&#10;&#9;&#9;c5.11,6.087,5.018,15.008-0.117,21.076l-13.23,15.636c8.823,13.711,15.33,29.035,18.897,45.483l20.352,1.696&#10;&#9;&#9;c7.92,0.66,14.294,6.902,14.985,14.82c0.375,4.301,0.589,8.648,0.589,13.049c0,4.401-0.214,8.747-0.589,13.048&#10;&#9;&#9;c-0.691,7.918-7.065,14.16-14.985,14.82l-20.352,1.696c-3.566,16.449-10.073,31.773-18.897,45.483l13.23,15.635&#10;&#9;&#9;c5.134,6.067,5.227,14.989,0.117,21.076c-2.776,3.306-5.699,6.531-8.81,9.643c-3.112,3.112-6.336,6.034-9.643,8.81&#10;&#9;&#9;c-6.087,5.11-15.008,5.017-21.076-0.117l-15.636-13.23c-13.711,8.823-29.035,15.33-45.483,18.897l-1.696,20.352&#10;&#9;&#9;c-0.66,7.921-6.902,14.295-14.82,14.985c-4.301,0.375-8.648,0.589-13.049,0.589c-4.401,0-8.748-0.214-13.048-0.589&#10;&#9;&#9;c-7.918-0.691-14.16-7.064-14.82-14.985l-1.696-20.352c-16.448-3.566-31.773-10.073-45.483-18.897l-15.636,13.23&#10;&#9;&#9;c-6.067,5.134-14.988,5.227-21.076,0.117c-3.307-2.776-6.531-5.699-9.643-8.81c-3.112-3.112-6.034-6.337-8.81-9.643&#10;&#9;&#9;c-5.11-6.087-5.018-15.009,0.117-21.076l13.23-15.635c-8.823-13.711-15.33-29.035-18.897-45.483l-20.352-1.696&#10;&#9;&#9;c-7.92-0.66-14.294-6.902-14.985-14.82c-0.375-4.301-0.589-8.648-0.589-13.048C161.121,174.789,161.334,170.443,161.709,166.141z"/>
	
		<circle style="fill:none;stroke:#000000;stroke-width:15;stroke-linecap:round;stroke-linejoin:round;stroke-miterlimit:10;" cx="136.593" cy="375.407" r="49.054"/>
	<path style="fill:none;stroke:#000000;stroke-width:15;stroke-linecap:round;stroke-linejoin:round;stroke-miterlimit:10;" d="&#10;&#9;&#9;M261.452,336.402c0.531,1.698,1.03,3.414,1.495,5.148c1.017,3.794,1.848,7.592,2.506,11.388&#10;&#9;&#9;c1.375,7.934-3.451,15.654-11.101,18.166l-19.754,6.487c-0.344,15.528-4.34,30.966-12.014,44.953l13.84,15.468&#10;&#9;&#9;c5.369,6.001,5.689,15.099,0.531,21.282c-2.467,2.958-5.087,5.833-7.864,8.61c-2.777,2.777-5.651,5.396-8.61,7.864&#10;&#9;&#9;c-6.183,5.158-15.282,4.838-21.282-0.531l-15.468-13.84c-13.988,7.674-29.425,11.671-44.953,12.014l-6.487,19.754&#10;&#9;&#9;c-2.512,7.65-10.232,12.476-18.166,11.101c-3.796-0.658-7.594-1.489-11.388-2.506c-3.793-1.017-7.499-2.196-11.115-3.524&#10;&#9;&#9;c-7.558-2.776-11.831-10.815-10.181-18.697l4.261-20.362c-6.565-3.994-12.807-8.724-18.482-14.398&#10;&#9;&#9;c-5.675-5.675-10.404-11.917-14.398-18.482L32.46,430.56c-7.882,1.65-15.921-2.623-18.697-10.181&#10;&#9;&#9;c-1.328-3.616-2.507-7.322-3.524-11.115s-1.848-7.592-2.506-11.388c-1.375-7.934,3.451-15.654,11.101-18.165l19.754-6.487&#10;&#9;&#9;c0.344-15.528,4.34-30.966,12.014-44.953l-13.84-15.468c-5.369-6.001-5.689-15.099-0.531-21.283&#10;&#9;&#9;c2.467-2.958,5.087-5.832,7.864-8.609c2.777-2.777,5.651-5.397,8.609-7.864c6.183-5.158,15.282-4.838,21.283,0.531l15.468,13.84&#10;&#9;&#9;c13.988-7.674,29.425-11.671,44.953-12.014l6.487-19.754c2.512-7.65,10.232-12.476,18.165-11.101&#10;&#9;&#9;c3.796,0.658,7.594,1.489,11.388,2.506c1.729,0.463,3.439,0.96,5.131,1.49"/>
	<path style="fill:none;stroke:#000000;stroke-width:15;stroke-linecap:round;stroke-linejoin:round;stroke-miterlimit:10;" d="&#10;&#9;&#9;M281.86,105.116c14.487-9.984,32.025-15.858,50.95-15.858c49.669,0,89.933,40.264,89.933,89.933s-40.264,89.933-89.933,89.933&#10;&#9;&#9;s-89.933-40.264-89.933-89.933c0-18.925,5.874-36.463,15.858-50.95"/>
</g>















</svg>
