<svg id="Logo" xmlns="http://www.w3.org/2000/svg" width="258.039" height="60.723" viewBox="0 0 258.039 60.723">
  <path id="Path_638" data-name="Path 638" d="M240.869,362.86h5.563l.217.217v7.88l.217.29h4.918l.217-.217v-7.953l.217-.217h5.569l.217.217v20.817a.543.543,0,0,1-.6.652h-4.827a.543.543,0,0,1-.6-.652v-8.025a.386.386,0,0,0-.326-.253h-4.773l-.217.217v8.025c0,.477-.169.718-.5.718h-4.972a.543.543,0,0,1-.6-.652V363.512a.6.6,0,0,1,.284-.652h0Zm19.622,0H273l.211.217v3.258a.446.446,0,0,1-.5.5h-7.156a.38.38,0,0,0-.434.434v3.759l.217.217h6.07a.519.519,0,0,1,.652.5v3.107a.38.38,0,0,1-.434.434h-6.07a.38.38,0,0,0-.434.434v3.62q0,1.207,1.883,1.207h6.07a.452.452,0,0,1,.507.507v3.252l-.217.217h-9.328a5.1,5.1,0,0,1-3.107-2.166,6.4,6.4,0,0,1-.718-2.824V363.729c0-.6.1-.869.284-.869Zm15.754,0h13.667l.217.217v3.4a.531.531,0,0,1-.507.6h-3.53a.447.447,0,0,0-.5.507V383.99c0,.386-.145.6-.434.6h-4.338c-.338,0-.5-.241-.5-.718V367.343l-.4-.29h-3.427c-.477,0-.718-.139-.718-.332v-3.355a.507.507,0,0,1,.5-.507h0Zm16.334,0h12.508l.211.217v3.258a.446.446,0,0,1-.5.5h-7.156a.38.38,0,0,0-.435.434v3.759l.217.217h6.07a.519.519,0,0,1,.652.5v3.107a.38.38,0,0,1-.434.434h-6.07a.38.38,0,0,0-.435.434v3.62q0,1.207,1.883,1.207h6.07a.453.453,0,0,1,.507.507v3.252l-.217.217h-9.322a5.1,5.1,0,0,1-3.107-2.166,6.4,6.4,0,0,1-.718-2.824V363.729c0-.6.1-.869.284-.869h0Zm15.471,0h9.829a5.431,5.431,0,0,1,3.017,1.883q.869.971.869,3.62v1.665c0,1.647-.29,2.727-.869,3.252l-.284.362v.145a4.163,4.163,0,0,1,1.207,3.18v7.156a.6.6,0,0,1-.6.434h-4.049a.543.543,0,0,1-.6-.652v-7.023q-.217-1.207-1.207-1.207h-2.021l-.29.29v7.808c0,.531-.193.8-.6.8h-4.079a.664.664,0,0,1-.6-.652l-.042-20.817.217-.217h0Zm5.056,4.411v4.266l.217.217h2.239c.567,0,.935-.434,1.086-1.3V368.14a1.346,1.346,0,0,0-1.448-1.159h-1.81l-.29.29h0Zm14.481-4.411h7.156a5.056,5.056,0,0,1,2.528,1.521,4.748,4.748,0,0,1,1.086,2.456l.072,1.955v9.238q0,3.825-.6,3.831a5.473,5.473,0,0,1-2.317,2.414l-.8.29h-7.144a5.636,5.636,0,0,1-3.18-2.673,4.966,4.966,0,0,1-.362-2.166V367.657a4.632,4.632,0,0,1,3.542-4.773h0Zm1.732,5.135v10.861c0,.911.29,1.37.869,1.37q2.745.151,2.745-.718l.072-.652v-10.65a1,1,0,0,0-.869-1.207H329.97a.833.833,0,0,0-.652,1.014h0Zm-88.45,21.323h5.563l.217.217v7.88l.217.29h4.918l.217-.217v-7.952l.217-.217h5.569l.217.217v20.817a.543.543,0,0,1-.6.652h-4.827a.543.543,0,0,1-.6-.652v-8.025a.386.386,0,0,0-.434-.284h-4.773l-.217.217v8.025c0,.477-.169.718-.5.718h-4.972a.543.543,0,0,1-.6-.652V389.97a.6.6,0,0,1,.284-.652h.115Zm19.622,0H273l.211.217v3.258a.446.446,0,0,1-.5.5h-7.156a.38.38,0,0,0-.434.434v3.759l.217.217h6.07a.519.519,0,0,1,.652.5v3.107a.38.38,0,0,1-.434.434h-6.07a.38.38,0,0,0-.434.434v3.62q0,1.207,1.883,1.207h6.07a.453.453,0,0,1,.507.507v3.252l-.217.217h-9.328a5.1,5.1,0,0,1-3.107-2.166,6.4,6.4,0,0,1-.718-2.824V390.187c0-.6.1-.869.284-.869Zm19.875,0h7.59c.453,0,.742.8.869,2.414l3.759,19.007a.392.392,0,0,1-.434.29h-4.483c-.386,0-.6-.6-.724-1.738a13.876,13.876,0,0,0-.718-3.4H282.1q-.272,0-.941,4.827l-.284.29h-4.918l-.217-.217q2.094-10.6,3.107-16.768l.935-4.411a.875.875,0,0,1,.6-.29h0Zm1.883,12.508.072.066h2.745l.151-.145-1.376-7.663-.066-.066H283.7q-.332,0-.664,2.528a47.418,47.418,0,0,0-.778,5.279h0Zm12.8-12.508H300.4q.507,0,.507.941v15.4a.935.935,0,0,0,1.014,1.014h7.518a.652.652,0,0,1,.8.652v3.469l-.217.217h-10.7a6.625,6.625,0,0,1-3.476-1.883,5.431,5.431,0,0,1-1.08-2.963V389.97a.6.6,0,0,1,.284-.652h0Zm13.709,0h13.667l.217.217v3.4a.531.531,0,0,1-.507.6H318.6a.446.446,0,0,0-.5.507v16.388c0,.386-.145.6-.434.6h-4.338c-.338,0-.5-.241-.5-.718V393.807l-.4-.29h-3.457c-.477,0-.718-.139-.718-.332v-3.355a.507.507,0,0,1,.5-.507h0Zm16.334,0h5.563l.217.217v7.88l.217.29H336l.217-.217v-7.952l.217-.217h5.569l.217.217v20.817a.543.543,0,0,1-.6.652h-4.827a.543.543,0,0,1-.6-.652v-8.025a.386.386,0,0,0-.434-.284h-4.773l-.217.217v8.025c0,.477-.169.718-.5.718h-4.887a.543.543,0,0,1-.6-.652V389.97a.6.6,0,0,1,.284-.652h0Zm24.262,0h8.164a.652.652,0,0,1,.652.8v3.017a.706.706,0,0,1-.8.8H350.6a.5.5,0,0,0-.6.6v11.223a.79.79,0,0,0,.718.778h6.812a.519.519,0,0,1,.652.5v3.4c0,.386-.145.6-.434.6h-9.268a5.528,5.528,0,0,1-2.673-1.521,5.249,5.249,0,0,1-1.37-3.687V394.049a5.165,5.165,0,0,1,1.37-3.18,5.026,5.026,0,0,1,3.325-1.448l.217-.072h0Zm15.616,0h7.591c.453,0,.742.8.869,2.414l3.759,19.007a.392.392,0,0,1-.434.29h-4.489c-.386,0-.6-.6-.724-1.738a13.876,13.876,0,0,0-.718-3.4H366.7q-.271,0-.941,4.827l-.284.29h-4.918l-.217-.217q2.094-10.6,3.107-16.768l.935-4.411a.875.875,0,0,1,.6-.29h0Zm1.883,12.508.072.066h2.745l.151-.145-1.376-7.663-.066-.066H368.3q-.332,0-.664,2.528a47.418,47.418,0,0,0-.778,5.279h0Zm12.713-12.508H389.4a5.43,5.43,0,0,1,3.017,1.883q.863.971.869,3.62v1.665c0,1.647-.29,2.727-.869,3.252l-.284.362v.145a4.163,4.163,0,0,1,1.207,3.18v7.156a.6.6,0,0,1-.6.434h-4.049a.543.543,0,0,1-.6-.652v-6.993q-.217-1.207-1.207-1.207h-2.021l-.29.29v7.808c0,.531-.193.8-.6.8h-4.079a.664.664,0,0,1-.6-.652l-.042-20.817.217-.217h0Zm5.056,4.411v4.266l.217.217h2.239c.567,0,.935-.434,1.086-1.3V394.6a1.346,1.346,0,0,0-1.448-1.158H384.9l-.29.29h0Zm11.235-4.411h12.508l.211.217v3.258a.447.447,0,0,1-.5.5h-7.18a.38.38,0,0,0-.434.434v3.759l.217.217h6.04a.519.519,0,0,1,.652.5v3.107a.38.38,0,0,1-.434.434h-6.04a.38.38,0,0,0-.434.434v3.62q0,1.207,1.883,1.207H408.4a.453.453,0,0,1,.507.507v3.252l-.217.217h-9.322a5.1,5.1,0,0,1-3.107-2.166,6.4,6.4,0,0,1-.718-2.824V390.187c0-.6.1-.869.284-.869h0Z" transform="translate(-150.875 -352.672)" fill="#0072bc"/>
  <path id="Path_639" data-name="Path 639" d="M214.814,395.267a3.246,3.246,0,1,0-3.119,3.367,3.246,3.246,0,0,0,3.119-3.367Z" transform="translate(-138.131 -364.287)" fill="#0072bc" fill-rule="evenodd"/>
  <path id="Path_640" data-name="Path 640" d="M212.578,375.765a3.246,3.246,0,1,0-.543,4.556,3.246,3.246,0,0,0,.543-4.556Z" transform="translate(-137.518 -357.299)" fill="#0072bc" fill-rule="evenodd"/>
  <path id="Path_641" data-name="Path 641" d="M199.759,408.753a3.246,3.246,0,1,0,4.5-.893,3.246,3.246,0,0,0-4.5.893Z" transform="translate(-134.516 -370.303)" fill="#0072bc" fill-rule="evenodd"/>
  <path id="Path_642" data-name="Path 642" d="M98.483,392.686a3.246,3.246,0,1,0-3.186,3.307,3.246,3.246,0,0,0,3.186-3.307Z" transform="translate(-91.991 -363.239)" fill="#0072bc" fill-rule="evenodd"/>
  <path id="Path_643" data-name="Path 643" d="M99.022,408.441a3.246,3.246,0,1,0-.634,4.543,3.246,3.246,0,0,0,.634-4.543Z" transform="translate(-92.464 -370.238)" fill="#0072bc" fill-rule="evenodd"/>
  <path id="Path_644" data-name="Path 644" d="M102,375.908a3.246,3.246,0,1,0,4.519-.8,3.246,3.246,0,0,0-4.519.8Z" transform="translate(-95.727 -357.297)" fill="#0072bc" fill-rule="evenodd"/>
  <path id="Path_645" data-name="Path 645" d="M169.343,362.439c-.235,2.558-.241,4.568-.531,6.124-.314,1.683-2.365,5.913-3.62,8.689a9.352,9.352,0,0,1-.048,1.146c-.253,2.957-1.973,6.547-3.138,9.274-1.49,3.506-3.946,6.523-5.78,9.865-1.394,2.54-3.8,6.685-5.756,8.387-1.02.887-1.883.821-3.156.676a14.939,14.939,0,0,1-4.8-1.261,3.62,3.62,0,0,1-1.858-2.16c-1.086-3.162-.6-9.051-3.017-12.556-2.914-4.224-2.576-4.99-6.71-8.019-1.358-1-9.847-2.317-9.654-3.994.193-1.81,2.124-3.162,3.928-3.457,2.226-.362,4.181-.6,8.9,1.044,2.534.893,8.978,6.872,11.428,5.774a15.434,15.434,0,0,0,4.936-3.729,16.333,16.333,0,0,0,7.79.845l.718-.115c2.414-.392,4.881-2.2,5.153-4.755.151-1.448-1.207-2.281-2.323-2.782a27.708,27.708,0,0,0-3.578-1.207l-.76-.211a50.087,50.087,0,0,0,4.163-6.637c.567-1.11,1.207-3.282,1.689-4.453.6-1.5,1.484-2.945,2.16-4.314.537-1.1,1.062-2.77,1.611-3.687,1.315-2.184,3.554-4.622,6.275-4.918,1.877-.205,3.7.537,2.208,2.788-1.659,2.486-3.307,4.429-4.447,7.192-.875,2.118-1.032,4.326-1.762,6.438h0Z" transform="translate(-103.605 -345.976)" fill="#0072bc" fill-rule="evenodd"/>
  <path id="Path_646" data-name="Path 646" d="M105.681,390.255c.235-2.558.241-4.568.531-6.124.314-1.684,2.365-5.913,3.62-8.689a9.352,9.352,0,0,1,.048-1.146c.253-2.957,1.979-6.547,3.138-9.274,1.49-3.506,3.946-6.523,5.78-9.865,1.394-2.54,3.8-6.685,5.756-8.387,1.02-.887,1.883-.821,3.156-.676a14.935,14.935,0,0,1,4.8,1.261,3.62,3.62,0,0,1,1.858,2.16c1.086,3.162.6,9.051,3.017,12.556,2.914,4.224,2.576,4.99,6.71,8.019,1.358,1,9.847,2.317,9.654,3.994-.193,1.81-2.124,3.162-3.928,3.457-2.227.362-4.181.6-8.9-1.044-2.534-.893-8.978-6.873-11.428-5.774a15.434,15.434,0,0,0-4.936,3.729,16.334,16.334,0,0,0-7.79-.845l-.718.115c-2.414.392-4.881,2.2-5.153,4.755-.151,1.448,1.207,2.281,2.323,2.782a27.654,27.654,0,0,0,3.578,1.207l.76.211a50.078,50.078,0,0,0-4.163,6.637c-.567,1.11-1.207,3.282-1.689,4.453-.6,1.5-1.484,2.944-2.16,4.308-.537,1.1-1.062,2.769-1.611,3.687-1.315,2.184-3.554,4.622-6.275,4.918-1.877.205-3.7-.537-2.208-2.788,1.659-2.486,3.307-4.429,4.447-7.192.875-2.118,1.032-4.326,1.762-6.438h0Z" transform="translate(-94.73 -345.988)" fill="#0072bc" fill-rule="evenodd"/>
  <path id="Path_647" data-name="Path 647" d="M169.343,362.439c-.235,2.558-.241,4.568-.531,6.124-.314,1.683-2.365,5.913-3.62,8.689a9.352,9.352,0,0,1-.048,1.146c-.253,2.957-1.973,6.547-3.138,9.274-1.49,3.506-3.946,6.523-5.78,9.865-1.394,2.54-3.8,6.685-5.756,8.387-1.02.887-1.883.821-3.156.676a14.939,14.939,0,0,1-4.8-1.261,3.62,3.62,0,0,1-1.858-2.16c-1.086-3.162-.6-9.051-3.017-12.556-2.914-4.224-2.576-4.99-6.71-8.019-1.358-1-9.847-2.317-9.654-3.994.193-1.81,2.124-3.162,3.928-3.457,2.226-.362,4.181-.6,8.9,1.044,2.534.893,8.978,6.872,11.428,5.774a15.434,15.434,0,0,0,4.936-3.729,16.333,16.333,0,0,0,7.79.845l.718-.115c2.414-.392,4.881-2.2,5.153-4.755.151-1.448-1.207-2.281-2.323-2.782a27.708,27.708,0,0,0-3.578-1.207l-.76-.211a50.087,50.087,0,0,0,4.163-6.637c.567-1.11,1.207-3.282,1.689-4.453.6-1.5,1.484-2.945,2.16-4.314.537-1.1,1.062-2.77,1.611-3.687,1.315-2.184,3.554-4.622,6.275-4.918,1.877-.205,3.7.537,2.208,2.788-1.659,2.486-3.307,4.429-4.447,7.192-.875,2.118-1.032,4.326-1.762,6.438h0Z" transform="translate(-103.605 -345.976)" fill="#e11b22" fill-rule="evenodd"/>
  <path id="Path_648" data-name="Path 648" d="M105.681,390.255c.235-2.558.241-4.568.531-6.124.314-1.684,2.365-5.913,3.62-8.689a9.352,9.352,0,0,1,.048-1.146c.253-2.957,1.979-6.547,3.138-9.274,1.49-3.506,3.946-6.523,5.78-9.865,1.394-2.54,3.8-6.685,5.756-8.387,1.02-.887,1.883-.821,3.156-.676a14.935,14.935,0,0,1,4.8,1.261,3.62,3.62,0,0,1,1.858,2.16c1.086,3.162.6,9.051,3.017,12.556,2.914,4.224,2.576,4.99,6.71,8.019,1.358,1,9.847,2.317,9.654,3.994-.193,1.81-2.124,3.162-3.928,3.457-2.227.362-4.181.6-8.9-1.044-2.534-.893-8.978-6.873-11.428-5.774a15.434,15.434,0,0,0-4.936,3.729,16.334,16.334,0,0,0-7.79-.845l-.718.115c-2.414.392-4.881,2.2-5.153,4.755-.151,1.448,1.207,2.281,2.323,2.782a27.654,27.654,0,0,0,3.578,1.207l.76.211a50.078,50.078,0,0,0-4.163,6.637c-.567,1.11-1.207,3.282-1.689,4.453-.6,1.5-1.484,2.944-2.16,4.308-.537,1.1-1.062,2.769-1.611,3.687-1.315,2.184-3.554,4.622-6.275,4.918-1.877.205-3.7-.537-2.208-2.788,1.659-2.486,3.307-4.429,4.447-7.192.875-2.118,1.032-4.326,1.762-6.438h0Z" transform="translate(-94.73 -345.988)" fill="#0072bc" fill-rule="evenodd"/>
</svg>
