<svg id="home-2" xmlns="http://www.w3.org/2000/svg" width="32.591" height="30.978" viewBox="0 0 32.591 30.978">
  <g id="home_2_" data-name="home (2)">
    <g id="Group_2" data-name="Group 2" transform="translate(0 0)">
      <g id="Group_1" data-name="Group 1">
        <path id="Path_1" data-name="Path 1" d="M32.044,26.438,17.421,13.114a1.664,1.664,0,0,0-2.251,0L.547,26.438a1.671,1.671,0,0,0,1.126,2.907H4.009v13.35a.959.959,0,0,0,.958.958H27.624a.958.958,0,0,0,.958-.958V29.345h2.336a1.671,1.671,0,0,0,1.125-2.907Z" transform="translate(0 -12.675)" fill="#3972bc"/>
      </g>
    </g>
    <g id="Group_4" data-name="Group 4" transform="translate(21.896 1.913)">
      <g id="Group_3" data-name="Group 3">
        <path id="Path_2" data-name="Path 2" d="M350.41,42.73h-6.437l7.4,6.724V43.688A.958.958,0,0,0,350.41,42.73Z" transform="translate(-343.973 -42.73)" fill="#3972bc"/>
      </g>
    </g>
  </g>
  <path id="Path_76" data-name="Path 76" d="M4.724,0H3.667V-2.157H1.688V0H.629V-5h1.06v1.958H3.667V-5H4.724Zm5.8-2.505A2.712,2.712,0,0,1,9.905-.6,2.281,2.281,0,0,1,8.142.068,2.281,2.281,0,0,1,6.378-.6a2.722,2.722,0,0,1-.615-1.914A2.685,2.685,0,0,1,6.38-4.418a2.307,2.307,0,0,1,1.769-.658,2.275,2.275,0,0,1,1.762.663A2.719,2.719,0,0,1,10.521-2.505Zm-3.647,0a2.087,2.087,0,0,0,.318,1.261,1.112,1.112,0,0,0,.95.424Q9.41-.82,9.41-2.505T8.148-4.194a1.12,1.12,0,0,0-.954.426A2.079,2.079,0,0,0,6.874-2.505ZM13.672,0l-1.2-3.92h-.031q.065,1.2.065,1.6V0h-.947V-5H13l1.183,3.821H14.2L15.456-5H16.9V0h-.988V-2.365q0-.167.005-.386t.046-1.162h-.031L14.643,0Zm7.362,0H18.156V-5h2.878v.868H19.216v1.1h1.692v.868H19.216V-.875h1.818Z" transform="translate(6 29.241)" fill="#fff"/>
</svg>
