<svg id="pdf-file" xmlns="http://www.w3.org/2000/svg" width="47.404" height="47.404" viewBox="0 0 47.404 47.404">
  <g id="Group_7142" data-name="Group 7142" transform="translate(0.694 0.694)">
    <g id="Group_7140" data-name="Group 7140">
      <path id="Path_12322" data-name="Path 12322" d="M65.908,45.936H40.372a2.778,2.778,0,0,1-2.778-2.778V10.278A2.778,2.778,0,0,1,40.372,7.5H65.908a2.778,2.778,0,0,1,2.778,2.778V43.158A2.777,2.777,0,0,1,65.908,45.936Z" transform="translate(-34.808 -7.5)" fill="#f7f6f7"/>
      <path id="Path_12323" data-name="Path 12323" d="M316.184,7.5h-2.778a2.778,2.778,0,0,1,2.778,2.778V43.158a2.778,2.778,0,0,1-2.778,2.778h2.778a2.778,2.778,0,0,0,2.778-2.778V10.278A2.778,2.778,0,0,0,316.184,7.5Z" transform="translate(-285.083 -7.5)" fill="#e2d8ec"/>
      <path id="Path_12324" data-name="Path 12324" d="M41.386,230.461H10.278A2.778,2.778,0,0,1,7.5,227.683V205.278a2.778,2.778,0,0,1,2.778-2.778H23.827a2.407,2.407,0,0,1,2.335,1.823l.477,1.908a2.407,2.407,0,0,0,2.335,1.823H41.386a2.778,2.778,0,0,1,2.778,2.778v16.851A2.778,2.778,0,0,1,41.386,230.461Z" transform="translate(-7.5 -184.446)" fill="#f7e07f"/>
      <g id="Group_7139" data-name="Group 7139" transform="translate(13.549 18.054)">
        <path id="Path_12325" data-name="Path 12325" d="M156.177,204.323l.477,1.908a2.407,2.407,0,0,0,2.335,1.823h2.778a2.407,2.407,0,0,1-2.335-1.823l-.477-1.908a2.407,2.407,0,0,0-2.335-1.823h-2.778A2.407,2.407,0,0,1,156.177,204.323Z" transform="translate(-153.842 -202.5)" fill="#f0d16f"/>
        <path id="Path_12326" data-name="Path 12326" d="M346.278,262.5H343.5a2.778,2.778,0,0,1,2.778,2.778v16.851a2.778,2.778,0,0,1-2.778,2.778h2.778a2.778,2.778,0,0,0,2.778-2.778V265.278A2.778,2.778,0,0,0,346.278,262.5Z" transform="translate(-325.94 -256.945)" fill="#f0d16f"/>
      </g>
      <path id="Path_12327" data-name="Path 12327" d="M109.742,56.666H89.012a.463.463,0,0,1-.463-.463V52.963a.463.463,0,0,1,.463-.463h20.73a.463.463,0,0,1,.463.463V56.2A.463.463,0,0,1,109.742,56.666Z" transform="translate(-81.045 -48.334)" fill="#e2dfe3"/>
    </g>
    <g id="Group_7141" data-name="Group 7141" transform="translate(28.659 28.658)">
      <circle id="Ellipse_1689" data-name="Ellipse 1689" cx="8.678" cy="8.678" r="8.678" transform="translate(0 0)" fill="#bfe69f"/>
      <path id="Path_12328" data-name="Path 12328" d="M397.156,317.033a8.746,8.746,0,0,0-1.389.111,8.679,8.679,0,0,1,0,17.135,8.679,8.679,0,1,0,1.389-17.246Z" transform="translate(-388.477 -317.033)" fill="#a4d9a6"/>
      <path id="Path_12329" data-name="Path 12329" d="M372.049,363.979v-5.686a.524.524,0,0,1,.524-.524h2.181a.524.524,0,0,1,.524.524v5.686a.524.524,0,0,0,.524.524H377a.449.449,0,0,1,.317.766l-3.283,3.283a.524.524,0,0,1-.741,0l-3.283-3.283a.449.449,0,0,1,.317-.766h1.2A.524.524,0,0,0,372.049,363.979Z" transform="translate(-364.985 -353.998)" fill="#fff"/>
    </g>
  </g>
  <path id="Path_12330" data-name="Path 12330" d="M29.854,12.5H8.2a.694.694,0,0,0,0,1.389H29.854a.694.694,0,0,0,0-1.389Zm-.463-8.333H24.8a.694.694,0,0,0,0,1.389H29.16V8.333H8.893V5.555H21.557a.694.694,0,0,0,0-1.389H8.661A1.159,1.159,0,0,0,7.5,5.324V8.564A1.159,1.159,0,0,0,8.661,9.722h20.73a1.159,1.159,0,0,0,1.157-1.157V5.324a1.159,1.159,0,0,0-1.157-1.157Zm.463,11.11H8.2a.694.694,0,1,0,0,1.389H29.854a.694.694,0,0,0,0-1.389Zm0,5.555H22.086a.694.694,0,0,0,0,1.389h7.768a.694.694,0,1,0,0-1.389Zm0-2.778H22.086a.694.694,0,0,0,0,1.389h7.768a.694.694,0,0,0,0-1.389Zm8.2,10.6V27.081a3.478,3.478,0,0,0-2.786-3.4V3.472A3.476,3.476,0,0,0,31.795,0H6.258A3.476,3.476,0,0,0,2.786,3.472V18.123A3.478,3.478,0,0,0,0,21.526v9.853a.694.694,0,0,0,1.389,0V21.526a2.085,2.085,0,0,1,2.083-2.083H17.021a1.712,1.712,0,0,1,1.662,1.3l.477,1.909A3.1,3.1,0,0,0,22.169,25H34.581a2.085,2.085,0,0,1,2.083,2.083v1.677a9.371,9.371,0,0,0-3.537,17.257H3.472a2.085,2.085,0,0,1-2.083-2.083V34.62A.694.694,0,0,0,0,34.62v9.312A3.476,3.476,0,0,0,3.472,47.4H34.581a3.428,3.428,0,0,0,1.294-.251,9.373,9.373,0,1,0,2.178-18.495Zm-4.175-5.049H22.169a1.71,1.71,0,0,1-1.661-1.3l-.477-1.91a3.1,3.1,0,0,0-3.01-2.349H4.175V3.472A2.085,2.085,0,0,1,6.258,1.389H31.795a2.085,2.085,0,0,1,2.083,2.083Zm4.153,22.406a7.984,7.984,0,1,1,7.984-7.984A7.993,7.993,0,0,1,38.031,46.015Zm3.336-6.852H40.34V33.648a1.219,1.219,0,0,0-1.218-1.218H36.941a1.219,1.219,0,0,0-1.218,1.218v5.515H34.7a1.143,1.143,0,0,0-.808,1.952L37.17,44.4a1.22,1.22,0,0,0,1.723,0l3.283-3.283a1.143,1.143,0,0,0-.809-1.952ZM38.031,43.3l-2.743-2.743h.605a1.219,1.219,0,0,0,1.218-1.218V33.819h1.839v5.515a1.219,1.219,0,0,0,1.218,1.218h.605ZM26.624,33.143a.694.694,0,1,0,0-1.389h-2.5a.694.694,0,0,0-.694.694V38.61a.694.694,0,1,0,1.389,0V36.165h1.6a.694.694,0,1,0,0-1.389h-1.6V33.143Zm-9.1,6.161h0c.052,0,1.267,0,1.753-.013,1.776-.031,3.065-1.584,3.065-3.692,0-2.217-1.256-3.706-3.127-3.706H17.516a.694.694,0,0,0-.694.7v5.924a.771.771,0,0,0,.707.792Zm1.694-6.023c1.281,0,1.738,1.2,1.738,2.317,0,1.571-.854,2.289-1.7,2.3-.238,0-.667.007-1.039.01,0-.712-.007-3.89-.009-4.631h1.01Zm-7.1,5.328V36.6l1.034,0a2.446,2.446,0,1,0,0-4.892H11.429a.7.7,0,0,0-.694.694V38.61a.694.694,0,0,0,1.389,0ZM13.157,33.1a1.058,1.058,0,1,1,0,2.114l-1.026,0c0-.378,0-1.722-.006-2.118Z"/>
</svg>
