<svg id="tax" xmlns="http://www.w3.org/2000/svg" width="47.263" height="47.257" viewBox="0 0 47.263 47.257">
  <g id="tax-2" data-name="tax" transform="translate(-0.006 5.78) rotate(-8)">
    <g id="Group_7149" data-name="Group 7149" transform="translate(0.584 0.644)">
      <g id="Group_7148" data-name="Group 7148">
        <path id="Path_12331" data-name="Path 12331" d="M0,0H4.726V7.619H0Z" transform="translate(21.852 25.166) rotate(-45)" fill="#cce7f0"/>
        <g id="Group_7147" data-name="Group 7147">
          <ellipse id="Ellipse_1690" data-name="Ellipse 1690" cx="11.798" cy="11.789" rx="11.798" ry="11.789" transform="translate(3.054 3.051)" fill="#cce7f0"/>
          <path id="Path_12332" data-name="Path 12332" d="M178.584,48.113a11.785,11.785,0,0,0-9.979-3.339,11.789,11.789,0,0,1,0,23.351,11.79,11.79,0,0,0,9.979-20.012Z" transform="translate(-155.39 -41.609)" fill="#b6e2f0"/>
          <path id="Path_12333" data-name="Path 12333" d="M11.483,11.715a14.846,14.846,0,1,0,21,0,14.833,14.833,0,0,0-21,0ZM30.11,30.329a11.487,11.487,0,1,1,0-16.239A11.5,11.5,0,0,1,30.11,30.329Z" transform="translate(-7.132 -7.368)" fill="#65b9d7"/>
        </g>
        <path id="Path_12334" data-name="Path 12334" d="M334.323,334.308a4.275,4.275,0,0,1-6.043,0l-7.232-7.226a1.688,1.688,0,0,1,0-2.388l3.66-3.657a1.688,1.688,0,0,1,2.386,0l7.229,7.224A4.275,4.275,0,0,1,334.323,334.308Z" transform="translate(-294.903 -294.913)" fill="#ffe563"/>
        <path id="Path_12335" data-name="Path 12335" d="M364.892,328.261l-7.229-7.224a1.688,1.688,0,0,0-2.386,0l-1.43,1.428a1.688,1.688,0,0,1,2.13.21l7.229,7.224a4.276,4.276,0,0,1,.686,5.152,4.276,4.276,0,0,0,1-6.791Z" transform="translate(-325.472 -294.913)" fill="#ffdc2e"/>
        <path id="Path_12336" data-name="Path 12336" d="M414.934,420.913l6.048-6.043a4.275,4.275,0,0,1-6.048,6.043Z" transform="translate(-381.559 -381.52)" fill="#ffb700"/>
        <path id="Path_12337" data-name="Path 12337" d="M470.453,414.87l-1.638,1.637a4.272,4.272,0,0,1,.661,5.137,4.272,4.272,0,0,0,.977-6.773Z" transform="translate(-431.031 -381.52)" fill="#f5b000"/>
      </g>
    </g>
    <g id="Group_7150" data-name="Group 7150" transform="translate(0 0.045)">
      <path id="Path_12338" data-name="Path 12338" d="M61.285,44.448a12.112,12.112,0,0,0-16.428-.639.614.614,0,1,0,.8.932,10.858,10.858,0,1,1-2.032,2.306.614.614,0,1,0-1.026-.674,12.1,12.1,0,1,0,18.687-1.925Z" transform="translate(-37.29 -37.561)"/>
      <path id="Path_12339" data-name="Path 12339" d="M30.9,15.485C30.955,1.82,14.144-5.126,4.5,4.557A15.459,15.459,0,0,0,24.062,28.313l1.98,1.979a2.336,2.336,0,0,0,.253,2.955l2.549,2.547a.614.614,0,0,0,.868-.868l-2.549-2.547a1.117,1.117,0,0,1,.158-1.677l3.342-3.34a1.135,1.135,0,0,1,1.678-.159l6.8,6.792L33.959,39.17l-1.942-1.941a.614.614,0,0,0-.868.868l2.375,2.374a4.888,4.888,0,1,0,6.914-6.913l-7.229-7.224a2.305,2.305,0,0,0-2.955-.251l-1.978-1.976A15.338,15.338,0,0,0,30.9,15.485Zm8.669,24.12a3.667,3.667,0,0,1-4.706.4l5.105-5.1A3.707,3.707,0,0,1,39.57,39.606Zm-34.2-14.06a14.233,14.233,0,1,1,20.136,0,14.286,14.286,0,0,1-20.136,0Zm23.994,1.382L26.887,29.4l-1.823-1.821a15.659,15.659,0,0,0,2.476-2.472Z" transform="translate(0 -0.045)"/>
      <path id="Path_12340" data-name="Path 12340" d="M143.548,114.933a.614.614,0,0,0-.853.163l-7.375,10.865a.615.615,0,0,0,1.016.689l7.375-10.865A.614.614,0,0,0,143.548,114.933Z" transform="translate(-124.148 -105.433)"/>
      <path id="Path_12341" data-name="Path 12341" d="M208.277,195.852a2.626,2.626,0,0,0,2.317,2.847c3.072-.152,3.071-5.544,0-5.695A2.626,2.626,0,0,0,208.277,195.852Zm3.406,0c0,.878-.5,1.62-1.089,1.62s-1.089-.742-1.089-1.62.5-1.62,1.089-1.62S211.683,194.974,211.683,195.852Z" transform="translate(-191.231 -177.213)"/>
      <path id="Path_12342" data-name="Path 12342" d="M111.837,114.827a2.627,2.627,0,0,0-2.317,2.847c.131,3.779,4.5,3.778,4.633,0A2.627,2.627,0,0,0,111.837,114.827Zm0,4.467c-.59,0-1.089-.742-1.089-1.62s.5-1.62,1.089-1.62,1.089.742,1.089,1.62S112.427,119.294,111.837,119.294Z" transform="translate(-100.557 -105.433)"/>
    </g>
  </g>
</svg>
