<svg id="about-our-organization" xmlns="http://www.w3.org/2000/svg" width="36.221" height="43.344" viewBox="0 0 36.221 43.344">
  <g id="Group_3349" data-name="Group 3349">
    <path id="Path_10042" data-name="Path 10042" d="M26.484,76.971H12.2a.859.859,0,0,1-.859-.859V49.883a.859.859,0,0,1,.859-.859H26.484a.859.859,0,0,1,.859.859V76.112A.859.859,0,0,1,26.484,76.971Z" transform="translate(-11.34 -33.626)" fill="#0067c5"/>
    <path id="Path_10043" data-name="Path 10043" d="M40.524,49.883a.859.859,0,0,0-.859-.859H30.557V74.038h9.967Z" transform="translate(-24.521 -33.626)" fill="#0055a3"/>
    <g id="Group_3347" data-name="Group 3347" transform="translate(17.544)">
      <path id="Path_10044" data-name="Path 10044" d="M67.841,8.12a.644.644,0,0,1-.644-.644V.644a.644.644,0,1,1,1.289,0V7.476A.644.644,0,0,1,67.841,8.12Z" transform="translate(-67.197)" fill="#444"/>
    </g>
    <path id="Path_10045" data-name="Path 10045" d="M62.152,17.42H53.331a.859.859,0,0,0-.859.859v6.167H63.011V18.278A.859.859,0,0,0,62.152,17.42Z" transform="translate(-39.553 -11.948)" fill="#9c9c9c"/>
    <path id="Path_10046" data-name="Path 10046" d="M75.313,17.42H71.66a.859.859,0,0,1,.859.859v6.167h3.653V18.278A.859.859,0,0,0,75.313,17.42Z" transform="translate(-52.714 -11.948)" fill="#838383"/>
    <g id="Group_3348" data-name="Group 3348" transform="translate(2.966 18.123)">
      <path id="Path_10047" data-name="Path 10047" d="M28.792,60.42H22.144a1.359,1.359,0,1,1,0-2.719h6.648a1.359,1.359,0,1,1,0,2.719Z" transform="translate(-20.784 -57.701)" fill="#c0d6f2"/>
      <path id="Path_10048" data-name="Path 10048" d="M28.792,78.824H22.144a1.359,1.359,0,1,1,0-2.719h6.648a1.359,1.359,0,1,1,0,2.719Z" transform="translate(-20.784 -70.324)" fill="#c0d6f2"/>
      <path id="Path_10049" data-name="Path 10049" d="M28.792,97.228H22.144a1.359,1.359,0,1,1,0-2.719h6.648a1.359,1.359,0,1,1,0,2.719Z" transform="translate(-20.784 -82.948)" fill="#c0d6f2"/>
      <path id="Path_10050" data-name="Path 10050" d="M28.792,115.632H22.144a1.359,1.359,0,1,1,0-2.719h6.648a1.359,1.359,0,1,1,0,2.719Z" transform="translate(-20.784 -95.572)" fill="#c0d6f2"/>
    </g>
    <path id="Path_10051" data-name="Path 10051" d="M30.557,60.42H35.5a1.359,1.359,0,1,0,0-2.719H30.557Z" transform="translate(-24.521 -39.578)" fill="#b2caec"/>
    <path id="Path_10052" data-name="Path 10052" d="M30.557,78.824H35.5a1.359,1.359,0,1,0,0-2.719H30.557Z" transform="translate(-24.521 -52.201)" fill="#b2caec"/>
    <path id="Path_10053" data-name="Path 10053" d="M30.557,97.228H35.5a1.359,1.359,0,1,0,0-2.719H30.557Z" transform="translate(-24.521 -64.825)" fill="#b2caec"/>
    <path id="Path_10054" data-name="Path 10054" d="M30.557,115.632H35.5a1.359,1.359,0,1,0,0-2.719H30.557Z" transform="translate(-24.521 -77.449)" fill="#b2caec"/>
    <path id="Path_10055" data-name="Path 10055" d="M35.751,130.738v-2.074H24.629A1.031,1.031,0,0,0,23.6,129.7v1.9H34.892A.859.859,0,0,0,35.751,130.738Z" transform="translate(-19.748 -88.253)" fill="#0055a3"/>
    <path id="Path_10056" data-name="Path 10056" d="M90.854,89.074H76.569a.859.859,0,0,1-.859-.859V67.529a.859.859,0,0,1,.859-.859H90.854a.859.859,0,0,1,.859.859V88.215A.859.859,0,0,1,90.854,89.074Z" transform="translate(-55.493 -45.73)" fill="#0473ce"/>
    <path id="Path_10057" data-name="Path 10057" d="M110.163,80.3H107.84a.39.39,0,0,1-.39-.39V77.644a.39.39,0,0,1,.39-.39h2.323a.39.39,0,0,1,.39.39v2.265A.39.39,0,0,1,110.163,80.3Z" transform="translate(-77.262 -52.989)" fill="#c0d6f2"/>
    <path id="Path_10058" data-name="Path 10058" d="M110.163,100.912H107.84a.39.39,0,0,1-.39-.39V98.257a.39.39,0,0,1,.39-.39h2.323a.39.39,0,0,1,.39.39v2.265A.39.39,0,0,1,110.163,100.912Z" transform="translate(-77.262 -67.128)" fill="#c0d6f2"/>
    <path id="Path_10059" data-name="Path 10059" d="M110.163,121.525H107.84a.39.39,0,0,1-.39-.39V118.87a.39.39,0,0,1,.39-.39h2.323a.39.39,0,0,1,.39.39v2.265A.39.39,0,0,1,110.163,121.525Z" transform="translate(-77.262 -81.266)" fill="#c0d6f2"/>
    <path id="Path_10060" data-name="Path 10060" d="M58.9,61.114H41.413V31.041a.859.859,0,0,1,.859-.859H58.04a.859.859,0,0,1,.859.859Z" transform="translate(-31.967 -20.702)" fill="#5a5a5a"/>
    <path id="Path_10061" data-name="Path 10061" d="M51.836,65.8H50.223a.39.39,0,0,1-.39-.39V43.166a.39.39,0,0,1,.39-.39h1.613a.39.39,0,0,1,.39.39v22.24A.39.39,0,0,1,51.836,65.8Z" transform="translate(-37.743 -29.341)" fill="#d3e1f5"/>
    <path id="Path_10062" data-name="Path 10062" d="M67.441,65.8H65.828a.39.39,0,0,1-.39-.39V43.166a.39.39,0,0,1,.39-.39h1.613a.39.39,0,0,1,.39.39v22.24A.39.39,0,0,1,67.441,65.8Z" transform="translate(-48.446 -29.341)" fill="#d3e1f5"/>
    <path id="Path_10063" data-name="Path 10063" d="M117.527,66.67H114.6a.859.859,0,0,1,.859.859V88.215a.859.859,0,0,1-.859.859h2.93a.859.859,0,0,0,.859-.859V67.529A.859.859,0,0,0,117.527,66.67Z" transform="translate(-82.166 -45.73)" fill="#0067c5"/>
    <path id="Path_10064" data-name="Path 10064" d="M86.373,30.182H82.72a.859.859,0,0,1,.859.859V61.114h3.653V31.04A.859.859,0,0,0,86.373,30.182Z" transform="translate(-60.3 -20.702)" fill="#444"/>
    <path id="Path_10065" data-name="Path 10065" d="M83.046,65.8H81.432a.39.39,0,0,1-.39-.39V43.166a.39.39,0,0,1,.39-.39h1.613a.39.39,0,0,1,.39.39v22.24A.39.39,0,0,1,83.046,65.8Z" transform="translate(-59.15 -29.341)" fill="#d3e1f5"/>
    <path id="Path_10066" data-name="Path 10066" d="M86.072,65.8a.39.39,0,0,0,.39-.39V43.166a.39.39,0,0,0-.39-.39h-.618V65.8Z" transform="translate(-62.176 -29.341)" fill="#82aee3"/>
    <path id="Path_10067" data-name="Path 10067" d="M55.28,128.665h-19.8a1.031,1.031,0,0,0-1.031,1.031v1.9H56.311v-1.9A1.031,1.031,0,0,0,55.28,128.665Z" transform="translate(-27.194 -88.253)" fill="#838383"/>
    <path id="Path_10068" data-name="Path 10068" d="M93.814,131.6v-1.9a1.031,1.031,0,0,0-1.031-1.031H89.13a1.031,1.031,0,0,1,1.031,1.031c0,2.035,0,1.783,0,1.9Z" transform="translate(-64.697 -88.253)" fill="#5a5a5a"/>
  </g>
</svg>
