<svg id="general-conditions-icon" xmlns="http://www.w3.org/2000/svg" width="35.799" height="43.344" viewBox="0 0 35.799 43.344">
  <g id="Group_3350" data-name="Group 3350" transform="translate(0.632 0.633)">
    <path id="Path_10069" data-name="Path 10069" d="M75.88,24.059h5.575L86.4,10.4a.444.444,0,0,0-.271-.629L82.139,8.318a.458.458,0,0,0-.638.3Z" transform="translate(-56.452 -6.311)" fill="#407093" fill-rule="evenodd"/>
    <path id="Path_10070" data-name="Path 10070" d="M85.706,25.566h2.489L93.138,11.9a.444.444,0,0,0-.271-.629l-2.2-.8a.444.444,0,0,1,.271.629Z" transform="translate(-63.192 -7.818)" fill="#365e7d" fill-rule="evenodd"/>
    <path id="Path_10071" data-name="Path 10071" d="M53.393,15.129h4.773V28.758H53.393Z" transform="translate(-41.028 -11.01)" fill="#fc7070" fill-rule="evenodd"/>
    <path id="Path_10072" data-name="Path 10072" d="M53.492,6.133l1.867-3.744c.257-.514.732-.487.974,0L58.2,6.136Z" transform="translate(-41.096 -2.014)" fill="#ffe07d" fill-rule="evenodd"/>
    <path id="Path_10073" data-name="Path 10073" d="M96.487,68.821h5.136a3.509,3.509,0,0,1,3.5,3.5v6.929a3.507,3.507,0,0,1-3.5,3.5H96.487V80.122h5.136a.877.877,0,0,0,.874-.873V72.32a.877.877,0,0,0-.874-.876H96.487Z" transform="translate(-70.587 -47.837)" fill="#ffc250" fill-rule="evenodd"/>
    <path id="Path_10074" data-name="Path 10074" d="M17.778,6.373l-.994-2.736a.314.314,0,0,0-.4-.187l-2.148.782a.31.31,0,0,0-.187.4l1,2.736Z" transform="translate(-14.027 -2.985)" fill="#b1e4f9" fill-rule="evenodd"/>
    <path id="Path_10075" data-name="Path 10075" d="M22.275,27.575h3.1L20,12.8l-2.736,1Z" transform="translate(-16.244 -9.411)" fill="#90d8f9" fill-rule="evenodd"/>
    <path id="Path_10076" data-name="Path 10076" d="M50.072,78.915a3.947,3.947,0,0,1-3.933,3.936H32.15a3.945,3.945,0,0,1-3.933-3.936V59.02a.5.5,0,0,1,.5-.5H49.575a.5.5,0,0,1,.5.5Z" transform="translate(-23.759 -40.773)" fill="#ffe07d" fill-rule="evenodd"/>
    <path id="Path_10077" data-name="Path 10077" d="M83.776,78.915a3.947,3.947,0,0,1-3.933,3.936H77.354a3.947,3.947,0,0,0,3.936-3.936V59.02a.5.5,0,0,0-.5-.5H83.28a.5.5,0,0,1,.5.5Z" transform="translate(-57.464 -40.773)" fill="#ffd064" fill-rule="evenodd"/>
    <path id="Path_10078" data-name="Path 10078" d="M47.558,78.818l.458-.461a3.791,3.791,0,1,1,5.361,5.361c-2.033,2.033-3.7,3.727-5.745,5.745a.458.458,0,0,1-.7,0c-1.905-1.886-3.849-3.849-5.745-5.745a3.791,3.791,0,0,1,5.361-5.361l.458.461A.346.346,0,0,0,47.558,78.818Z" transform="translate(-31.896 -53.621)" fill="#ff9a9f" fill-rule="evenodd"/>
    <path id="Path_10079" data-name="Path 10079" d="M62.47,77.462a3.789,3.789,0,0,1,3.924,6.259c-2.033,2.033-3.7,3.727-5.745,5.745a.458.458,0,0,1-.7,0c-.3-.293-.593-.588-.89-.886,1.658-1.646,3.122-3.129,4.85-4.86a3.787,3.787,0,0,0-1.435-6.259Z" transform="translate(-44.912 -53.623)" fill="#fc7070" fill-rule="evenodd"/>
  </g>
  <path id="Path_10080" data-name="Path 10080" d="M33.937,11.409a.633.633,0,1,1,1.19.432l-2.15,5.906H37.2l.245-.672-1.217-.444a.633.633,0,0,1,.432-1.19l1.214.442.463-1.282-2.124-.773a.633.633,0,0,1,.432-1.19l2.124.773.463-1.282-1.207-.439a.633.633,0,0,1,.432-1.19l1.207.439.463-1.282-2.117-.77a.633.633,0,1,1,.432-1.19l2.117.77.478-1.32L39.807,6.7a.633.633,0,1,1,.432-1.19l1.231.449.48-1.325L38.243,3.28,36.112,9.136a.633.633,0,0,1-1.19-.432L37.1,2.721a1.085,1.085,0,0,1,1.45-.677l3.989,1.449a1.071,1.071,0,0,1,.65,1.44L38.55,17.749a1.132,1.132,0,0,1,1.044,1.13v2.1h4.087a4.138,4.138,0,0,1,4.13,4.133v6.929a4.142,4.142,0,0,1-4.13,4.133H39.594v2.6a4.58,4.58,0,0,1-4.569,4.569H21.035a4.58,4.58,0,0,1-4.569-4.569v-8.51a.635.635,0,0,1,1.27,0v8.51a3.311,3.311,0,0,0,3.3,3.3H35.024a3.311,3.311,0,0,0,3.3-3.3V19.017H17.735V27.39a.635.635,0,0,1-1.27,0V18.88a1.131,1.131,0,0,1,1.154-1.133Q14.845,10.119,12.069,2.5a.946.946,0,0,1,.566-1.212l2.1-.766a.951.951,0,0,1,1.274.6l.269.734a3.481,3.481,0,0,1,1.8.07A2.461,2.461,0,0,1,19.66,3.461l2.7,7.418a.634.634,0,0,1-1.193.432l-2.7-7.418a1.233,1.233,0,0,0-.787-.773,2.1,2.1,0,0,0-.962-.065Q19.4,10.4,22.067,17.747h2.306V13a.635.635,0,0,1,1.27,0v4.742h1.121V5.388H25.643V10.13a.635.635,0,0,1-1.27,0V4.821a1.275,1.275,0,0,1,.175-.506L26.339.727a1.13,1.13,0,0,1,2.112,0l1.79,3.583a1.326,1.326,0,0,1,.178.511V17.747h1.21Zm-5.909,6.338h1.121V5.388H28.029Zm-9.062,0h1.754L16.02,4.831l-1.548.564ZM14.04,4.2l1.545-.564L14.916,1.8l-1.548.564ZM30.62,33.354a.633.633,0,0,1,.9.893q-1.339,1.346-2.693,2.681a1.084,1.084,0,0,1-1.594,0c-1.925-1.906-3.833-3.83-5.748-5.745a4.421,4.421,0,0,1,3.129-7.55,4.491,4.491,0,0,1,3.415,1.579,4.5,4.5,0,0,1,3.417-1.579,4.427,4.427,0,0,1,3.13,7.55c-.439.441-.482.48-1.027,1.027a.634.634,0,0,1-.9-.893c.437-.434.833-.838,1.03-1.032a3.156,3.156,0,0,0-4.464-4.464c-.331.334-.658.773-1.169.782s-.864-.446-1.2-.782a3.156,3.156,0,0,0-4.464,4.464c1.879,1.886,3.756,3.777,5.649,5.652q1.3-1.285,2.59-2.58Zm8.973-8.479v7.408h4.087a.23.23,0,0,0,.168-.072.238.238,0,0,0,.07-.168V25.115a.248.248,0,0,0-.07-.17.238.238,0,0,0-.168-.07Zm4.087-2.623H39.594v1.354h4.087a1.512,1.512,0,0,1,1.51,1.509v6.929a1.516,1.516,0,0,1-1.51,1.509H39.594v1.353h4.087a2.872,2.872,0,0,0,2.861-2.863V25.115a2.872,2.872,0,0,0-2.861-2.863ZM27.4,1.452l-1.33,2.666h2.659Z" transform="translate(-12.013 0)"/>
</svg>
