<svg id="hr-management-system-icon" xmlns="http://www.w3.org/2000/svg" width="42.355" height="47.577" viewBox="0 0 42.355 47.577">
  <g id="Group_5041" data-name="Group 5041" transform="translate(0.697 0.697)">
    <g id="Group_5039" data-name="Group 5039">
      <g id="Group_5029" data-name="Group 5029" transform="translate(9.103 0)">
        <path id="Path_11140" data-name="Path 11140" d="M152.838,18.952H133.554V16.9A9.408,9.408,0,0,1,142.962,7.5h.468a9.408,9.408,0,0,1,9.408,9.408v2.049Z" transform="translate(-133.554 -7.495)" fill="#5d5260"/>
      </g>
      <g id="Group_5030" data-name="Group 5030" transform="translate(17.168)">
        <path id="Path_11141" data-name="Path 11141" d="M222.161,7.5h-.468a9.479,9.479,0,0,0-1.343.1,9.41,9.41,0,0,1,8.066,9.312v2.049h3.153V16.9A9.408,9.408,0,0,0,222.161,7.5Z" transform="translate(-220.35 -7.495)" fill="#4b3f4e"/>
      </g>
      <g id="Group_5031" data-name="Group 5031" transform="translate(0 26.525)">
        <path id="Path_11142" data-name="Path 11142" d="M73.086,305.422V312.6H35.6v-7.087a6.746,6.746,0,0,1,4.129-6.217l14.615-6.354,14.731,6.314a6.744,6.744,0,0,1,4.013,6.166Z" transform="translate(-35.597 -292.942)" fill="#b8b6ff"/>
      </g>
      <g id="Group_5032" data-name="Group 5032" transform="translate(13.574 23.893)">
        <path id="Path_11143" data-name="Path 11143" d="M186.84,274.02c-2.856,0-5.171-.56-5.171-3.415v-5.984h10.342v5.984C192.011,273.461,189.7,274.02,186.84,274.02Z" transform="translate(-181.669 -264.621)" fill="#e2a876"/>
      </g>
      <g id="Group_5033" data-name="Group 5033" transform="translate(26.96 11.457)">
        <path id="Path_11144" data-name="Path 11144" d="M327.34,135.73h-1.61v-4.943h1.61a1.243,1.243,0,0,1,1.243,1.243v2.457A1.243,1.243,0,0,1,327.34,135.73Z" transform="translate(-325.73 -130.787)" fill="#e2a876"/>
      </g>
      <g id="Group_5034" data-name="Group 5034" transform="translate(7.676 11.457)">
        <path id="Path_11145" data-name="Path 11145" d="M119.444,135.73h1.61v-4.943h-1.61a1.243,1.243,0,0,0-1.243,1.243v2.457A1.243,1.243,0,0,0,119.444,135.73Z" transform="translate(-118.201 -130.787)" fill="#e2a876"/>
      </g>
      <g id="Group_5035" data-name="Group 5035" transform="translate(10.528 7.533)">
        <path id="Path_11146" data-name="Path 11146" d="M165.32,98.782a8.216,8.216,0,0,1-16.431,0v-6.3a4.019,4.019,0,0,1,.9-2.467,3.961,3.961,0,0,1,1.969-1.235c2.352-.679,3.226,1.263,5.9,1.132,2.434-.12,3.078-1.8,4.969-1.238a3.778,3.778,0,0,1,2.7,3.808q0,3.149,0,6.3Z" transform="translate(-148.889 -88.56)" fill="#ecbd83"/>
      </g>
      <g id="Group_5036" data-name="Group 5036" transform="translate(16.253 33.197)">
        <path id="Path_11147" data-name="Path 11147" d="M215.487,377.734H210.5l2.184-12.615.028-.16a.275.275,0,0,1,.171-.21l.108.095.108-.095a.274.274,0,0,1,.172.21l.028.16Z" transform="translate(-210.504 -364.748)" fill="#5d5260"/>
      </g>
      <g id="Group_5037" data-name="Group 5037" transform="translate(10.528 28.773)">
        <path id="Path_11148" data-name="Path 11148" d="M157.106,321.657l-.307.275-2.834,2.54a1.121,1.121,0,0,1-1.715-.269l-3.361-5.741,3.046-1.324L157,321.562Z" transform="translate(-148.889 -317.138)" fill="#a09eef"/>
      </g>
      <g id="Group_5038" data-name="Group 5038" transform="translate(18.744 28.741)">
        <path id="Path_11149" data-name="Path 11149" d="M245.556,318.112l-3.385,5.782a1.12,1.12,0,0,1-1.714.269l-2.834-2.54-.308-.275.108-.095,5.064-4.456Z" transform="translate(-237.315 -316.797)" fill="#a09eef"/>
      </g>
    </g>
    <g id="Group_5040" data-name="Group 5040" transform="translate(26.986 36.441)">
      <path id="Path_11150" data-name="Path 11150" d="M338.68,409.394H327.3a1.3,1.3,0,0,1-1.3-1.3V400.95a1.3,1.3,0,0,1,1.3-1.3h11.379a1.3,1.3,0,0,1,1.3,1.3V408.1A1.3,1.3,0,0,1,338.68,409.394Z" transform="translate(-326.002 -399.651)" fill="#ccf49f"/>
    </g>
  </g>
  <g id="Group_5042" data-name="Group 5042">
    <path id="Path_11151" data-name="Path 11151" d="M109.218,445.387a.7.7,0,0,0-.7.7v4.8a.7.7,0,0,0,1.394,0v-4.8A.7.7,0,0,0,109.218,445.387Z" transform="translate(-101.048 -404)"/>
    <path id="Path_11152" data-name="Path 11152" d="M68.458,36.44H66.225a7.41,7.41,0,0,0-3.68-3.545l-6.459-2.768-.032-.015-.971-.416L53.458,29l-.005,0-.049-.021c0-.053,0-.106,0-.158V25.151a8.893,8.893,0,0,0,3.043-6.7v-.658h.915a1.942,1.942,0,0,0,1.94-1.94V13.4a1.942,1.942,0,0,0-1.427-1.869V10.1A10.116,10.116,0,0,0,47.774,0h-.468A10.116,10.116,0,0,0,37.2,10.1v1.423A1.942,1.942,0,0,0,35.774,13.4v2.457a1.942,1.942,0,0,0,1.94,1.94h.912v.658a8.894,8.894,0,0,0,3.046,6.7v3.664c0,.064,0,.129,0,.192l-9.021,3.922a7.426,7.426,0,0,0-4.556,6.86V46.88a.7.7,0,0,0,1.394,0V39.793a6.039,6.039,0,0,1,3.71-5.578l5.831-2.535.736,1.257a.7.7,0,0,0,1.2-.7l-.651-1.112,1.5-.654.287.221.006,0,4.331,3.338-2.9,2.6-1.331-2.274a.7.7,0,0,0-1.2.7l1.762,3.01a.7.7,0,0,0,1.067.167l2.621-2.348-2.1,10.858a.7.7,0,1,0,1.368.265l1.807-9.35,1.807,9.35a.7.7,0,1,0,1.368-.265l-2.1-10.858,2.621,2.348a.7.7,0,0,0,1.067-.167l3.767-6.434,5.918,2.536a6.018,6.018,0,0,1,2.643,2.267H57.079a2,2,0,0,0-2,2v7.146a2,2,0,0,0,2,2H68.458a2,2,0,0,0,2-2V38.436a2,2,0,0,0-2-2ZM57.911,15.853a.547.547,0,0,1-.546.546h-.914V12.85h.914a.547.547,0,0,1,.546.546Zm-20.2.546a.547.547,0,0,1-.546-.546V13.4a.547.547,0,0,1,.546-.546h.912V16.4Zm2.306,2.052,0-6.3s0-.009,0-.014a3.313,3.313,0,0,1,.737-2A3.256,3.256,0,0,1,42.386,9.12a3.2,3.2,0,0,1,2.511.4,6.389,6.389,0,0,0,3.227.758,5.939,5.939,0,0,0,2.494-.7.7.7,0,0,0-.63-1.244,4.5,4.5,0,0,1-1.933.554,5.091,5.091,0,0,1-2.578-.633A4.563,4.563,0,0,0,42,7.781a4.479,4.479,0,0,0-3.308,3.675h-.1V10.1a8.721,8.721,0,0,1,8.711-8.711h.468A8.721,8.721,0,0,1,56.485,10.1v1.351h-.063A4.44,4.44,0,0,0,55.9,9.8a4.587,4.587,0,0,0-2.638-2.122.7.7,0,0,0-.4,1.336,3.18,3.18,0,0,1,1.818,1.463,3.147,3.147,0,0,1,.38,1.65c0,.009,0,.018,0,.028v6.3a7.519,7.519,0,0,1-15.037,0Zm3.142,11.284c-.025-.122-.047-.245-.062-.37a4.4,4.4,0,0,1-.034-.547V26.157a8.9,8.9,0,0,0,8.949,0v2.663a4.5,4.5,0,0,1-.031.525c-.015.132-.037.262-.064.39l-4.38,3.375Zm8.371,6.9-2.9-2.6,4.655-3.587,1.165.5.33.142Zm17.527,8.951a.6.6,0,0,1-.6.6H57.079a.6.6,0,0,1-.6-.6V38.436a.6.6,0,0,1,.6-.6H68.458a.6.6,0,0,1,.6.6Z" transform="translate(-28.098 0)"/>
    <path id="Path_11153" data-name="Path 11153" d="M416.847,422.027a1.934,1.934,0,0,0-1.965-1.9h-1.229a.7.7,0,0,0-.7.7v4.618a.7.7,0,0,0,1.394,0v-.99l1.277,1.451a.7.7,0,0,0,1.046-.921l-1.056-1.2A1.9,1.9,0,0,0,416.847,422.027Zm-1.965-.5a.507.507,0,1,1,0,1.007l-.526,0c0-.194,0-.385,0-.5,0-.1,0-.3,0-.5h.528Z" transform="translate(-377.194 -381.09)"/>
    <path id="Path_11154" data-name="Path 11154" d="M352.238,420.13a.7.7,0,0,0-.7.7v1.533h-1.8v-1.533a.7.7,0,0,0-1.394,0v4.618a.7.7,0,0,0,1.394,0v-1.692h1.8v1.692a.7.7,0,0,0,1.394,0v-4.618A.7.7,0,0,0,352.238,420.13Z" transform="translate(-318.586 -381.09)"/>
  </g>
</svg>
