<svg id="job-openings-bg" xmlns="http://www.w3.org/2000/svg" xmlns:xlink="http://www.w3.org/1999/xlink" width="258.156" height="341.189" viewBox="0 0 258.156 341.189">
  <defs>
    <linearGradient id="linear-gradient" x1="0.5" y1="1" x2="0.5" gradientUnits="objectBoundingBox">
      <stop offset="0" stop-color="#f4ffba" stop-opacity="0.6"/>
      <stop offset="1" stop-color="#f4ffba"/>
    </linearGradient>
  </defs>
  <g id="Group_3277" data-name="Group 3277">
    <path id="Path_9884" data-name="Path 9884" d="M151.027,0H277.58l65.8,326.221H85.225Z" transform="translate(-85.225)" opacity="0.57" fill="url(#linear-gradient)"/>
    <ellipse id="Ellipse_1259" data-name="Ellipse 1259" cx="129.078" cy="14.029" rx="129.078" ry="14.029" transform="translate(0 313.132)" fill="#f4ffba"/>
  </g>
  <g id="Group_3295" data-name="Group 3295" transform="translate(50.846 114.733)">
    <line id="Line_13" data-name="Line 13" x2="9.436" y2="51.25" transform="translate(148.414 7.816)" fill="none" stroke="#fff" stroke-linecap="round" stroke-linejoin="round" stroke-width="1"/>
    <g id="Group_3293" data-name="Group 3293" transform="translate(0 1.132)">
      <ellipse id="Ellipse_1260" data-name="Ellipse 1260" cx="70.955" cy="7.712" rx="70.955" ry="7.712" transform="translate(0 202.149)" fill="#3d424d" opacity="0.3" style="mix-blend-mode: multiply;isolation: isolate"/>
      <path id="Path_9885" data-name="Path 9885" d="M160.134,272.014h73.229l14.066-107.951a7.01,7.01,0,0,0-6.951-7.916H181.386a7.01,7.01,0,0,0-6.951,6.1Z" transform="translate(-96.722 -156.146)" fill="#202229"/>
      <g id="Group_3278" data-name="Group 3278" transform="translate(17.46 79.398)">
        <path id="Path_9886" data-name="Path 9886" d="M272.77,308.711a4.53,4.53,0,0,0,4.424-3.581l5.885-27.463a9.254,9.254,0,0,1,9-7.277h23.331a4.529,4.529,0,0,0,0-9.058H292.082a18.359,18.359,0,0,0-17.86,14.438l-5.886,27.463a4.532,4.532,0,0,0,4.433,5.479Z" transform="translate(-268.235 -261.331)" fill="#3d424d"/>
      </g>
      <g id="Group_3279" data-name="Group 3279" transform="translate(18.969 80.908)">
        <path id="Path_9887" data-name="Path 9887" d="M270.77,310.711a4.53,4.53,0,0,0,4.424-3.581l5.885-27.463a9.254,9.254,0,0,1,9-7.277h23.331a4.529,4.529,0,0,0,0-9.058H290.082a18.359,18.359,0,0,0-17.86,14.438l-5.886,27.463a4.532,4.532,0,0,0,4.433,5.479Z" transform="translate(-266.235 -263.331)" fill="#202229"/>
      </g>
      <path id="Path_9888" data-name="Path 9888" d="M174.132,272.011h73.227l14.07-107.95a7.01,7.01,0,0,0-6.952-7.911H195.388a7.006,7.006,0,0,0-6.952,6.1Z" transform="translate(-121.288 -156.147)" fill="#2d3038"/>
      <path id="Path_9889" data-name="Path 9889" d="M270.005,162.25a7.01,7.01,0,0,1,6.951-6.1h4.529a7.01,7.01,0,0,0-6.951,6.1l-14.3,109.763H255.7Z" transform="translate(-202.86 -156.146)" fill="#3d424d"/>
      <path id="Path_9890" data-name="Path 9890" d="M211.394,194.367l-4.292,5.088-5.088,2.783,5.088,2.783,2.028,5.087,3.537-5.087,5.088-2.783-5.088-2.783Z" transform="translate(-98.601 -165.516)" fill="#202229"/>
      <path id="Path_9891" data-name="Path 9891" d="M247.065,194.27l-3.537,5.088-5.088,2.782,5.088,2.782,2.028,5.088,3.537-5.088,5.088-2.782-5.088-2.782Z" transform="translate(-162.522 -165.492)" fill="#202229"/>
      <path id="Path_9892" data-name="Path 9892" d="M218.181,246.449l-4.292,5.088-5.088,2.783,5.088,2.783,2.028,5.087,3.537-5.087,5.088-2.783-5.088-2.783Z" transform="translate(-110.511 -178.285)" fill="#202229"/>
      <path id="Path_9893" data-name="Path 9893" d="M253.852,246.352l-3.537,5.088-5.088,2.783L250.314,257l2.028,5.088L255.879,257l5.088-2.782-5.088-2.783Z" transform="translate(-174.432 -178.261)" fill="#202229"/>
      <g id="Group_3280" data-name="Group 3280" transform="translate(72.711 0.003)">
        <path id="Path_9894" data-name="Path 9894" d="M233.38,272.011a.769.769,0,0,0,.657.755h.1a.757.757,0,0,0,.755-.657l.015-.1,14.282-109.663a6.273,6.273,0,0,1,6.2-5.442.757.757,0,0,0,.755-.755h-4.091a7.791,7.791,0,0,0-4.363,6l-14.3,109.769A.338.338,0,0,0,233.38,272.011Z" transform="translate(-233.38 -156.15)" fill="#202229"/>
      </g>
      <g id="Group_3281" data-name="Group 3281" transform="translate(100.655 0.003)">
        <path id="Path_9895" data-name="Path 9895" d="M196.36,272.011a.769.769,0,0,0,.657.755h.1a.744.744,0,0,0,.747-.657l.015-.1,14.289-109.663a6.273,6.273,0,0,1,6.2-5.442.757.757,0,0,0,.755-.755h-4.091a7.791,7.791,0,0,0-4.363,6l-14.3,109.769A.338.338,0,0,0,196.36,272.011Z" transform="translate(-196.36 -156.15)" fill="#202229"/>
      </g>
      <path id="Path_9896" data-name="Path 9896" d="M192.28,312.506H308.911l1.51-11.553H197.563a5.283,5.283,0,0,0-5.283,5.282Z" transform="translate(-183.919 -191.647)" fill="#3d424d"/>
      <g id="Group_3282" data-name="Group 3282" transform="translate(49.773 135.127)">
        <path id="Path_9897" data-name="Path 9897" d="M244.175,345.757h30.958a5.3,5.3,0,0,0,5.3-5.3h0a5.3,5.3,0,0,0-5.3-5.3H244.175a5.3,5.3,0,0,0-5.3,5.3h0A5.3,5.3,0,0,0,244.175,345.757Z" transform="translate(-238.876 -335.159)" fill="#1c1d24"/>
        <rect id="Rectangle_482" data-name="Rectangle 482" width="7.85" height="39.185" transform="translate(16.853 5.094)" fill="#1c1d24"/>
        <rect id="Rectangle_483" data-name="Rectangle 483" width="14.987" height="31.637" transform="translate(13.284 19.129)" fill="#202229"/>
        <rect id="Rectangle_484" data-name="Rectangle 484" width="14.987" height="5.235" transform="translate(13.284 43.055)" fill="#1c1d24"/>
      </g>
      <path id="Path_9898" data-name="Path 9898" d="M188.933,332.751H296.066a10.087,10.087,0,0,0,10-8.779l1.872-14.328H178.847v13.02A10.086,10.086,0,0,0,188.933,332.751Z" transform="translate(-171.299 -193.777)" fill="#202229"/>
      <g id="Group_3283" data-name="Group 3283" transform="translate(86.841 79.398)">
        <path id="Path_9899" data-name="Path 9899" d="M223.925,270.389H200.593a9.256,9.256,0,0,0-9,7.277l-4.268,19.919h-9.263l4.675-21.816a18.36,18.36,0,0,1,17.86-14.438h23.331a4.529,4.529,0,1,1,0,9.058Z" transform="translate(-178.059 -261.331)" fill="#3d424d"/>
      </g>
      <g id="Group_3284" data-name="Group 3284" transform="translate(88.674 80.908)">
        <path id="Path_9900" data-name="Path 9900" d="M198.27,272.389a9.256,9.256,0,0,0-9,7.277l-3.945,18.409h-9.263l4.352-20.307a18.36,18.36,0,0,1,17.86-14.438H221.6a4.529,4.529,0,1,1,0,9.058Z" transform="translate(-176.059 -263.331)" fill="#202229"/>
      </g>
      <g id="Group_3286" data-name="Group 3286" transform="translate(106.993 190.759)">
        <rect id="Rectangle_485" data-name="Rectangle 485" width="4.784" height="9.436" transform="translate(6.378)" fill="#1c1d24"/>
        <g id="Group_3285" data-name="Group 3285" transform="translate(0 5.794)">
          <ellipse id="Ellipse_1261" data-name="Ellipse 1261" cx="6.716" cy="8.985" rx="6.716" ry="8.985" transform="translate(0)" fill="#2d3038"/>
          <ellipse id="Ellipse_1262" data-name="Ellipse 1262" cx="6.716" cy="8.985" rx="6.716" ry="8.985" transform="translate(3.774)" fill="#202229"/>
          <path id="Path_9901" data-name="Path 9901" d="M200.65,427.266c0,1.994,1.208,3.61,2.7,3.61s2.7-1.616,2.7-3.61-1.209-3.611-2.7-3.611S200.65,425.272,200.65,427.266Z" transform="translate(-192.859 -418.281)" fill="#2d3038"/>
        </g>
      </g>
      <g id="Group_3288" data-name="Group 3288" transform="translate(15.545 190.759)">
        <rect id="Rectangle_486" data-name="Rectangle 486" width="4.784" height="9.436" transform="translate(6.378)" fill="#1c1d24"/>
        <g id="Group_3287" data-name="Group 3287" transform="translate(0 5.794)">
          <ellipse id="Ellipse_1263" data-name="Ellipse 1263" cx="6.716" cy="8.985" rx="6.716" ry="8.985" transform="translate(0)" fill="#2d3038"/>
          <ellipse id="Ellipse_1264" data-name="Ellipse 1264" cx="6.716" cy="8.985" rx="6.716" ry="8.985" transform="translate(3.774)" fill="#202229"/>
          <path id="Path_9902" data-name="Path 9902" d="M321.8,427.266c0,1.994,1.208,3.61,2.7,3.61s2.7-1.616,2.7-3.61-1.208-3.611-2.7-3.611S321.8,425.272,321.8,427.266Z" transform="translate(-314.009 -418.281)" fill="#2d3038"/>
        </g>
      </g>
      <g id="Group_3290" data-name="Group 3290" transform="translate(60.624 190.759)">
        <rect id="Rectangle_487" data-name="Rectangle 487" width="4.784" height="9.436" transform="translate(6.379)" fill="#1c1d24"/>
        <g id="Group_3289" data-name="Group 3289" transform="translate(0 5.794)">
          <ellipse id="Ellipse_1265" data-name="Ellipse 1265" cx="6.716" cy="8.985" rx="6.716" ry="8.985" transform="translate(0)" fill="#2d3038"/>
          <ellipse id="Ellipse_1266" data-name="Ellipse 1266" cx="6.716" cy="8.985" rx="6.716" ry="8.985" transform="translate(3.774)" fill="#202229"/>
          <path id="Path_9903" data-name="Path 9903" d="M262.08,427.266c0,1.994,1.208,3.61,2.7,3.61s2.7-1.616,2.7-3.61-1.208-3.611-2.7-3.611S262.08,425.272,262.08,427.266Z" transform="translate(-254.289 -418.281)" fill="#2d3038"/>
        </g>
      </g>
      <path id="Path_9904" data-name="Path 9904" d="M203.335,410.148l40.7-3.774.755,3.774h10.078l.335-3.774,43.346,3.774v-4.977l-40.112-6.039H243.447l-40.112,6.039Z" transform="translate(-180.39 -215.716)" fill="#202229"/>
      <g id="Group_3291" data-name="Group 3291" transform="translate(62.964 35.966)">
        <path id="Path_9905" data-name="Path 9905" d="M179.338,205.3H251.7a.755.755,0,1,0,0-1.51H179.338a.755.755,0,1,0,0,1.51Z" transform="translate(-178.583 -203.793)" fill="#202229"/>
      </g>
      <g id="Group_3292" data-name="Group 3292" transform="translate(57.604 74.979)">
        <path id="Path_9906" data-name="Path 9906" d="M186.44,256.987h72.365a.755.755,0,0,0,0-1.51H186.44a.755.755,0,1,0,0,1.51Z" transform="translate(-185.685 -255.477)" fill="#202229"/>
      </g>
    </g>
    <g id="Group_3294" data-name="Group 3294" transform="translate(117.106)">
      <path id="Path_9907" data-name="Path 9907" d="M168.256,206.9l12.08-44.21c1.253-4.584,5.356-8.041,9.544-8.041a11.231,11.231,0,0,1,5.9,1.211H193.9a14.142,14.142,0,0,0-4.017-.456c-3.86,0-7.65,3.218-8.816,7.486L168.983,207.1a.377.377,0,0,1-.728-.2Z" transform="translate(-168.242 -154.646)" fill="#fff"/>
    </g>
    <rect id="Rectangle_488" data-name="Rectangle 488" width="77.107" height="22.047" transform="translate(169.815 82.36) rotate(-166.247)" fill="#d1603b"/>
    <path id="Path_9908" data-name="Path 9908" d="M181.426,231.531l-5.242,21.415-35.361-8.654a85.062,85.062,0,0,0,31.743-14.929Z" transform="translate(-16.083 -172.963)" fill="#d14b2a"/>
    <path id="Path_10922" data-name="Path 10922" d="M-33.721,2.1a3.26,3.26,0,0,1-.913-.132V.732a3.626,3.626,0,0,0,.8.1,1.07,1.07,0,0,0,.784-.3A1.825,1.825,0,0,0-32.613-.4l1.431-6.738h1.489L-31.172-.19a3.184,3.184,0,0,1-.857,1.743A2.429,2.429,0,0,1-33.721,2.1Zm8.3-5.5q0-.962-.7-.962a.9.9,0,0,0-.657.3,2.185,2.185,0,0,0-.474.874A3.894,3.894,0,0,0-27.432-2q0,.9.732.9a.9.9,0,0,0,.659-.3,2.021,2.021,0,0,0,.457-.835A3.964,3.964,0,0,0-25.421-3.4Zm1.479,0a4.563,4.563,0,0,1-.344,1.826,2.765,2.765,0,0,1-.994,1.233A2.7,2.7,0,0,1-26.822.1a2.046,2.046,0,0,1-1.521-.574A2.072,2.072,0,0,1-28.912-2a4.656,4.656,0,0,1,.349-1.853,2.821,2.821,0,0,1,1.008-1.26,2.684,2.684,0,0,1,1.543-.447,2.007,2.007,0,0,1,1.514.576A2.188,2.188,0,0,1-23.941-3.4Zm4.809-2.163a1.352,1.352,0,0,1,1.125.527,2.306,2.306,0,0,1,.413,1.455,4.975,4.975,0,0,1-.332,1.794A3.4,3.4,0,0,1-18.839-.41,1.907,1.907,0,0,1-20.123.1a1.391,1.391,0,0,1-1.348-.8h-.039l-.283.7h-1.128l1.611-7.6h1.47l-.3,1.406a11.964,11.964,0,0,1-.41,1.46h.039a2.577,2.577,0,0,1,.7-.654A1.384,1.384,0,0,1-19.132-5.562Zm-.591,1.191a.88.88,0,0,0-.635.317,2.4,2.4,0,0,0-.5.881,3.714,3.714,0,0,0-.2,1.223,1,1,0,0,0,.181.625.594.594,0,0,0,.5.234.844.844,0,0,0,.625-.337,2.508,2.508,0,0,0,.481-.925,3.888,3.888,0,0,0,.183-1.16Q-19.083-4.37-19.723-4.37ZM-6.76-4.58a6.047,6.047,0,0,1-.483,2.473A3.714,3.714,0,0,1-8.566-.459,3.419,3.419,0,0,1-10.5.1a2.6,2.6,0,0,1-1.951-.72,2.746,2.746,0,0,1-.7-2A5.789,5.789,0,0,1-12.668-5,3.857,3.857,0,0,1-11.335-6.67a3.393,3.393,0,0,1,1.963-.581,2.566,2.566,0,0,1,1.929.7A2.7,2.7,0,0,1-6.76-4.58ZM-9.494-5.991a1.581,1.581,0,0,0-1.084.447,2.978,2.978,0,0,0-.774,1.228,4.974,4.974,0,0,0-.281,1.694,1.589,1.589,0,0,0,.325,1.084,1.159,1.159,0,0,0,.916.366A1.6,1.6,0,0,0-9.316-1.6a2.783,2.783,0,0,0,.759-1.2,5.224,5.224,0,0,0,.273-1.743A1.622,1.622,0,0,0-8.6-5.613,1.1,1.1,0,0,0-9.494-5.991Zm7.412.43a1.354,1.354,0,0,1,1.125.525A2.321,2.321,0,0,1-.544-3.569,4.917,4.917,0,0,1-.879-1.775,3.4,3.4,0,0,1-1.794-.408,1.907,1.907,0,0,1-3.074.1a1.3,1.3,0,0,1-.7-.181A1.683,1.683,0,0,1-4.314-.7h-.039a9.812,9.812,0,0,1-.21,1.44L-4.914,2.4h-1.47l1.67-7.861h1.123l-.083.83h.044A1.911,1.911,0,0,1-2.082-5.562ZM-2.673-4.37a.89.89,0,0,0-.642.33,2.4,2.4,0,0,0-.5.879A3.728,3.728,0,0,0-4-1.948a1,1,0,0,0,.181.625.594.594,0,0,0,.5.234A.844.844,0,0,0-2.7-1.426a2.508,2.508,0,0,0,.481-.925,3.888,3.888,0,0,0,.183-1.16Q-2.034-4.37-2.673-4.37ZM3.7-4.5a1.127,1.127,0,0,0-.811.391,1.884,1.884,0,0,0-.5.952h.22A2.432,2.432,0,0,0,3.789-3.4a.717.717,0,0,0,.422-.642Q4.211-4.5,3.7-4.5ZM2.9.1A2.186,2.186,0,0,1,1.306-.454,2.075,2.075,0,0,1,.74-2.012a4.176,4.176,0,0,1,.4-1.843,3.01,3.01,0,0,1,1.091-1.27,2.845,2.845,0,0,1,1.558-.437,2.063,2.063,0,0,1,1.348.4,1.337,1.337,0,0,1,.483,1.091,1.562,1.562,0,0,1-.815,1.409,4.514,4.514,0,0,1-2.329.5H2.229l-.01.1v.1a.957.957,0,0,0,.251.7.964.964,0,0,0,.72.256A2.983,2.983,0,0,0,3.962-1.1a5.11,5.11,0,0,0,.84-.327V-.322A4.2,4.2,0,0,1,2.9.1ZM11.042,0H9.572l.669-3.188a2.582,2.582,0,0,0,.078-.581q0-.6-.527-.6a1.013,1.013,0,0,0-.815.557A4.566,4.566,0,0,0,8.4-2.261L7.922,0H6.452L7.609-5.459H8.732l-.1,1.011h.029a2.05,2.05,0,0,1,1.733-1.113,1.333,1.333,0,0,1,1.042.408A1.678,1.678,0,0,1,11.8-3.989a4.312,4.312,0,0,1-.112.879Zm3.242-6.738a.838.838,0,0,1,.232-.642.924.924,0,0,1,.657-.217.84.84,0,0,1,.542.151.529.529,0,0,1,.186.435.916.916,0,0,1-.215.632.844.844,0,0,1-.664.242Q14.284-6.138,14.284-6.738ZM14.362,0h-1.47l1.157-5.459h1.47Zm6.489,0h-1.47l.669-3.188a2.582,2.582,0,0,0,.078-.581q0-.6-.527-.6a1.013,1.013,0,0,0-.815.557,4.566,4.566,0,0,0-.576,1.553L17.731,0h-1.47l1.157-5.459h1.123l-.1,1.011h.029A2.05,2.05,0,0,1,20.2-5.562a1.333,1.333,0,0,1,1.042.408,1.678,1.678,0,0,1,.369,1.165,4.312,4.312,0,0,1-.112.879Zm7.461-5.449-.171.811-.85.2a1.958,1.958,0,0,1,.078.576,1.966,1.966,0,0,1-.591,1.506,2.254,2.254,0,0,1-1.606.554,2.029,2.029,0,0,1-.483-.049q-.41.132-.41.381a.249.249,0,0,0,.146.239,1.449,1.449,0,0,0,.435.112l.669.088a2.228,2.228,0,0,1,1.16.413,1.112,1.112,0,0,1,.364.9,1.822,1.822,0,0,1-.762,1.577,3.7,3.7,0,0,1-2.178.547,2.9,2.9,0,0,1-1.584-.369,1.148,1.148,0,0,1-.569-1.013,1.213,1.213,0,0,1,.334-.857A2.464,2.464,0,0,1,23.341-.43a.727.727,0,0,1-.361-.649.885.885,0,0,1,.217-.6,2.112,2.112,0,0,1,.715-.481,1.54,1.54,0,0,1-.469-.547,1.679,1.679,0,0,1-.151-.747A2,2,0,0,1,23.9-4.993a2.355,2.355,0,0,1,1.667-.569,3.023,3.023,0,0,1,.811.112ZM24.3.029a1.6,1.6,0,0,0-.784.278.65.65,0,0,0-.266.532q0,.562.947.562a2.249,2.249,0,0,0,1.113-.22.685.685,0,0,0,.376-.62A.329.329,0,0,0,25.53.269,1.893,1.893,0,0,0,24.859.1Zm1.216-4.658a.694.694,0,0,0-.608.374,1.743,1.743,0,0,0-.232.935q0,.581.5.581a.677.677,0,0,0,.593-.374A1.793,1.793,0,0,0,26-4.058Q26-4.629,25.518-4.629ZM32.378-1.8A1.705,1.705,0,0,1,31.77-.393,2.625,2.625,0,0,1,30.078.1a4.968,4.968,0,0,1-.911-.073,2.7,2.7,0,0,1-.725-.244V-1.431A3.1,3.1,0,0,0,30-.991a1.172,1.172,0,0,0,.64-.159.489.489,0,0,0,.249-.432.5.5,0,0,0-.181-.376,3.579,3.579,0,0,0-.64-.42,2.515,2.515,0,0,1-.825-.662,1.309,1.309,0,0,1-.234-.779,1.593,1.593,0,0,1,.54-1.287,2.32,2.32,0,0,1,1.541-.457,3.438,3.438,0,0,1,1.772.464l-.483,1.05a2.487,2.487,0,0,0-1.26-.41.745.745,0,0,0-.449.125A.393.393,0,0,0,30.5-4a.442.442,0,0,0,.156.334,2.87,2.87,0,0,0,.586.364,2.458,2.458,0,0,1,.869.669A1.355,1.355,0,0,1,32.378-1.8Z" transform="translate(134.19 66.554) rotate(14)" fill="#fff"/>
  </g>
</svg>
