<svg id="manager-approvels-icon" xmlns="http://www.w3.org/2000/svg" width="41.473" height="41.473" viewBox="0 0 41.473 41.473">
  <path id="Path_11095" data-name="Path 11095" d="M304.7,362.29v5.351H296v-3.124a1.756,1.756,0,0,0,.535-.863l.716-2.616a8.957,8.957,0,0,1,1.712.395l1.13.374a9.289,9.289,0,0,0,2.963.482,8.636,8.636,0,0,0,1.612-.147Zm0,0" transform="translate(-271.25 -330.851)" fill="#ccd1d9"/>
  <path id="Path_11096" data-name="Path 11096" d="M324.3,288.395a1.339,1.339,0,0,1-.95,2.281H322l.723-2.676h.629a1.336,1.336,0,0,1,.95.395Zm0,0" transform="translate(-295.076 -263.919)" fill="#ccd1d9"/>
  <path id="Path_11097" data-name="Path 11097" d="M231,288.04l-.709,2.635h-2.12a2.693,2.693,0,0,0-1.893.783l-.114-.114,2.562-2.562a2.678,2.678,0,0,1,1.893-.783h.227Zm0,0" transform="translate(-207.25 -263.918)" fill="#e6e9ed"/>
  <path id="Path_11098" data-name="Path 11098" d="M195.231,248.1l-.89,3.284-.154-.04h-.227a2.678,2.678,0,0,0-1.893.783l-2.562,2.562-.916.923a1.418,1.418,0,0,1-1,.415,1.443,1.443,0,0,1-1.01-.415,1.413,1.413,0,0,1,.007-2.007l4.816-4.823a2.678,2.678,0,0,1,1.893-.783h1.565Zm0,0" transform="translate(-170.595 -227.263)" fill="#f0d0b4"/>
  <path id="Path_11099" data-name="Path 11099" d="M127.385,27.4V12.014H112V8h24.081V30.074l-.047.067-2.442-1.626a2.654,2.654,0,0,0-1.485-.448h-.923l1.291-4.769.716-2.662,1-3.713a1.82,1.82,0,0,0,.06-.462,1.77,1.77,0,0,0-1.766-1.773h-.221A1.766,1.766,0,0,0,130.562,16l-.93,3.452-.722,2.655-1.438,5.318Zm0,0" transform="translate(-102.635 -7.331)" fill="#ccd1d9"/>
  <path id="Path_11100" data-name="Path 11100" d="M32.081,71.385l.087.027-.2.742-.375-.1H30.027a2.678,2.678,0,0,0-1.893.783l-4.816,4.823a1.413,1.413,0,0,0-.007,2.007,1.443,1.443,0,0,0,1.01.415,1.418,1.418,0,0,0,1-.415l.916-.923.114.114a2.693,2.693,0,0,0-.783,1.893.671.671,0,0,0,.669.669h3.224L28.984,83.2a1.831,1.831,0,0,0-.067.462,1.776,1.776,0,0,0,1.773,1.773h.221a1.759,1.759,0,0,0,1.171-.448v7.137H8V56H32.081Zm0,0" transform="translate(-7.331 -51.317)" fill="#e6e9ed"/>
  <path id="Path_11101" data-name="Path 11101" d="M40,88H56.054v5.351H40Zm0,0" transform="translate(-36.655 -80.642)" fill="#b4dd7f"/>
  <path id="Path_11102" data-name="Path 11102" d="M44.682,352h2.007v6.689H40V352Zm0,0" transform="translate(-36.655 -322.567)" fill="#ff826e"/>
  <path id="Path_11103" data-name="Path 11103" d="M44.682,216h2.007v6.689H40V216Zm0,0" transform="translate(-36.655 -197.939)" fill="#ff826e"/>
  <path id="Path_11104" data-name="Path 11104" d="M327.5,89.772a1.819,1.819,0,0,1-.06.462l-1,3.713-3.559-1.184.93-3.452A1.766,1.766,0,0,1,325.514,88h.221a1.77,1.77,0,0,1,1.766,1.773Zm0,0" transform="translate(-295.881 -80.641)" fill="#ffeaa7"/>
  <path id="Path_11105" data-name="Path 11105" d="M318.519,146.145l-.716,2.662-3.565-1.191.722-2.655Zm0,0" transform="translate(-287.963 -132.84)" fill="#e6e9ed"/>
  <path id="Path_11106" data-name="Path 11106" d="M261.324,363.566a1.759,1.759,0,0,1-1.171.448h-.221a1.776,1.776,0,0,1-1.773-1.773,1.832,1.832,0,0,1,.067-.462l.481-1.779h2.616a8.694,8.694,0,0,1,1.251.087l-.716,2.616a1.756,1.756,0,0,1-.535.863Zm0,0" transform="translate(-236.574 -329.899)" fill="#fcd770"/>
  <path id="Path_11107" data-name="Path 11107" d="M281.031,182.679l-1.626,6.02h-3.886l.709-2.635.89-3.284.2-.742,1.438-5.318,3.565,1.191Zm0,0" transform="translate(-252.482 -161.942)" fill="#fcd770"/>
  <path id="Path_11108" data-name="Path 11108" d="M225.92,257.452a8.689,8.689,0,0,0-1.251-.087h-5.84a.671.671,0,0,1-.669-.669,2.672,2.672,0,0,1,2.676-2.676h7.358a1.338,1.338,0,1,0,0-2.676h-.629l.9-3.345h.923a2.654,2.654,0,0,1,1.485.448l2.442,1.626,2.234,1.492a2.655,2.655,0,0,0,1.485.448h4.354v5.351h-2.007a9.3,9.3,0,0,0-2.274.281l-3.11.776c-.221.054-.442.1-.662.134a8.636,8.636,0,0,1-1.612.147,9.29,9.29,0,0,1-2.963-.482l-1.13-.374A8.958,8.958,0,0,0,225.92,257.452Zm0,0" transform="translate(-199.919 -227.263)" fill="#f0d0b4"/>
  <path id="Path_11109" data-name="Path 11109" d="M29.475,21.405a2,2,0,0,1,1.113.337l4.672,3.115a3.341,3.341,0,0,0,1.856.562h4.358V24.081H37.116A2,2,0,0,1,36,23.744l-1.887-1.258V0H8.7V4.013H0V41.473H25.419V37.459h8.7V31.832c.042-.01.086-.013.128-.024l3.111-.778a8.748,8.748,0,0,1,2.113-.26h2.007V29.432H39.466a10.061,10.061,0,0,0-2.436.3l-3.112.778a8.744,8.744,0,0,1-4.865-.187l-1.127-.376a10.023,10.023,0,0,0-3.176-.515H18.913a2.009,2.009,0,0,1,2.007-2.007h7.358a2,2,0,0,0,.235-3.99l.549-2.03ZM28.63,31.592a10.013,10.013,0,0,0,3.177.516c.325,0,.648-.028.971-.059v4.073H25.419V33.933a2.413,2.413,0,0,0,.514-.954l.548-2.029a8.634,8.634,0,0,1,1.022.266Zm-3.489-.807-.5,1.845a1.1,1.1,0,0,1-1.065.816h-.217a1.1,1.1,0,0,1-1.064-1.39l.347-1.286H24.75C24.88,30.77,25.01,30.78,25.141,30.785Zm-3.883-.015L21,31.706a2.425,2.425,0,0,0,1.149,2.745l-.21.839,1.3.325.208-.831h.128a2.43,2.43,0,0,0,.5-.059v5.41H1.338V5.351h8.7V1.338H32.777V21.594l-1.447-.965a3.339,3.339,0,0,0-1.856-.562h-.052l2.784-10.3a2.442,2.442,0,0,0-2.356-3.078h-.217a2.445,2.445,0,0,0-2.356,1.8l-1.859,6.881V4.013H11.372V5.351H24.081V20.067H22.7a3.308,3.308,0,0,0-1.987.669H14.047v1.338H19.3l-1.338,1.338h-3.92V24.75H16.63l-1.118,1.118a2.076,2.076,0,0,0,2.074,3.468c0,.033-.01.064-.01.1a1.339,1.339,0,0,0,1.338,1.338Zm5.153-4.682h-2.5l2.825-10.451,2.295.765Zm-5.132-4.1a1.994,1.994,0,0,1,1.419-.587h1.091l-.546,2.019A3.313,3.313,0,0,0,21,24.391l-3.483,3.483a.75.75,0,0,1-1.281-.53.745.745,0,0,1,.22-.53Zm.669,3.345a1.986,1.986,0,0,1,.918-.517l-.343,1.268H21.2ZM30.915,9.418,30.1,12.448,27.8,11.684l.768-2.841a1.106,1.106,0,0,1,1.065-.816h.217a1.1,1.1,0,0,1,1.064,1.391Zm-3.463,3.56,2.295.765-.369,1.365-2.295-.765Zm.825,11.772a.669.669,0,0,1,0,1.338H27.8l.362-1.338Zm0,0" transform="translate(0 0)"/>
  <path id="Path_11110" data-name="Path 11110" d="M49.392,80H32v6.689H49.392Zm-1.338,5.351H33.338V81.338H48.054Zm0,0" transform="translate(-29.324 -73.311)"/>
  <path id="Path_11111" data-name="Path 11111" d="M64,112h1.338v1.338H64Zm0,0" transform="translate(-58.649 -102.635)"/>
  <path id="Path_11112" data-name="Path 11112" d="M96,112h1.338v1.338H96Zm0,0" transform="translate(-87.973 -102.635)"/>
  <path id="Path_11113" data-name="Path 11113" d="M128,112h1.338v1.338H128Zm0,0" transform="translate(-117.297 -102.635)"/>
  <path id="Path_11114" data-name="Path 11114" d="M160,112h1.338v1.338H160Zm0,0" transform="translate(-146.622 -102.635)"/>
  <path id="Path_11115" data-name="Path 11115" d="M192,112h1.338v1.338H192Zm0,0" transform="translate(-175.946 -102.635)"/>
  <path id="Path_11116" data-name="Path 11116" d="M40.027,212.014H38.689v2.676H33.338v-5.351h4.014V208H32v8.027h8.027Zm0,0" transform="translate(-29.324 -190.608)"/>
  <path id="Path_11117" data-name="Path 11117" d="M66.371,178.344l-6.216,6.216-.865-.865-.946.946,1.811,1.811,7.162-7.162Zm0,0" transform="translate(-53.465 -163.431)"/>
  <path id="Path_11118" data-name="Path 11118" d="M38.689,350.689H33.338v-5.351h4.014V344H32v8.027h8.027v-4.013H38.689Zm0,0" transform="translate(-29.324 -315.236)"/>
  <path id="Path_11119" data-name="Path 11119" d="M59.29,319.7l-.946.946,1.811,1.811,7.162-7.162-.946-.946-6.216,6.216Zm0,0" transform="translate(-53.465 -288.06)"/>
  <path id="Path_11120" data-name="Path 11120" d="M256,440h1.338v1.338H256Zm0,0" transform="translate(-234.595 -403.209)"/>
  <path id="Path_11121" data-name="Path 11121" d="M152,440h7.358v1.338H152Zm0,0" transform="translate(-139.291 -403.209)"/>
  <path id="Path_11122" data-name="Path 11122" d="M168,216h8.7v1.338H168Zm0,0" transform="translate(-153.953 -197.939)"/>
</svg>
