<svg id="tds-declaration-icon" xmlns="http://www.w3.org/2000/svg" width="40.355" height="46.108" viewBox="0 0 40.355 46.108">
  <g id="Group_5043" data-name="Group 5043" transform="translate(0.67 0.67)">
    <path id="Path_11155" data-name="Path 11155" d="M67.682,52.212H43.89a4.5,4.5,0,0,1-4.5-4.5V11.948a4.5,4.5,0,0,1,4.5-4.5H67.682a4.5,4.5,0,0,1,4.5,4.5V47.709a4.5,4.5,0,0,1-4.5,4.5Z" transform="translate(-39.387 -7.445)" fill="#ecf4ff"/>
  </g>
  <g id="Group_5044" data-name="Group 5044" transform="translate(1.023 1.023)">
    <path id="Path_11156" data-name="Path 11156" d="M73.023,11.363a4.455,4.455,0,0,1,.353,1.743V50.958A2.445,2.445,0,0,1,70.931,53.4H45.048a4.456,4.456,0,0,1-1.743-.353,4.471,4.471,0,0,0,4.117,2.727H71.28a4.47,4.47,0,0,0,4.47-4.47V15.48A4.471,4.471,0,0,0,73.023,11.363Z" transform="translate(-43.305 -11.363)" fill="#ddeafb"/>
  </g>
  <g id="Group_5045" data-name="Group 5045" transform="translate(15.625 8.952)">
    <path id="Path_11157" data-name="Path 11157" d="M0,0H10.478V21.3H0Z" transform="translate(15.057 0) rotate(45)" fill="#e28086"/>
  </g>
  <g id="Group_5046" data-name="Group 5046" transform="translate(21.096 14.435)">
    <path id="Path_11158" data-name="Path 11158" d="M0,0H21.3V2.732H0Z" transform="translate(0 15.057) rotate(-45)" fill="#dd636e"/>
  </g>
  <g id="Group_5047" data-name="Group 5047" transform="translate(28.503 7.368)">
    <path id="Path_11159" data-name="Path 11159" d="M355.854,92.99l-7.409-7.409,3.24-3.24a1.8,1.8,0,0,1,2.547,0l4.862,4.862a1.8,1.8,0,0,1,0,2.547Z" transform="translate(-348.445 -81.814)" fill="#fbac90"/>
  </g>
  <g id="Group_5048" data-name="Group 5048" transform="translate(33.98 10.834)">
    <path id="Path_11160" data-name="Path 11160" d="M414.437,122.231l-1.922-1.922a1.788,1.788,0,0,1,0,2.529l-3.25,3.25,1.932,1.932,3.24-3.24A1.8,1.8,0,0,0,414.437,122.231Z" transform="translate(-409.265 -120.309)" fill="#f48156"/>
  </g>
  <g id="Group_5049" data-name="Group 5049" transform="translate(11.978 23.856)">
    <path id="Path_11161" data-name="Path 11161" d="M176.158,272.312a2.515,2.515,0,0,0-2.254-2.141.406.406,0,0,1-.369-.367,2.53,2.53,0,0,0-2.278-2.278.406.406,0,0,1-.367-.369,2.515,2.515,0,0,0-2.141-2.254l-.247.247a2.338,2.338,0,0,0-.568.924l-2.948,8.979a.81.81,0,0,0,1.022,1.022l8.979-2.948a2.337,2.337,0,0,0,.924-.568Z" transform="translate(-164.944 -264.903)" fill="#fff0af"/>
  </g>
  <g id="Group_5050" data-name="Group 5050" transform="translate(11.978 29.208)">
    <path id="Path_11162" data-name="Path 11162" d="M175.558,325.085a2.523,2.523,0,0,0-1.2-.757l-.284.284-.089.089a2.338,2.338,0,0,1-.924.568l-7.624,2.5-.445,1.355a.81.81,0,0,0,1.022,1.022l8.979-2.948a2.337,2.337,0,0,0,.924-.568l.247-.247A2.5,2.5,0,0,0,175.558,325.085Z" transform="translate(-164.946 -324.328)" fill="#ffe07d"/>
  </g>
  <g id="Group_5051" data-name="Group 5051" transform="translate(26.787 10.383)">
    <path id="Path_11163" data-name="Path 11163" d="M0,0H10.478V3.482H0Z" transform="translate(2.462 0) rotate(45)" fill="#fff0af"/>
  </g>
  <g id="Group_5052" data-name="Group 5052" transform="translate(11.978 29.776)">
    <path id="Path_11164" data-name="Path 11164" d="M166.376,330.639l-1.389,4.23a.81.81,0,0,0,1.022,1.022l4.23-1.389Z" transform="translate(-164.945 -330.639)" fill="#057096"/>
  </g>
  <g id="Group_5053" data-name="Group 5053" transform="translate(32.26 15.868)">
    <path id="Path_11165" data-name="Path 11165" d="M0,0H3.482V2.732H0Z" transform="translate(0 2.462) rotate(-45)" fill="#ffe07d"/>
  </g>
  <g id="Group_5054" data-name="Group 5054" transform="translate(11.978 31.707)">
    <path id="Path_11166" data-name="Path 11166" d="M168.308,352.087l-2.876.944-.445,1.355a.81.81,0,0,0,1.022,1.022l4.23-1.389Z" transform="translate(-164.946 -352.087)" fill="#055e7f"/>
  </g>
  <g id="Group_5055" data-name="Group 5055">
    <path id="Path_11167" data-name="Path 11167" d="M64.891,146.293a.671.671,0,0,0-.941.121,3.777,3.777,0,0,1-3.009,1.48H37.083a3.8,3.8,0,0,1-3.8-3.8V114a.67.67,0,1,0-1.341,0v30.091a5.146,5.146,0,0,0,5.141,5.141H60.941a5.109,5.109,0,0,0,4.071-2A.671.671,0,0,0,64.891,146.293Z" transform="translate(-31.943 -103.127)"/>
    <path id="Path_11168" data-name="Path 11168" d="M176.559,75.931l-.007-.018a.822.822,0,0,0-.763-.512h0a.822.822,0,0,0-.763.513l-.006.015-2.565,6.736a.67.67,0,1,0,1.253.477l.474-1.246h3.2l.469,1.244a.67.67,0,1,0,1.255-.474Zm-1.867,4.625,1.095-2.874,1.085,2.874Z" transform="translate(-159.759 -68.611)"/>
    <path id="Path_11169" data-name="Path 11169" d="M116.077,74.189H112.3a.67.67,0,1,0,0,1.341h1.208v6.161a.67.67,0,1,0,1.341,0V75.53h1.224a.671.671,0,0,0,0-1.341Z" transform="translate(-104.457 -67.508)"/>
    <path id="Path_11170" data-name="Path 11170" d="M69.83,418.474h4.833a.67.67,0,1,0,0-1.341H69.83a.67.67,0,1,0,0,1.341Z" transform="translate(-65.808 -379.568)"/>
    <path id="Path_11171" data-name="Path 11171" d="M69.83,453.378H81.188a.67.67,0,1,0,0-1.341H69.83a.67.67,0,1,0,0,1.341Z" transform="translate(-65.808 -411.329)"/>
    <path id="Path_11172" data-name="Path 11172" d="M169.349,418.474a.67.67,0,1,0,0-1.341H159.241a.67.67,0,1,0,0,1.341Z" transform="translate(-147.167 -379.568)"/>
    <path id="Path_11173" data-name="Path 11173" d="M72.3,14.03a2.443,2.443,0,0,0-.72-1.738L66.7,7.412a2.465,2.465,0,0,0-.617-.45V5.141A5.146,5.146,0,0,0,60.94,0H37.083a5.146,5.146,0,0,0-5.141,5.141V7.582a.67.67,0,0,0,1.341,0V5.141a3.8,3.8,0,0,1,3.8-3.8H60.94a3.8,3.8,0,0,1,3.8,3.8V6.7a2.439,2.439,0,0,0-1.519.71l-.491.491V5.787A2.591,2.591,0,0,0,60.14,3.2H37.882a2.591,2.591,0,0,0-2.589,2.589v9.968a2.591,2.591,0,0,0,2.589,2.589H52.288l-5.2,5.2a3.077,3.077,0,0,0-.82,1.278L45.4,27.474H43.278V22.412h2.389a.67.67,0,0,0,0-1.341H37.882a2.591,2.591,0,0,0-2.589,2.589v8.976a2.592,2.592,0,0,0,2.589,2.589h5.727a1.477,1.477,0,0,0,1.583.441l1.347-.442h13.6a2.591,2.591,0,0,0,2.589-2.589V24.617l2.011-2.011v18a.67.67,0,1,0,1.341,0V21.389a.67.67,0,0,0-.01-.113l5.507-5.507a2.442,2.442,0,0,0,.72-1.738Zm-6.158,5.28-6.46-6.46,1.514-1.514,6.46,6.46ZM55.407,30.042a3.127,3.127,0,0,0-.375-.523A3.206,3.206,0,0,0,53.9,28.7l9.866-9.866,1.423,1.423ZM58.73,13.8l1.418,1.418L50.284,25.08a3.205,3.205,0,0,0-.814-1.124,3.133,3.133,0,0,0-.523-.375ZM52.944,27.762a3.194,3.194,0,0,0-1.725-1.72L61.1,16.165l1.723,1.723Zm-5.4-2.526a1.675,1.675,0,0,1,.39-.644,1.808,1.808,0,0,1,.643.367,1.858,1.858,0,0,1,.619,1.214,1.08,1.08,0,0,0,.971.973,1.859,1.859,0,0,1,1.674,1.674,1.08,1.08,0,0,0,.973.971,1.857,1.857,0,0,1,1.214.619,1.81,1.81,0,0,1,.367.643,1.676,1.676,0,0,1-.644.39L49.4,32.873l-3.28-3.28Zm6.625,7.481a3.009,3.009,0,0,0,.573-.259v1.425H50.62ZM53.619,17H37.882a1.249,1.249,0,0,1-1.248-1.248V5.787A1.249,1.249,0,0,1,37.882,4.54H60.14a1.249,1.249,0,0,1,1.248,1.248V9.244l-3.3,3.3-1.419-2.017,1.964-2.787a.67.67,0,1,0-1.1-.772L55.852,9.36,54.167,6.966a.67.67,0,1,0-1.1.772l1.961,2.787L52.726,13.8a.67.67,0,1,0,1.1.772l2.029-2.88L57.127,13.5l-3.5,3.5h-.01ZM44.96,28.815,43.324,33.8c-.009.028-.017.057-.025.086h-.021V28.815H44.96Zm-7.078-6.4h4.055v5.062h-5.3V23.659a1.249,1.249,0,0,1,1.248-1.248ZM36.635,32.635v-3.82h5.3v5.068H37.882A1.249,1.249,0,0,1,36.635,32.635Zm8.139,1.755a.139.139,0,0,1-.175-.175l1.049-3.194,2.321,2.321Zm15.366-.508H56.085V31.261l2.446-2.446h2.857v3.82a1.249,1.249,0,0,1-1.248,1.248Zm1.248-6.409H59.872l1.516-1.516Zm9.241-12.653L68.6,16.848l-6.46-6.46L64.168,8.36a1.117,1.117,0,0,1,1.58,0l4.88,4.88A1.119,1.119,0,0,1,70.629,14.821Z" transform="translate(-31.942 0)"/>
  </g>
</svg>
