<svg id="user-female" xmlns="http://www.w3.org/2000/svg" width="150" height="150" viewBox="0 0 150 150">
  <path id="img-bg" d="M40,0h70a40,40,0,0,1,40,40v70a40,40,0,0,1-40,40H0a0,0,0,0,1,0,0V40A40,40,0,0,1,40,0Z" fill="#fcfcfc"/>
  <g id="_16" data-name="16" transform="translate(-18.185 -18.437)">
    <g id="_5" data-name="5" transform="translate(30.43 33.491)">
      <path id="Path_9627" data-name="Path 9627" d="M50.425,115.888q4.713,8.057,9.422,16.116c.168.289.566.894,1.085,1.676H77.976a169.122,169.122,0,0,1,14.759-17.348c10-10.209,22.126-16.644,34.326-24.045-4.6,2.79-11.525.542-16.414.484-6.353-.077-10.214-3.814-12.757-9.221-.62-1.318-5.122-16.156-4.495-16.227a94.578,94.578,0,0,1-16.19.222c-3.217-.207-6.441-.742-9.659-.84-1.5-.044-4.106-.356-5.423.551-2.639,1.822-1.282,1.192-.991,3.869.427,3.925,1.747,6.78.453,10.853a16.229,16.229,0,0,1-9.024,9.891c-1.988.84-4.124,1.274-6.152,2.009-4.347,1.579-7.532,5.073-4.814,9.292C44.292,107.361,47.779,111.36,50.425,115.888Z" transform="translate(-21.15 0.266)" fill="#deb09d"/>
      <path id="Path_9628" data-name="Path 9628" d="M47.309,50.116C44.777,55.638,44.249,62.1,44.932,68.4c-4.217.4-3.192,6.07-1.2,10.863a22.863,22.863,0,0,0,3.63,6.267,5.847,5.847,0,0,0,3.117,1.812c3.921,8.58,9.418,16.489,17.964,20.249a14.948,14.948,0,0,0,5.015,1.253V35.135C62.638,34.808,52.245,39.35,47.309,50.116Z" transform="translate(-19.857 -28.509)" fill="#e2bba1"/>
      <path id="Path_9629" data-name="Path 9629" d="M88.672,66.459c-.417-10.993-4.809-21.736-14.493-27.248a27.3,27.3,0,0,0-5.387-2.331,38.672,38.672,0,0,0-10.348-1.753v73.71c11.039.773,21.25-11.24,26.334-22.338a16.248,16.248,0,0,0,8.381-13.1C93.316,70.822,91.485,66.7,88.672,66.459Z" transform="translate(-4.839 -28.501)" fill="#f9cfb3"/>
      <path id="Path_9630" data-name="Path 9630" d="M84.91,121.019c5.348-17.325,9.711-33.6,9.881-40.543-27.842,18.192-41.328,1.732-41.328,1.732L44.5,121.019Z" transform="translate(-17.573 12.926)" fill="#fff"/>
      <path id="Path_9631" data-name="Path 9631" d="M114.843,126.626c.2-1.537.377-3.077.6-4.61,1.215-8.251,2.78-16.45,4.8-24.533.991-3.938,2.231-6.081-1.449-8.888-2.361-1.806-5.52-2.56-8.234-3.3A212,212,0,0,1,80.85,74.339S70.306,99.155,60.8,126.626Z" transform="translate(-2.689 7.32)" fill="#186ea8"/>
      <path id="Path_9632" data-name="Path 9632" d="M38.834,124.07H62.361c-1.628-27.312,2.4-46.933,2.4-46.933L41.479,86.351a12.993,12.993,0,0,0-7.9,14.983Z" transform="translate(-27.853 9.876)" fill="#186ea8"/>
      <path id="Path_9633" data-name="Path 9633" d="M46.081,125.321H59.13c-.067-1.8-.138-3.607-.191-5.411q-.3-10.178-.293-20.364.006-6.171.136-12.342.066-3.086.163-6.169c.031-.968.846-5.077,1.2-5.268-1.142.576-8.5,5.691-9.39,6.529l-9.5,8.98,9.707,10.069L41.261,109.9c-.522.461,2.141,7.356,2.333,7.972C44.034,119.28,44.916,121.923,46.081,125.321Z" transform="translate(-20.597 8.624)" fill="#1c75bc"/>
      <path id="Path_9634" data-name="Path 9634" d="M81.409,126.839c5.7-7.214,11.364-13.959,16.9-20.186l-8.651-5.658,8.651-10.8L91.441,78.53,81.009,74.106c-8.821,20.649-15.417,38.232-20.337,52.733Z" transform="translate(-2.804 7.107)" fill="#1c75bc"/>
      <path id="Path_9635" data-name="Path 9635" d="M84.492,52.944c-5,0-9.181,2.113-10.545,5.788l-.015-.073H69.344l-.017.067c-1.368-3.672-5.543-5.783-10.543-5.783-4.418,0-8.222,1.634-9.994,4.548l0-.006-3.827-.434L44,58.979l3.907.729a7.776,7.776,0,0,0-.184,1.661c0,5.318,4.952,9.028,11.06,9.028,6.012,0,10.88-3.6,11.031-8.787l3.624-.188C73.472,66.712,78.4,70.4,84.492,70.4c6.11,0,11.06-3.71,11.06-9.028S90.6,52.944,84.492,52.944ZM58.784,68c-4.967,0-9-2.3-9-6.628s4.028-6.028,9-6.028,9,1.7,9,6.028S63.751,68,58.784,68Zm25.708,0c-4.967,0-9-2.3-9-6.628s4.028-6.028,9-6.028,9,1.7,9,6.028S89.459,68,84.492,68Z" transform="translate(-18.034 -12.225)" fill="#2c2c2c"/>
      <path id="Path_9636" data-name="Path 9636" d="M48.521,71.677c.314-7.005,1.929-14.2,6.567-18.808C56.706,52.28,63.78,57,65.246,57.714c7.059,3.456,15.117,5.8,20.984,11.263,6.9,6.424,9.889,15.555,10.758,24.763.679,7.183.132,14.424-.459,21.617a72.656,72.656,0,0,0-.367,7.977c-.05-1.743,3.676-6.259,4.432-8.157a39.717,39.717,0,0,0,2.61-10.651c.76-7.484-1.029-15.006-.17-22.555.356-3.123,1.095-6.188,1.546-9.3,1.318-9.108.679-22.262-4.922-29.925C94.285,35.4,84.151,31.5,75.276,31.67c-15.968.308-25.637,13.364-30.551,27.248-6.3,17.8-2.836,40.486,4.03,57.6-.9-11.535,1.177-23.062.092-34.485A75.362,75.362,0,0,1,48.521,71.677Z" transform="translate(-20.389 -31.664)" fill="#824327"/>
      <path id="Path_9637" data-name="Path 9637" d="M50.966,120.314c-.094-2.241-.174-4.466-.306-6.759-.67-11.512-1.793-22.308-3.194-32.308-4.56,1.661-8.808,2.7-11.774,6.54-.216.277-.425.572-.624.88-2.44,3.754-2.415,8.442-2.826,12.738q-.881,9.182-1.76,18.368l-.052.54Z" transform="translate(-30.43 13.631)" fill="#1c75bc"/>
      <path id="Path_9638" data-name="Path 9638" d="M107.616,121.3c-.465-5.855-1.135-11.871-2.1-18.064q-.913-5.85-2.055-11.355a12.032,12.032,0,0,0-6.515-8.358,21.614,21.614,0,0,0-6.854-3.352c-.947,3.928-1.418,8.668-2.269,12.248a158.353,158.353,0,0,0-4.1,28.881Z" transform="translate(18.247 12.646)" fill="#1c75bc"/>
    </g>
    <path id="Path_9639" data-name="Path 9639" d="M91.909,61.751A68.928,68.928,0,0,1,94.521,86.17c-.873,14.24-.647,24.261-6.667,42.254-.084.251-2.35,5.991-3.586,9.4,2.333,2.377,5.991,3.93,8.716,5.32,1.5.767,3.044,1.494,4.573,2.245A106.574,106.574,0,0,1,102.9,131.4c13.117-26.414,15.13-80.93-15.9-98.682a24.925,24.925,0,0,0-19.48-1.933c-2.3.674-3.433,1.272-4.351,3.628-.375.963-1.154,8.056,1.035,7.926,5.27-.312,10.67-.122,15.695,1.648C86.754,46.409,89.98,55.468,91.909,61.751Z" transform="translate(29.495)" fill="#824327"/>
  </g>
</svg>
