<svg id="user-male" xmlns="http://www.w3.org/2000/svg" width="150" height="150" viewBox="0 0 150 150">
  <path id="img-bg" d="M40,0h70a40,40,0,0,1,40,40v70a40,40,0,0,1-40,40H0a0,0,0,0,1,0,0V40A40,40,0,0,1,40,0Z" fill="#fcfcfc"/>
  <g id="_1" data-name="1" transform="translate(-129.974 -122.344)">
    <g id="Group_3076" data-name="Group 3076" transform="translate(137.624 128.927)">
      <g id="Group_3075" data-name="Group 3075">
        <g id="Group_3072" data-name="Group 3072" transform="translate(38.237)">
          <path id="Path_9640" data-name="Path 9640" d="M202.612,166.173c.263,1.7-.176,3.521-.075,5.287.152,2.738,1.228,4.646,2.245,7.121a22.447,22.447,0,0,0,1.288,3.082c1.46,2.433,4.4,3.467,7.105,4.322-2.48,8.82-15.039,14.627-23,17.416a7.592,7.592,0,0,1-3.386.6,8.144,8.144,0,0,1-3.181-1.389q-10.554-6.548-21.105-13.1c3.028-3.715,3.982-8.084,3.922-12.764-.012-.983-.146-10.751-.372-10.751h.156C178.2,166.024,190.689,165.19,202.612,166.173Z" transform="translate(-151.532 -92.969)" fill="#e2a77d"/>
          <path id="Path_9641" data-name="Path 9641" d="M172.579,144.6c2.72-6.963,5.1-2.205,6.5-3.343a29.6,29.6,0,0,1,8.482-4.826,11.539,11.539,0,0,1,7.016-.716c3.38.959,5.612,4.358,6.239,7.817,1.278,7.046-2.263,14.333-1.129,21.388.158.987.429,3.224,2,2.146.651-.445.235-1.658.932-2.19,1.543-1.185,2.3.7,2.417,1.843a23.927,23.927,0,0,1-1.721,12.329c-1.013,2.2-2.548,2.886-4.035,4.512-1.648,1.8-1.189,5.151-1.727,7.325a12.036,12.036,0,0,1-1.808,4.041c-1.8,2.573-5.084,3.9-7.17,6.256-1.954,2.211-3.756,4.409-6.524,5.912-1.665.906-4.049,1.04-6.249,1.05-.285.03-.574.053-.864.077L171.7,144.4C171.994,144.469,172.472,144.873,172.579,144.6Z" transform="translate(-142.531 -122.57)" fill="#ffc28e"/>
          <path id="Path_9642" data-name="Path 9642" d="M156.955,168.833c0-1.147.562-3.1,2.215-2.079.748.461.457,1.707,1.151,2.085,1.673.914,1.717-1.339,1.774-2.338.22-3.8-1.786-7.329-1.489-11.065.273-3.424-.075-6.947,1-10.305a12.8,12.8,0,0,1,5.408-7.153,10.641,10.641,0,0,1,8.177-1.1,11.677,11.677,0,0,1,5.675,3.918c1.758,1.966,2.589,1.946,5.256,2.55l3.236,63.819a12.349,12.349,0,0,1-5.457-.491c-2.9-1.215-4.917-3.218-7.087-5.222-2.314-2.136-5.718-3.121-7.768-5.5a12.054,12.054,0,0,1-2.205-3.837c-.756-2.109-.639-5.487-2.461-7.113-1.646-1.468-3.24-2-4.472-4.081A23.932,23.932,0,0,1,156.955,168.833Z" transform="translate(-156.955 -121.512)" fill="#f0b784"/>
          <path id="Path_9643" data-name="Path 9643" d="M217.549,168.233a29.09,29.09,0,0,0-.775,6.937l-2.916.148a13.719,13.719,0,0,1-.057-1.442,36,36,0,0,0-.281-4.356c-1.056-9.851,3.076-20.587-11.207-20.838-5.032-.089-9.947,2.593-14.97,2.929-5.936.4-11.981-2.109-17.13-5.089a3.525,3.525,0,0,0-1.966-.684,2.965,2.965,0,0,0-1.618.843c-4.993,4.328-3.26,8.426-3.626,14.151a80.585,80.585,0,0,0-.334,11.947c.133,1.685.568,3.311.617,5.01-4.486,1.681-3.523-3.3-4.389-5.891-2.8-8.369-1.021-18.421-1.812-27.237a11.62,11.62,0,0,1-.024-2.835,8.433,8.433,0,0,1,2.142-4.12c5.127-5.861,13.712-6.882,21.471-7.507,5.62-.453,11.983-1.847,17.579-1.011,4.832.72,9.417,1.727,14.386,2.1a4.127,4.127,0,0,1,2.686.86,4.026,4.026,0,0,1,.9,2.059C218.617,145,219.873,157.346,217.549,168.233Z" transform="translate(-156.928 -128.927)" fill="#d4a700"/>
        </g>
        <g id="Group_3073" data-name="Group 3073" transform="translate(1.729 83.774)">
          <path id="Path_9644" data-name="Path 9644" d="M161.313,227.908h35.725c.313-4.745.645-9.493,1.193-14.2.425-3.647,1.43-5.788,1.345-8.4a10.452,10.452,0,0,0-.536-2.937c-.01-.028-.032-.069-.042-.1a111.785,111.785,0,0,0,5.744-14.742,62.333,62.333,0,0,1,6.347-10.84c.584-.7,1.046-1.064,1.284-.894q-1.362-.967-2.726-1.938a2.329,2.329,0,0,0-1.054-.508,2.4,2.4,0,0,0-1.586.663c-6.045,4.49-12.974,8.1-20.457,8.943s-15.571-1.44-20.52-7.115c-7.125,5.176-.093,21.1,1.5,28.056-2.364,4.506-3.458,9.489-4.654,15.241C162.274,222.047,161.774,224.977,161.313,227.908Z" transform="translate(-116.184 -169.266)" fill="#e4f4ff"/>
          <path id="Path_9645" data-name="Path 9645" d="M198.931,226.182l-5.61-24L186.989,175.1s-.222.1-.651.259c-1.209.481-5.026,4.84-9.093,6.615-.012-.431-.038-.849-.061-1.27-.455.113-.9.235-1.379.334-15.288,3.141-24.761,4.545-25.352,5-.912.69-1.5,2.747-1.982,3.732-1.43,2.908-2.773,5.851-4.178,8.759-2.34,4.842-2.672,9.843-3.278,14.991-.073.678-.146,1.343-.245,2.02a43.1,43.1,0,0,1-1.588,5.533,26.259,26.259,0,0,0-.684,5.107Z" transform="translate(-138.498 -167.54)" fill="#706451"/>
          <path id="Path_9646" data-name="Path 9646" d="M160.264,203.863a148.178,148.178,0,0,1,15,26.058h10.472l-3.212-14.21-7.244-32.038,1.671-12.394c-1.491.591-24.593,13.838-25.22,15.694l18.309,11.789Q165.152,201.313,160.264,203.863Z" transform="translate(-125.554 -171.279)" fill="#877960"/>
        </g>
        <g id="Group_3074" data-name="Group 3074" transform="translate(0 81.501)">
          <path id="Path_9647" data-name="Path 9647" d="M242.611,226.913c-.766-5.624-1.393-11.267-1.822-16.926-.477-6.306-.817-12.893-3.956-18.384-4.85-8.488-24.494-7.117-33.575-9.562-4.484-1.209-8.171-7.17-9.514-7.528-.368-.1-.566-.158-.566-.158l-7.416,20.706c-3.772,10.5-8.395,21.121-12.078,31.852Z" transform="translate(-102.356 -165.998)" fill="#877960"/>
          <path id="Path_9648" data-name="Path 9648" d="M153.585,206.567l.3-11.407-1.417,11.407Z" transform="translate(-123.11 -145.651)" fill="#5e5346"/>
          <path id="Path_9649" data-name="Path 9649" d="M150.467,220.6c.049-1.681.1-3.367.227-5.036.564-7.627,1.7-15.193,2.457-22.8.247-2.488,3.246-13.947-3.056-11.654-3.469,1.264-4.664,5.624-5.558,8.8-1.3,4.607-2.5,9.182-3.521,13.876-1.216,5.588-2.318,11.2-3.392,16.817Z" transform="translate(-137.624 -159.686)" fill="#706451"/>
          <path id="Path_9650" data-name="Path 9650" d="M173.521,231.045h13.741c6.169-9.4,12.663-16.485,19.068-24.292l-11.878-10.766,21.013-8.09s-21.782-17.413-23.127-17.767l.273,10.389-12.863,34.53Z" transform="translate(-102.516 -170.13)" fill="#706451"/>
        </g>
      </g>
    </g>
    <path id="Path_9651" data-name="Path 9651" d="M217.858,150.845l-.827-2.047s-9.166.083-13.6.226c-4.346.138-9.524,1.485-11.651,4.17l-.063-.111a6.55,6.55,0,0,1-6.355.2l-.055.117c-2.295-2.544-7.548-3.557-11.894-3.418-4.437.142-15.274,1.693-15.274,1.693l-.625,2.815,4.512,2.271a5.888,5.888,0,0,0,.014,1.149c.639,5.7,6.5,8.507,11.965,8.333.148,0,.3-.012.445-.022a14.107,14.107,0,0,0,2.981-.506,13.013,13.013,0,0,0,8.735-8.027,4.31,4.31,0,0,0,.283-1.612,7.807,7.807,0,0,0,4.365-.14,4.255,4.255,0,0,0,.384,1.592,13.014,13.014,0,0,0,9.229,7.451,14.093,14.093,0,0,0,3.007.316c.148,0,.3,0,.449-.008,5.461-.174,11.134-3.349,11.407-9.081a5.937,5.937,0,0,0-.063-1.147Zm-33.969,6.08a10.672,10.672,0,0,1-7.145,6.589,11.718,11.718,0,0,1-2.449.415l-.37.018c-4.352.138-9.008-1.976-9.491-6.288a3.3,3.3,0,0,1,.872-2.73c1.406-1.539,4.462-2.532,8.175-2.651,4.526-.144,8.79,1.031,10.141,2.791A1.791,1.791,0,0,1,183.89,156.926Zm19.915,6.067-.37.006a11.5,11.5,0,0,1-2.469-.259,10.652,10.652,0,0,1-7.55-6.118,1.784,1.784,0,0,1,.144-1.867c1.236-1.844,5.418-3.289,9.942-3.434,3.713-.119,6.826.676,8.329,2.124a3.3,3.3,0,0,1,1.044,2.668C212.668,160.445,208.156,162.854,203.8,162.992Z" transform="translate(19.45 19.435)" fill="#414042"/>
  </g>
</svg>
