<svg id="Announcement-right" xmlns="http://www.w3.org/2000/svg" width="31.422" height="31.422" viewBox="0 0 31.422 31.422">
  <path id="Path_9652" data-name="Path 9652" d="M14.845,10.407a1.463,1.463,0,0,1,2.062,0l7.206,7.229a1.456,1.456,0,0,1,.045,2.009l-7.1,7.123A1.455,1.455,0,1,1,15,24.714l6.035-6.126-6.186-6.126A1.441,1.441,0,0,1,14.845,10.407Z" transform="translate(-2.555 -2.884)" fill="#fff"/>
  <path id="Path_9653" data-name="Path 9653" d="M3.375,19.086A15.711,15.711,0,1,0,19.086,3.375,15.709,15.709,0,0,0,3.375,19.086Zm2.417,0a13.289,13.289,0,0,1,22.69-9.4A13.289,13.289,0,1,1,9.69,28.482,13.18,13.18,0,0,1,5.792,19.086Z" transform="translate(-3.375 -3.375)" fill="#fff"/>
</svg>
