<svg id="Announcement-mic" xmlns="http://www.w3.org/2000/svg" width="167.362" height="150.44" viewBox="0 0 167.362 150.44">
  <g id="Announcement-mic-2" data-name="Announcement-mic" transform="translate(-326.893 -822.719) rotate(16)">
    <path id="Path_9598" data-name="Path 9598" d="M807.582,1098.859c0,2.7,16.571,4.894,37.011,4.894s37.011-2.191,37.011-4.894-16.57-4.894-37.011-4.894S807.582,1096.156,807.582,1098.859Z" transform="translate(-173.44 -295.704)" fill="#231f20" opacity="0.3" style="mix-blend-mode: multiply;isolation: isolate"/>
    <g id="Group_3065" data-name="Group 3065" transform="translate(630.888 691.921)">
      <path id="Path_9599" data-name="Path 9599" d="M813.353,933.423c-10.34,0-15.357-8.362-17.49-13.158-1.164-2.62-.635-6.036,1.985-7.2s3.562,3.062,5.852,5.616a13.178,13.178,0,0,0,9.653,4.361,25.285,25.285,0,0,0,10.642-2.728,5.191,5.191,0,0,1,5.023,9.086A35.744,35.744,0,0,1,813.353,933.423Z" transform="translate(-795.278 -854.427)" fill="#fff"/>
      <g id="Group_3064" data-name="Group 3064" transform="translate(13.213)">
        <g id="Group_3061" data-name="Group 3061">
          <path id="Path_9600" data-name="Path 9600" d="M886.037,796.906l-17.365-3.339s-5.312-8.721-3.31-19.135c2.579-13.412-12-21.935-8.4-40.678,3.738-19.443,21.724-30.925,38.628-27.706h0l.028.005.03.006h0c16.892,3.28,29.336,20.614,25.6,40.057-3.6,18.742-21.194,20.515-23.773,33.927C895.471,790.458,886.037,796.906,886.037,796.906Z" transform="translate(-853.438 -701.916)" fill="#fff"/>
          <path id="Path_9601" data-name="Path 9601" d="M960.325,1012.154c6.367,0,8.618-29.726,8.618-29.726a5.946,5.946,0,1,0-11.819-1.314S953.96,1012.154,960.325,1012.154Z" transform="translate(-926.951 -900.732)" fill="#fff"/>
          <path id="Path_9602" data-name="Path 9602" d="M899.426,1009.8c7.43,0,2.782-31.495,2.782-31.495a5.946,5.946,0,1,0-11.832,1.2S892.586,1009.8,899.426,1009.8Z" transform="translate(-878.413 -898.623)" fill="#fff"/>
          <path id="Path_9603" data-name="Path 9603" d="M984.56,698.111s3.816-.014,5.7-2.121c1.939-2.168-2.868-2.826-4.819-1.2a6.435,6.435,0,0,0-1.268,1.376s-.094-3.27-1.618-4.034a1.452,1.452,0,0,0-2.039,1.955l.656,1.263a6.658,6.658,0,0,0-3.138-2.238c-1.625-.515-3.071-.52-2.476.868.4.935,3.981,3.391,3.981,3.391Z" transform="translate(-940.99 -691.921)" fill="#fff"/>
          <path id="Path_9604" data-name="Path 9604" d="M874.234,756.984c.736.521,1.5,1,2.267,1.459s1.559.881,2.359,1.274c.6.3,1.208.577,1.816.83.447-.777.9-1.553,1.355-2.32l.034-.052a.845.845,0,0,1,1.18-.2l.048.034q1.189.837,2.418,1.609c.823.509,1.641,1.026,2.481,1.5s1.686.942,2.546,1.377l.628.309-.3-1.774a1.176,1.176,0,0,1,1.96-1.056l.014.013a35.942,35.942,0,0,0,6.015,4.436,72.62,72.62,0,0,0,6.718,3.6c1.151.556,2.318,1.079,3.495,1.588s2.356,1.021,3.549,1.5c2.38.983,4.794,1.889,7.229,2.787a63.887,63.887,0,0,1-7.617-1.647q-1.876-.534-3.738-1.138-1.852-.626-3.677-1.344a57.7,57.7,0,0,1-7.118-3.374,42.493,42.493,0,0,1-4.027-2.632l.128.84,0,.03a1.14,1.14,0,0,1-1.589,1.213c-.969-.432-1.843-.879-2.726-1.378s-1.74-1.007-2.586-1.545-1.684-1.088-2.489-1.685c-.565-.413-1.119-.84-1.668-1.273-.444.639-.888,1.279-1.343,1.91l-.05.069a.68.68,0,0,1-.852.212,26.771,26.771,0,0,1-2.435-1.387c-.775-.5-1.526-1.041-2.252-1.6a25.571,25.571,0,0,1-2.081-1.805,22.366,22.366,0,0,1-1.855-2.018C872.769,755.926,873.5,756.461,874.234,756.984Z" transform="translate(-864.978 -738.561)" fill="#231f20"/>
          <g id="Group_3060" data-name="Group 3060" transform="translate(0 26.14)">
            <path id="Path_9605" data-name="Path 9605" d="M879.122,824.733a3.4,3.4,0,1,1-2.044-4.351A3.4,3.4,0,0,1,879.122,824.733Z" transform="translate(-865.307 -812.395)" fill="#231f20"/>
            <g id="Group_3058" data-name="Group 3058" transform="translate(9.01 5.254)">
              <path id="Path_9606" data-name="Path 9606" d="M879.3,811.124a14.467,14.467,0,0,1,2.991.946,6.121,6.121,0,0,1,1.212.788,15.378,15.378,0,0,1,1.183,1.134A3.228,3.228,0,0,0,882.817,811a3.833,3.833,0,0,0-1.8-.387A3.275,3.275,0,0,0,879.3,811.124Z" transform="translate(-879.3 -810.616)" fill="#231f20"/>
            </g>
            <path id="Path_9607" data-name="Path 9607" d="M983.981,862.537a3.4,3.4,0,1,0,4.352-2.046A3.4,3.4,0,0,0,983.981,862.537Z" transform="translate(-947.134 -841.896)" fill="#231f20"/>
            <g id="Group_3059" data-name="Group 3059" transform="translate(38.766 16.209)">
              <path id="Path_9608" data-name="Path 9608" d="M997.776,854.467a3.256,3.256,0,0,0-1-1.483,3.817,3.817,0,0,0-1.635-.851,3.225,3.225,0,0,0-3.345,1.108,15.549,15.549,0,0,1,1.635-.119,6.122,6.122,0,0,1,1.434.167A14.513,14.513,0,0,1,997.776,854.467Z" transform="translate(-991.8 -852.032)" fill="#231f20"/>
            </g>
            <path id="Path_9609" data-name="Path 9609" d="M954.227,837.119a11.066,11.066,0,1,1,6.657,14.163A11.079,11.079,0,0,1,954.227,837.119Zm2.238.807a8.687,8.687,0,1,0,11.117-5.226A8.7,8.7,0,0,0,956.465,837.926Z" transform="translate(-924.916 -819.477)" fill="#231f20"/>
            <path id="Path_9610" data-name="Path 9610" d="M845.891,798.063a11.066,11.066,0,1,1,6.658,14.164A11.079,11.079,0,0,1,845.891,798.063Zm2.238.806a8.688,8.688,0,1,0,11.119-5.226A8.7,8.7,0,0,0,848.129,798.87Z" transform="translate(-845.235 -790.751)" fill="#231f20"/>
            <path id="Path_9611" data-name="Path 9611" d="M931.7,838.584l1.992-1.3a10.248,10.248,0,0,0-11.564-4.195l.7,2.275a7.864,7.864,0,0,1,8.876,3.22Z" transform="translate(-901.791 -821.56)" fill="#231f20"/>
          </g>
        </g>
        <g id="Group_3062" data-name="Group 3062" transform="translate(17.127 46.098)">
          <path id="Path_9612" data-name="Path 9612" d="M921.646,869.692l-4.871-1.728-.088-.032-4.872-1.727a47.954,47.954,0,0,0-1.667,6.116c-.6,3,.537,5.6,2.708,6.415v0c.009,0,.015.008.023.01a.072.072,0,0,0,.02,0l.017.01c.009,0,.017,0,.026.006h0c2.2.737,4.72-.567,6.144-3.277A47.883,47.883,0,0,0,921.646,869.692Z" transform="translate(-909.988 -866.206)" fill="#231f20"/>
          <path id="Path_9613" data-name="Path 9613" d="M919.1,893.058c.3-.566.572-1.121.824-1.652-.889-.741-3.908-2.566-9.921.031-.006,2.317,1.077,4.2,2.865,4.866v0c.009,0,.015.008.023.011a.07.07,0,0,0,.02,0,.108.108,0,0,0,.017.009c.009,0,.017,0,.026.006h0C915.152,897.072,917.673,895.768,919.1,893.058Z" transform="translate(-909.997 -883.772)" fill="#e23d3a"/>
        </g>
        <path id="Path_9614" data-name="Path 9614" d="M988.855,964.481a5.464,5.464,0,0,0-8.838,2.73c-.858,2.705,2.335,4.59,3.825,6.376,2.013,2.413,3.76,5.282,3.888,8.505.124,3.119-.845,7.508,1.87,8.432,2.479.844,3.986-1.819,4.865-3.625a14.834,14.834,0,0,0,1.509-8.092,18.675,18.675,0,0,0-1.8-6.152C993.174,970.529,991.286,966.629,988.855,964.481Z" transform="translate(-944.262 -891.396)" fill="#fff"/>
        <g id="Group_3063" data-name="Group 3063" transform="translate(16.393 67.242)">
          <path id="Path_9615" data-name="Path 9615" d="M928.5,951.341l-.034-.008-1.339-.361-.48-3.5,2.1-1.33,1.046.282.032.008,1.047.282,1.142,2.2-2.17,2.782Z" transform="translate(-921.505 -946.145)" fill="#231f20"/>
          <path id="Path_9616" data-name="Path 9616" d="M909.827,983.16l-2.613-4.615,5.449-11.052,1.291.348h0l.017,0,.017,0h0l1.292.348-.839,12.295-4.58,2.676-.008.035-.013-.022-.021.013Z" transform="translate(-907.214 -961.846)" fill="#231f20"/>
        </g>
      </g>
    </g>
    <g id="Group_3068" data-name="Group 3068" transform="translate(571.771 701.626)">
      <path id="Path_9617" data-name="Path 9617" d="M794.669,872.852c-1.6-.305-3.6.958-4.463,2.808l-5.346,11.514c-.86,1.849-.063,3.663,1.769,4.03a4.513,4.513,0,0,0,4.743-2.76l4.784-11.611C796.934,874.949,796.264,873.157,794.669,872.852Z" transform="translate(-728.244 -834.668)" fill="#231f20"/>
      <path id="Path_9618" data-name="Path 9618" d="M843.291,861.385l-4.472-1.294-2.19,7.569,4.471,1.294a2.966,2.966,0,0,0,3.674-2.025l.541-1.871A2.967,2.967,0,0,0,843.291,861.385Z" transform="translate(-766.575 -825.315)" fill="#e23d3a"/>
      <g id="Group_3066" data-name="Group 3066" transform="translate(23.937 0.086)">
        <path id="Path_9619" data-name="Path 9619" d="M701.131,756.162c-6.815-4.886-12.873-11.321-14.942-16.789-3.394-8.968-8.461-10.433-8.461-10.433l-15.46,53.42s4.933,1.927,12.591-3.841c4.595-3.462,12.953-5.653,21.193-6.19A35.02,35.02,0,0,0,701.131,756.162Z" transform="translate(-662.269 -728.94)" fill="#e23d3a"/>
        <path id="Path_9620" data-name="Path 9620" d="M840.39,854.034a31.268,31.268,0,0,1-3.567-1.294,34.111,34.111,0,0,1-3.112,11.09,31.355,31.355,0,0,1,3.613.8s1.664-.479,2.961-4.966S840.39,854.034,840.39,854.034Z" transform="translate(-788.365 -819.995)" fill="#e23d3a"/>
        <path id="Path_9621" data-name="Path 9621" d="M804.671,837.382a51.886,51.886,0,0,1-9.6-5.523A35.019,35.019,0,0,1,790,848.027a52.168,52.168,0,0,1,11.562.445A34.107,34.107,0,0,0,804.671,837.382Z" transform="translate(-756.213 -804.637)" fill="#b22e2a"/>
      </g>
      <path id="Path_9622" data-name="Path 9622" d="M669.167,757.542c-4.27,14.753-11.03,25.756-15.1,24.579s-3.907-14.091.362-28.843,11.029-25.755,15.1-24.578S673.436,742.791,669.167,757.542Z" transform="translate(-630.131 -728.614)" fill="#b22e2a"/>
      <path id="Path_9623" data-name="Path 9623" d="M685.612,813.217l-.826,2.854a4.746,4.746,0,0,0,3.24,5.879l3.882,1.123c.665-1.859,1.3-3.807,1.883-5.827.607-2.1,1.128-4.155,1.568-6.15l-3.868-1.12A4.746,4.746,0,0,0,685.612,813.217Z" transform="translate(-654.755 -788.318)" fill="#231f20"/>
      <g id="Group_3067" data-name="Group 3067" transform="translate(0 0.44)">
        <path id="Path_9624" data-name="Path 9624" d="M597.282,778.255a20.3,20.3,0,0,1-2.193-8.438,28.16,28.16,0,0,1,.98-8.769,25.854,25.854,0,0,1,3.652-8.032,27,27,0,0,1,6.088-6.227A80.39,80.39,0,0,0,601.346,754a37.645,37.645,0,0,0-2.952,7.7,43.321,43.321,0,0,0-1.414,8.135A38.483,38.483,0,0,0,597.282,778.255Z" transform="translate(-588.896 -742.422)" fill="#e23d3a"/>
        <path id="Path_9625" data-name="Path 9625" d="M574.959,768.172a14.443,14.443,0,0,1-2.216-4.855,27.566,27.566,0,0,1-.884-5.3,32.2,32.2,0,0,1,1.025-10.731,31.629,31.629,0,0,1,4.563-9.755,29.058,29.058,0,0,1,3.436-4.13,14.7,14.7,0,0,1,4.327-3.119,20.739,20.739,0,0,0-3.427,3.892,44.079,44.079,0,0,0-6.572,13.756,44.528,44.528,0,0,0-1.475,10.045,39.745,39.745,0,0,0,.166,5.128A20.119,20.119,0,0,0,574.959,768.172Z" transform="translate(-571.77 -730.277)" fill="#e23d3a"/>
        <path id="Path_9626" data-name="Path 9626" d="M623.012,791.89a16.122,16.122,0,0,1-1.043-5.7A21.295,21.295,0,0,1,625,775.048a16.035,16.035,0,0,1,3.79-4.38c-.733,1.8-1.452,3.492-2.08,5.21s-1.185,3.414-1.667,5.179c-.467,1.715-.864,3.493-1.184,5.286S623.289,789.969,623.012,791.89Z" transform="translate(-608.691 -759.985)" fill="#e23d3a"/>
      </g>
    </g>
  </g>
</svg>
