<svg id="Announcement-left" xmlns="http://www.w3.org/2000/svg" width="31.422" height="31.422" viewBox="0 0 31.422 31.422">
  <path id="Path_9652" data-name="Path 9652" d="M24.107,10.407a1.463,1.463,0,0,0-2.062,0l-7.206,7.229a1.456,1.456,0,0,0-.045,2.009l7.1,7.123a1.455,1.455,0,1,0,2.062-2.055l-6.035-6.126,6.186-6.126A1.441,1.441,0,0,0,24.107,10.407Z" transform="translate(-4.974 -2.884)" fill="#fff"/>
  <path id="Path_9653" data-name="Path 9653" d="M34.8,19.086A15.711,15.711,0,1,1,19.086,3.375,15.709,15.709,0,0,1,34.8,19.086Zm-2.417,0A13.289,13.289,0,0,0,9.69,9.69,13.289,13.289,0,1,0,28.482,28.482,13.18,13.18,0,0,0,32.38,19.086Z" transform="translate(-3.375 -3.375)" fill="#fff"/>
</svg>
