<svg id="department-info-icon" xmlns="http://www.w3.org/2000/svg" width="34.02" height="44.657" viewBox="0 0 34.02 44.657">
  <g id="Group_3344" data-name="Group 3344" transform="translate(0.677 0.676)">
    <path id="Path_10021" data-name="Path 10021" d="M57.666,2.089H36.432L33.319,7.345V41.819L36.432,45.4H57.666a3.525,3.525,0,0,0,3.525-3.525V5.614a3.525,3.525,0,0,0-3.525-3.525Z" transform="translate(-28.532 -2.089)" fill="#badafb"/>
    <path id="Path_10022" data-name="Path 10022" d="M42.911,42.933a5.221,5.221,0,0,1-5.221-5.221V2.089H36.432L33.319,7.345V41.819L36.432,45.4H57.666a3.526,3.526,0,0,0,3.363-2.466Z" transform="translate(-28.532 -2.089)" fill="#97c9f9"/>
    <path id="Path_10023" data-name="Path 10023" d="M31.473,2.089V45.4h-1.96a3.525,3.525,0,0,1-3.525-3.525V5.614a3.525,3.525,0,0,1,3.525-3.525Z" transform="translate(-23.573 -2.089)" fill="#cac5cb"/>
    <g id="Group_3343" data-name="Group 3343" transform="translate(0 7.195)">
      <g id="Group_3337" data-name="Group 3337" transform="translate(0 0)">
        <path id="Path_10024" data-name="Path 10024" d="M22,26.942H19.835a1.309,1.309,0,1,1,0-2.618H22a1.309,1.309,0,0,1,0,2.618Z" transform="translate(-18.526 -24.324)" fill="#efedee"/>
      </g>
      <g id="Group_3338" data-name="Group 3338" transform="translate(0 6.704)">
        <path id="Path_10025" data-name="Path 10025" d="M22,47.66H19.835a1.309,1.309,0,0,1,0-2.618H22a1.309,1.309,0,1,1,0,2.618Z" transform="translate(-18.526 -45.042)" fill="#efedee"/>
      </g>
      <g id="Group_3339" data-name="Group 3339" transform="translate(0 13.409)">
        <path id="Path_10026" data-name="Path 10026" d="M22,68.379H19.835a1.309,1.309,0,1,1,0-2.618H22a1.309,1.309,0,1,1,0,2.618Z" transform="translate(-18.526 -65.76)" fill="#efedee"/>
      </g>
      <g id="Group_3340" data-name="Group 3340" transform="translate(0 20.113)">
        <path id="Path_10027" data-name="Path 10027" d="M22,89.1H19.835a1.309,1.309,0,0,1,0-2.618H22A1.309,1.309,0,0,1,22,89.1Z" transform="translate(-18.526 -86.479)" fill="#efedee"/>
      </g>
      <g id="Group_3341" data-name="Group 3341" transform="translate(0 26.818)">
        <path id="Path_10028" data-name="Path 10028" d="M22,109.815H19.835a1.309,1.309,0,1,1,0-2.618H22a1.309,1.309,0,1,1,0,2.618Z" transform="translate(-18.526 -107.197)" fill="#efedee"/>
      </g>
      <g id="XMLID_138_" transform="translate(10.963 0.923)">
        <g id="Group_3342" data-name="Group 3342" transform="translate(0)">
          <path id="Path_10029" data-name="Path 10029" d="M61.689,27.175A9.286,9.286,0,0,0,54.644,42.51l7.949-1.266,6.143,1.266a9.286,9.286,0,0,0-7.046-15.335Z" transform="translate(-52.404 -27.175)" fill="#f8f7f8"/>
          <path id="Path_10030" data-name="Path 10030" d="M73.418,51.614a9.285,9.285,0,0,1-14.092,0,10.1,10.1,0,0,1,4.549-3.522.25.25,0,0,0,.159-.233.246.246,0,0,0-.076-.178l-.316-.306a3.923,3.923,0,1,1,5.461,0l-.316.306a.249.249,0,0,0,.083.411,10.092,10.092,0,0,1,4.549,3.522Z" transform="translate(-57.086 -36.28)" fill="#e4e1e5"/>
        </g>
      </g>
    </g>
  </g>
  <g id="Group_3345" data-name="Group 3345">
    <path id="Path_10031" data-name="Path 10031" d="M50.395,4.172A4.184,4.184,0,0,0,46.216,0h-.007L34.767.019a.655.655,0,0,0,0,1.309h0l11.442-.019h0a2.874,2.874,0,0,1,2.87,2.865l.061,36.26a2.87,2.87,0,0,1-2.865,2.875L25.7,43.344l-.07-42,6.348-.011a.655.655,0,0,0,0-1.309h0L23.014.039a4.184,4.184,0,0,0-4.172,4.186l.005,3.016H18.4a1.964,1.964,0,0,0,0,3.927h.454l0,2.777h-.451a1.964,1.964,0,0,0,0,3.927h.454l0,2.777h-.451a1.964,1.964,0,0,0,0,3.927h.454l0,2.777h-.451a1.964,1.964,0,0,0,0,3.927h.455l0,2.777h-.451a1.964,1.964,0,0,0,0,3.927H18.9l0,2.5a4.184,4.184,0,0,0,4.179,4.172h.007l23.195-.039a4.179,4.179,0,0,0,4.172-4.186ZM18.4,9.86h0a.655.655,0,0,1,0-1.309l2.169,0h0a.655.655,0,0,1,0,1.309Zm.011,6.7h0a.655.655,0,0,1,0-1.309l2.169,0h0a.655.655,0,0,1,0,1.309Zm.011,6.7h0a.655.655,0,0,1,0-1.309l2.169,0h0a.655.655,0,0,1,0,1.309Zm.011,6.7h0a.655.655,0,0,1,0-1.309l2.169,0h0a.655.655,0,0,1,0,1.309Zm.011,6.7h0a.655.655,0,0,1,0-1.309l2.169,0h0a.655.655,0,0,1,0,1.309Zm4.641,6.67h0a2.874,2.874,0,0,1-2.87-2.865l0-2.5h.409a1.964,1.964,0,0,0,0-3.927H20.2l0-2.777H20.6a1.964,1.964,0,0,0,0-3.927H20.19l0-2.777h.409a1.964,1.964,0,0,0,0-3.927h-.412l0-2.777h.409a1.964,1.964,0,0,0,0-3.927h-.412l0-2.777h.409a1.964,1.964,0,0,0,0-3.927h-.412l-.005-3.016a2.873,2.873,0,0,1,2.865-2.875l1.306,0,.07,42Z" transform="translate(-16.435)"/>
    <path id="Path_10032" data-name="Path 10032" d="M60.286,26.443H60.3a8.559,8.559,0,0,1,6.216,2.643.654.654,0,1,0,.943-.908A9.856,9.856,0,0,0,60.3,25.134h-.017a9.942,9.942,0,0,0-4.721,18.681.655.655,0,1,0,.625-1.15A8.65,8.65,0,0,1,54.116,41.1a9.407,9.407,0,0,1,3.928-2.883.9.9,0,0,0,.3-1.492l-.317-.306a3.268,3.268,0,0,1,.76-5.248,3.272,3.272,0,0,1,3.012,0,3.268,3.268,0,0,1,.778,5.245l-.315.307a.9.9,0,0,0,.3,1.491A9.409,9.409,0,0,1,66.5,41.075l-.09.093a8.575,8.575,0,0,1-6.1,2.538,8.773,8.773,0,0,1-1.688-.163.655.655,0,1,0-.252,1.285,10.011,10.011,0,0,0,1.927.187h.016a9.943,9.943,0,0,0,8.869-14.4.655.655,0,1,0-1.17.588,8.643,8.643,0,0,1-.662,8.848,10.7,10.7,0,0,0-3.744-2.826A4.577,4.577,0,0,0,62.4,30a4.582,4.582,0,0,0-4.218.007A4.577,4.577,0,0,0,57,37.236a10.705,10.705,0,0,0-3.733,2.836,8.63,8.63,0,0,1,7.022-13.63Z" transform="translate(-39.382 -17.001)"/>
  </g>
</svg>
