<svg xmlns="http://www.w3.org/2000/svg" xmlns:xlink="http://www.w3.org/1999/xlink" width="338.143" height="238.318" viewBox="0 0 338.143 238.318">
  <defs>
    <clipPath id="clip-path">
      <path id="Path_11046" data-name="Path 11046" d="M284.39,217.944s-1.383,4.962-.829,6.7,2.656,3.8,2.231,5.885-2.74,4.55-2.532,6.178,2.952,2.414,2.952,2.414,3.885,7.491,4.993,10.069,1.974,1.845,4.548,1.656,8.7-3.649,12.363-6.517.918-14.472-4-22.889-14.562-10.218-17.06-8.6S284.39,217.944,284.39,217.944Z" transform="translate(-283.246 -212.301)" fill="none"/>
    </clipPath>
    <clipPath id="clip-path-2">
      <path id="Path_11053" data-name="Path 11053" d="M306.171,254.291s3.7,1.138,3.128,4.265-1.138,5.971-1.138,5.971,20.187.568,19.9-.569-5.971-20.471-5.971-20.471S311.289,242.918,306.171,254.291Z" transform="translate(-306.171 -243.481)" fill="#fff" stroke="#263238" stroke-linecap="round" stroke-linejoin="round" stroke-width="1"/>
    </clipPath>
    <clipPath id="clip-path-3">
      <path id="Path_11062" data-name="Path 11062" d="M276.085,271.074c-5.909,3.713-4.137,7.774-2.715,14.817,3.207,15.875,7.5,46.548,5.859,54.273-1.919,9.032-7.3,14.786-14.691,14.786-3.436,0-4.241,3.3-7.961,1.706-7.962-3.412-13.954-.918-16.776,1.422-11.657,9.667,3.075,43.817,20.188,52.032,15.272,7.331,31.656,2.556,39.724-.744,2.888-1.181,5.946-.621,8.97.144,15.848,4.011,28.642-9.637,30.065-21.863,2.184-18.776-3.7-19.619-6.651-40.375a51.1,51.1,0,0,1-.279-6.826c-.085-14.359,5.7-27.675,4.26-49.471-.567-8.586-1.922-19.608-7.677-22.746C304.275,255.072,276.276,270.954,276.085,271.074Z" transform="translate(-235.631 -263.016)" fill="#92e3a9" stroke="#263238" stroke-linecap="round" stroke-linejoin="round" stroke-width="1"/>
    </clipPath>
    <clipPath id="clip-path-4">
      <path id="Path_11067" data-name="Path 11067" d="M243.6,351.951s-5.931-3.806-7.505-3.655-3.651,1.342-4.241,1.4-2-.2-2.931.48a9.593,9.593,0,0,0-1.8,1.976,24.2,24.2,0,0,0-2.808,1.857c-1.478,1.134-4.782,6.016-5.276,7.065s.151,1.573,1.078.889c.684-.505,3.522-3.17,4.96-4.529a1.85,1.85,0,0,1,1.947-.38,26.987,26.987,0,0,1,5.346,2.571,10.7,10.7,0,0,0,5.626,2.6,31.755,31.755,0,0,0,5.966.023s3.217-4.079,2.326-6.782A5.65,5.65,0,0,0,243.6,351.951Z" transform="translate(-218.872 -348.292)" fill="#fff" stroke="#263238" stroke-linecap="round" stroke-linejoin="round" stroke-width="1"/>
    </clipPath>
    <clipPath id="clip-path-5">
      <path id="Path_11072" data-name="Path 11072" d="M289.857,289.308c-.381-5.715-5.673-16.851-11.322-17.793a25.675,25.675,0,0,0-3.7,2.469c-2.152,1.721-2.8,5.147-2.989,12.386s1.137,23.884.284,39.238c-.015.284-21.417,11.848-25.132,13.647s-6.106,5.177-4,8.727c1.87,3.152,5.881,2.466,9.513,1.983,4.874-.646,27.733-5.413,31.845-9.667C292.605,331.767,289.857,289.308,289.857,289.308Z" transform="translate(-242.216 -271.514)" fill="#fff" stroke="#263238" stroke-linecap="round" stroke-linejoin="round" stroke-width="1"/>
    </clipPath>
    <clipPath id="clip-path-6">
      <path id="Path_11078" data-name="Path 11078" d="M247.419,351.017s.091.816-3.34-1.422c-3.27-2.132-11.8,5.687-8.521,11.024l.275.919c.373,1.242,2.753.437,3.981.853a9.532,9.532,0,0,0,4.691.426C247.063,362.532,239.955,358.267,247.419,351.017Z" transform="translate(-234.82 -349.236)" fill="#fff" stroke="#263238" stroke-linecap="round" stroke-linejoin="round" stroke-width="1"/>
    </clipPath>
  </defs>
  <g id="Document_Downloads" data-name="Document Downloads" transform="translate(0 0.5)">
    <g id="Shadow" transform="translate(39.107 201.14)">
      <g id="Group_4944" data-name="Group 4944" transform="translate(0)">
        <ellipse id="Ellipse_1648" data-name="Ellipse 1648" cx="134.771" cy="18.339" rx="134.771" ry="18.339" fill="#b5b0ff"/>
        <ellipse id="Ellipse_1649" data-name="Ellipse 1649" cx="134.771" cy="18.339" rx="134.771" ry="18.339" fill="#fff" opacity="0.5"/>
      </g>
    </g>
    <g id="Plant" transform="translate(0 97.82)">
      <g id="Group_4960" data-name="Group 4960">
        <g id="Group_4958" data-name="Group 4958">
          <g id="Group_4946" data-name="Group 4946" transform="translate(0 14.298)">
            <path id="Path_10961" data-name="Path 10961" d="M90.86,350.089c-.073.123.582.74-1.571.835-5.3.233-14.676-.1-18.211-4.906-5.046-6.868,6.548-6.27,5.41-10.062s-13.583-.656-16.03-6.067,6.614-4.38,6.186-7.166-9.921.854-13.07-4.883,5.161-2.688,3.81-5.065-11.92-12.258-7.657-14.48,14.2,8.1,17.465,9.194,4-9.054,8.3-5.67,1.53,18.712,6.542,20.6c3.733,1.406,1.683-4.079,6.285-3.881C94.57,318.8,96.689,340.28,90.86,350.089Z" transform="translate(-48.721 -297.982)" fill="#b5b0ff"/>
            <g id="Group_4945" data-name="Group 4945" opacity="0.1">
              <path id="Path_10962" data-name="Path 10962" d="M90.86,350.089c-.073.123.582.74-1.571.835-5.3.233-14.676-.1-18.211-4.906-5.046-6.868,6.548-6.27,5.41-10.062s-13.583-.656-16.03-6.067,6.614-4.38,6.186-7.166-9.921.854-13.07-4.883,5.161-2.688,3.81-5.065-11.92-12.258-7.657-14.48,14.2,8.1,17.465,9.194,4-9.054,8.3-5.67,1.53,18.712,6.542,20.6c3.733,1.406,1.683-4.079,6.285-3.881C94.57,318.8,96.689,340.28,90.86,350.089Z" transform="translate(-48.721 -297.982)"/>
            </g>
          </g>
          <g id="Group_4947" data-name="Group 4947" transform="translate(56.847 26.881)">
            <path id="Path_10963" data-name="Path 10963" d="M117.354,353.359c4.272.877,12.334-1.745,15.928-5.085,3.646-3.389-5.013-2.474-3.6-5.4s11.11,1.229,13.8-2.845-4.8-4.413-4.092-6.62,8.186-.343,11.486-4.591-3.841-2.851-2.435-4.6,11.265-8.4,8.093-10.76-12.573,4.731-15.369,5.2-2.313-5.544-6.244-3.355-3.669,14.989-7.981,15.872c-3.213.657-.894-4.752-4.6-3.966C115.858,328.574,115.62,353,117.354,353.359Z" transform="translate(-116.435 -312.971)" fill="#b5b0ff"/>
          </g>
          <g id="Group_4948" data-name="Group 4948" transform="translate(52.895 31.914)">
            <path id="Path_10964" data-name="Path 10964" d="M144.047,322.287s-25.275,17-32.319,48.117" transform="translate(-111.728 -319.499)" fill="none" stroke="#263238" stroke-linecap="round" stroke-linejoin="round" stroke-width="1"/>
            <path id="Path_10965" data-name="Path 10965" d="M146.92,333.891a22.824,22.824,0,0,0-9.3.123.06.06,0,0,1-.024.008" transform="translate(-115.88 -321.293)" fill="none" stroke="#263238" stroke-linecap="round" stroke-linejoin="round" stroke-width="1"/>
            <path id="Path_10966" data-name="Path 10966" d="M140.247,318.966a30.059,30.059,0,0,0-7.08,16.156" transform="translate(-115.169 -318.966)" fill="none" stroke="#263238" stroke-linecap="round" stroke-linejoin="round" stroke-width="1"/>
            <path id="Path_10967" data-name="Path 10967" d="M128.341,343.538a9.637,9.637,0,0,1,9.225-.564" transform="translate(-114.394 -322.67)" fill="none" stroke="#263238" stroke-linecap="round" stroke-linejoin="round" stroke-width="1"/>
            <path id="Path_10968" data-name="Path 10968" d="M121.66,351.092a22.874,22.874,0,0,1,.212-11.689" transform="translate(-113.22 -322.246)" fill="none" stroke="#263238" stroke-linecap="round" stroke-linejoin="round" stroke-width="1"/>
          </g>
          <g id="Group_4951" data-name="Group 4951" transform="translate(40.102)">
            <g id="Group_4949" data-name="Group 4949">
              <path id="Path_10969" data-name="Path 10969" d="M107.184,345.875c5.117-1.405,12.413-8.7,14.467-14.3,2.085-5.687-6.8.082-6.881-3.876s12.725-4.8,13.393-10.7-7.64-2.137-8.088-4.92,8.688-4.888,9.923-11.315-5.737-.972-5.181-3.649,7.58-15.327,2.841-16.132-11.025,12.065-13.8,14.113-5.566-4.736-8.622-.195,4.29,18.278.1,21.613c-3.121,2.485-3.591-4.659-7.174-1.764C91.892,319.824,105.107,346.445,107.184,345.875Z" transform="translate(-96.489 -280.951)" fill="#b5b0ff"/>
            </g>
            <g id="Group_4950" data-name="Group 4950" opacity="0.2">
              <path id="Path_10970" data-name="Path 10970" d="M107.184,345.875c5.117-1.405,12.413-8.7,14.467-14.3,2.085-5.687-6.8.082-6.881-3.876s12.725-4.8,13.393-10.7-7.64-2.137-8.088-4.92,8.688-4.888,9.923-11.315-5.737-.972-5.181-3.649,7.58-15.327,2.841-16.132-11.025,12.065-13.8,14.113-5.566-4.736-8.622-.195,4.29,18.278.1,21.613c-3.121,2.485-3.591-4.659-7.174-1.764C91.892,319.824,105.107,346.445,107.184,345.875Z" transform="translate(-96.489 -280.951)" fill="#fff"/>
            </g>
          </g>
          <g id="Group_4957" data-name="Group 4957" transform="translate(17.936 13.876)">
            <path id="Path_10971" data-name="Path 10971" d="M108.254,423.928c-.285.065-9.952.065-10.236,0-7.095-1.559-32.288-9.836-9.581-36.645h29.07C140.2,414.082,115.349,422.369,108.254,423.928Z" transform="translate(-71.54 -311.893)" fill="#fff" stroke="#263238" stroke-miterlimit="10" stroke-width="1"/>
            <g id="Group_4956" data-name="Group 4956">
              <g id="Group_4955" data-name="Group 4955">
                <g id="Group_4953" data-name="Group 4953" transform="translate(0 10.602)">
                  <g id="Group_4952" data-name="Group 4952">
                    <path id="Path_10972" data-name="Path 10972" d="M73.834,322.521s20.581,14.056,25.07,49.912" transform="translate(-70.687 -312.101)" fill="none" stroke="#263238" stroke-linecap="round" stroke-linejoin="round" stroke-width="1"/>
                    <path id="Path_10973" data-name="Path 10973" d="M70.085,327.658a16.8,16.8,0,0,1,8.009-.088" transform="translate(-70.085 -312.845)" fill="none" stroke="#263238" stroke-linecap="round" stroke-linejoin="round" stroke-width="1"/>
                    <path id="Path_10974" data-name="Path 10974" d="M76.8,310.109a34.386,34.386,0,0,1,6.178,19.038" transform="translate(-71.162 -310.109)" fill="none" stroke="#263238" stroke-linecap="round" stroke-linejoin="round" stroke-width="1"/>
                    <path id="Path_10975" data-name="Path 10975" d="M89.485,343.118a10.6,10.6,0,0,0-10.359-2.041" transform="translate(-71.536 -314.981)" fill="none" stroke="#263238" stroke-linecap="round" stroke-linejoin="round" stroke-width="1"/>
                    <path id="Path_10976" data-name="Path 10976" d="M95.291,348.67A25.8,25.8,0,0,0,96.34,335.5" transform="translate(-74.13 -314.184)" fill="none" stroke="#263238" stroke-linecap="round" stroke-linejoin="round" stroke-width="1"/>
                  </g>
                </g>
                <g id="Group_4954" data-name="Group 4954" transform="translate(26.8)">
                  <path id="Path_10977" data-name="Path 10977" d="M121.048,303.113s-17.2,24.058-11.514,67.845" transform="translate(-103.031 -298.384)" fill="none" stroke="#263238" stroke-linecap="round" stroke-linejoin="round" stroke-width="1"/>
                  <path id="Path_10978" data-name="Path 10978" d="M132.761,307.2c-9.006-.016-13.76,3.462-14.048,3.678h-.008l-.008.008" transform="translate(-104.686 -299.04)" fill="none" stroke="#263238" stroke-linecap="round" stroke-linejoin="round" stroke-width="1"/>
                  <path id="Path_10979" data-name="Path 10979" d="M115.03,316.011a41.2,41.2,0,0,1-1.508-18.53" transform="translate(-103.788 -297.48)" fill="none" stroke="#263238" stroke-linecap="round" stroke-linejoin="round" stroke-width="1"/>
                  <path id="Path_10980" data-name="Path 10980" d="M111.072,334.045s3.574-6.8,11.291-6.863" transform="translate(-103.463 -302.247)" fill="none" stroke="#263238" stroke-linecap="round" stroke-linejoin="round" stroke-width="1"/>
                  <path id="Path_10981" data-name="Path 10981" d="M108.328,342.985a30.983,30.983,0,0,1-6.32-14.9" transform="translate(-102.008 -302.391)" fill="none" stroke="#263238" stroke-linecap="round" stroke-linejoin="round" stroke-width="1"/>
                </g>
              </g>
              <path id="Path_10982" data-name="Path 10982" d="M89.119,385.63h30.547l1.853-8.656H87.266Z" transform="translate(-72.842 -310.238)" fill="#fff" stroke="#263238" stroke-miterlimit="10" stroke-width="1"/>
            </g>
          </g>
        </g>
        <g id="Group_4959" data-name="Group 4959" transform="translate(63.162 94.932)">
          <path id="Path_10983" data-name="Path 10983" d="M127.779,400.1a19.36,19.36,0,0,1,1.756,9.7c-.2,2.367-1.071,4.985-3.232,5.972" transform="translate(-124.334 -395.004)" fill="none" stroke="#263238" stroke-linecap="round" stroke-linejoin="round" stroke-width="1"/>
          <path id="Path_10984" data-name="Path 10984" d="M123.957,394.031A18.6,18.6,0,0,1,126,396.605" transform="translate(-123.957 -394.031)" fill="none" stroke="#263238" stroke-linecap="round" stroke-linejoin="round" stroke-width="1"/>
        </g>
      </g>
    </g>
    <g id="Device" transform="translate(106.951 126.888)">
      <g id="Group_4971" data-name="Group 4971">
        <g id="freepik--Device--inject-2">
          <path id="Path_10985" data-name="Path 10985" d="M236.061,315.576H176.117l11.063,45.086h59.944Z" transform="translate(-176.117 -315.576)" fill="#263238" stroke="#263238" stroke-linecap="round" stroke-linejoin="round" stroke-width="1"/>
          <path id="Path_10986" data-name="Path 10986" d="M234.014,318.695h-52.99l9.788,39.848h52.981Z" transform="translate(-176.904 -316.076)" fill="#fff" stroke="#263238" stroke-linecap="round" stroke-linejoin="round" stroke-width="1"/>
          <path id="Path_10987" data-name="Path 10987" d="M234.014,318.695h-52.99l.922,3.727h52.981Z" transform="translate(-176.904 -316.076)" fill="#b5b0ff" stroke="#263238" stroke-linecap="round" stroke-linejoin="round" stroke-width="1"/>
          <rect id="Rectangle_683" data-name="Rectangle 683" width="87.758" height="4.031" transform="translate(10.112 41.055)" fill="#fff" stroke="#263238" stroke-linecap="round" stroke-linejoin="round" stroke-width="1"/>
          <rect id="Rectangle_684" data-name="Rectangle 684" width="48.047" height="4.031" transform="translate(49.832 41.055)" fill="#263238" stroke="#263238" stroke-linecap="round" stroke-linejoin="round" stroke-width="1"/>
        </g>
        <g id="Group_4970" data-name="Group 4970" transform="translate(10.784 9.008)">
          <path id="Path_10988" data-name="Path 10988" d="M229.327,340.71l.608,2.526H190.287l-.605-2.526Z" transform="translate(-189.078 -328.618)" fill="#b5b0ff"/>
          <g id="Group_4963" data-name="Group 4963" transform="translate(0 10.795)">
            <g id="Group_4962" data-name="Group 4962">
              <g id="Group_4961" data-name="Group 4961">
                <path id="Path_10989" data-name="Path 10989" d="M238.329,344.232H190.152l-1.19-5.067h48.177Zm-47.7-.583H237.6l-.918-3.9H189.708Z" transform="translate(-188.962 -339.165)" fill="#263238"/>
              </g>
            </g>
          </g>
          <g id="Group_4969" data-name="Group 4969" transform="translate(19.304)">
            <g id="Group_4964" data-name="Group 4964" transform="translate(0 2.672)">
              <path id="Path_10990" data-name="Path 10990" d="M219.28,335.351h-5.862l-1.462-5.862h1.672l.124.5h-1.174l1.213,4.866h4.865l-1.213-4.866h-1.2l-.124-.5h1.7Z" transform="translate(-211.956 -329.489)" fill="#b5b0ff" stroke="#b5b0ff" stroke-miterlimit="10" stroke-width="0.2"/>
            </g>
            <g id="Group_4968" data-name="Group 4968" transform="translate(1.647)">
              <g id="Group_4965" data-name="Group 4965" transform="translate(0.376)">
                <path id="Path_10991" data-name="Path 10991" d="M216.261,331.909h-.5l-1.4-5.6h.5Z" transform="translate(-214.366 -326.306)" fill="#b5b0ff" stroke="#b5b0ff" stroke-miterlimit="10" stroke-width="0.2"/>
              </g>
              <g id="Group_4967" data-name="Group 4967" transform="translate(0 4.397)">
                <g id="Group_4966" data-name="Group 4966">
                  <path id="Path_10992" data-name="Path 10992" d="M216.02,333.034l-2.1-.962.118-.443,1.824.835,1.323-.922.361.429Z" transform="translate(-213.918 -331.543)" fill="#b5b0ff" stroke="#b5b0ff" stroke-miterlimit="10" stroke-width="0.2"/>
                </g>
              </g>
            </g>
          </g>
        </g>
      </g>
    </g>
    <g id="Desk" transform="translate(30.428 41.328)">
      <g id="Group_4984" data-name="Group 4984" transform="translate(0)">
        <g id="Group_4972" data-name="Group 4972" transform="translate(0 27.195)">
          <path id="Path_10993" data-name="Path 10993" d="M337.085,163.812l25.8,70.137h-3.693l-25.215-68.533Z" transform="translate(-328.947 -95.385)" fill="none" stroke="#263238" stroke-linecap="round" stroke-linejoin="round" stroke-width="1"/>
          <path id="Path_10994" data-name="Path 10994" d="M312.1,139.518,359.14,87.525a3.706,3.706,0,0,0,1.212,2.637,19.512,19.512,0,0,0-5.146,6.616L316.515,139.57l-.492-4.109Z" transform="translate(-308.044 -83.142)" fill="none" stroke="#263238" stroke-linecap="round" stroke-linejoin="round" stroke-width="1"/>
          <path id="Path_10995" data-name="Path 10995" d="M308.266,87.229c-.008,0-.025.008-.034.008-.163.09-.311.195-.47.289L305.1,88.743l.244.441c-.06.049-.127.091-.186.14a4.086,4.086,0,1,1,6.85-3.744l-.526.24A19.759,19.759,0,0,0,308.266,87.229Z" transform="translate(-252.853 -82.304)" fill="#b5b0ff" stroke="#263238" stroke-miterlimit="10" stroke-width="1"/>
          <path id="Path_10996" data-name="Path 10996" d="M339.751,247.357v20H327.92v-7h9.259v-6.542H327.92v-6.462h11.832Z" transform="translate(-300.726 -108.793)" fill="none" stroke="#263238" stroke-linecap="round" stroke-linejoin="round" stroke-width="1"/>
          <path id="Path_10997" data-name="Path 10997" d="M303.891,86.446l.526-.24.039.056C304.267,86.32,304.079,86.383,303.891,86.446Z" transform="translate(-245.258 -82.93)" fill="none" stroke="#263238" stroke-linecap="round" stroke-linejoin="round" stroke-width="1"/>
          <path id="Path_10998" data-name="Path 10998" d="M311.659,88.524a19.648,19.648,0,0,0-2.414,1.658L309,89.741Z" transform="translate(-256.75 -83.302)" fill="none" stroke="#263238" stroke-linecap="round" stroke-linejoin="round" stroke-width="1"/>
          <path id="Path_10999" data-name="Path 10999" d="M367.468,162.486l-4.742-9.614,4.054-4.19,3.926-4.058.492,4.109,1.334,11.139-1.668.861-3.107,1.6Z" transform="translate(-362.726 -92.306)" fill="none" stroke="#263238" stroke-linecap="round" stroke-linejoin="round" stroke-width="1"/>
          <path id="Path_11000" data-name="Path 11000" d="M303.539,109.131a9.155,9.155,0,0,1-16.115,1.046q8.17-4.168,16.433-7.812A9.12,9.12,0,0,1,303.539,109.131Z" transform="translate(-231.336 -85.524)" fill="#fff" stroke="#263238" stroke-miterlimit="10" stroke-width="1"/>
          <path id="Path_11001" data-name="Path 11001" d="M283.754,89.8c.06-.05.126-.091.186-.14A19.643,19.643,0,0,1,286.355,88c.16-.094.307-.2.47-.289.009,0,.025-.008.034-.008a19.761,19.761,0,0,1,3.22-1.409c.188-.063.376-.126.565-.184A19.624,19.624,0,0,1,313.5,95.455c0,.008.008.008.008.017l-.94.521q-4.3,1.738-8.6,3.631-8.251,3.632-16.433,7.812-4.717,2.407-9.389,4.977a19.715,19.715,0,0,1,5.61-22.611Z" transform="translate(-231.446 -82.781)" fill="#b5b0ff" stroke="#263238" stroke-miterlimit="10" stroke-width="1"/>
        </g>
        <g id="Group_4973" data-name="Group 4973" transform="translate(197.757 27.829)">
          <rect id="Rectangle_685" data-name="Rectangle 685" width="96.387" height="127.947" transform="translate(6.824 7.732)" fill="#bfbfbf" stroke="#263238" stroke-linecap="round" stroke-linejoin="round" stroke-width="1"/>
          <rect id="Rectangle_686" data-name="Rectangle 686" width="72.504" height="24.737" transform="translate(17.913 18.821)" fill="#757575" stroke="#263238" stroke-linecap="round" stroke-linejoin="round" stroke-width="1"/>
          <rect id="Rectangle_687" data-name="Rectangle 687" width="72.504" height="71.651" transform="translate(17.913 51.234)" fill="#757575" stroke="#263238" stroke-linecap="round" stroke-linejoin="round" stroke-width="1"/>
          <rect id="Rectangle_688" data-name="Rectangle 688" width="109.458" height="7.677" fill="#757575" stroke="#263238" stroke-linecap="round" stroke-linejoin="round" stroke-width="1"/>
          <path id="Path_11002" data-name="Path 11002" d="M387.745,276.08a3.128,3.128,0,1,1-3.127-3.128A3.128,3.128,0,0,1,387.745,276.08Z" transform="translate(-330.311 -251.004)" fill="#bfbfbf" stroke="#263238" stroke-linecap="round" stroke-linejoin="round" stroke-width="1"/>
          <ellipse id="Ellipse_1650" data-name="Ellipse 1650" cx="4.834" cy="10.52" rx="4.834" ry="10.52" transform="translate(77.337 75.457)" fill="#bfbfbf" stroke="#263238" stroke-linecap="round" stroke-linejoin="round" stroke-width="1"/>
          <path id="Path_11003" data-name="Path 11003" d="M417.918,362.022h0a2.559,2.559,0,0,1-2.559-2.559V334.443a2.559,2.559,0,0,1,2.559-2.56h0a2.56,2.56,0,0,1,2.559,2.56v25.021A2.559,2.559,0,0,1,417.918,362.022Z" transform="translate(-335.747 -260.462)" fill="#bfbfbf" stroke="#263238" stroke-linecap="round" stroke-linejoin="round" stroke-width="1"/>
        </g>
        <g id="Group_4982" data-name="Group 4982" transform="translate(251.226)">
          <g id="Group_4976" data-name="Group 4976">
            <g id="Group_4974" data-name="Group 4974" transform="translate(36.919 0.049)">
              <path id="Path_11004" data-name="Path 11004" d="M429.8,232.417l7.188-18.7h-1.107l-7.688,18.7Z" transform="translate(-428.195 -213.718)" fill="#263238" stroke="#263238" stroke-miterlimit="10" stroke-width="1"/>
            </g>
            <g id="Group_4975" data-name="Group 4975">
              <path id="Path_11005" data-name="Path 11005" d="M391.407,232.358l-7.188-18.7h1.107l7.688,18.7Z" transform="translate(-384.219 -213.659)" fill="#263238" stroke="#263238" stroke-miterlimit="10" stroke-width="1"/>
            </g>
            <path id="Path_11006" data-name="Path 11006" d="M393.126,235.933l.369.835h1.07l-.341-.835Z" transform="translate(-385.648 -217.234)" fill="#263238" stroke="#263238" stroke-miterlimit="10" stroke-width="1"/>
            <path id="Path_11007" data-name="Path 11007" d="M429.512,235.933l-.369.835h-1.07l.341-.835Z" transform="translate(-391.257 -217.234)" fill="#263238" stroke="#263238" stroke-miterlimit="10" stroke-width="1"/>
          </g>
          <g id="Group_4981" data-name="Group 4981" transform="translate(4.024 17.925)">
            <g id="Group_4978" data-name="Group 4978">
              <g id="Group_4977" data-name="Group 4977" transform="translate(1.6 6.5)">
                <rect id="Rectangle_689" data-name="Rectangle 689" width="4.446" height="2.769" fill="#fff" stroke="#263238" stroke-miterlimit="10" stroke-width="1"/>
                <rect id="Rectangle_690" data-name="Rectangle 690" width="4.445" height="2.769" transform="translate(30.153)" fill="#fff" stroke="#263238" stroke-miterlimit="10" stroke-width="1"/>
              </g>
              <path id="Path_11008" data-name="Path 11008" d="M426.765,242.738l-9.659,1.045a85.65,85.65,0,0,1-18.434,0l-9.659-1.045v-5.994l7.844-1.019a85.671,85.671,0,0,1,22.065,0l7.844,1.019Z" transform="translate(-389.012 -235.011)" fill="#263238" stroke="#263238" stroke-miterlimit="10" stroke-width="1"/>
            </g>
            <g id="Group_4979" data-name="Group 4979" transform="translate(2.033 3.11)">
              <path id="Path_11009" data-name="Path 11009" d="M395.013,240.505a1.789,1.789,0,1,1-1.79-1.789A1.79,1.79,0,0,1,395.013,240.505Z" transform="translate(-391.434 -238.716)" fill="#fff" stroke="#263238" stroke-miterlimit="10" stroke-width="1"/>
            </g>
            <g id="Group_4980" data-name="Group 4980" transform="translate(12.82 4.348)">
              <path id="Path_11010" data-name="Path 11010" d="M405.414,240.756a.565.565,0,1,1-.565-.566A.565.565,0,0,1,405.414,240.756Z" transform="translate(-404.283 -240.19)" fill="#fff"/>
              <path id="Path_11011" data-name="Path 11011" d="M410.218,240.756a.565.565,0,1,1-.566-.566A.566.566,0,0,1,410.218,240.756Z" transform="translate(-405.054 -240.19)" fill="#fff"/>
              <path id="Path_11012" data-name="Path 11012" d="M415.022,240.756a.566.566,0,1,1-.566-.566A.566.566,0,0,1,415.022,240.756Z" transform="translate(-405.825 -240.19)" fill="#fff"/>
              <path id="Path_11013" data-name="Path 11013" d="M419.826,240.756a.566.566,0,1,1-.566-.566A.566.566,0,0,1,419.826,240.756Z" transform="translate(-406.596 -240.19)" fill="#fff"/>
            </g>
          </g>
        </g>
        <g id="Group_4983" data-name="Group 4983" transform="translate(223.357 2.802)">
          <path id="Path_11014" data-name="Path 11014" d="M365.906,246.295h3.244a.913.913,0,0,1-.153-.315A27.821,27.821,0,0,1,365.906,246.295Z" transform="translate(-353.41 -221.649)" fill="none" stroke="#263238" stroke-miterlimit="10" stroke-width="1"/>
          <path id="Path_11015" data-name="Path 11015" d="M365.906,246.295h3.244a.913.913,0,0,1-.153-.315A27.821,27.821,0,0,1,365.906,246.295Z" transform="translate(-353.41 -221.649)" fill="none" stroke="#263238" stroke-miterlimit="10" stroke-width="1" opacity="0.3"/>
          <path id="Path_11016" data-name="Path 11016" d="M371.709,243.495c.036.113.2.124.278.219.313.381-.123,1.292-.25,1.535h4.373l-3.352-5.783C372.312,241.151,371.444,242.658,371.709,243.495Z" transform="translate(-354.334 -220.603)" fill="none" stroke="#263238" stroke-miterlimit="10" stroke-width="1"/>
          <path id="Path_11017" data-name="Path 11017" d="M371.709,243.495c.036.113.2.124.278.219.313.381-.123,1.292-.25,1.535h4.373l-3.352-5.783C372.312,241.151,371.444,242.658,371.709,243.495Z" transform="translate(-354.334 -220.603)" fill="none" stroke="#263238" stroke-miterlimit="10" stroke-width="1" opacity="0.3"/>
          <path id="Path_11018" data-name="Path 11018" d="M368.674,240.108c-.077-.095-.242-.106-.278-.219-.264-.837.6-2.344,1.049-4.028.06-.222.112-.447.153-.676.347-1.949-.165-3.757.471-4.7.254-.379.749-.567.829-1.018s-.348-.641-.467-1.02c-.3-.949.855-2.754,1.2-4.7s-.165-3.759.471-4.7c.076-.113.244-.124.355-.218.52-.441.285-1.6.285-1.6s-1.08-.443-1.6,0c-.131.111-.174.3-.317.376-1.329.662-3.821-.431-6.733-.435s-5.792,1.081-6.885.415c-.117-.071-.091-.265-.182-.377-.364-.442-1.6,0-1.6,0s-.648,1.158-.285,1.6c.077.094.242.1.278.218.3.948-.855,2.754-1.2,4.7s.165,3.758-.471,4.7c-.254.379-.749.568-.829,1.018s.348.641.467,1.021c.3.948-.855,2.753-1.2,4.7s.165,3.758-.471,4.705c-.076.112-.244.123-.355.217-.521.442-.285,1.6-.285,1.6s1.08.443,1.6,0a1.452,1.452,0,0,0,.316-.376,41.662,41.662,0,0,0,6.733.435c1.371,0,2.66-.035,3.794-.1a27.794,27.794,0,0,0,3.091-.315.914.914,0,0,0,.153.315c.013.019.014.044.029.062.364.443,1.6,0,1.6,0l.034-.065C368.551,241.4,368.987,240.489,368.674,240.108Zm-8.473-.886h0a5.271,5.271,0,0,1-5.309-6.468L356,226.506a8.039,8.039,0,0,1,7.605-6.45,5.271,5.271,0,0,1,5.308,6.468l-1.11,6.248A8.039,8.039,0,0,1,360.2,239.221Z" transform="translate(-351.022 -216.997)" fill="none" stroke="#263238" stroke-miterlimit="10" stroke-width="1"/>
          <path id="Path_11019" data-name="Path 11019" d="M368.527,233.357l1.11-6.248a5.271,5.271,0,0,0-5.308-6.468,8.039,8.039,0,0,0-7.605,6.45l-1.111,6.248a5.271,5.271,0,0,0,5.309,6.468h0A8.039,8.039,0,0,0,368.527,233.357Z" transform="translate(-351.742 -217.582)" fill="none" stroke="#263238" stroke-miterlimit="10" stroke-width="1"/>
        </g>
      </g>
    </g>
    <g id="Download" transform="translate(97.572)">
      <g id="Group_4998" data-name="Group 4998">
        <g id="Group_4985" data-name="Group 4985">
          <path id="Path_11020" data-name="Path 11020" d="M172.974,92.154a11.821,11.821,0,0,1-11.093,11.8c-.241.015-31.707.012-32.005-.011a11.819,11.819,0,0,1-.157-23.556,16.913,16.913,0,0,1,33.781.183A11.821,11.821,0,0,1,172.974,92.154Z" transform="translate(-118.962 -64.419)" fill="#fff" stroke="#263238" stroke-miterlimit="10" stroke-width="1"/>
          <path id="Path_11021" data-name="Path 11021" d="M147.349,77.536A15.113,15.113,0,0,1,161.273,68.3" transform="translate(-132.859 -66.318)" fill="none" stroke="#263238" stroke-linecap="round" stroke-linejoin="round" stroke-width="1"/>
          <path id="Path_11022" data-name="Path 11022" d="M145.078,93.737a15.069,15.069,0,0,1,.373-2.6" transform="translate(-131.747 -77.497)" fill="none" stroke="#263238" stroke-linecap="round" stroke-linejoin="round" stroke-width="1"/>
        </g>
        <g id="Group_4989" data-name="Group 4989" transform="translate(10.694 25.806)">
          <g id="Group_4988" data-name="Group 4988" transform="translate(0 17.083)">
            <g id="Group_4987" data-name="Group 4987">
              <g id="Group_4986" data-name="Group 4986" transform="translate(0 4.198)">
                <path id="Path_11023" data-name="Path 11023" d="M172.994,254.764c.777,1.764,1.571,3.495,2.38,5.175" transform="translate(-156.106 -204.687)" fill="none" stroke="#263238" stroke-linecap="round" stroke-linejoin="round" stroke-width="1"/>
                <path id="Path_11024" data-name="Path 11024" d="M139.911,156.663a393.05,393.05,0,0,0,14.852,45.286" transform="translate(-139.911 -156.663)" fill="none" stroke="#263238" stroke-linecap="round" stroke-linejoin="round" stroke-width="1"/>
              </g>
              <path id="Path_11025" data-name="Path 11025" d="M207.285,191.654c.039.916.031,1.6.088,2.416" transform="translate(-172.893 -169.595)" fill="none" stroke="#263238" stroke-linecap="round" stroke-linejoin="round" stroke-width="1"/>
              <path id="Path_11026" data-name="Path 11026" d="M207.068,148.44c-.044.431-.38,11.107-.132,19.715" transform="translate(-172.678 -148.44)" fill="none" stroke="#263238" stroke-linecap="round" stroke-linejoin="round" stroke-width="1"/>
            </g>
          </g>
          <path id="Path_11027" data-name="Path 11027" d="M192.72,202.855l-10.866,16.564-20.819-15.391,10.373-.384-.662-1.616a349.645,349.645,0,0,1-21.367-74.537L147.3,115.235l25.559-.261-.124,3.86a349.507,349.507,0,0,0,10.216,84.382Z" transform="translate(-143.527 -114.974)" fill="#b5b0ff" stroke="#263238" stroke-miterlimit="10" stroke-width="1"/>
        </g>
        <g id="Group_4990" data-name="Group 4990" transform="translate(20.31 26.785)">
          <path id="Path_11028" data-name="Path 11028" d="M164.31,116.891H173.8l.03,3.343a183.71,183.71,0,0,0,1.209,19.492h0l-14.315.713-.744-4.243A83.646,83.646,0,0,1,158.75,123.7h0l5.562-6.8" transform="translate(-158.75 -116.891)" fill="#fff" stroke="#263238" stroke-linecap="round" stroke-linejoin="round" stroke-width="1"/>
          <path id="Path_11029" data-name="Path 11029" d="M164.98,123.584l-6.124.087,5.508-6.747Z" transform="translate(-158.802 -116.907)" fill="#fff" stroke="#263238" stroke-linecap="round" stroke-linejoin="round" stroke-width="1"/>
        </g>
        <g id="Path_11030" data-name="Path 11030" transform="translate(-155.316 -159.139)" fill="#fff" stroke-miterlimit="10">
          <path d="M 197.0719451904297 281.7853088378906 C 195.9126434326172 281.7853088378906 194.9631805419922 281.4066467285156 194.8882904052734 281.3760070800781 C 194.7841644287109 281.3338928222656 193.3426666259766 280.7227783203125 192.8713073730469 279.0310363769531 L 192.8705902099609 279.0285339355469 L 192.8699188232422 279.0260009765625 C 192.83935546875 278.9116516113281 192.8125152587891 278.8066711425781 192.7947998046875 278.6853332519531 C 192.6496734619141 277.9215393066406 192.7286834716797 277.0608215332031 193.0297088623047 276.1268310546875 C 193.5599975585938 274.4877014160156 194.8458251953125 273.62158203125 196.7483520507813 273.62158203125 C 197.2499237060547 273.62158203125 197.7826995849609 273.6818542480469 198.3364410400391 273.8009338378906 L 192.9093322753906 258.3583374023438 L 192.9049987792969 258.3460388183594 L 192.9013214111328 258.33349609375 C 192.835205078125 258.1084289550781 192.8705291748047 257.8765869140625 192.9982299804688 257.6973571777344 C 193.1217651367188 257.5239868164063 193.3193664550781 257.4186401367188 193.5403594970703 257.4082641601563 C 193.5525360107422 257.4076843261719 193.5651550292969 257.4073791503906 193.5778198242188 257.4073791503906 C 193.9284515380859 257.4073791503906 194.2642974853516 257.6423645019531 194.39453125 257.9788208007813 L 194.3970794677734 257.9854431152344 L 194.3994598388672 257.9921264648438 L 194.5195922851563 258.3307189941406 C 195.3272857666016 259.2491455078125 196.4270629882813 259.9002990722656 197.5505523681641 260.1226806640625 C 198.7244567871094 260.3505554199219 199.8899078369141 260.9639282226563 200.8304290771484 261.8493957519531 C 201.4036865234375 262.3797302246094 201.8362884521484 263.0484619140625 202.0463409423828 263.7306213378906 L 203.4773101806641 267.7867126464844 L 203.4784698486328 267.7900390625 L 203.4795989990234 267.7933959960938 C 203.5397033691406 267.9717407226563 203.5270843505859 268.1582336425781 203.4440612792969 268.3184814453125 C 203.3637390136719 268.4735107421875 203.2265472412109 268.5866088867188 203.0577697753906 268.6369323730469 L 202.9358520507813 268.6732788085938 L 202.8113861083984 268.6469421386719 L 202.8025207519531 268.6450805664063 C 202.6205139160156 268.6324462890625 202.4387969970703 268.550537109375 202.2973175048828 268.4160461425781 L 202.2714385986328 268.3914489746094 L 202.2493286132813 268.3634033203125 C 201.4297485351563 267.3248291015625 200.2531127929688 266.5840759277344 199.0211334228516 266.3311157226563 C 198.4190826416016 266.2109985351563 197.8561096191406 265.98828125 197.2933807373047 265.6404418945313 L 200.7700805664063 275.540283203125 C 201.5692291259766 277.8424682617188 200.6160888671875 279.7992248535156 200.6058044433594 279.817138671875 C 199.8569183349609 281.1054992675781 198.6353759765625 281.7853088378906 197.0719451904297 281.7853088378906 Z" stroke="none"/>
          <path d="M 193.5778198242188 257.9073791503906 C 193.5731201171875 257.9073791503906 193.5684509277344 257.9075012207031 193.5637664794922 257.90771484375 C 193.4127044677734 257.914794921875 193.3371124267578 258.0429992675781 193.3810577392578 258.1925659179688 L 199.1211700439453 274.5258178710938 C 199.0573883056641 274.5012817382813 198.9859161376953 274.4767456054688 198.9016876220703 274.4533081054688 C 198.8853302001953 274.4471740722656 198.8624114990234 274.4415588378906 198.8394012451172 274.4359130859375 C 198.7571868896484 274.4190979003906 198.6632843017578 274.388916015625 198.5576324462891 274.3665161132813 C 198.0673522949219 274.2414855957031 197.4207458496094 274.1216125488281 196.7483520507813 274.1216125488281 C 195.4521026611328 274.1216125488281 194.0598449707031 274.5670776367188 193.5055999755859 276.2802124023438 C 193.2028961181641 277.2194213867188 193.1676788330078 277.9805297851563 193.2881011962891 278.6028747558594 C 193.3024139404297 278.7059326171875 193.3274383544922 278.8013916015625 193.3529510498047 278.8968505859375 C 193.7705230712891 280.3955383300781 195.0762786865234 280.9126892089844 195.0762786865234 280.9126892089844 C 195.0762786865234 280.9126892089844 195.9753875732422 281.2853088378906 197.0719451904297 281.2853088378906 C 198.1319122314453 281.2853088378906 199.3763580322266 280.9372863769531 200.1722259521484 279.568115234375 C 200.2059173583984 279.5094604492188 201.0083465576172 277.7513732910156 200.2983245849609 275.7059631347656 L 196.2477874755859 264.1720886230469 C 197.1288299560547 265.0204772949219 198.0063629150391 265.6187744140625 199.1216888427734 265.8413391113281 C 200.4565582275391 266.1154174804688 201.7495269775391 266.9229125976563 202.6418304443359 268.0536804199219 C 202.7013549804688 268.1102600097656 202.7790832519531 268.1467895507813 202.8517761230469 268.1467895507813 C 202.8551483154297 268.1467895507813 202.8584899902344 268.1466979980469 202.8618316650391 268.1465454101563 L 202.9149017333984 268.1577758789063 C 202.9971160888672 268.1332702636719 203.0379486083984 268.0485229492188 203.0057830810547 267.9530639648438 L 201.5713958740234 263.8872375488281 C 201.3871307373047 263.2818603515625 201.0057830810547 262.6927795410156 200.4876861572266 262.2134399414063 C 199.6158294677734 261.3926086425781 198.5367279052734 260.8234558105469 197.4534759521484 260.6131591796875 C 196.1895904541016 260.3630065917969 194.9609222412109 259.621337890625 194.0798492431641 258.5866394042969 L 193.9282379150391 258.1593017578125 C 193.8723602294922 258.0149536132813 193.7239532470703 257.9073791503906 193.5778198242188 257.9073791503906 M 193.5778198242188 256.9073791503906 C 194.1389465332031 256.9073791503906 194.654541015625 257.2654113769531 194.8608093261719 257.79833984375 L 194.8659362792969 257.8115539550781 L 194.8706665039063 257.8249206542969 L 194.9578704833984 258.0706787109375 C 195.6875305175781 258.8708801269531 196.6587677001953 259.4364624023438 197.6476287841797 259.6321716308594 C 198.909912109375 259.8772277832031 200.1618194580078 260.5343933105469 201.169677734375 261.4820861816406 C 201.8149566650391 262.0799560546875 202.2819061279297 262.802734375 202.5212554931641 263.5739440917969 L 203.9488067626953 267.620361328125 L 203.9511871337891 267.6270751953125 L 203.9534606933594 267.6338195800781 C 204.0572509765625 267.94189453125 204.0339965820313 268.2667541503906 203.8879852294922 268.5485534667969 C 203.7446899414063 268.8251037597656 203.5005798339844 269.0266723632813 203.2006072998047 269.1160888671875 L 202.956787109375 269.1887817382813 L 202.7279052734375 269.1403503417969 C 202.4447479248047 269.1110534667969 202.1677398681641 268.9827575683594 201.9527893066406 268.7783813476563 L 201.9010467529297 268.7291870117188 L 201.8568115234375 268.6731567382813 C 201.1209716796875 267.7406616210938 200.02490234375 267.0487365722656 198.92431640625 266.8216552734375 C 198.6575775146484 266.7683410644531 198.4046325683594 266.6973571777344 198.1647186279297 266.6125793457031 L 201.2418365478516 275.3746032714844 C 202.0214996337891 277.6206359863281 201.2804412841797 279.6464233398438 201.0393829345703 280.0661315917969 L 201.0380859375 280.0684204101563 L 201.0367736816406 280.0706481933594 C 200.1946105957031 281.5195007324219 198.8235778808594 282.2853088378906 197.0719451904297 282.2853088378906 C 195.8416290283203 282.2853088378906 194.8506622314453 281.9006958007813 194.7024536132813 281.8402099609375 C 194.0446166992188 281.5775756835938 192.8232879638672 280.7215881347656 192.3896484375 279.1652526855469 L 192.3882446289063 279.1601867675781 L 192.3868865966797 279.1551513671875 C 192.3606262207031 279.0569152832031 192.3251953125 278.9244079589844 192.3016815185547 278.7684936523438 C 192.1433258056641 277.9241638183594 192.2281188964844 276.9839782714844 192.5538177490234 275.9734497070313 C 193.1489105224609 274.134033203125 194.638427734375 273.12158203125 196.7483520507813 273.12158203125 C 197.0196685791016 273.12158203125 197.2990264892578 273.137939453125 197.5848999023438 273.1704711914063 L 192.4376220703125 258.5241394042969 L 192.4289703369141 258.4994812011719 L 192.4216003417969 258.4744262695313 C 192.3119506835938 258.1011962890625 192.3737030029297 257.7121887207031 192.5910186767578 257.4071960449219 C 192.80419921875 257.1080627441406 193.1416778564453 256.9263916015625 193.5169372558594 256.9088134765625 C 193.5372161865234 256.9078674316406 193.5574645996094 256.9073791503906 193.5778198242188 256.9073791503906 Z" stroke="none" fill="#263238"/>
        </g>
        <g id="Group_4993" data-name="Group 4993" transform="translate(11.877 54.752)">
          <g id="Group_4992" data-name="Group 4992" transform="translate(0 0)">
            <path id="Path_11031" data-name="Path 11031" d="M147.856,197.408l13.853-2.99q-2.58-11.267-4.119-22.739l-15.36,3.315Q144.527,186.322,147.856,197.408Z" transform="translate(-142.23 -171.679)" fill="#fff" stroke="#263238" stroke-linecap="round" stroke-linejoin="round" stroke-width="1"/>
            <path id="Path_11032" data-name="Path 11032" d="M161.75,195.062,150.5,197.49c-1.3-4.824-1.9-7.251-2.957-12.127l11.895-2.567C160.242,187.728,160.7,190.182,161.75,195.062Z" transform="translate(-144.831 -177.121)" fill="#263238" stroke="#263238" stroke-linecap="round" stroke-linejoin="round" stroke-width="1"/>
            <g id="Group_4991" data-name="Group 4991" transform="translate(5.667 8.068)">
              <path id="Path_11033" data-name="Path 11033" d="M164,196.05c-.854,2.8-1.265,4.195-2.055,6.98l6.832-1.474C166.837,199.36,165.881,198.259,164,196.05Z" transform="translate(-157.549 -191.678)" fill="#fff" stroke="#263238" stroke-linecap="round" stroke-linejoin="round" stroke-width="1"/>
              <path id="Path_11034" data-name="Path 11034" d="M155.721,194.841c-1,3.429-1.481,5.138-2.389,8.546l8.339-1.8C159.244,198.9,158.053,197.55,155.721,194.841Z" transform="translate(-153.332 -191.086)" fill="#fff" stroke="#263238" stroke-linecap="round" stroke-linejoin="round" stroke-width="1"/>
              <path id="Path_11035" data-name="Path 11035" d="M167.975,188.505a1.259,1.259,0,0,1-.918,1.477,1.179,1.179,0,0,1-1.381-.981,1.265,1.265,0,0,1,.921-1.492A1.174,1.174,0,0,1,167.975,188.505Z" transform="translate(-159.363 -187.485)" fill="#fff" stroke="#263238" stroke-linecap="round" stroke-linejoin="round" stroke-width="1"/>
            </g>
          </g>
        </g>
        <g id="Group_4997" data-name="Group 4997" transform="translate(34.117 69.958)">
          <g id="Group_4996" data-name="Group 4996">
            <g id="Group_4994" data-name="Group 4994">
              <path id="Path_11036" data-name="Path 11036" d="M188.792,226.569l15.734,1.2a58.9,58.9,0,0,1-3.137-22.6l-15.339-3.7A64.989,64.989,0,0,0,188.792,226.569Z" transform="translate(-185.798 -201.467)" fill="#fff" stroke="#263238" stroke-linecap="round" stroke-linejoin="round" stroke-width="1"/>
            </g>
            <g id="Group_4995" data-name="Group 4995" transform="translate(1.963 7.265)">
              <path id="Path_11037" data-name="Path 11037" d="M202.1,223.276c.467,3.423-1.62,5.844-5.063,5.452a8.93,8.93,0,0,1-7.349-7.413c-.42-3.72,2.353-6.19,5.749-5.5A9.077,9.077,0,0,1,202.1,223.276Z" transform="translate(-189.644 -215.699)" fill="#263238" stroke="#263238" stroke-linecap="round" stroke-linejoin="round" stroke-width="1"/>
              <path id="Path_11038" data-name="Path 11038" d="M203.081,225.472c-2.489-1.722-3.711-2.612-6.1-4.445a52.2,52.2,0,0,0,.846,7.051C199.895,226.986,200.947,226.464,203.081,225.472Z" transform="translate(-193.235 -218.307)" fill="#fff" stroke="#263238" stroke-linecap="round" stroke-linejoin="round" stroke-width="1"/>
            </g>
          </g>
        </g>
      </g>
    </g>
    <g id="Character" transform="translate(124.144 23.151)">
      <g id="Group_5026" data-name="Group 5026">
        <path id="Path_11039" data-name="Path 11039" d="M205.538,370.047c13.171-6.243,62.763,10.1,62.763,10.1l-3.131,6.863S188.517,378.113,205.538,370.047Z" transform="translate(-197.636 -220.353)" fill="#263238" stroke="#263238" stroke-linecap="round" stroke-linejoin="round" stroke-width="1"/>
        <path id="Path_11040" data-name="Path 11040" d="M264.019,387.636a111.8,111.8,0,0,1-12.776-5.213c-13.264-6.514-39.295-17.894-48.787-12.07-12.965,7.953-4.317,29.924,24.994,44.439,29.4,14.56,51.114,14.739,58.105,7.938C291.935,416.523,280.264,393.257,264.019,387.636Z" transform="translate(-196.597 -220.372)" fill="#263238" stroke="#263238" stroke-linecap="round" stroke-linejoin="round" stroke-width="1"/>
        <g id="_Group_" data-name="&lt;Group&gt;" transform="translate(72.743 17.037)">
          <path id="Path_11041" data-name="Path 11041" d="M284.39,217.944s-1.383,4.962-.829,6.7,2.656,3.8,2.231,5.885-2.74,4.55-2.532,6.178,2.952,2.414,2.952,2.414,3.885,7.491,4.993,10.069,1.974,1.845,4.548,1.656,8.7-3.649,12.363-6.517.918-14.472-4-22.889-14.562-10.218-17.06-8.6S284.39,217.944,284.39,217.944Z" transform="translate(-283.246 -212.301)" fill="#fff"/>
          <g id="Group_5002" data-name="Group 5002">
            <g id="Group_5001" data-name="Group 5001" clip-path="url(#clip-path)">
              <g id="Group_5000" data-name="Group 5000" transform="translate(3.433 3.594)">
                <g id="Group_4999" data-name="Group 4999" transform="translate(9.655)">
                  <path id="Path_11042" data-name="Path 11042" d="M301.654,216.582c-1.608,3.759-3.791,10.336-2.311,15.392,2.225,7.611,4.3,11.788,1.138,17.019-.563.908-1.122,1.734-1.645,2.445,2.817-.579,8.374-3.756,11.782-6.421,3.654-2.871.918-14.472-4-22.889A18.783,18.783,0,0,0,301.654,216.582Z" transform="translate(-298.836 -216.582)" fill="#b5b0ff"/>
                  <path id="Path_11043" data-name="Path 11043" d="M301.654,216.582c-1.608,3.759-3.791,10.336-2.311,15.392,2.225,7.611,4.3,11.788,1.138,17.019-.563.908-1.122,1.734-1.645,2.445,2.817-.579,8.374-3.756,11.782-6.421,3.654-2.871.918-14.472-4-22.889A18.783,18.783,0,0,0,301.654,216.582Z" transform="translate(-298.836 -216.582)" fill="#fff" opacity="0.5" style="isolation: isolate"/>
                </g>
                <path id="Path_11044" data-name="Path 11044" d="M287.335,228.612s.535-2.61,3.309-.233" transform="translate(-287.335 -218.315)" fill="none" stroke="#263238" stroke-linecap="round" stroke-linejoin="round" stroke-width="1"/>
                <path id="Path_11045" data-name="Path 11045" d="M289.708,233.866c.271.886.152,1.708-.271,1.835s-.973-.487-1.244-1.373-.152-1.7.263-1.826S289.437,232.98,289.708,233.866Z" transform="translate(-287.449 -219.134)" fill="#263238"/>
              </g>
            </g>
          </g>
          <path id="Path_11047" data-name="Path 11047" d="M284.39,217.944s-1.383,4.962-.829,6.7,2.656,3.8,2.231,5.885-2.74,4.55-2.532,6.178,2.952,2.414,2.952,2.414,3.885,7.491,4.993,10.069,1.974,1.845,4.548,1.656,8.7-3.649,12.363-6.517.918-14.472-4-22.889-14.562-10.218-17.06-8.6S284.39,217.944,284.39,217.944Z" transform="translate(-283.246 -212.301)" fill="none" stroke="#263238" stroke-linecap="round" stroke-linejoin="round" stroke-width="1"/>
        </g>
        <g id="Group_5004" data-name="Group 5004" transform="translate(49.613 69.857)">
          <path id="Path_11048" data-name="Path 11048" d="M281.777,352.418s-5.163-4.8-6.738-4.928-3.832.674-4.422.625-1.937-.557-2.97-.047a9.559,9.559,0,0,0-2.117,1.627,24.1,24.1,0,0,0-3.093,1.33c-1.656.854-5.773,5.073-6.446,6.018s-.13,1.575.9,1.065,6.656-4.215,6.656-4.215,4.736,2.771,5.817,4.086a10.692,10.692,0,0,0,5.076,3.556,31.657,31.657,0,0,0,5.867,1.081s3.889-3.445,3.492-6.262A5.651,5.651,0,0,0,281.777,352.418Z" transform="translate(-255.694 -286.815)" fill="#fff" stroke="#263238" stroke-linecap="round" stroke-linejoin="round" stroke-width="1"/>
          <g id="Group_5003" data-name="Group 5003" transform="translate(19.839)">
            <path id="Path_11049" data-name="Path 11049" d="M321.527,275.219a25.792,25.792,0,0,0-3.888,2.156c-2.286,1.537-4.535,4.879-5.317,12.079s-.7,24.252-.782,31.493c-.192,16.776-22.235,16.633-26.085,18.12s-7.454,5.716-5.649,9.427c1.6,3.3,6.093,3.628,9.753,3.447,4.91-.243,30.217-1.59,33.941-4.578,5.431-4.355,4.17-10.37,4.886-17.295,2.168-20.973,2.459-42.678,2.459-42.678a12.35,12.35,0,0,0-9.318-12.17Z" transform="translate(-279.326 -275.219)" fill="#fff" stroke="#263238" stroke-linecap="round" stroke-linejoin="round" stroke-width="1"/>
          </g>
        </g>
        <g id="Group_5007" data-name="Group 5007" transform="translate(91.988 43.213)">
          <path id="Path_11050" data-name="Path 11050" d="M306.171,254.291s3.7,1.138,3.128,4.265-1.138,5.971-1.138,5.971,20.187.568,19.9-.569-5.971-20.471-5.971-20.471S311.289,242.918,306.171,254.291Z" transform="translate(-306.171 -243.481)" fill="#fff"/>
          <g id="Group_5006" data-name="Group 5006" clip-path="url(#clip-path-2)">
            <g id="Group_5005" data-name="Group 5005" transform="translate(2.874 8.523)">
              <path id="Path_11051" data-name="Path 11051" d="M324.705,253.634l-14.857,6.551-.254,1.528s12.418-1.645,16.009-5.087l-.9-2.992" transform="translate(-309.594 -253.634)" fill="#b5b0ff"/>
              <path id="Path_11052" data-name="Path 11052" d="M324.705,253.634l-14.857,6.551-.254,1.528s12.418-1.645,16.009-5.087l-.9-2.992" transform="translate(-309.594 -253.634)" fill="#fff" opacity="0.5" style="isolation: isolate"/>
            </g>
          </g>
          <path id="Path_11054" data-name="Path 11054" d="M306.171,254.291s3.7,1.138,3.128,4.265-1.138,5.971-1.138,5.971,20.187.568,19.9-.569-5.971-20.471-5.971-20.471S311.289,242.918,306.171,254.291Z" transform="translate(-306.171 -243.481)" fill="none" stroke="#263238" stroke-linecap="round" stroke-linejoin="round" stroke-width="1"/>
        </g>
        <g id="Group_5011" data-name="Group 5011" transform="translate(32.769 59.613)">
          <path id="Path_11055" data-name="Path 11055" d="M276.085,271.074c-5.909,3.713-4.137,7.774-2.715,14.817,3.207,15.875,7.5,46.548,5.859,54.273-1.919,9.032-7.3,14.786-14.691,14.786-3.436,0-4.241,3.3-7.961,1.706-7.962-3.412-13.954-.918-16.776,1.422-11.657,9.667,3.075,43.817,20.188,52.032,15.272,7.331,31.656,2.556,39.724-.744,2.888-1.181,5.946-.621,8.97.144,15.848,4.011,28.642-9.637,30.065-21.863,2.184-18.776-3.7-19.619-6.651-40.375a51.1,51.1,0,0,1-.279-6.826c-.085-14.359,5.7-27.675,4.26-49.471-.567-8.586-1.922-19.608-7.677-22.746C304.275,255.072,276.276,270.954,276.085,271.074Z" transform="translate(-235.631 -263.016)" fill="#b5b0ff"/>
          <g id="Group_5010" data-name="Group 5010" clip-path="url(#clip-path-3)">
            <g id="Group_5009" data-name="Group 5009" transform="translate(0.376 21.343)">
              <path id="Path_11056" data-name="Path 11056" d="M299.789,318.559q-1.852,11.117-3.706,22.235c-.5,2.977-1.05,6.09-2.906,8.47s-5.458,3.691-7.978,2.03c-.233-3.328,2.616-5.926,4.686-8.542,5.572-7.04,6.254-16.663,6.5-25.637.229-8.3-.319-24.049,8.36-28.675C303.939,298.457,301.444,308.631,299.789,318.559Z" transform="translate(-243.96 -288.439)" opacity="0.2"/>
              <path id="Path_11057" data-name="Path 11057" d="M306.387,365.519l.393.5a4.8,4.8,0,0,1-3.129,1.311,4.552,4.552,0,0,0-3.092,1.373c-.689.931-.162,2.669.993,2.578-1.472.116-12.433-.293-10.59-3.921C291.916,365.485,304.109,365.735,306.387,365.519Z" transform="translate(-244.854 -300.809)" opacity="0.2"/>
              <path id="Path_11058" data-name="Path 11058" d="M281.471,386.759c.576.5,1.2,1.3.784,1.942s-1.42.381-2.088,0a14.717,14.717,0,0,1-6.813-8.226C275.946,380.51,279.5,385.032,281.471,386.759Z" transform="translate(-242.061 -303.209)" opacity="0.2"/>
              <path id="Path_11059" data-name="Path 11059" d="M269.181,384.653a11.535,11.535,0,0,0,1.713,5.966l-3.22-4.3a42.582,42.582,0,0,0,17.338,18.794,14.011,14.011,0,0,1-6.5-8.324c.328,1.18,3.1-.174,2.628-1.753-.413-1.392-2.284-.947-3.392-1.42C273.985,392.01,271.372,387.905,269.181,384.653Z" transform="translate(-241.15 -303.88)" opacity="0.2"/>
              <g id="Group_5008" data-name="Group 5008" transform="translate(0 86.209)" opacity="0.2">
                <path id="Path_11060" data-name="Path 11060" d="M236.079,391.129c7.433,13.627,21.157,23.959,34.094,32.536,15.354,10.179,30.465,4.643,44.379,1.8-2.992,1.795-2.261,3.284.748,3.889,4.732-.09,8.961-2.659,12.718-5.536s6.882-7.181,10.773-14.513c-1.8,11.745-15.859,23.789-27.978,21.246-4.209-.883-7.705-1.272-10.459-.451-3.243.967-3.965,1.176-9.889,2.845-10.622,2.992-25.725,2.75-35.6-5.134a48.064,48.064,0,0,1-13.775-18.384,64.888,64.888,0,0,1-4.987-18.107Z" transform="translate(-236.079 -391.129)"/>
              </g>
              <path id="Path_11061" data-name="Path 11061" d="M351.126,331.757c-.058,5.081-1.3,10.079-1.571,15.153.226-4.257-1.049-8.871-1.032-13.214.013-3.25-.617-10,1.383-12.638A36.082,36.082,0,0,1,351.126,331.757Z" transform="translate(-254.112 -293.674)" opacity="0.2"/>
            </g>
          </g>
          <path id="Path_11063" data-name="Path 11063" d="M276.085,271.074c-5.909,3.713-4.137,7.774-2.715,14.817,3.207,15.875,7.5,46.548,5.859,54.273-1.919,9.032-7.3,14.786-14.691,14.786-3.436,0-4.241,3.3-7.961,1.706-7.962-3.412-13.954-.918-16.776,1.422-11.657,9.667,3.075,43.817,20.188,52.032,15.272,7.331,31.656,2.556,39.724-.744,2.888-1.181,5.946-.621,8.97.144,15.848,4.011,28.642-9.637,30.065-21.863,2.184-18.776-3.7-19.619-6.651-40.375a51.1,51.1,0,0,1-.279-6.826c-.085-14.359,5.7-27.675,4.26-49.471-.567-8.586-1.922-19.608-7.677-22.746C304.275,255.072,276.276,270.954,276.085,271.074Z" transform="translate(-235.631 -263.016)" fill="none" stroke="#263238" stroke-linecap="round" stroke-linejoin="round" stroke-width="1"/>
        </g>
        <g id="Group_5018" data-name="Group 5018" transform="translate(18.7 66.747)">
          <g id="Group_5014" data-name="Group 5014" transform="translate(0 64.456)">
            <path id="Path_11064" data-name="Path 11064" d="M243.6,351.951s-5.931-3.806-7.505-3.655-3.651,1.342-4.241,1.4-2-.2-2.931.48a9.593,9.593,0,0,0-1.8,1.976,24.2,24.2,0,0,0-2.808,1.857c-1.478,1.134-4.782,6.016-5.276,7.065s.151,1.573,1.078.889c.684-.505,3.522-3.17,4.96-4.529a1.85,1.85,0,0,1,1.947-.38,26.987,26.987,0,0,1,5.346,2.571,10.7,10.7,0,0,0,5.626,2.6,31.755,31.755,0,0,0,5.966.023s3.217-4.079,2.326-6.782A5.65,5.65,0,0,0,243.6,351.951Z" transform="translate(-218.872 -348.292)" fill="#fff"/>
            <g id="Group_5013" data-name="Group 5013" clip-path="url(#clip-path-4)">
              <g id="Group_5012" data-name="Group 5012" transform="translate(0.638 -30.396)">
                <path id="Path_11065" data-name="Path 11065" d="M282.129,328.363c-2.184,5.81-5.6,11.313-10.579,15.013-3.727,2.767-8.153,4.409-12.552,5.893q-6.09,2.054-12.279,3.8c-1.319.371-2.85.7-3.964-.1a3.168,3.168,0,0,1-.988-3.3,9.3,9.3,0,0,1,1.73-3.192,6.437,6.437,0,0,0-4.282,4.039c-.359,1.044-.505,2.279-1.388,2.944a2.423,2.423,0,0,1-3.331-.827,3.949,3.949,0,0,1,0-3.7,11.667,11.667,0,0,1,2.37-3.026c-.956-.291-1.869.573-2.37,1.438s-.929,1.894-1.849,2.286c-1.124.481-2.362-.228-3.549-.517a6.748,6.748,0,0,0-6,1.889,15.615,15.615,0,0,0-3.462,5.514,7.481,7.481,0,0,1,12-2.719,13.339,13.339,0,0,0,2.523,2.274,6.86,6.86,0,0,0,3.241.543,111.177,111.177,0,0,0,32.447-4.871c4.479-1.373,9.137-3.225,11.869-7.031,2.129-2.965,2.787-6.715,3.255-10.336q.74-5.726,1.043-11.5c.181-3.456.671-7.369.1-10.789C284.891,317.571,284.119,323.063,282.129,328.363Z" transform="translate(-219.632 -312.085)" fill="#92e3a9" style="isolation: isolate"/>
                <path id="Path_11066" data-name="Path 11066" d="M282.129,328.363c-2.184,5.81-5.6,11.313-10.579,15.013-3.727,2.767-8.153,4.409-12.552,5.893q-6.09,2.054-12.279,3.8c-1.319.371-2.85.7-3.964-.1a3.168,3.168,0,0,1-.988-3.3,9.3,9.3,0,0,1,1.73-3.192,6.437,6.437,0,0,0-4.282,4.039c-.359,1.044-.505,2.279-1.388,2.944a2.423,2.423,0,0,1-3.331-.827,3.949,3.949,0,0,1,0-3.7,11.667,11.667,0,0,1,2.37-3.026c-.956-.291-1.869.573-2.37,1.438s-.929,1.894-1.849,2.286c-1.124.481-2.362-.228-3.549-.517a6.748,6.748,0,0,0-6,1.889,15.615,15.615,0,0,0-3.462,5.514,7.481,7.481,0,0,1,12-2.719,13.339,13.339,0,0,0,2.523,2.274,6.86,6.86,0,0,0,3.241.543,111.177,111.177,0,0,0,32.447-4.871c4.479-1.373,9.137-3.225,11.869-7.031,2.129-2.965,2.787-6.715,3.255-10.336q.74-5.726,1.043-11.5c.181-3.456.671-7.369.1-10.789C284.891,317.571,284.119,323.063,282.129,328.363Z" transform="translate(-219.632 -312.085)" fill="#fff" opacity="0.5" style="isolation: isolate"/>
              </g>
            </g>
            <path id="Path_11068" data-name="Path 11068" d="M243.6,351.951s-5.931-3.806-7.505-3.655-3.651,1.342-4.241,1.4-2-.2-2.931.48a9.593,9.593,0,0,0-1.8,1.976,24.2,24.2,0,0,0-2.808,1.857c-1.478,1.134-4.782,6.016-5.276,7.065s.151,1.573,1.078.889c.684-.505,3.522-3.17,4.96-4.529a1.85,1.85,0,0,1,1.947-.38,26.987,26.987,0,0,1,5.346,2.571,10.7,10.7,0,0,0,5.626,2.6,31.755,31.755,0,0,0,5.966.023s3.217-4.079,2.326-6.782A5.65,5.65,0,0,0,243.6,351.951Z" transform="translate(-218.872 -348.292)" fill="none" stroke="#263238" stroke-linecap="round" stroke-linejoin="round" stroke-width="1"/>
          </g>
          <g id="Group_5017" data-name="Group 5017" transform="translate(19.597)">
            <path id="Path_11069" data-name="Path 11069" d="M289.857,289.308c-.381-5.715-5.673-16.851-11.322-17.793a25.675,25.675,0,0,0-3.7,2.469c-2.152,1.721-2.8,5.147-2.989,12.386s1.137,23.884.284,39.238c-.015.284-21.417,11.848-25.132,13.647s-6.106,5.177-4,8.727c1.87,3.152,5.881,2.466,9.513,1.983,4.874-.646,27.733-5.413,31.845-9.667C292.605,331.767,289.857,289.308,289.857,289.308Z" transform="translate(-242.216 -271.514)" fill="#fff"/>
            <g id="Group_5016" data-name="Group 5016" clip-path="url(#clip-path-5)">
              <g id="Group_5015" data-name="Group 5015" transform="translate(-18.959 34.06)">
                <path id="Path_11070" data-name="Path 11070" d="M282.129,328.363c-2.184,5.81-5.6,11.313-10.579,15.013-3.727,2.767-8.153,4.409-12.552,5.893q-6.09,2.054-12.279,3.8c-1.319.371-2.85.7-3.964-.1a3.168,3.168,0,0,1-.988-3.3,9.3,9.3,0,0,1,1.73-3.192,6.437,6.437,0,0,0-4.282,4.039c-.359,1.044-.505,2.279-1.388,2.944a2.423,2.423,0,0,1-3.331-.827,3.949,3.949,0,0,1,0-3.7,11.667,11.667,0,0,1,2.37-3.026c-.956-.291-1.869.573-2.37,1.438s-.929,1.894-1.849,2.286c-1.124.481-2.362-.228-3.549-.517a6.748,6.748,0,0,0-6,1.889,15.615,15.615,0,0,0-3.462,5.514,7.481,7.481,0,0,1,12-2.719,13.339,13.339,0,0,0,2.523,2.274,6.86,6.86,0,0,0,3.241.543,111.177,111.177,0,0,0,32.447-4.871c4.479-1.373,9.137-3.225,11.869-7.031,2.129-2.965,2.787-6.715,3.255-10.336q.74-5.726,1.043-11.5c.181-3.456.671-7.369.1-10.789C284.891,317.571,284.119,323.063,282.129,328.363Z" transform="translate(-219.632 -312.085)" fill="#b5b0ff" style="isolation: isolate"/>
                <path id="Path_11071" data-name="Path 11071" d="M282.129,328.363c-2.184,5.81-5.6,11.313-10.579,15.013-3.727,2.767-8.153,4.409-12.552,5.893q-6.09,2.054-12.279,3.8c-1.319.371-2.85.7-3.964-.1a3.168,3.168,0,0,1-.988-3.3,9.3,9.3,0,0,1,1.73-3.192,6.437,6.437,0,0,0-4.282,4.039c-.359,1.044-.505,2.279-1.388,2.944a2.423,2.423,0,0,1-3.331-.827,3.949,3.949,0,0,1,0-3.7,11.667,11.667,0,0,1,2.37-3.026c-.956-.291-1.869.573-2.37,1.438s-.929,1.894-1.849,2.286c-1.124.481-2.362-.228-3.549-.517a6.748,6.748,0,0,0-6,1.889,15.615,15.615,0,0,0-3.462,5.514,7.481,7.481,0,0,1,12-2.719,13.339,13.339,0,0,0,2.523,2.274,6.86,6.86,0,0,0,3.241.543,111.177,111.177,0,0,0,32.447-4.871c4.479-1.373,9.137-3.225,11.869-7.031,2.129-2.965,2.787-6.715,3.255-10.336q.74-5.726,1.043-11.5c.181-3.456.671-7.369.1-10.789C284.891,317.571,284.119,323.063,282.129,328.363Z" transform="translate(-219.632 -312.085)" fill="#fff" opacity="0.5" style="isolation: isolate"/>
              </g>
            </g>
            <path id="Path_11073" data-name="Path 11073" d="M289.857,289.308c-.381-5.715-5.673-16.851-11.322-17.793a25.675,25.675,0,0,0-3.7,2.469c-2.152,1.721-2.8,5.147-2.989,12.386s1.137,23.884.284,39.238c-.015.284-21.417,11.848-25.132,13.647s-6.106,5.177-4,8.727c1.87,3.152,5.881,2.466,9.513,1.983,4.874-.646,27.733-5.413,31.845-9.667C292.605,331.767,289.857,289.308,289.857,289.308Z" transform="translate(-242.216 -271.514)" fill="none" stroke="#263238" stroke-linecap="round" stroke-linejoin="round" stroke-width="1"/>
          </g>
        </g>
        <g id="Group_5019" data-name="Group 5019" transform="translate(70.318)">
          <path id="Path_11074" data-name="Path 11074" d="M337.286,226.878c3.6-7.033.419-16.157-4.261-22.523-7.709-10.484-24.066-13.589-36.358-11.924-5.762.78-11.54,3.572-14.524,8.563s-2.272,12.312,2.48,15.664c4.459,3.145,11.537,2.638,14.242,7.378,2.886,5.06-1.9,11.1-1.987,16.924-.051,3.671,1.813,7.158,1.827,10.829C298.7,251.787,327.049,246.883,337.286,226.878Z" transform="translate(-280.358 -192.007)" fill="#263238" stroke="#263238" stroke-linecap="round" stroke-linejoin="round" stroke-width="1"/>
        </g>
        <g id="Group_5022" data-name="Group 5022" transform="translate(32.088 131.995)">
          <path id="Path_11075" data-name="Path 11075" d="M247.419,351.017s.091.816-3.34-1.422c-3.27-2.132-11.8,5.687-8.521,11.024l.275.919c.373,1.242,2.753.437,3.981.853a9.532,9.532,0,0,0,4.691.426C247.063,362.532,239.955,358.267,247.419,351.017Z" transform="translate(-234.82 -349.236)" fill="#fff"/>
          <g id="Group_5021" data-name="Group 5021" clip-path="url(#clip-path-6)">
            <g id="Group_5020" data-name="Group 5020" transform="translate(-12.75 -31.188)">
              <path id="Path_11076" data-name="Path 11076" d="M282.129,328.363c-2.184,5.81-5.6,11.313-10.579,15.013-3.727,2.767-8.153,4.409-12.552,5.893q-6.09,2.054-12.279,3.8c-1.319.371-2.85.7-3.964-.1a3.168,3.168,0,0,1-.988-3.3,9.3,9.3,0,0,1,1.73-3.192,6.437,6.437,0,0,0-4.282,4.039c-.359,1.044-.505,2.279-1.388,2.944a2.423,2.423,0,0,1-3.331-.827,3.949,3.949,0,0,1,0-3.7,11.667,11.667,0,0,1,2.37-3.026c-.956-.291-1.869.573-2.37,1.438s-.929,1.894-1.849,2.286c-1.124.481-2.362-.228-3.549-.517a6.748,6.748,0,0,0-6,1.889,15.615,15.615,0,0,0-3.462,5.514,7.481,7.481,0,0,1,12-2.719,13.339,13.339,0,0,0,2.523,2.274,6.86,6.86,0,0,0,3.241.543,111.177,111.177,0,0,0,32.447-4.871c4.479-1.373,9.137-3.225,11.869-7.031,2.129-2.965,2.787-6.715,3.255-10.336q.74-5.726,1.043-11.5c.181-3.456.671-7.369.1-10.789C284.891,317.571,284.119,323.063,282.129,328.363Z" transform="translate(-219.632 -312.085)" fill="#92e3a9" style="isolation: isolate"/>
              <path id="Path_11077" data-name="Path 11077" d="M282.129,328.363c-2.184,5.81-5.6,11.313-10.579,15.013-3.727,2.767-8.153,4.409-12.552,5.893q-6.09,2.054-12.279,3.8c-1.319.371-2.85.7-3.964-.1a3.168,3.168,0,0,1-.988-3.3,9.3,9.3,0,0,1,1.73-3.192,6.437,6.437,0,0,0-4.282,4.039c-.359,1.044-.505,2.279-1.388,2.944a2.423,2.423,0,0,1-3.331-.827,3.949,3.949,0,0,1,0-3.7,11.667,11.667,0,0,1,2.37-3.026c-.956-.291-1.869.573-2.37,1.438s-.929,1.894-1.849,2.286c-1.124.481-2.362-.228-3.549-.517a6.748,6.748,0,0,0-6,1.889,15.615,15.615,0,0,0-3.462,5.514,7.481,7.481,0,0,1,12-2.719,13.339,13.339,0,0,0,2.523,2.274,6.86,6.86,0,0,0,3.241.543,111.177,111.177,0,0,0,32.447-4.871c4.479-1.373,9.137-3.225,11.869-7.031,2.129-2.965,2.787-6.715,3.255-10.336q.74-5.726,1.043-11.5c.181-3.456.671-7.369.1-10.789C284.891,317.571,284.119,323.063,282.129,328.363Z" transform="translate(-219.632 -312.085)" fill="#fff" opacity="0.5" style="isolation: isolate"/>
            </g>
          </g>
          <path id="Path_11079" data-name="Path 11079" d="M247.419,351.017s.091.816-3.34-1.422c-3.27-2.132-11.8,5.687-8.521,11.024l.275.919c.373,1.242,2.753.437,3.981.853a9.532,9.532,0,0,0,4.691.426C247.063,362.532,239.955,358.267,247.419,351.017Z" transform="translate(-234.82 -349.236)" fill="none" stroke="#263238" stroke-linecap="round" stroke-linejoin="round" stroke-width="1"/>
        </g>
        <g id="Group_5023" data-name="Group 5023" transform="translate(72.258 2.117)">
          <path id="Path_11080" data-name="Path 11080" d="M294.567,197.462c-2.46,3.037-2.273,7.5-.891,11.159s3.77,6.836,5.51,10.335,3.888,7.116,2.437,10.746a51.078,51.078,0,0,0,.744-24" transform="translate(-284.274 -195)" fill="none" stroke="#757575" stroke-linecap="round" stroke-linejoin="round" stroke-width="1"/>
          <path id="Path_11081" data-name="Path 11081" d="M307.9,194.529c12.844,12.364,16.714,24.407,17.291,35.508" transform="translate(-286.718 -194.529)" fill="none" stroke="#757575" stroke-linecap="round" stroke-linejoin="round" stroke-width="1"/>
          <path id="Path_11082" data-name="Path 11082" d="M300.148,201.844a47.954,47.954,0,0,1,2.83,24.766" transform="translate(-285.474 -195.703)" fill="none" stroke="#757575" stroke-linecap="round" stroke-linejoin="round" stroke-width="1"/>
          <path id="Path_11083" data-name="Path 11083" d="M286.076,200.707a11.158,11.158,0,0,0-3.407,6.578" transform="translate(-282.669 -195.521)" fill="none" stroke="#757575" stroke-linecap="round" stroke-linejoin="round" stroke-width="1"/>
          <path id="Path_11084" data-name="Path 11084" d="M290.363,199.533a11.806,11.806,0,0,0-.249,9.167" transform="translate(-283.734 -195.332)" fill="none" stroke="#757575" stroke-linecap="round" stroke-linejoin="round" stroke-width="1"/>
          <path id="Path_11085" data-name="Path 11085" d="M323.5,199.136a24,24,0,0,1,11.634,18.67" transform="translate(-289.222 -195.268)" fill="none" stroke="#757575" stroke-linecap="round" stroke-linejoin="round" stroke-width="1"/>
          <path id="Path_11086" data-name="Path 11086" d="M334.575,201.753a11.047,11.047,0,0,1,3.649,3.942" transform="translate(-290.999 -195.688)" fill="none" stroke="#757575" stroke-linecap="round" stroke-linejoin="round" stroke-width="1"/>
        </g>
        <g id="Group_5025" data-name="Group 5025" transform="translate(37.931 83.015)">
          <path id="Path_11087" data-name="Path 11087" d="M266.316,379.913a36.715,36.715,0,0,0,17.67,24.4" transform="translate(-245.718 -305.179)" fill="none" stroke="#263238" stroke-linecap="round" stroke-linejoin="round" stroke-width="1"/>
          <path id="Path_11088" data-name="Path 11088" d="M272.054,376.259a13.238,13.238,0,0,0,9.441,12.135" transform="translate(-246.639 -304.593)" fill="none" stroke="#263238" stroke-linecap="round" stroke-linejoin="round" stroke-width="1"/>
          <path id="Path_11089" data-name="Path 11089" d="M307.355,365.2,293,367.074c-.714.093-1.545.27-1.839.926a1.448,1.448,0,0,0,.523,1.634,4.113,4.113,0,0,0,1.7.679,97.688,97.688,0,0,0,19,2.468" transform="translate(-249.69 -302.818)" fill="none" stroke="#263238" stroke-linecap="round" stroke-linejoin="round" stroke-width="1"/>
          <path id="Path_11090" data-name="Path 11090" d="M309.125,437.62a51.887,51.887,0,0,1,14.487-4.37" transform="translate(-252.588 -313.739)" fill="none" stroke="#263238" stroke-linecap="round" stroke-linejoin="round" stroke-width="1"/>
          <path id="Path_11091" data-name="Path 11091" d="M247.69,352.012a6.471,6.471,0,0,0-2.7,1.773c-.762.779-1.412,1.66-2.136,2.474a1.319,1.319,0,0,1-.447.368.469.469,0,0,1-.536-.095.67.67,0,0,1-.009-.64,6.643,6.643,0,0,1,1.828-2.718" transform="translate(-241.78 -300.701)" fill="#fff" stroke="#263238" stroke-linecap="round" stroke-linejoin="round" stroke-width="1"/>
          <path id="Path_11092" data-name="Path 11092" d="M304.025,290.892q-2.316,8.092-4.633,16.182" transform="translate(-251.026 -290.892)" fill="#fff" stroke="#263238" stroke-linecap="round" stroke-linejoin="round" stroke-width="1"/>
          <g id="Group_5024" data-name="Group 5024" transform="translate(90.2 18.026)">
            <path id="Path_11093" data-name="Path 11093" d="M350.174,318.753c-1.964,14.893-.674,32.951,1.97,46.848" transform="translate(-349.224 -313.389)" fill="none" stroke="#263238" stroke-linecap="round" stroke-linejoin="round" stroke-width="1"/>
            <path id="Path_11094" data-name="Path 11094" d="M351.122,312.364l-.292,2.394" transform="translate(-349.482 -312.364)" fill="none" stroke="#263238" stroke-linecap="round" stroke-linejoin="round" stroke-width="1"/>
          </g>
        </g>
      </g>
    </g>
  </g>
</svg>
