<svg id="file-download" xmlns="http://www.w3.org/2000/svg" width="32.508" height="43.344" viewBox="0 0 32.508 43.344">
  <path id="file-download-2" data-name="file-download" d="M18.963,11.513V0H2.032A2.027,2.027,0,0,0,0,2.032V41.312a2.027,2.027,0,0,0,2.032,2.032H30.476a2.027,2.027,0,0,0,2.032-2.032V13.545H20.995A2.038,2.038,0,0,1,18.963,11.513Zm6.472,17.893-8.163,8.1a1.443,1.443,0,0,1-2.035,0l-8.163-8.1a1.354,1.354,0,0,1,.952-2.316h5.518V20.318A1.354,1.354,0,0,1,14.9,18.963h2.709a1.354,1.354,0,0,1,1.355,1.355V27.09h5.518A1.355,1.355,0,0,1,25.435,29.406Zm6.48-20.517L23.628.593A2.03,2.03,0,0,0,22.188,0h-.516V10.836H32.508V10.32A2.025,2.025,0,0,0,31.915,8.889Z"/>
</svg>
