<svg id="Holidays-bg" xmlns="http://www.w3.org/2000/svg" width="371.821" height="225.002" viewBox="0 0 371.821 225.002">
  <g id="Holidays-bg-2" data-name="Holidays-bg" transform="translate(0)" opacity="0.5">
    <g id="Group_3003" data-name="Group 3003" transform="translate(181.151 136.019)">
      <path id="Path_9390" data-name="Path 9390" d="M809.517,238.8l11.257-16.74L809.54,240.6l.024,1.884q-1.233.009-2.441-.041l.558-24.213-.015-.187.021-.036.053-2.288-12.328-17.9L807.725,214l.044.484.422-18.294-10.648-18.556,10.678,15.342-.112-37.9v-.126l0,.124.707,29.871,9.7-12.133-9.672,14.707.212,16.364,8.93-15.97-8.9,18.376.118,9.1L822.2,193.144l-12.947,25.421Z" transform="translate(-659.739 -154.954)" fill="#d0cde1"/>
      <ellipse id="Ellipse_1173" data-name="Ellipse 1173" cx="77.221" cy="4.432" rx="77.221" ry="4.432" transform="translate(0 79.818)" fill="#d0cde1"/>
      <ellipse id="Ellipse_1174" data-name="Ellipse 1174" cx="1.445" cy="1.445" rx="1.445" ry="1.445" transform="translate(133.16 86.061)" fill="#3f3d56"/>
      <path id="Path_9391" data-name="Path 9391" d="M727.84,466.937l-3.808-10.112s.591-1.9-.985-1.773a40.008,40.008,0,0,0-5.778,1.576s-1.444.131.525,2.167l3.414,10.7,1.116-.525-3.677-10.637a.733.733,0,0,1,.525-.919c.722-.2,3.48-1.379,3.743-.657s3.677,11.1,3.677,11.1Z" transform="translate(-593.039 -409.439)" fill="#3f3d56"/>
      <path id="Path_9392" data-name="Path 9392" d="M720.611,527.234l7.354,22a7.908,7.908,0,0,0,1.919.928,10.066,10.066,0,0,0,1.889.451,2.283,2.283,0,0,0,.714-.056c3.781-.755,16.752-7.691,16.752-7.691s-6.632-20.683-7.748-23.178a2.844,2.844,0,0,0-3.611-1.576s-12.6,3.4-14.412,4.035l-.1.035a4.1,4.1,0,0,0-1.969,1.51h0C719.561,524.8,720.611,527.234,720.611,527.234Z" transform="translate(-596.053 -462.775)" fill="#6c63ff"/>
      <path id="Path_9393" data-name="Path 9393" d="M757.013,522.226l.036.126c.569-.159,1.054,1.11,1.059,1.123l8.076,22.389.124-.044-1.024-2.839,11-4.858.866,2.488.124-.043-7.225-20.756,0-.006c-.026-.041-.635-.993-1.357-.8l.034.127c.6-.161,1.157.659,1.209.738l1.529,4.393-11.563,3.78-1.664-4.613C758.209,523.372,757.7,522.034,757.013,522.226Zm14.488,2.161,1.127,3.236-11.383,4.16-1.3-3.617Zm-8.913,11.122-1.3-3.6,11.382-4.16,1.118,3.213Zm11.244-4.425,1.226,3.522-11.182,4.475-1.244-3.448Zm-8.594,11.773-1.317-3.652L775.1,534.73,776.239,538Z" transform="translate(-627.176 -463.655)" opacity="0.2"/>
      <path id="Path_9394" data-name="Path 9394" d="M725.835,549.887c.657,1.051,8.011,23.047,8.011,23.047a4.2,4.2,0,0,0,.475.665,10.051,10.051,0,0,0,1.889.451,2.283,2.283,0,0,0,.714-.056,3.31,3.31,0,0,1-1.961-2.242c-.657-2.035-7.879-23.506-7.879-23.506a8.973,8.973,0,0,1,.821-2.662l-.1.035a4.1,4.1,0,0,0-1.969,1.51h0A3.691,3.691,0,0,0,725.835,549.887Z" transform="translate(-600.488 -486.216)" opacity="0.2"/>
      <path id="Path_9395" data-name="Path 9395" d="M733.173,605.869l.722,2.232s-.591,4.4,2.5,7.288l.657,2.232-.679.018-.717-2.143a12.17,12.17,0,0,1-2.4-7.169l-.607-2.459Z" transform="translate(-606.514 -537.339)" fill="#3f3d56"/>
      <ellipse id="Ellipse_1175" data-name="Ellipse 1175" cx="1.445" cy="1.445" rx="1.445" ry="1.445" transform="translate(137.592 86.093)" fill="#3f3d56"/>
      <ellipse id="Ellipse_1176" data-name="Ellipse 1176" cx="1.445" cy="1.445" rx="1.445" ry="1.445" transform="translate(151.611 80.02)" fill="#3f3d56"/>
      <path id="Path_9396" data-name="Path 9396" d="M548.543,286.547s-3.343.608-3.5,1.976a16.022,16.022,0,0,0,0,2.888Z" transform="translate(-447.369 -266.548)" fill="#575a89"/>
      <path id="Path_9397" data-name="Path 9397" d="M506.786,309.914s-9.727,3.5-16.11.456-14.134-6.839-14.134-6.839-3.8.3-3.344-1.976,3.5-15.5,10.487-19.909c0,0,4.255-5.471,6.687-5.167s11.854,22.8,11.854,22.8Z" transform="translate(-386.463 -257.999)" fill="#575a89"/>
      <path id="Path_9398" data-name="Path 9398" d="M506.786,309.914s-9.727,3.5-16.11.456-14.134-6.839-14.134-6.839-3.8.3-3.344-1.976,3.5-15.5,10.487-19.909c0,0,4.255-5.471,6.687-5.167s11.854,22.8,11.854,22.8Z" transform="translate(-386.463 -257.999)" opacity="0.2"/>
      <path id="Path_9399" data-name="Path 9399" d="M715.691,442.547l.608,1.52s3.951,2.432,2.28,4.1-4.188-2.812-4.188-2.812l-.979-1.9Z" transform="translate(-590.2 -398.839)" fill="#a0616a"/>
      <path id="Path_9400" data-name="Path 9400" d="M277.695,462.353l-.608,10.487,3.192,1.368,1.216-12.614Z" transform="translate(-185.488 -391.441)" fill="#a0616a"/>
      <path id="Path_9401" data-name="Path 9401" d="M366.087,466.593l4.255,5.471,1.216,3.647,3.04-.152.76-3.648-4.255-4.255Z" transform="translate(-260.962 -395.681)" fill="#a0616a"/>
      <ellipse id="Ellipse_1177" data-name="Ellipse 1177" cx="4.103" cy="4.103" rx="4.103" ry="4.103" transform="translate(100.642 8.981)" fill="#a0616a"/>
      <path id="Path_9402" data-name="Path 9402" d="M586.411,253.915l.3,3.8,4.863-1.52s-1.824-2.888-1.368-3.647Z" transform="translate(-482.501 -237.715)" fill="#a0616a"/>
      <path id="Path_9403" data-name="Path 9403" d="M552.49,270.611s2.88.76,4.555-1.064l3.5,1.672-4.559,17.022-9.575-2.584,1.52-3.344a3.208,3.208,0,0,1,.152-4.407s.456-4.255,1.824-5.167A19.55,19.55,0,0,0,552.49,270.611Z" transform="translate(-448.581 -252.131)" fill="#d0cde1"/>
      <path id="Path_9404" data-name="Path 9404" d="M603.818,269.047s-5.167,4.1.456,16.262,10.335,22.493,12.158,21.885,8.055-5.319,5.927-6.991-11.095-6.991-12.31-13.982,1.672-14.134,1.672-14.134Z" transform="translate(-495.425 -251.707)" fill="#575a89"/>
      <path id="Path_9405" data-name="Path 9405" d="M414.911,144.593l13.07,22.037-3.647,1.52-11.246-15.2Z" transform="translate(-300.819 -122.618)" fill="#575a89"/>
      <path id="Path_9406" data-name="Path 9406" d="M485.81,372.547h-1.064l-3.951,8.511s-7.447,22.493-6.687,27.052,29.029,3.946,27.508,3.8c-1.446-.139-8.972-34.795-6.763-36.7Z" transform="translate(-387.219 -339.478)" fill="#2f2e41"/>
      <path id="Path_9407" data-name="Path 9407" d="M471.412,675.763a1.622,1.622,0,0,0-1.52-1.216c-1.216,0-1.216,1.672-1.216,1.672l-3.5,3.191s-3.04,3.8.912,3.8,3.951-.912,3.951-.912,1.064-1.064,1.976-.456,3.04-.608,2.736-1.216-.758-4.541-1.063-3.866S471.412,675.763,471.412,675.763Z" transform="translate(-378.749 -595.58)" fill="#2f2e41"/>
      <path id="Path_9408" data-name="Path 9408" d="M626.755,648.94s.3-.152-1.216,0a7.134,7.134,0,0,1-2.128,0l1.064,4.1s-.912,6.991,2.128,6.383,3.04-4.863,3.04-4.863-.456-3.8-.152-4.1.152-4.407-.3-4.407a16.7,16.7,0,0,1-2.657-.985S627.97,648.94,626.755,648.94Z" transform="translate(-513.878 -570.581)" fill="#2f2e41"/>
      <path id="Path_9409" data-name="Path 9409" d="M566.261,203.945c-.255-.393-.126-.927-.305-1.36-.281-.68-1.155-.839-1.888-.9a5.628,5.628,0,0,0-1.463,0,1.4,1.4,0,0,0-1.015.736c-.108.218-.081-.464-.012-1.339a4.23,4.23,0,0,1,3.244-3.784l.031-.007a8.022,8.022,0,0,1,2.723-.251,3.543,3.543,0,0,1,2.385,1.219c.26.329.443.716.733,1.018a4.786,4.786,0,0,0,1.957.971,5.905,5.905,0,0,1,2.146,1.238,3.2,3.2,0,0,1,1.037,2.2,2.13,2.13,0,0,1-1.6,2.163,1.117,1.117,0,0,0-.477.206c-.95.737.134,1.507.126,2.337-.006.692-.776,1.143-1.468,1.175a2.785,2.785,0,0,1-2.774-2.2,5.806,5.806,0,0,1,.044-1.724c.078-.656-1.336-2.2-.4-1.069a1.624,1.624,0,0,1,.357.751c.155.9-.668,1.209-1.187,1.71a2.152,2.152,0,0,0-.521,2.215,2.48,2.48,0,0,1-.451-3.132c.167-.257.383-.48.541-.742.247-.409.316-1.3-.377-1.273C567.155,204.119,566.641,204.53,566.261,203.945Z" transform="translate(-461.391 -190.615)" fill="#2f2e41"/>
      <path id="Path_9410" data-name="Path 9410" d="M249.181,674.3s-6.1-11.262-20.857-6.392Z" transform="translate(-178.836 -593.918)" fill="#d0cde1"/>
      <path id="Path_9411" data-name="Path 9411" d="M353.776,594.7s-7.546-9.591,3.345-21.556Z" transform="translate(-283.063 -514.585)" fill="#d0cde1"/>
    </g>
    <g id="Group_3004" data-name="Group 3004" transform="translate(51.076)" opacity="0.5">
      <path id="Path_9340" data-name="Path 9340" d="M677.9,486.851h10.826s3.4-118.4-10.826-154.961H675.19S684.655,465.875,677.9,486.851Z" transform="translate(-632.546 -266.258)" fill="#6c63ff"/>
      <path id="Path_9341" data-name="Path 9341" d="M625.213,233.264s8.8,24.361,4.739,35.187c0,0-6.091-22.332-13.2-25.726s-14.548,25.726-14.548,25.726-4.058-18.257,3.382-33.158c0,0-14.888,8.12-22.332,23.685,0,0-1.353-10.15,16.241-31.121,0,0-15.565,4.058-25.726,13.535,0,0-3.382-7.444,17.594-19.623,0,0-2.705-8.8-18.946-4.739,0,0,0-11.5,25.727-9.473,0,0,0-7.444-16.917-6.091,0,0,0-9.473,19.623-6.091,0,0-4.058-6.091-6.768-7.444,0,0,5.394-.676,9.473,2.705,0,0-.676-12.179,9.473-16.917l1.353,16.917s11.374-13.4,8.8-10.826c-.676.676-2.705,8.8-2.029,12.863,0,0,11.5-9.473,25.726.676,0,0-17.594,1.353-20.3,7.444,0,0,14.888-2.705,18.258-.676,0,0-11.5,4.058-10.826,6.768,0,0,20.3,0,23.009,7.444,0,0-20.975,2.705-22.332,4.739,0,0,24.361,17.594,25.727,22.332,0,0-25.038-14.888-29.1-14.888s18.258,21.652,16.917,27.067C648.222,253.563,629.952,231.928,625.213,233.264Z" transform="translate(-572.42 -173.72)" fill="#6c63ff"/>
    </g>
    <g id="Group_3005" data-name="Group 3005" transform="translate(99.189 91.515)" opacity="0.3">
      <path id="Path_9342" data-name="Path 9342" d="M812.326,431.206H805.99s-1.979-69.262,6.332-90.636h1.585S808.363,418.936,812.326,431.206Z" transform="translate(-787.396 -302.188)" fill="#6c63ff"/>
      <path id="Path_9343" data-name="Path 9343" d="M782.043,282.9s-5.145,14.249-2.772,20.581c0,0,3.56-13.062,7.718-15.042s8.51,15.042,8.51,15.042,2.373-10.685-1.979-19.394c0,0,8.714,4.751,13.063,13.851,0,0,.792-5.938-9.5-18.208,0,0,9.1,2.374,15.042,7.917,0,0,1.979-4.353-10.291-11.477,0,0,1.585-5.145,11.083-2.772,0,0,0-6.73-15.042-5.539,0,0,0-4.353,9.9-3.56,0,0,0-5.539-11.477-3.56,0,0,2.373-3.56,3.958-4.353a7.84,7.84,0,0,0-5.539,1.585s.415-7.125-5.539-9.9l-.793,9.9s-6.639-7.838-5.145-6.332c.415.415,1.585,5.145,1.187,7.519,0,0-6.73-5.54-15.042.415,0,0,10.291.793,11.876,4.353,0,0-8.714-1.585-10.685-.415,0,0,6.73,2.373,6.332,3.959,0,0-11.876,0-13.457,4.353,0,0,12.27,1.585,13.063,2.772,0,0-14.249,10.291-15.042,13.062,0,0,14.643-8.714,17.013-8.714s-10.689,12.672-9.9,15.826C768.586,294.764,779.275,282.1,782.043,282.9Z" transform="translate(-761.47 -248.07)" fill="#6c63ff"/>
    </g>
    <g id="Group_3006" data-name="Group 3006" transform="translate(43.58 91.515)" opacity="0.3">
      <path id="Path_9342-2" data-name="Path 9342" d="M807.365,431.206H813.7s1.979-69.262-6.332-90.636h-1.585S811.327,418.936,807.365,431.206Z" transform="translate(-780.845 -302.188)" fill="#6c63ff"/>
      <path id="Path_9343-2" data-name="Path 9343" d="M792.346,282.9s5.145,14.249,2.772,20.581c0,0-3.56-13.062-7.718-15.042s-8.51,15.042-8.51,15.042-2.373-10.685,1.979-19.394c0,0-8.714,4.751-13.062,13.851,0,0-.792-5.938,9.5-18.208,0,0-9.1,2.374-15.042,7.917,0,0-1.979-4.353,10.291-11.477,0,0-1.585-5.145-11.083-2.772,0,0,0-6.73,15.042-5.539,0,0,0-4.353-9.9-3.56,0,0,0-5.539,11.477-3.56,0,0-2.374-3.56-3.958-4.353a7.84,7.84,0,0,1,5.539,1.585s-.415-7.125,5.539-9.9l.793,9.9s6.639-7.838,5.145-6.332c-.415.415-1.585,5.145-1.187,7.519,0,0,6.73-5.54,15.042.415,0,0-10.291.793-11.876,4.353,0,0,8.714-1.585,10.685-.415,0,0-6.73,2.373-6.332,3.959,0,0,11.876,0,13.457,4.353,0,0-12.27,1.585-13.062,2.772,0,0,14.249,10.291,15.042,13.062,0,0-14.643-8.714-17.013-8.714s10.689,12.672,9.9,15.826C805.8,294.764,795.114,282.1,792.346,282.9Z" transform="translate(-761.47 -248.07)" fill="#6c63ff"/>
    </g>
    <path id="Path_9574" data-name="Path 9574" d="M180.761,184.387c7.913,17.874-2.181,38.456-14.063,53.954-3.977,5.2-8.367,10.646-8.919,17.165-.665,7.974,4.735,15.3,11.14,20.1a46.909,46.909,0,0,0,41.545,7.026c12.016-3.807,22.119-12.405,34.24-15.871,20.27-5.805,41.756,3.819,59.115,15.811,12.288,8.477,25.447,18.806,40.26,16.99,10.423-1.277,19.269-8.594,25.273-17.209,2.9-4.159,5.42-8.821,9.64-11.627a24.132,24.132,0,0,1,8.4-3.186c26.914-5.753,55.479,8.286,82.036,1.066,17.939-4.865,32.241-19.054,41.136-35.379s13.046-34.759,16.5-53.022c2.457-12.973,4.5-26.987-1.151-38.918-5.976-12.632-19.808-20.29-33.709-21.725s-27.843,2.526-40.649,8.112c-16,7-31.686,16.792-49.151,16.824-11.894.024-23.237-4.54-34.609-8.023-19.013-5.817-38.784-8.708-58.487-11.375-18.863-2.554-37.913-4.93-56.89-3.422-13.427,1.066-25.285,6.2-38.314,8.574-8.493,1.549-17.027.405-25.362,3-10.265,3.211-20.821,10.65-21.389,22.366C166.827,166.765,176.565,174.905,180.761,184.387Z" transform="translate(-157.723 -81.56)" fill="#6c63ff" opacity="0.1"/>
    <g id="Group_3008" data-name="Group 3008" transform="translate(196.858 145.52)">
      <circle id="Ellipse_1178" data-name="Ellipse 1178" cx="4.076" cy="4.076" r="4.076" transform="translate(16.172 0.812)" fill="#2f2e41"/>
      <path id="Path_9575" data-name="Path 9575" d="M235.615,523.184l2.5-8.684.852.266s-1.012,6.5-2.611,8.152Z" transform="translate(-227.781 -469.227)" fill="#2f2e41"/>
      <path id="Path_9576" data-name="Path 9576" d="M303.737,222.51s.32,3.41-.426,4.369.48,2.824.48,2.824l2.238,2.664,3.3-1.492.48-2.77-.32-1.918a3.4,3.4,0,0,1-.639-3.143C309.332,221.018,303.737,222.51,303.737,222.51Z" transform="translate(-286.367 -215.172)" fill="#ffb9b9"/>
      <path id="Path_9577" data-name="Path 9577" d="M303.737,222.51s.32,3.41-.426,4.369.48,2.824.48,2.824l2.238,2.664,3.3-1.492.48-2.77-.32-1.918a3.4,3.4,0,0,1-.639-3.143C309.332,221.018,303.737,222.51,303.737,222.51Z" transform="translate(-286.367 -215.172)" opacity="0.1"/>
      <path id="Path_9578" data-name="Path 9578" d="M166.73,574.147v2.184l2.93.586-.266-3.623Z" transform="translate(-147.441 -503.035)" fill="#ffb9b9"/>
      <path id="Path_9579" data-name="Path 9579" d="M229.362,571.183l-.639,3.037,1.279.906,2.238-1.651-.266-2.611Z" transform="translate(-201.283 -500.923)" fill="#ffb9b9"/>
      <path id="Path_9580" data-name="Path 9580" d="M313.226,722.817a2.259,2.259,0,0,0-3.2-.706s-.373,2.091-.746,2.251-2.451,3.2,0,3.463a5.924,5.924,0,0,0,3.676-.533s-.48.413.266.2.426-1.385.426-1.385Z" transform="translate(-290.74 -649.2)" fill="#2f2e41"/>
      <path id="Path_9581" data-name="Path 9581" d="M379.665,717.675s-1.652,1.172-1.918.639a.728.728,0,0,0-.693-.479s-1.492,5.624-.533,5.89a3.232,3.232,0,0,0,1.865-.1s1.279-.9,1.279-.2,3.57.643,5.061.589.693-1.172.693-1.172l-1.971-1.918-2.238-3.25S380.2,716.769,379.665,717.675Z" transform="translate(-349.88 -645.337)" fill="#2f2e41"/>
      <path id="Path_9582" data-name="Path 9582" d="M283.022,444.794l2.238,21.471s1.225,13.106,1.439,13.32,1.6.906,4.635,0l-.693-17.156,1.279-10.656,2.93,7.352s.693,19.766,1.172,19.766,3.41.959,4.1-.213.586-13.8.586-13.8-.32-19.926-2.664-20.565S283.022,444.794,283.022,444.794Z" transform="translate(-268.954 -408.099)" fill="#2f2e41"/>
      <circle id="Ellipse_1179" data-name="Ellipse 1179" cx="3.676" cy="3.676" r="3.676" transform="translate(16.572 1.957)" fill="#ffb9b9"/>
      <path id="Path_9583" data-name="Path 9583" d="M266.874,256.21s-.373-2.291-.373-2.717-1.652-.693-1.652-.693-1.279-1.439-1.545-1.225-4.316,2.93-4.955,3.3a4.352,4.352,0,0,0-1.279,2.078c.053.107,3.357,7.033,3.357,7.033s1.439,4.262.426,6.5-2.291,6.66-.426,7.566,10.922,2.877,12.574,1.172,2.824-2.184,3.25-2.184-1.758-7.406-1.279-8.1-.213-5.008-.213-5.008l2.451-6.873s-.213-3.836-5.061-4.689l-2.9-1.406Z" transform="translate(-246.413 -240.348)" fill="#575a89"/>
      <path id="Path_9584" data-name="Path 9584" d="M251.29,455.854s-.266,2.557-.266,3.3-1.279,5.115.586,5.647,1.7-5.807,1.7-5.807v-3.25Z" transform="translate(-240.792 -418.2)" fill="#ffb9b9"/>
      <path id="Path_9585" data-name="Path 9585" d="M408.451,438.324a15.582,15.582,0,0,1,.16,2.984c-.16.533,1.545,5.168-.746,5.434s-1.7-5.541-1.7-5.541v-2.877Z" transform="translate(-375.842 -403.068)" fill="#ffb9b9"/>
      <path id="Path_9586" data-name="Path 9586" d="M252.227,519.868l1.545-8.2h.48a3.227,3.227,0,0,1,.48,3.09,38.917,38.917,0,0,0-1.172,5.115Z" transform="translate(-242.209 -466.764)" fill="#2f2e41"/>
      <path id="Path_9587" data-name="Path 9587" d="M250.386,291.647l-.8.639s-1.066,16.943-.8,18.221-.959,3.09.107,3.25,2.344.852,2.93.426.693-1.971.906-2.344a46.629,46.629,0,0,0,.586-4.8s1.119-4.422.426-7.725-1.332-6.66-1.332-6.66Z" transform="translate(-238.929 -275.678)" fill="#575a89"/>
      <path id="Path_9588" data-name="Path 9588" d="M385.277,281.517l2.451,2.078,1.865,10.869s1.172,8.471.266,8.578-2.291-.16-2.877,0a1.247,1.247,0,0,1-1.066-.266s-.639-3.41-.639-3.463-.426-3.943-.426-3.943L384.318,291l.8-4.8Z" transform="translate(-356.931 -266.88)" fill="#575a89"/>
      <path id="Path_9589" data-name="Path 9589" d="M192.821,581.666s-.346.995-.824,2.349c-.222.63-.472,1.338-.729,2.06-.166.467-.334.939-.5,1.4-.264.738-.521,1.446-.745,2.055-.3.8-.537,1.432-.665,1.726-.586,1.332-11.3-.8-12.147-1.332s-1.066-2.344-1.172-4.9c0-.013,0-.027,0-.04a9.321,9.321,0,0,1,.338-2.187c.11-.451.242-.935.389-1.437.2-.674.421-1.38.655-2.084,1-3.021,2.189-5.974,2.189-5.974a17.407,17.407,0,0,0,2.824-2.4c.746-.959,4.848-1.7,4.848-1.7,1.172.053,3.836,4.582,4.9,5.967S192.821,581.666,192.821,581.666Z" transform="translate(-176.037 -516.734)" fill="#3f3d56"/>
      <circle id="Ellipse_1180" data-name="Ellipse 1180" cx="0.48" cy="0.48" r="0.48" transform="translate(10.338 55.875)" fill="#2f2e41"/>
      <circle id="Ellipse_1181" data-name="Ellipse 1181" cx="0.266" cy="0.266" r="0.266" transform="translate(11.297 56.621)" fill="#2f2e41"/>
      <path id="Path_9590" data-name="Path 9590" d="M196.8,650.568c-.222.63-.472,1.338-.729,2.06l-14.5-4.716c.2-.674.421-1.38.655-2.084Z" transform="translate(-180.843 -583.287)" fill="#f2f2f2"/>
      <path id="Path_9591" data-name="Path 9591" d="M190.769,677.283c-.264.738-.521,1.447-.745,2.055l-13.986-4.548a9.322,9.322,0,0,1,.338-2.187Z" transform="translate(-176.036 -606.541)" fill="#f2f2f2"/>
      <path id="Path_9592" data-name="Path 9592" d="M258.3,599.588a27.568,27.568,0,0,1,.426,8.844,13.918,13.918,0,0,0,1.6,8.045" transform="translate(-247.487 -543.127)" fill="rgba(0,0,0,0)"/>
      <path id="Path_9593" data-name="Path 9593" d="M236.881,602.425s-2.078,7.566-2.131,8.631-.906,8.684-1.971,9.484" transform="translate(-225.318 -545.591)" fill="rgba(0,0,0,0)"/>
      <path id="Path_9594" data-name="Path 9594" d="M306.712,173.588s-.832-2.164.374-2.871l.333.957s3.037-1.831,3.828-1.415l-.749,1s3.537,0,3.786,1.373l-1.248.042a3.181,3.181,0,0,1,1.373,2.288l-2.663.166,1.29.749s-4.826.666-5.991-1.248Z" transform="translate(-289.286 -170.198)" fill="#2f2e41"/>
      <path id="Path_9595" data-name="Path 9595" d="M303.078,188.537s.959,1.918,2.238,1.439,0-2.238,0-2.238l-.852-.426Z" transform="translate(-286.373 -185.061)" fill="#2f2e41"/>
    </g>
    <g id="Group_3007" data-name="Group 3007" transform="translate(150.221 87.63)" opacity="0.6">
      <path id="Path_9263" data-name="Path 9263" d="M288.849,38.2,277.4,34.97l-17.47,1.417,17.994,5.069Z" transform="translate(-214.181 -24.853)" fill="#6c63ff"/>
      <path id="Path_9264" data-name="Path 9264" d="M288.849,38.2,277.4,34.97l-17.47,1.417,17.994,5.069Z" transform="translate(-214.181 -24.853)" opacity="0.2"/>
      <path id="Path_9265" data-name="Path 9265" d="M506.663,122l-16.363-4.62-8.919,2.417-66.516-18.753s-10.09-1.786-10.465,1.6l85.9,24.079Z" transform="translate(-403.965 -100.571)" fill="#6c63ff"/>
      <path id="Path_9266" data-name="Path 9266" d="M443.376,110.589,514.8,130.727l6.534-2.38L435.189,104.06S433.018,107.669,443.376,110.589Z" transform="translate(-435 -102.194)" fill="#6c63ff"/>
      <path id="Path_9267" data-name="Path 9267" d="M443.376,110.589,514.8,130.727l6.534-2.38L435.189,104.06S433.018,107.669,443.376,110.589Z" transform="translate(-435 -102.194)" opacity="0.2"/>
      <path id="Path_9268" data-name="Path 9268" d="M317.267,55.744,305.818,52.52,270.6,29.2l25.084,7.075Z" transform="translate(-248.305 -22.169)" fill="#6c63ff"/>
    </g>
  </g>
</svg>
