<svg id="leave-policy-icon" xmlns="http://www.w3.org/2000/svg" width="33.016" height="43.344" viewBox="0 0 33.016 43.344">
  <path id="Path_10033" data-name="Path 10033" d="M39.3,0H21.1a4.661,4.661,0,0,0-4.656,4.656V38.688A4.661,4.661,0,0,0,21.1,43.344H44.8a4.661,4.661,0,0,0,4.656-4.656V10.159Z" transform="translate(-16.441)" fill="#fffa8c"/>
  <path id="Path_10034" data-name="Path 10034" d="M69,0V43.344H80.852a4.661,4.661,0,0,0,4.656-4.656V10.159L75.349,0Z" transform="translate(-52.492)" fill="#ffc178"/>
  <g id="Group_3346" data-name="Group 3346" transform="translate(6.773 13.714)">
    <path id="Path_10035" data-name="Path 10035" d="M47.739,68.214a1.269,1.269,0,0,1-.365-.054A13.149,13.149,0,0,1,38,55.567V48.32a1.27,1.27,0,0,1,1.27-1.27,4.186,4.186,0,0,0,3.765-2.327l.179-.357a1.27,1.27,0,0,1,1.136-.7h6.773a1.27,1.27,0,0,1,1.136.7l.179.358a4.186,4.186,0,0,0,3.765,2.327,1.27,1.27,0,0,1,1.27,1.27v7.246A13.149,13.149,0,0,1,48.1,68.161,1.269,1.269,0,0,1,47.739,68.214Z" transform="translate(-38.004 -43.664)" fill="#9ddff6"/>
    <path id="Path_10036" data-name="Path 10036" d="M77.466,47.05A4.186,4.186,0,0,1,73.7,44.724l-.179-.358a1.27,1.27,0,0,0-1.136-.7H69v24.55a1.269,1.269,0,0,0,.365-.054,13.149,13.149,0,0,0,9.371-12.594V48.32A1.27,1.27,0,0,0,77.466,47.05Z" transform="translate(-59.265 -43.664)" fill="#6ba7ff"/>
    <path id="Path_10037" data-name="Path 10037" d="M46.09,55.018v6.095a10.54,10.54,0,0,0,7.2,10.045,10.54,10.54,0,0,0,7.2-10.045V55.018A6.7,6.7,0,0,1,55.9,51.75H50.672A6.7,6.7,0,0,1,46.09,55.018Z" transform="translate(-43.55 -49.21)" fill="#f5f5ff"/>
    <path id="Path_10038" data-name="Path 10038" d="M71.614,51.75H69V71.158a10.54,10.54,0,0,0,7.2-10.045V55.018A6.7,6.7,0,0,1,71.614,51.75Z" transform="translate(-59.265 -49.21)" fill="#e2e7fa"/>
    <path id="Path_10039" data-name="Path 10039" d="M57.186,78.408a1.265,1.265,0,0,1-.9-.372l-2.394-2.394a1.27,1.27,0,1,1,1.8-1.8l1.5,1.5,3.891-3.891a1.27,1.27,0,0,1,1.8,1.8l-4.789,4.789A1.266,1.266,0,0,1,57.186,78.408Z" transform="translate(-48.648 -62.469)" fill="#6b61b1"/>
    <path id="Path_10040" data-name="Path 10040" d="M71.694,71.452,69,74.145v3.592l4.49-4.49a1.27,1.27,0,0,0-1.8-1.8Z" transform="translate(-59.265 -62.469)" fill="#453d81"/>
  </g>
  <path id="Path_10041" data-name="Path 10041" d="M89.215,0V8.889a1.27,1.27,0,0,0,1.27,1.27h8.889Z" transform="translate(-66.358)" fill="#ff9d21"/>
</svg>
