<svg id="menu-icons" xmlns="http://www.w3.org/2000/svg" width="188.687" height="28.25" viewBox="0 0 188.687 28.25">
  <g id="Group_2959" data-name="Group 2959" transform="translate(0 1)">
    <path id="Icon_metro-search" data-name="Icon metro-search" d="M24.275,20.988l-5.305-4.512a2.367,2.367,0,0,0-1.609-.7,8.4,8.4,0,1,0-.94.94,2.367,2.367,0,0,0,.7,1.609l4.512,5.305a1.882,1.882,0,1,0,2.644-2.644Z" transform="translate(-2.571 -1.928)" fill="#0072bc" opacity="0.55"/>
    <path id="Icon_metro-search-2" data-name="Icon metro-search" d="M24.275,20.988l-5.305-4.512a2.367,2.367,0,0,0-1.609-.7,8.4,8.4,0,1,0-.94.94,2.367,2.367,0,0,0,.7,1.609l4.512,5.305a1.882,1.882,0,1,0,2.644-2.644Zm-13.3-5.061a5.6,5.6,0,1,1,5.6-5.6A5.6,5.6,0,0,1,10.97,15.927Z" transform="translate(-2.571 -1.928)"/>
  </g>
  <g id="Group_2960" data-name="Group 2960" transform="translate(42 1)">
    <path id="Icon_material-settings" data-name="Icon material-settings" d="M23.547,15.888a9.147,9.147,0,0,0,.082-1.15,9.147,9.147,0,0,0-.082-1.15l2.477-1.937a.592.592,0,0,0,.141-.751L23.817,6.838A.59.59,0,0,0,23.1,6.58L20.178,7.754A8.576,8.576,0,0,0,18.195,6.6l-.446-3.11A.572.572,0,0,0,17.173,3h-4.7a.572.572,0,0,0-.575.493L11.457,6.6a9.018,9.018,0,0,0-1.984,1.15L6.551,6.58a.573.573,0,0,0-.716.258L3.487,10.9a.579.579,0,0,0,.141.751L6.1,13.587a9.309,9.309,0,0,0-.082,1.15,9.309,9.309,0,0,0,.082,1.15L3.628,17.825a.592.592,0,0,0-.141.751l2.348,4.061a.59.59,0,0,0,.716.258l2.923-1.174a8.576,8.576,0,0,0,1.984,1.15l.446,3.11a.572.572,0,0,0,.575.493h4.7a.572.572,0,0,0,.575-.493l.446-3.11a9.018,9.018,0,0,0,1.984-1.15L23.1,22.9a.573.573,0,0,0,.716-.258l2.348-4.061a.592.592,0,0,0-.141-.751l-2.477-1.937Z" transform="translate(-3.406 -3)" fill="#73b1da"/>
    <path id="Icon_material-settings-2" data-name="Icon material-settings" d="M23.547,15.888a9.147,9.147,0,0,0,.082-1.15,9.147,9.147,0,0,0-.082-1.15l2.477-1.937a.592.592,0,0,0,.141-.751L23.817,6.838A.59.59,0,0,0,23.1,6.58L20.178,7.754A8.576,8.576,0,0,0,18.195,6.6l-.446-3.11A.572.572,0,0,0,17.173,3h-4.7a.572.572,0,0,0-.575.493L11.457,6.6a9.018,9.018,0,0,0-1.984,1.15L6.551,6.58a.573.573,0,0,0-.716.258L3.487,10.9a.579.579,0,0,0,.141.751L6.1,13.587a9.309,9.309,0,0,0-.082,1.15,9.309,9.309,0,0,0,.082,1.15L3.628,17.825a.592.592,0,0,0-.141.751l2.348,4.061a.59.59,0,0,0,.716.258l2.923-1.174a8.576,8.576,0,0,0,1.984,1.15l.446,3.11a.572.572,0,0,0,.575.493h4.7a.572.572,0,0,0,.575-.493l.446-3.11a9.018,9.018,0,0,0,1.984-1.15L23.1,22.9a.573.573,0,0,0,.716-.258l2.348-4.061a.592.592,0,0,0-.141-.751l-2.477-1.937Zm-8.721,2.958a4.108,4.108,0,1,1,4.108-4.108A4.113,4.113,0,0,1,14.826,18.846Z" transform="translate(-3.406 -3)"/>
  </g>
  <g id="Group_2961" data-name="Group 2961" transform="translate(84 1)">
    <path id="Icon_material-color-lens" data-name="Icon material-color-lens" d="M15.7,4.5a11.2,11.2,0,0,0,0,22.4,1.867,1.867,0,0,0,1.381-3.123,1.859,1.859,0,0,1,1.394-3.1h2.2A6.224,6.224,0,0,0,26.9,14.455C26.9,8.955,21.883,4.5,15.7,4.5Z" transform="translate(-4.5 -4.5)" fill="#73b1da"/>
    <path id="Icon_material-color-lens-2" data-name="Icon material-color-lens" d="M15.7,4.5a11.2,11.2,0,0,0,0,22.4,1.867,1.867,0,0,0,1.381-3.123,1.859,1.859,0,0,1,1.394-3.1h2.2A6.224,6.224,0,0,0,26.9,14.455C26.9,8.955,21.883,4.5,15.7,4.5ZM8.855,15.7a1.867,1.867,0,1,1,1.867-1.867A1.864,1.864,0,0,1,8.855,15.7Zm3.733-4.977a1.867,1.867,0,1,1,1.867-1.867A1.864,1.864,0,0,1,12.588,10.722Zm6.222,0a1.867,1.867,0,1,1,1.867-1.867A1.864,1.864,0,0,1,18.81,10.722ZM22.543,15.7a1.867,1.867,0,1,1,1.867-1.867A1.864,1.864,0,0,1,22.543,15.7Z" transform="translate(-4.5 -4.5)"/>
  </g>
  <g id="Group_2963" data-name="Group 2963" transform="translate(126)">
    <path id="Icon_material-notifications-none" data-name="Icon material-notifications-none" d="M16.6,29.583a2.657,2.657,0,0,0,2.65-2.65h-5.3A2.657,2.657,0,0,0,16.6,29.583Zm7.949-7.949V15.01c0-4.067-2.159-7.472-5.961-8.372v-.9a1.987,1.987,0,1,0-3.974,0v.9c-3.789.9-5.961,4.292-5.961,8.372v6.624L6,24.284v1.325H27.2V24.284Z" transform="translate(-6 -3.75)" fill="#73b1da"/>
    <path id="Icon_material-notifications-none-2" data-name="Icon material-notifications-none" d="M16.6,29.583a2.657,2.657,0,0,0,2.65-2.65h-5.3A2.657,2.657,0,0,0,16.6,29.583Zm7.949-7.949V15.01c0-4.067-2.159-7.472-5.961-8.372v-.9a1.987,1.987,0,1,0-3.974,0v.9c-3.789.9-5.961,4.292-5.961,8.372v6.624L6,24.284v1.325H27.2V24.284ZM21.9,22.959H11.3V15.01c0-3.285,2-5.961,5.3-5.961s5.3,2.676,5.3,5.961Z" transform="translate(-6 -3.75)"/>
  </g>
  <g id="Group_2964" data-name="Group 2964" transform="translate(166 4.05)">
    <path id="Icon_metro-exit" data-name="Icon metro-exit" d="M20.721,17.053V7.978l4.537,4.537ZM19.208,15.54v6.05H11.646v4.537L2.571,21.59V1.928H19.208V15.54Z" transform="translate(-2.571 -1.928)" fill="#73b1da"/>
    <path id="Icon_metro-exit-2" data-name="Icon metro-exit" d="M20.721,17.053V14.028H13.158V11h7.562V7.978l4.537,4.537ZM19.208,15.54v6.05H11.646v4.537L2.571,21.59V1.928H19.208V9.49H17.7V3.441H5.6l6.05,3.025V20.078H17.7V15.54Z" transform="translate(-2.571 -1.928)"/>
  </g>
</svg>
