<svg xmlns="http://www.w3.org/2000/svg" xmlns:xlink="http://www.w3.org/1999/xlink" width="385" height="392" viewBox="0 0 385 392">
  <defs>
    <filter id="Background" x="-15.5" y="-5.5" width="416" height="423" filterUnits="userSpaceOnUse">
      <feOffset dy="10" input="SourceAlpha"/>
      <feGaussianBlur stdDeviation="5" result="blur"/>
      <feFlood flood-opacity="0.039"/>
      <feComposite operator="in" in2="blur"/>
      <feComposite in="SourceGraphic"/>
    </filter>
    <clipPath id="clip-path">
      <g transform="matrix(1, 0, 0, 1, 0, 0)" filter="url(#Background)">
        <rect id="Background-2" data-name="Background" width="385" height="392" transform="translate(140 1354)" fill="#fff" stroke="rgba(0,0,0,0)" stroke-width="1"/>
      </g>
    </clipPath>
    <filter id="Background-3" x="-15.5" y="-5.5" width="416" height="423" filterUnits="userSpaceOnUse">
      <feOffset dy="10" input="SourceAlpha"/>
      <feGaussianBlur stdDeviation="5" result="blur-2"/>
      <feFlood flood-opacity="0.039"/>
      <feComposite operator="in" in2="blur-2"/>
      <feComposite in="SourceGraphic"/>
    </filter>
    <clipPath id="clip-path-2">
      <rect id="Rectangle_479" data-name="Rectangle 479" width="408" height="408" transform="translate(0)" fill="none"/>
    </clipPath>
  </defs>
  <g id="our-documents-bg" transform="translate(-140 -1354)" clip-path="url(#clip-path)">
    <g transform="matrix(1, 0, 0, 1, 140, 1354)" filter="url(#Background-3)">
      <rect id="Background-4" data-name="Background" width="385" height="392" fill="#fff" stroke="rgba(0,0,0,0)" stroke-width="1"/>
    </g>
    <g id="Group_3086" data-name="Group 3086" transform="translate(26 1354)" opacity="0.2">
      <g id="Group_3116" data-name="Group 3116">
        <g id="Group_3115" data-name="Group 3115">
          <path id="Path_9688" data-name="Path 9688" d="M400.661,0h2.327L690.182,404.957v3.282Z" transform="translate(-110.182)" fill="#e4eaf0"/>
          <path id="Path_9689" data-name="Path 9689" d="M383.594,0h2.328L685.488,422.4v3.282Z" transform="translate(-105.488)" fill="#e4eaf0"/>
          <path id="Path_9690" data-name="Path 9690" d="M349.457,0h2.327L676.1,457.3v3.282Z" transform="translate(-96.101)" fill="#e4eaf0"/>
          <path id="Path_9691" data-name="Path 9691" d="M366.525,0h2.328L680.794,439.854v3.282Z" transform="translate(-100.794)" fill="#e4eaf0"/>
          <path id="Path_9692" data-name="Path 9692" d="M451.866,0h2.327L704.263,352.61v3.282Z" transform="translate(-124.263)" fill="#e4eaf0"/>
          <path id="Path_9693" data-name="Path 9693" d="M468.935,0h2.328L708.957,335.161v3.282Z" transform="translate(-128.957)" fill="#e4eaf0"/>
          <path id="Path_9694" data-name="Path 9694" d="M332.389,0h2.328l336.69,474.751v3.282Z" transform="translate(-91.407)" fill="#e4eaf0"/>
          <path id="Path_9695" data-name="Path 9695" d="M434.8,0h2.327L699.57,370.059v3.282Z" transform="translate(-119.57)" fill="#e4eaf0"/>
          <path id="Path_9696" data-name="Path 9696" d="M417.731,0h2.328L694.876,387.507v3.282Z" transform="translate(-114.876)" fill="#e4eaf0"/>
          <path id="Path_9697" data-name="Path 9697" d="M195.842,0h2.328L609.5,580h-2.328Z" transform="translate(-53.857)" fill="#e4eaf0"/>
          <path id="Path_9698" data-name="Path 9698" d="M178.773,0H181.1L592.434,580h-2.328Z" transform="translate(-49.163)" fill="#e4eaf0"/>
          <path id="Path_9699" data-name="Path 9699" d="M161.705,0h2.328L575.366,580h-2.328Z" transform="translate(-44.469)" fill="#e4eaf0"/>
          <path id="Path_9700" data-name="Path 9700" d="M144.637,0h2.328L558.3,580H555.97Z" transform="translate(-39.775)" fill="#e4eaf0"/>
          <path id="Path_9701" data-name="Path 9701" d="M486,0h2.328l225.32,317.713v3.282Z" transform="translate(-133.651)" fill="#e4eaf0"/>
          <path id="Path_9702" data-name="Path 9702" d="M127.568,0H129.9L541.229,580H538.9Z" transform="translate(-35.081)" fill="#e4eaf0"/>
          <path id="Path_9703" data-name="Path 9703" d="M298.252,0h2.328l361.44,509.648v3.282Z" transform="translate(-82.019)" fill="#e4eaf0"/>
          <path id="Path_9704" data-name="Path 9704" d="M315.319,0h2.328L666.713,492.2v3.282Z" transform="translate(-86.713)" fill="#e4eaf0"/>
          <path id="Path_9705" data-name="Path 9705" d="M212.91,0h2.328L626.571,580h-2.328Z" transform="translate(-58.55)" fill="#e4eaf0"/>
          <path id="Path_9706" data-name="Path 9706" d="M247.047,0h2.327L647.938,561.994v3.282Z" transform="translate(-67.938)" fill="#e4eaf0"/>
          <path id="Path_9707" data-name="Path 9707" d="M281.184,0h2.328L657.326,527.1v3.282Z" transform="translate(-77.326)" fill="#e4eaf0"/>
          <path id="Path_9708" data-name="Path 9708" d="M707.892,0h2.328L774.67,90.879v3.282Z" transform="translate(-194.67)" fill="#e4eaf0"/>
          <path id="Path_9709" data-name="Path 9709" d="M724.959,0h2.328l52.077,73.431v3.282Z" transform="translate(-199.364)" fill="#e4eaf0"/>
          <path id="Path_9710" data-name="Path 9710" d="M742.029,0h2.328l39.7,55.981v3.282Z" transform="translate(-204.058)" fill="#e4eaf0"/>
          <path id="Path_9711" data-name="Path 9711" d="M673.755,0h2.328l89.2,125.777v3.282Z" transform="translate(-185.283)" fill="#e4eaf0"/>
          <path id="Path_9712" data-name="Path 9712" d="M690.824,0h2.328l76.825,108.327v3.282Z" transform="translate(-189.977)" fill="#e4eaf0"/>
          <path id="Path_9713" data-name="Path 9713" d="M232.305,0,643.244,579.444V580h-1.933L229.977,0Z" transform="translate(-63.244)" fill="#e4eaf0"/>
          <path id="Path_9714" data-name="Path 9714" d="M759.1,0h2.327l27.328,38.533v3.282Z" transform="translate(-208.751)" fill="#e4eaf0"/>
          <path id="Path_9715" data-name="Path 9715" d="M793.234,0h2.328l2.578,3.636V6.917Z" transform="translate(-218.139)" fill="#e4eaf0"/>
          <path id="Path_9716" data-name="Path 9716" d="M776.165,0h2.328l14.953,21.084v3.282Z" transform="translate(-213.445)" fill="#e4eaf0"/>
          <path id="Path_9717" data-name="Path 9717" d="M554.277,0H556.6L732.426,247.917V251.2Z" transform="translate(-152.426)" fill="#e4eaf0"/>
          <path id="Path_9718" data-name="Path 9718" d="M503.072,0H505.4L718.345,300.264v3.282Z" transform="translate(-138.345)" fill="#e4eaf0"/>
          <path id="Path_9719" data-name="Path 9719" d="M656.687,0h2.328L760.589,143.225v3.282Z" transform="translate(-180.589)" fill="#e4eaf0"/>
          <path id="Path_9720" data-name="Path 9720" d="M520.14,0h2.328L723.039,282.815V286.1Z" transform="translate(-143.039)" fill="#e4eaf0"/>
          <path id="Path_9721" data-name="Path 9721" d="M571.345,0h2.328L737.12,230.469v3.282Z" transform="translate(-157.12)" fill="#e4eaf0"/>
          <path id="Path_9722" data-name="Path 9722" d="M537.208,0h2.328l188.2,265.366v3.282Z" transform="translate(-147.732)" fill="#e4eaf0"/>
          <path id="Path_9723" data-name="Path 9723" d="M622.55,0h2.328L751.2,178.123v3.282Z" transform="translate(-171.201)" fill="#e4eaf0"/>
          <path id="Path_9724" data-name="Path 9724" d="M639.619,0h2.327L755.9,160.674v3.282Z" transform="translate(-175.895)" fill="#e4eaf0"/>
          <path id="Path_9725" data-name="Path 9725" d="M588.413,0h2.328L741.813,213.02V216.3Z" transform="translate(-161.813)" fill="#e4eaf0"/>
          <path id="Path_9726" data-name="Path 9726" d="M605.482,0h2.328l138.7,195.571v3.282Z" transform="translate(-166.508)" fill="#e4eaf0"/>
          <path id="Path_9727" data-name="Path 9727" d="M264.115,0h2.328L652.632,544.546v3.282Z" transform="translate(-72.632)" fill="#e4eaf0"/>
          <path id="Path_9728" data-name="Path 9728" d="M110.5,0h2.328L524.161,580h-2.327Z" transform="translate(-30.388)" fill="#e4eaf0"/>
          <path id="Path_9729" data-name="Path 9729" d="M0,468.692V465.41L172.035,707.988h-2.328Z" transform="translate(0 -127.988)" fill="#e4eaf0"/>
          <path id="Path_9730" data-name="Path 9730" d="M0,516.827v-3.282l147.286,207.68h-2.327Z" transform="translate(0 -141.225)" fill="#e4eaf0"/>
          <path id="Path_9731" data-name="Path 9731" d="M0,540.893v-3.282L134.912,727.843h-2.328Z" transform="translate(0 -147.843)" fill="#e4eaf0"/>
          <path id="Path_9732" data-name="Path 9732" d="M0,564.961V561.68L122.536,734.462h-2.328Z" transform="translate(0 -154.462)" fill="#e4eaf0"/>
          <path id="Path_9733" data-name="Path 9733" d="M0,444.625v-3.282L184.409,701.369h-2.327Z" transform="translate(0 -121.369)" fill="#e4eaf0"/>
          <path id="Path_9734" data-name="Path 9734" d="M0,372.423v-3.282L221.533,681.514h-2.328Z" transform="translate(0 -101.514)" fill="#e4eaf0"/>
          <path id="Path_9735" data-name="Path 9735" d="M0,348.355v-3.282L233.908,674.9h-2.327Z" transform="translate(0 -94.895)" fill="#e4eaf0"/>
          <path id="Path_9736" data-name="Path 9736" d="M0,396.491v-3.282L209.159,688.132h-2.327Z" transform="translate(0 -108.132)" fill="#e4eaf0"/>
          <path id="Path_9737" data-name="Path 9737" d="M0,420.557v-3.282L196.784,694.75h-2.328Z" transform="translate(0 -114.751)" fill="#e4eaf0"/>
          <path id="Path_9738" data-name="Path 9738" d="M0,637.163v-3.282L85.413,754.317H83.085Z" transform="translate(0 -174.317)" fill="#e4eaf0"/>
          <path id="Path_9739" data-name="Path 9739" d="M0,757.5v-3.282L23.54,787.41H21.213Z" transform="translate(0 -207.41)" fill="#e4eaf0"/>
          <path id="Path_9740" data-name="Path 9740" d="M0,709.364v-3.282l48.29,68.09H45.962Z" transform="translate(0 -194.173)" fill="#e4eaf0"/>
          <path id="Path_9741" data-name="Path 9741" d="M0,733.43v-3.282l35.916,50.642H33.588Z" transform="translate(0 -200.791)" fill="#e4eaf0"/>
          <path id="Path_9742" data-name="Path 9742" d="M0,589.028v-3.282L110.162,741.08h-2.328Z" transform="translate(0 -161.08)" fill="#e4eaf0"/>
          <path id="Path_9743" data-name="Path 9743" d="M0,781.565v-3.282l11.166,15.745H8.838Z" transform="translate(0 -214.028)" fill="#e4eaf0"/>
          <path id="Path_9744" data-name="Path 9744" d="M0,613.094v-3.282L97.788,747.7H95.461Z" transform="translate(0 -167.698)" fill="#e4eaf0"/>
          <path id="Path_9745" data-name="Path 9745" d="M0,324.289v-3.282l246.282,347.27h-2.328Z" transform="translate(0 -88.277)" fill="#e4eaf0"/>
          <path id="Path_9746" data-name="Path 9746" d="M0,685.3v-3.282l60.664,85.54H58.337Z" transform="translate(0 -187.554)" fill="#e4eaf0"/>
          <path id="Path_9747" data-name="Path 9747" d="M0,661.229v-3.282L73.039,760.935H70.711Z" transform="translate(0 -180.936)" fill="#e4eaf0"/>
          <path id="Path_9748" data-name="Path 9748" d="M0,492.759v-3.282L159.661,714.606h-2.328Z" transform="translate(0 -134.606)" fill="#e4eaf0"/>
          <path id="Path_9749" data-name="Path 9749" d="M0,11.416V8.134l407.151,574.1h-2.328Z" transform="translate(0 -2.237)" fill="#e4eaf0"/>
          <path id="Path_9750" data-name="Path 9750" d="M8.09,0h2.327L421.75,580h-2.328Z" transform="translate(-2.225)" fill="#e4eaf0"/>
          <path id="Path_9751" data-name="Path 9751" d="M0,59.551V56.269L382.4,595.474h-2.327Z" transform="translate(0 -15.474)" fill="#e4eaf0"/>
          <path id="Path_9752" data-name="Path 9752" d="M25.159,0h2.327L438.819,580h-2.328Z" transform="translate(-6.919)" fill="#e4eaf0"/>
          <path id="Path_9753" data-name="Path 9753" d="M0,35.482V32.2L394.777,588.855H392.45Z" transform="translate(0 -8.855)" fill="#e4eaf0"/>
          <path id="Path_9754" data-name="Path 9754" d="M76.363,0h2.328L490.024,580H487.7Z" transform="translate(-21)" fill="#e4eaf0"/>
          <path id="Path_9755" data-name="Path 9755" d="M42.226,0h2.328L455.887,580H453.56Z" transform="translate(-11.612)" fill="#e4eaf0"/>
          <path id="Path_9756" data-name="Path 9756" d="M93.431,0h2.328L507.092,580h-2.328Z" transform="translate(-25.693)" fill="#e4eaf0"/>
          <path id="Path_9757" data-name="Path 9757" d="M0,300.22v-3.282l258.657,364.72H256.33Z" transform="translate(0 -81.658)" fill="#e4eaf0"/>
          <path id="Path_9758" data-name="Path 9758" d="M59.3,0h2.328L472.956,580h-2.328Z" transform="translate(-16.306)" fill="#e4eaf0"/>
          <path id="Path_9759" data-name="Path 9759" d="M0,252.088v-3.282L283.406,648.422h-2.328Z" transform="translate(0 -68.422)" fill="#e4eaf0"/>
          <path id="Path_9760" data-name="Path 9760" d="M0,228.019v-3.282L295.781,641.8h-2.327Z" transform="translate(0 -61.803)" fill="#e4eaf0"/>
          <path id="Path_9761" data-name="Path 9761" d="M0,203.953v-3.282L308.155,635.185h-2.328Z" transform="translate(0 -55.185)" fill="#e4eaf0"/>
          <path id="Path_9762" data-name="Path 9762" d="M0,276.154v-3.282L271.031,655.04H268.7Z" transform="translate(0 -75.04)" fill="#e4eaf0"/>
          <path id="Path_9763" data-name="Path 9763" d="M0,155.818v-3.282L332.9,621.947h-2.328Z" transform="translate(0 -41.947)" fill="#e4eaf0"/>
          <path id="Path_9764" data-name="Path 9764" d="M0,131.752V128.47L345.278,615.329h-2.328Z" transform="translate(0 -35.329)" fill="#e4eaf0"/>
          <path id="Path_9765" data-name="Path 9765" d="M0,107.683V104.4L357.654,608.71h-2.327Z" transform="translate(0 -28.71)" fill="#e4eaf0"/>
          <path id="Path_9766" data-name="Path 9766" d="M0,179.886V176.6L320.529,628.566H318.2Z" transform="translate(0 -48.566)" fill="#e4eaf0"/>
          <path id="Path_9767" data-name="Path 9767" d="M0,83.617V80.335L370.028,602.092H367.7Z" transform="translate(0 -22.092)" fill="#e4eaf0"/>
        </g>
      </g>
    </g>
    <g id="Group_3270" data-name="Group 3270" transform="translate(124 1354)" opacity="0.3">
      <g id="Group_3269" data-name="Group 3269" transform="translate(0 0)" clip-path="url(#clip-path-2)">
        <circle id="Ellipse_1182" data-name="Ellipse 1182" cx="27.03" cy="27.03" r="27.03" transform="translate(75.721 77.52)" fill="#b4d06d"/>
        <circle id="Ellipse_1183" data-name="Ellipse 1183" cx="8.67" cy="8.67" r="8.67" transform="translate(122.131 122.91)" fill="#b4d06d"/>
        <circle id="Ellipse_1184" data-name="Ellipse 1184" cx="27.03" cy="27.03" r="27.03" transform="translate(159.866 370.5)" fill="#b4d06d"/>
        <circle id="Ellipse_1185" data-name="Ellipse 1185" cx="8.67" cy="8.67" r="8.67" transform="translate(217.751 367.698)" fill="#b4d06d"/>
        <circle id="Ellipse_1186" data-name="Ellipse 1186" cx="23.229" cy="23.229" r="23.229" transform="translate(338.37 3.57)" fill="#b4d06d"/>
        <circle id="Ellipse_1187" data-name="Ellipse 1187" cx="7.451" cy="7.451" r="7.451" transform="translate(392.293 29.118) rotate(-45)" fill="#b4d06d"/>
        <circle id="Ellipse_1189" data-name="Ellipse 1189" cx="24.48" cy="24.48" r="24.48" transform="translate(179.761 51)" fill="#f5c75f"/>
        <circle id="Ellipse_1190" data-name="Ellipse 1190" cx="22.95" cy="22.95" r="22.95" transform="translate(284.311 79.05)" fill="#84cacb"/>
        <circle id="Ellipse_1192" data-name="Ellipse 1192" cx="9.412" cy="9.412" r="9.412" transform="translate(169.607 278.175)" fill="#ec9394"/>
        <circle id="Ellipse_1193" data-name="Ellipse 1193" cx="24.914" cy="24.914" r="24.914" transform="translate(194.198 277.583)" fill="#ec9394"/>
        <circle id="Ellipse_1194" data-name="Ellipse 1194" cx="9.412" cy="9.412" r="9.412" transform="translate(-6.334 351.611)" fill="#ec9394"/>
        <circle id="Ellipse_1195" data-name="Ellipse 1195" cx="24.914" cy="24.914" r="24.914" transform="matrix(0.211, -0.978, 0.978, 0.211, -1.73, 409.577)" fill="#ec9394"/>
        <circle id="Ellipse_1196" data-name="Ellipse 1196" cx="9.412" cy="9.412" r="9.412" transform="translate(383.031 130.537)" fill="#ec9394"/>
        <circle id="Ellipse_1197" data-name="Ellipse 1197" cx="24.914" cy="24.914" r="24.914" transform="translate(365.549 152.894)" fill="#ec9394"/>
        <circle id="Ellipse_1198" data-name="Ellipse 1198" cx="5.865" cy="5.865" r="5.865" transform="translate(315.421 126.99)" fill="#84cacb"/>
        <circle id="Ellipse_1199" data-name="Ellipse 1199" cx="24.674" cy="24.674" r="24.674" transform="translate(355.013 393.224) rotate(-45)" fill="#84cacb"/>
        <path id="Path_9768" data-name="Path 9768" d="M706.251,725.715a6.305,6.305,0,1,1,8.124-3.676A6.305,6.305,0,0,1,706.251,725.715Z" transform="translate(-344.062 -349.619)" fill="#84cacb"/>
        <circle id="Ellipse_1200" data-name="Ellipse 1200" cx="24.674" cy="24.674" r="24.674" transform="translate(45.297 314.53) rotate(-85.227)" fill="#84cacb"/>
        <path id="Path_9769" data-name="Path 9769" d="M88.6,515.7a7.205,7.205,0,1,1,9.284-4.2A7.205,7.205,0,0,1,88.6,515.7Z" transform="translate(-41.128 -245.859)" fill="#84cacb"/>
        <circle id="Ellipse_1201" data-name="Ellipse 1201" cx="22.95" cy="22.95" r="22.95" transform="translate(182.311 -24.99)" fill="#84cacb"/>
        <circle id="Ellipse_1202" data-name="Ellipse 1202" cx="5.865" cy="5.865" r="5.865" transform="translate(234.331 4.08)" fill="#84cacb"/>
        <circle id="Ellipse_1203" data-name="Ellipse 1203" cx="8.415" cy="8.415" r="8.415" transform="translate(224.13 37.74)" fill="#f5c75f"/>
        <circle id="Ellipse_1204" data-name="Ellipse 1204" cx="24.48" cy="24.48" r="24.48" transform="translate(296.8 265.954)" fill="#f5c75f"/>
        <circle id="Ellipse_1205" data-name="Ellipse 1205" cx="8.415" cy="8.415" r="8.415" transform="translate(348.819 262.639)" fill="#f5c75f"/>
        <circle id="Ellipse_1206" data-name="Ellipse 1206" cx="24.48" cy="24.48" r="24.48" transform="translate(-8.842 209.842) rotate(-85.479)" fill="#f5c75f"/>
        <circle id="Ellipse_1207" data-name="Ellipse 1207" cx="8.415" cy="8.415" r="8.415" transform="matrix(0.253, -0.967, 0.967, 0.253, 28.474, 158.496)" fill="#f5c75f"/>
        <g id="Group_3125" data-name="Group 3125" transform="translate(271.239 78.292)">
          <g id="Group_3124" data-name="Group 3124">
            <g id="Group_3121" data-name="Group 3121" transform="translate(1.031 32.162)">
              <path id="Path_9770" data-name="Path 9770" d="M534.245,220.848a.382.382,0,0,1-.255-.667l3.918-3.506a.382.382,0,1,1,.51.57L534.5,220.75A.379.379,0,0,1,534.245,220.848Z" transform="translate(-533.862 -216.577)" fill="#533f28"/>
            </g>
            <g id="Group_3122" data-name="Group 3122">
              <path id="Path_9771" data-name="Path 9771" d="M574.348,209.16a.691.691,0,0,1-.269-.058.588.588,0,0,1-.186-.117c-4.448.687-35.388-8.992-41.785-11.014a.382.382,0,0,1-.155-.635c.011-.012,1.507-1.681.921-7.735a.382.382,0,0,1,.474-.408l35.25,8.858c-10.76-4.236-35.581-13.377-35.887-13.489a.383.383,0,0,1-.087-.673c4.545-3.162,27.85-28.626,28.524-30.131a.415.415,0,0,1,.221-.215.4.4,0,0,1,.3,0c.123.058,12.424,5.842,20.261,7.463s15.046,3.71,16.379,4.747c1.367,1.063,2.072,4.451,2.072,5.663a.383.383,0,0,1-.042.175c-.117.227-11.788,22.819-18.885,31.007C576.418,208.409,574.931,209.16,574.348,209.16ZM532.825,197.4c15.21,4.795,39.383,11.849,41.023,10.84l.007-.005c1.01-.813,1.618-2.777,1.442-4.67a4.387,4.387,0,0,0-1.971-3.532l-39.643-9.962C534.036,194.458,533.289,196.549,532.825,197.4Zm40.828,1.94a5.043,5.043,0,0,1,2.405,4.154,7.249,7.249,0,0,1-.99,4.512,40.364,40.364,0,0,0,5.807-5.9c6.818-7.866,17.947-29.242,18.739-30.772-.034-1.189-.7-4.131-1.776-4.969s-7.523-2.834-16.065-4.6c-7.226-1.5-18.156-6.466-20.124-7.377-2.377,3.4-22.727,25.412-28.022,29.705,5.163,1.9,37.071,13.683,40.01,15.243Z" transform="translate(-531.841 -153.514)" fill="#533f28"/>
            </g>
            <g id="Group_3123" data-name="Group 3123" transform="translate(41.242 12.159)">
              <path id="Path_9772" data-name="Path 9772" d="M613.09,211.734a.383.383,0,0,1-.309-.608c.949-1.305,23.256-31.991,24.623-33.632a.383.383,0,1,1,.587.49c-1.35,1.621-24.36,33.273-24.592,33.593A.383.383,0,0,1,613.09,211.734Z" transform="translate(-612.708 -177.356)" fill="#533f28"/>
            </g>
          </g>
        </g>
        <g id="Group_3130" data-name="Group 3130" transform="translate(-25.608 360.241)">
          <g id="Group_3129" data-name="Group 3129">
            <g id="Group_3126" data-name="Group 3126" transform="translate(4.149 22.985)">
              <path id="Path_9773" data-name="Path 9773" d="M-41.695,754.2a.382.382,0,0,1-.358-.246.383.383,0,0,1,.221-.494l5.3-2.016a.384.384,0,0,1,.494.221.383.383,0,0,1-.222.494l-5.3,2.016A.388.388,0,0,1-41.695,754.2Z" transform="translate(42.077 -751.423)" fill="#533f28"/>
            </g>
            <g id="Group_3127" data-name="Group 3127">
              <path id="Path_9774" data-name="Path 9774" d="M-11.462,767.394a.8.8,0,0,1-.63-.21.6.6,0,0,1-.14-.191c-4.648-.959-32.164-22.736-37.836-27.254a.383.383,0,0,1-.141-.347.384.384,0,0,1,.224-.3c.017-.008,2.179-1.111,3.936-7.455a.382.382,0,0,1,.24-.258.387.387,0,0,1,.349.047L-13,754.246c-9-8.266-31.008-27.546-31.276-27.781a.384.384,0,0,1-.12-.378.385.385,0,0,1,.281-.281c5.862-1.442,39.165-18.079,40.4-19.329a.412.412,0,0,1,.281-.123h0a.391.391,0,0,1,.282.109c.1.107,10.258,10.692,17.528,15.359s13.714,9.548,14.654,11.106c.961,1.592.362,5.263-.105,6.48a.376.376,0,0,1-.1.148c-.206.184-20.7,18.425-31.008,23.927C-8.3,766.746-10.555,767.394-11.462,767.394Zm2.675-10.172a5.415,5.415,0,0,1,.81,5.086,7.682,7.682,0,0,1-2.868,4.24c1-.23,3.256-1.051,8.3-3.742,9.928-5.3,29.449-22.57,30.788-23.759.428-1.21.9-4.454.134-5.725s-6.49-5.772-14.413-10.858c-6.722-4.314-15.847-13.6-17.43-15.227-3.6,2.46-32.865,16.887-39.78,19.113,4.339,3.8,32.086,28.149,34.446,30.859Zm-40.4-17.762c13.508,10.746,35.2,27.274,37.186,26.812l.006,0c1.344-.431,2.725-2.184,3.283-4.169a4.759,4.759,0,0,0-.628-4.35L-45.46,732.36C-46.821,737-48.407,738.812-49.189,739.461Z" transform="translate(50.212 -706.354)" fill="#533f28"/>
            </g>
            <g id="Group_3128" data-name="Group 3128" transform="translate(40.747 26.387)">
              <path id="Path_9775" data-name="Path 9775" d="M30.068,783.2a.383.383,0,0,1-.209-.7c1.461-.948,35.8-23.232,37.808-24.355a.383.383,0,0,1,.374.668c-1.99,1.111-37.408,24.1-37.765,24.329A.38.38,0,0,1,30.068,783.2Z" transform="translate(-29.685 -758.094)" fill="#533f28"/>
            </g>
          </g>
        </g>
        <g id="Group_3137" data-name="Group 3137" transform="translate(153.603 273.553)">
          <g id="Group_3136" data-name="Group 3136">
            <g id="Group_3131" data-name="Group 3131" transform="translate(49.215)">
              <path id="Path_9776" data-name="Path 9776" d="M398.066,580.264a.383.383,0,0,1-.381-.412c.136-1.769,3-34.863,3.025-35.2a.382.382,0,0,1,.131-.256,33.955,33.955,0,0,1,22.444-8.02,28.638,28.638,0,0,1,4.961.372.383.383,0,0,1,.3.276c1.364,5.045,6.921,36.766,7.156,38.115a.381.381,0,0,1-.1.326.388.388,0,0,1-.32.12,39.175,39.175,0,0,0-4.025-.187c-12.989,0-32.9,4.8-33.1,4.852A.359.359,0,0,1,398.066,580.264Zm3.392-35.388c-.2,2.344-2.6,30.077-2.968,34.512,3.224-.755,20.862-4.752,32.766-4.752,1.3,0,2.513.048,3.6.143-.716-4.075-5.634-31.99-6.993-37.316a30.418,30.418,0,0,0-4.581-.319A33.226,33.226,0,0,0,401.458,544.877Z" transform="translate(-397.684 -536.379)" fill="#533f28"/>
            </g>
            <g id="Group_3132" data-name="Group 3132" transform="translate(0 11.226)">
              <path id="Path_9777" data-name="Path 9777" d="M398.9,599.024c-.955,0-41.319-.792-43.037-.825a.384.384,0,0,1-.351-.247,4.807,4.807,0,0,0-4.316-3.051,4.473,4.473,0,0,0-4.178,2.64.383.383,0,0,1-.358.247h0c-.416,0-41.686-.136-45.075,0a.369.369,0,0,1-.326-.159.381.381,0,0,1-.047-.359l13.609-35.881a.381.381,0,0,1,.216-.22l2.062-.825a.382.382,0,0,1,.284.71l-1.907.762-13.348,35.191c5.77-.107,40.993,0,44.289.014a5.255,5.255,0,0,1,4.779-2.886,5.566,5.566,0,0,1,4.925,3.3c3.3.064,38.7.757,42.471.816-.139-3.3-7.338-36.2-8.374-38.136a5.689,5.689,0,0,0-1.5-.994.383.383,0,1,1,.3-.7,6.372,6.372,0,0,1,1.769,1.181c.637.638,4.622,18.511,4.791,19.272,1.561,7.01,4.119,18.914,3.723,19.87A.432.432,0,0,1,398.9,599.024Z" transform="translate(-301.183 -558.391)" fill="#533f28"/>
            </g>
            <g id="Group_3133" data-name="Group 3133" transform="translate(49.215 4.077)">
              <path id="Path_9778" data-name="Path 9778" d="M443.3,587.344a.382.382,0,0,1-.158-.035c-5.907-2.684-44.684-3.123-45.075-3.127a.382.382,0,0,1-.044-.762c1.355-.17,32.521-4.038,41.6-1.43l-8.071-35.913a4.556,4.556,0,0,0-2.27-.938.382.382,0,1,1,0-.765,5.512,5.512,0,0,1,2.851,1.183.382.382,0,0,1,.134.215l.431,1.92a.35.35,0,0,1,.064.028,19.715,19.715,0,0,1,2.818,1.833.382.382,0,0,1,.125.21l7.973,37.118a.383.383,0,0,1-.374.463ZM404,583.515c10.768.225,32.84.913,38.773,2.839l-7.8-36.3a17.2,17.2,0,0,0-2.063-1.365l7.593,33.792a.382.382,0,0,1-.506.442C434.113,580.724,414.079,582.459,404,583.515Z" transform="translate(-397.684 -544.374)" fill="#533f28"/>
            </g>
            <g id="Group_3134" data-name="Group 3134" transform="translate(11.96 2.081)">
              <path id="Path_9779" data-name="Path 9779" d="M362.272,582.264a.363.363,0,0,1-.09-.011c-.2-.048-20.112-4.852-33.1-4.852a39.159,39.159,0,0,0-4.026.187.37.37,0,0,1-.342-.146.384.384,0,0,1-.056-.368c.111-.3,11.145-29.873,12.5-34.884a.38.38,0,0,1,.241-.261,32.043,32.043,0,0,1,9.825-1.468,27.349,27.349,0,0,1,18.185,6.489.382.382,0,0,1,.131.324c-1.046,11.354-2.994,33.191-2.887,34.58a.384.384,0,0,1-.382.412Zm-33.19-5.628c11.961,0,29.707,4.035,32.811,4.762.148-4.341,2.607-31.173,2.867-34a26.265,26.265,0,0,0-17.536-6.175,32.548,32.548,0,0,0-9.383,1.363c-1.47,5.19-10.68,29.961-12.253,34.181C326.649,576.68,327.821,576.636,329.082,576.636Z" transform="translate(-324.634 -540.46)" fill="#533f28"/>
            </g>
            <g id="Group_3135" data-name="Group 3135" transform="translate(3.711 6.415)">
              <path id="Path_9780" data-name="Path 9780" d="M308.842,590.827a.383.383,0,0,1-.361-.51L321.13,554.71a.381.381,0,0,1,.112-.162c.858-.736,2.869-2.308,3.35-2.683l.392-1.014a.38.38,0,0,1,.136-.174c.249-.176,2.475-1.72,3.795-1.72a.383.383,0,1,1,0,.765,8.581,8.581,0,0,0-3.259,1.514l-.348.9a.373.373,0,0,1-.067.173L312.924,584.2c9.228-2.538,40.121,1.3,41.47,1.465a.382.382,0,0,1-.032.761c-.394.016-39.449,1.678-45.361,4.365A.386.386,0,0,1,308.842,590.827Zm12.974-35.764L309.478,589.8c6.345-2.036,29.861-3.4,40.1-3.913-9.611-1.035-31.039-3-37.161-.718a.383.383,0,0,1-.49-.5l12.129-31.409C323.305,553.849,322.361,554.6,321.816,555.063Z" transform="translate(-308.46 -548.957)" fill="#533f28"/>
            </g>
          </g>
        </g>
        <g id="Group_3144" data-name="Group 3144" transform="translate(334.03 -21.635)">
          <g id="Group_3143" data-name="Group 3143">
            <g id="Group_3138" data-name="Group 3138" transform="translate(33.187)">
              <path id="Path_9781" data-name="Path 9781" d="M731.4,9.466a.363.363,0,0,1-.114-.017.382.382,0,0,1-.248-.243c-.567-1.68-10.879-33.258-10.983-33.576a.385.385,0,0,1,.02-.288c7.048-14.347,22.079-17.724,22.23-17.756a.387.387,0,0,1,.381.138c3.228,4.11,20.75,31.13,21.494,32.278a.384.384,0,0,1,.039.339.382.382,0,0,1-.247.235c-11.92,3.658-32.14,18.663-32.343,18.815A.381.381,0,0,1,731.4,9.466ZM720.827-24.46c.731,2.237,9.373,28.7,10.767,32.924C734.548,6.3,752.152-6.384,763.262-10c-2.253-3.471-17.7-27.235-21.03-31.608C740.329-41.128,727.256-37.387,720.827-24.46Z" transform="translate(-720.032 42.423)" fill="#533f28"/>
            </g>
            <g id="Group_3139" data-name="Group 3139" transform="translate(0 6.872)">
              <path id="Path_9782" data-name="Path 9782" d="M656.851,41.518a.382.382,0,0,1-.382-.368L654.961,2.8a.38.38,0,0,1,.113-.287L656.649.952a.382.382,0,0,1,.539.543l-1.456,1.447,1.479,37.608C662.48,38.2,694.94,24.52,697.978,23.24a5.256,5.256,0,0,1,3.27-4.526,5.568,5.568,0,0,1,5.824,1.115c3.061-1.231,35.915-14.44,39.407-15.86C745.061.99,725.568-26.476,723.856-27.854a5.7,5.7,0,0,0-1.774-.325.383.383,0,0,1-.381-.384.383.383,0,0,1,.382-.381,5.847,5.847,0,0,1,2.092.394c.836.338,11.494,15.23,11.948,15.864,4.178,5.842,11.188,15.8,11.2,16.831a.43.43,0,0,1-.258.412c-.879.373-38.337,15.433-39.931,16.074a.385.385,0,0,1-.419-.091,4.807,4.807,0,0,0-5.166-1.12,4.476,4.476,0,0,0-2.814,4.065.381.381,0,0,1-.234.367c-.384.161-38.418,16.18-41.485,17.63A.374.374,0,0,1,656.851,41.518Z" transform="translate(-654.96 28.949)" fill="#533f28"/>
            </g>
            <g id="Group_3140" data-name="Group 3140" transform="translate(44.169 2.768)">
              <path id="Path_9783" data-name="Path 9783" d="M741.948,12.125a.382.382,0,0,1-.192-.713c1.181-.687,28.352-16.437,37.721-17.585L758-36.068a4.559,4.559,0,0,0-2.456.024.385.385,0,0,1-.5-.2.383.383,0,0,1,.2-.5,5.508,5.508,0,0,1,3.086-.026.381.381,0,0,1,.208.145l1.147,1.6a.517.517,0,0,1,.069,0,19.81,19.81,0,0,1,3.311.586.383.383,0,0,1,.2.144L785.123-3.258a.383.383,0,0,1,.024.4.374.374,0,0,1-.347.2c-6.505-.15-42.345,14.6-42.707,14.752A.388.388,0,0,1,741.948,12.125ZM760.285-34.2,780.49-6.073a.382.382,0,0,1,.033.39.381.381,0,0,1-.326.215c-6.276.283-24.036,9.713-32.9,14.628,10-4,30.58-12,36.793-12.552L762.717-33.752A17.211,17.211,0,0,0,760.285-34.2Z" transform="translate(-741.566 36.995)" fill="#533f28"/>
            </g>
            <g id="Group_3141" data-name="Group 3141" transform="translate(5.908 16.872)">
              <path id="Path_9784" data-name="Path 9784" d="M669.072,35.946a.383.383,0,0,1-.382-.366c-.014-.318-1.427-31.852-2.141-36.994a.384.384,0,0,1,.12-.335c.083-.077,8.413-7.593,19.766-7.593a26.066,26.066,0,0,1,7.977,1.257.381.381,0,0,1,.247.247c3.479,10.857,10.228,31.718,10.869,32.954a.383.383,0,0,1-.277.554c-.25.041-25.088,4.185-35.993,10.227A.379.379,0,0,1,669.072,35.946Zm-1.739-37.26c.678,5.353,1.89,31.753,2.093,36.251,10.4-5.484,31.766-9.341,35.224-9.94-1.563-4.056-9.793-29.71-10.66-32.412a25.327,25.327,0,0,0-7.556-1.161C676.194-8.576,668.483-2.3,667.333-1.314Z" transform="translate(-666.545 9.341)" fill="#533f28"/>
            </g>
            <g id="Group_3142" data-name="Group 3142" transform="translate(1.723 27.29)">
              <path id="Path_9785" data-name="Path 9785" d="M661.009,57.533a.371.371,0,0,1-.128-.022.383.383,0,0,1-.254-.338L658.34,19.457a.378.378,0,0,1,.039-.193c.5-1.013,1.737-3.244,2.033-3.778l-.036-1.087a.383.383,0,0,1,.057-.214c.161-.26,1.6-2.551,2.821-3.067a.382.382,0,1,1,.3.7,8.582,8.582,0,0,0-2.408,2.669l.032.963a.379.379,0,0,1,.006.188l1.139,34.166c7.5-5.945,37.432-14.5,38.74-14.872a.383.383,0,0,1,.269.713c-.356.169-35.651,16.974-40.041,21.76A.382.382,0,0,1,661.009,57.533Zm-1.9-38.019,2.231,36.793c5.042-4.355,26.151-14.81,35.37-19.284-9.25,2.807-29.74,9.378-34.482,13.874a.382.382,0,0,1-.646-.265l-1.122-33.651C660.006,17.814,659.431,18.876,659.11,19.513Z" transform="translate(-658.339 -11.088)" fill="#533f28"/>
            </g>
          </g>
        </g>
        <g id="Group_3163" data-name="Group 3163" transform="translate(24.321 243.242)">
          <g id="Group_3162" data-name="Group 3162">
            <g id="Group_3145" data-name="Group 3145" transform="translate(18.44 2.728)">
              <path id="Path_9786" data-name="Path 9786" d="M95.429,549.048h0c-3.431,0-9.456-3.781-11.11-6.442a2.044,2.044,0,0,1-.333-2c.272-.55,31.017-56.9,33.163-57.964a3.707,3.707,0,0,1,1.656-.349c3.822,0,9.675,4.245,11.186,6.811a1.7,1.7,0,0,1,.259,1.68c-.31.558-31.885,56.685-32.931,57.646A2.707,2.707,0,0,1,95.429,549.048Zm23.376-65.989a2.965,2.965,0,0,0-1.318.27c-1.955,1.368-31.081,54.106-32.815,57.617-.177.359.063.881.3,1.256,1.526,2.456,7.3,6.081,10.46,6.081a1.981,1.981,0,0,0,1.373-.415c1.156-1.293,31.284-54.757,32.779-57.453.089-.162,0-.505-.248-.922C127.907,487.073,122.28,483.059,118.806,483.059Z" transform="translate(-83.845 -482.294)" fill="#533f28"/>
            </g>
            <g id="Group_3146" data-name="Group 3146" transform="translate(25.703 48.764)">
              <path id="Path_9787" data-name="Path 9787" d="M110.973,580.259a.422.422,0,0,1-.057,0c-7.021-1.043-12.5-6.805-12.726-7.051a.382.382,0,1,1,.558-.523c.054.058,5.527,5.813,12.281,6.817a.383.383,0,0,1-.056.761Z" transform="translate(-98.086 -572.56)" fill="#533f28"/>
            </g>
            <g id="Group_3147" data-name="Group 3147" transform="translate(24.169 51.53)">
              <path id="Path_9788" data-name="Path 9788" d="M107.766,586.043a.383.383,0,0,1-.093-.011,25.8,25.8,0,0,1-12.5-7.417.382.382,0,0,1,.582-.5,25.515,25.515,0,0,0,12.106,7.171.382.382,0,0,1-.092.753Z" transform="translate(-95.079 -577.984)" fill="#533f28"/>
            </g>
            <g id="Group_3148" data-name="Group 3148" transform="translate(45.957 12.522)">
              <path id="Path_9789" data-name="Path 9789" d="M150.846,509.757a.393.393,0,0,1-.087-.01c-5.878-1.364-12.552-7.329-12.834-7.582a.383.383,0,1,1,.512-.569c.067.061,6.81,6.087,12.495,7.406a.382.382,0,0,1-.086.755Z" transform="translate(-137.799 -501.499)" fill="#533f28"/>
            </g>
            <g id="Group_3149" data-name="Group 3149" transform="translate(31.273 7.25)">
              <path id="Path_9790" data-name="Path 9790" d="M121.56,560.411c-.112,0-10.22-.085-12.537-7.807a.383.383,0,1,1,.733-.22c1.969,6.564,10.127,7.2,11.582,7.256l34.3-61.859c-4.491-6.008-10.2-5.918-11.291-5.84l-1.769,3.189a.382.382,0,1,1-.669-.37l1.867-3.367a.383.383,0,0,1,.282-.194c.069-.01,7.1-.889,12.344,6.327a.383.383,0,0,1,.025.41l-34.534,62.278a.382.382,0,0,1-.334.2Z" transform="translate(-109.008 -491.16)" fill="#533f28"/>
            </g>
            <g id="Group_3150" data-name="Group 3150" transform="translate(36.518 54.04)">
              <path id="Path_9791" data-name="Path 9791" d="M125.512,597.69a.386.386,0,0,1-.178-.044l-5.838-3.08a.381.381,0,0,1-.153-.529c.048-.085,4.926-8.6,6.051-10.628a1.17,1.17,0,0,1,1.12-.5,9.992,9.992,0,0,1,5.6,2.549,1.152,1.152,0,0,1,.33.941c-.231,1.236-4.328,10-6.762,11.251A.377.377,0,0,1,125.512,597.69Zm-5.309-3.616,5.3,2.795c2.072-1.387,5.971-9.408,6.195-10.613,0,0,.015-.094-.166-.313a9.311,9.311,0,0,0-5.016-2.273c-.31,0-.431.071-.451.109C125.065,585.578,121.131,592.452,120.2,594.074Z" transform="translate(-119.292 -582.906)" fill="#533f28"/>
            </g>
            <g id="Group_3151" data-name="Group 3151" transform="translate(58.062 21.592)">
              <path id="Path_9792" data-name="Path 9792" d="M173.459,526.448a.393.393,0,0,1-.1-.012c-5.373-1.4-11.43-6.267-11.686-6.473a.382.382,0,1,1,.481-.595c.061.049,6.185,4.967,11.4,6.328a.383.383,0,0,1-.1.753Z" transform="translate(-161.534 -519.282)" fill="#533f28"/>
            </g>
            <g id="Group_3152" data-name="Group 3152" transform="translate(10.447 5.081)">
              <path id="Path_9793" data-name="Path 9793" d="M76.65,543.419h-.025a10.3,10.3,0,0,1-8.412-5.17.383.383,0,0,1,.007-.358l28.134-50.736a.382.382,0,0,1,.282-.194c4.213-.574,8.879,3.675,9.074,3.856a.382.382,0,0,1-.519.562c-.045-.041-4.455-4.066-8.264-3.683L68.992,538.073a9.74,9.74,0,0,0,7.682,4.582.382.382,0,0,1-.024.764Z" transform="translate(-68.171 -486.907)" fill="#533f28"/>
            </g>
            <g id="Group_3153" data-name="Group 3153" transform="translate(22.14 35.628)">
              <path id="Path_9794" data-name="Path 9794" d="M99.179,551.835h-.027a11.539,11.539,0,0,1-7.979-4.424.383.383,0,0,1,.62-.449,10.96,10.96,0,0,0,7.411,4.11.382.382,0,0,1-.025.764Z" transform="translate(-91.1 -546.804)" fill="#533f28"/>
            </g>
            <g id="Group_3154" data-name="Group 3154" transform="translate(35.407 11.702)">
              <path id="Path_9795" data-name="Path 9795" d="M125.072,504.856a.375.375,0,0,1-.063-.005c-4.107-.677-7.634-4.159-7.783-4.307a.383.383,0,0,1,.541-.542c.035.035,3.505,3.458,7.366,4.094a.382.382,0,0,1-.062.76Z" transform="translate(-117.114 -499.891)" fill="#533f28"/>
            </g>
            <g id="Group_3155" data-name="Group 3155" transform="translate(12.874 52.34)">
              <path id="Path_9796" data-name="Path 9796" d="M80.942,584.724a.391.391,0,0,1-.068-.006,13.2,13.2,0,0,1-7.867-4.535.382.382,0,0,1,.612-.459,12.66,12.66,0,0,0,7.39,4.24.383.383,0,0,1-.067.759Z" transform="translate(-72.93 -579.573)" fill="#533f28"/>
            </g>
            <g id="Group_3156" data-name="Group 3156">
              <path id="Path_9797" data-name="Path 9797" d="M58.42,533.577c-5.621,0-10.446-6-10.649-6.252a.385.385,0,0,1-.059-.375c.347-.907,24.665-44.771,27.436-49.769a.384.384,0,0,1,.283-.194c4.2-.576,11.164,4.937,11.458,5.172a.382.382,0,1,1-.477.6c-.069-.055-6.8-5.381-10.689-5.032-9.019,16.266-25.742,46.477-27.2,49.307.855,1,5.176,5.78,9.9,5.78.032,0,.059,0,.095,0a.382.382,0,0,1,.005.765Z" transform="translate(-47.688 -476.945)" fill="#533f28"/>
            </g>
            <g id="Group_3157" data-name="Group 3157" transform="translate(11.258 13.448)">
              <path id="Path_9798" data-name="Path 9798" d="M75.315,528.908a.387.387,0,0,1-.047,0c-.158-.02-3.871-.516-5.447-3.044a.382.382,0,0,1-.013-.382l11.706-21.961a.385.385,0,0,1,.42-.194c.16.035,3.934.895,5.748,3.2a.382.382,0,0,1,.034.421L75.65,528.71A.382.382,0,0,1,75.315,528.908Zm-4.725-3.271c1.218,1.731,3.72,2.319,4.521,2.467l11.809-21.3a10.748,10.748,0,0,0-4.872-2.666Z" transform="translate(-69.763 -503.314)" fill="#533f28"/>
            </g>
            <g id="Group_3158" data-name="Group 3158" transform="translate(43.444 24.238)">
              <path id="Path_9799" data-name="Path 9799" d="M145.6,583.106h0c-5.25-.037-12.3-6.206-12.593-6.468a.382.382,0,0,1,.506-.574c.07.062,6.919,6.058,11.868,6.272,9.272-16.723,26.458-47.823,27.921-50.86-1.183-1.036-7.25-6.186-11.021-6.241a.383.383,0,0,1-.377-.388.388.388,0,0,1,.388-.377c4.46.065,11.433,6.352,11.727,6.619a.385.385,0,0,1,.116.37c-.227.978-23.529,43.03-28.2,51.449A.383.383,0,0,1,145.6,583.106Z" transform="translate(-132.872 -524.47)" fill="#533f28"/>
            </g>
            <g id="Group_3159" data-name="Group 3159" transform="translate(67.218 33.428)">
              <path id="Path_9800" data-name="Path 9800" d="M191.345,549.776a.42.42,0,0,1-.067-.006c-4.627-.819-11.368-6.367-11.652-6.6a.383.383,0,1,1,.488-.59c.068.057,6.87,5.655,11.3,6.439a.382.382,0,0,1-.066.759Z" transform="translate(-179.487 -542.491)" fill="#533f28"/>
            </g>
            <g id="Group_3160" data-name="Group 3160" transform="translate(66.045 36.394)">
              <path id="Path_9801" data-name="Path 9801" d="M188.925,555.524a.412.412,0,0,1-.056,0c-5.439-.792-11.316-6.32-11.563-6.555a.383.383,0,1,1,.527-.555c.059.056,5.949,5.6,11.147,6.353a.383.383,0,0,1-.055.761Z" transform="translate(-177.188 -548.305)" fill="#533f28"/>
            </g>
            <g id="Group_3161" data-name="Group 3161" transform="translate(52.848 57.231)">
              <path id="Path_9802" data-name="Path 9802" d="M154.5,603.683h0a2.877,2.877,0,0,1-1.412-.368c-1.669-.925-2.2-3.259-1.432-6.243,1.006-3.888,3.948-7.909,7.133-7.909a3.821,3.821,0,0,1,1.87.5c1.411.783,1.825,2.76,1.135,5.425C160.744,599.152,157.489,603.683,154.5,603.683Zm4.289-13.755c-2.776,0-5.48,3.808-6.392,7.336-.679,2.625-.282,4.637,1.061,5.382a2.132,2.132,0,0,0,1.042.272c2.521,0,5.593-4.313,6.553-8.023.282-1.088.771-3.712-.766-4.564A3.064,3.064,0,0,0,158.791,589.928Z" transform="translate(-151.312 -589.163)" fill="#533f28"/>
            </g>
          </g>
        </g>
        <g id="Group_3182" data-name="Group 3182" transform="translate(362.1 123.874)">
          <g id="Group_3181" data-name="Group 3181">
            <g id="Group_3164" data-name="Group 3164" transform="translate(16.597 8.975)">
              <path id="Path_9803" data-name="Path 9803" d="M772.183,328.92h0c-1.149,0-1.894-.31-2.214-.919-.286-.542-27.823-58.527-27.42-60.89.619-3.624,8.48-6.621,12.231-6.621,1.116,0,1.807.271,2.056.8.27.578,27.135,59.1,27.3,60.517a3.033,3.033,0,0,1-.955,2.315C780.875,326.708,775.208,328.92,772.183,328.92Zm-17.4-67.665c-3.354,0-10.939,2.832-11.477,5.984-.041,2.389,25.52,56.941,27.343,60.406.172.328.719.51,1.537.51h0c2.811,0,8.282-2.136,10.424-4.539a2.333,2.333,0,0,0,.766-1.719c-.368-1.7-25.928-57.487-27.231-60.281C756.06,261.442,755.659,261.255,754.779,261.255Z" transform="translate(-742.543 -260.49)" fill="#533f28"/>
            </g>
            <g id="Group_3165" data-name="Group 3165" transform="translate(38.423 57)">
              <path id="Path_9804" data-name="Path 9804" d="M785.721,361.465a.382.382,0,0,1-.047-.762c.078-.01,7.951-1.057,12.732-5.933a.382.382,0,1,1,.546.536c-4.969,5.068-12.848,6.114-13.181,6.156A.392.392,0,0,1,785.721,361.465Z" transform="translate(-785.339 -354.655)" fill="#533f28"/>
            </g>
            <g id="Group_3166" data-name="Group 3166" transform="translate(39.76 60.239)">
              <path id="Path_9805" data-name="Path 9805" d="M788.342,367.442a.383.383,0,0,1-.03-.764,25.507,25.507,0,0,0,12.915-5.581.382.382,0,1,1,.492.585,25.8,25.8,0,0,1-13.347,5.759Z" transform="translate(-787.961 -361.007)" fill="#533f28"/>
            </g>
            <g id="Group_3167" data-name="Group 3167" transform="translate(20.997 19.516)">
              <path id="Path_9806" data-name="Path 9806" d="M751.551,287.767a.382.382,0,0,1-.079-.756c.089-.019,8.927-1.935,13.334-5.759a.382.382,0,0,1,.5.578c-4.557,3.955-13.306,5.851-13.676,5.93A.386.386,0,0,1,751.551,287.767Z" transform="translate(-751.169 -281.158)" fill="#533f28"/>
            </g>
            <g id="Group_3168" data-name="Group 3168" transform="translate(28.533)">
              <path id="Path_9807" data-name="Path 9807" d="M798.2,314.127a9.338,9.338,0,0,1-3.1-.535.383.383,0,0,1,.253-.722c6.472,2.266,11.774-3.967,12.676-5.109l-29.9-64.1c-7.48.105-10.778,4.777-11.36,5.706l1.542,3.305a.383.383,0,0,1-.694.323l-1.627-3.489a.382.382,0,0,1,.009-.342c.034-.063,3.451-6.265,12.372-6.271h0a.383.383,0,0,1,.347.22l30.1,64.536a.383.383,0,0,1-.037.387C808.726,308.1,804.278,314.126,798.2,314.127Z" transform="translate(-765.946 -242.891)" fill="#533f28"/>
            </g>
            <g id="Group_3169" data-name="Group 3169" transform="translate(52.809 48.973)">
              <path id="Path_9808" data-name="Path 9808" d="M819.019,354.528a.375.375,0,0,1-.129-.022.382.382,0,0,1-.219-.2c-.041-.09-4.066-9.04-5.046-11.141a1.082,1.082,0,0,1,.166-1.075,9.561,9.561,0,0,1,5.584-3.17,1.072,1.072,0,0,1,.813.291c.864.912,5.545,9.375,5.132,12.082a.382.382,0,0,1-.209.285l-5.922,2.914A.374.374,0,0,1,819.019,354.528Zm.355-14.846a9.04,9.04,0,0,0-4.939,2.816c-.126.2-.133.306-.117.34.87,1.864,4.121,9.085,4.888,10.79l5.375-2.645c.094-2.491-4.106-10.359-4.949-11.249A.422.422,0,0,0,819.374,339.682Z" transform="translate(-813.547 -338.917)" fill="#533f28"/>
            </g>
            <g id="Group_3170" data-name="Group 3170" transform="translate(35.448 15.316)">
              <path id="Path_9809" data-name="Path 9809" d="M779.888,279.266a.382.382,0,0,1-.1-.752c.076-.02,7.653-2.087,11.817-5.505a.382.382,0,0,1,.485.592c-4.292,3.524-11.787,5.567-12.1,5.653A.372.372,0,0,1,779.888,279.266Z" transform="translate(-779.505 -272.922)" fill="#533f28"/>
            </g>
            <g id="Group_3171" data-name="Group 3171" transform="translate(10.682 22.105)">
              <path id="Path_9810" data-name="Path 9810" d="M756.859,344.52a7.217,7.217,0,0,1-1.069-.068.381.381,0,0,1-.286-.216l-24.525-52.575a.383.383,0,0,1,.009-.342c2.006-3.754,8.19-5.024,8.452-5.077a.382.382,0,0,1,.149.75c-.06.012-5.9,1.214-7.835,4.523l24.352,52.2a9.739,9.739,0,0,0,8.221-3.524.383.383,0,0,1,.589.488A10.356,10.356,0,0,1,756.859,344.52Z" transform="translate(-730.944 -286.235)" fill="#533f28"/>
            </g>
            <g id="Group_3172" data-name="Group 3172" transform="translate(25.701 54.49)">
              <path id="Path_9811" data-name="Path 9811" d="M760.778,354.217h0a.383.383,0,1,1,0-.765,10.96,10.96,0,0,0,7.679-3.582.382.382,0,0,1,.587.49A11.536,11.536,0,0,1,760.778,354.217Z" transform="translate(-760.393 -349.734)" fill="#533f28"/>
            </g>
            <g id="Group_3173" data-name="Group 3173" transform="translate(14.136 29.755)">
              <path id="Path_9812" data-name="Path 9812" d="M738.1,305.659a.382.382,0,0,1-.06-.76c.048-.008,4.857-.805,7.64-3.556a.383.383,0,0,1,.538.544c-2.961,2.925-7.851,3.734-8.057,3.766A.352.352,0,0,1,738.1,305.659Z" transform="translate(-737.716 -301.233)" fill="#533f28"/>
            </g>
            <g id="Group_3174" data-name="Group 3174" transform="translate(33.779 71.931)">
              <path id="Path_9813" data-name="Path 9813" d="M776.614,388.292a.383.383,0,0,1-.006-.765,12.654,12.654,0,0,0,7.772-3.487.383.383,0,1,1,.531.551,13.2,13.2,0,0,1-8.292,3.7Z" transform="translate(-776.232 -383.932)" fill="#533f28"/>
            </g>
            <g id="Group_3175" data-name="Group 3175" transform="translate(0 26.987)">
              <path id="Path_9814" data-name="Path 9814" d="M734.509,354.012a.381.381,0,0,1-.32-.173c-.531-.813-21.737-46.264-24.154-51.443a.385.385,0,0,1,.01-.342c2-3.739,10.554-6.133,10.917-6.233a.382.382,0,1,1,.2.737c-.084.023-8.333,2.331-10.354,5.693,7.863,16.856,22.484,48.138,23.918,50.981,1.322-.1,7.8-.8,10.546-4.687a.382.382,0,1,1,.625.441c-3.269,4.626-11.046,5.012-11.375,5.027Z" transform="translate(-709.999 -295.806)" fill="#533f28"/>
            </g>
            <g id="Group_3176" data-name="Group 3176" transform="translate(8.237 41.835)">
              <path id="Path_9815" data-name="Path 9815" d="M737.727,350.747c-.109,0-.218,0-.328-.011a.383.383,0,0,1-.317-.214l-10.893-22.376a.383.383,0,0,1,.09-.454c.123-.108,3.035-2.657,5.97-2.768a.365.365,0,0,1,.361.22l10.519,22.55a.382.382,0,0,1-.067.424C742.96,348.225,740.559,350.747,737.727,350.747Zm-.057-.765h.057c2.09,0,4.01-1.653,4.6-2.209L732.028,325.7a10.768,10.768,0,0,0-5.02,2.377Z" transform="translate(-726.15 -324.921)" fill="#533f28"/>
            </g>
            <g id="Group_3177" data-name="Group 3177" transform="translate(46.056 5.334)">
              <path id="Path_9816" data-name="Path 9816" d="M825.3,313.317a.383.383,0,0,1-.083-.756c.091-.02,8.967-2.039,12.047-5.918-8.084-17.33-23.153-49.51-24.749-52.476-1.534.348-9.266,2.231-11.525,5.25a.382.382,0,0,1-.612-.458c2.672-3.571,11.857-5.519,12.247-5.6a.379.379,0,0,1,.367.124c.658.758,20.994,44.321,25.064,53.046a.383.383,0,0,1-.039.389c-3.114,4.226-12.246,6.3-12.634,6.39A.388.388,0,0,1,825.3,313.317Z" transform="translate(-800.305 -253.351)" fill="#533f28"/>
            </g>
            <g id="Group_3178" data-name="Group 3178" transform="translate(50.405 14.987)">
              <path id="Path_9817" data-name="Path 9817" d="M809.216,278.5a.383.383,0,0,1-.094-.753c.086-.022,8.612-2.237,11.848-5.36a.382.382,0,1,1,.531.551c-3.381,3.262-11.83,5.458-12.188,5.55A.385.385,0,0,1,809.216,278.5Z" transform="translate(-808.834 -272.277)" fill="#533f28"/>
            </g>
            <g id="Group_3179" data-name="Group 3179" transform="translate(52.116 17.736)">
              <path id="Path_9818" data-name="Path 9818" d="M812.571,283.828a.382.382,0,0,1-.069-.758c.08-.015,8.023-1.526,11.69-5.287a.382.382,0,1,1,.548.534c-3.837,3.936-11.763,5.443-12.1,5.5A.367.367,0,0,1,812.571,283.828Z" transform="translate(-812.188 -277.667)" fill="#533f28"/>
            </g>
            <g id="Group_3180" data-name="Group 3180" transform="translate(64.643 39.012)">
              <path id="Path_9819" data-name="Path 9819" d="M844.371,334.057h0c-3.113,0-6.535-4.546-7.4-8.456-.638-2.878.13-5.058,2.106-5.98a2.515,2.515,0,0,1,1.071-.237c2.9,0,6.214,4.783,7.126,8.9.615,2.772.047,4.721-1.6,5.489A3.063,3.063,0,0,1,844.371,334.057Zm-4.224-13.907a1.76,1.76,0,0,0-.748.165c-2.223,1.037-2.008,3.654-1.683,5.121.789,3.558,3.934,7.856,6.655,7.856h0a2.3,2.3,0,0,0,.981-.216c1.736-.809,1.481-3.248,1.174-4.629C845.7,324.712,842.591,320.15,840.147,320.15Z" transform="translate(-836.749 -319.385)" fill="#533f28"/>
            </g>
          </g>
        </g>
        <g id="Group_3201" data-name="Group 3201" transform="translate(174.147 -61.944)">
          <g id="Group_3200" data-name="Group 3200">
            <g id="Group_3183" data-name="Group 3183" transform="translate(21.426 4.761)">
              <path id="Path_9820" data-name="Path 9820" d="M395.7-40.5h0c-1.379,0-5.9-.158-6.206-2.183-.091-.606-7.043-64.421-5.886-66.519,1.494-2.709,6.971-2.92,8.614-2.92,2.442,0,6.621.447,6.792,2.121.064.635,6.2,64.741,5.893,66.127C404.388-41.556,399.771-40.5,395.7-40.5Zm-3.479-70.857c-3.023,0-6.917.661-7.944,2.524-.824,2.242,5.39,62.165,5.972,66.036.134.888,2.426,1.532,5.45,1.532,3.854,0,8.072-1.039,8.46-2.777.21-1.722-5.6-62.814-5.908-65.881C398.191-110.522,395.868-111.357,392.222-111.357Z" transform="translate(-383.477 112.122)" fill="#533f28"/>
            </g>
            <g id="Group_3184" data-name="Group 3184" transform="translate(26.426 58.32)">
              <path id="Path_9821" data-name="Path 9821" d="M398.713-4.431a26.788,26.788,0,0,1-5.129-.468.383.383,0,0,1-.294-.453.381.381,0,0,1,.453-.295c.079.017,7.857,1.614,13.974-1.419a.384.384,0,0,1,.513.172.383.383,0,0,1-.173.513A21.285,21.285,0,0,1,398.713-4.431Z" transform="translate(-393.281 7.105)" fill="#533f28"/>
            </g>
            <g id="Group_3185" data-name="Group 3185" transform="translate(26.747 61.875)">
              <path id="Path_9822" data-name="Path 9822" d="M399.592,2.24a22.95,22.95,0,0,1-5.4-.581.383.383,0,1,1,.194-.74A25.507,25.507,0,0,0,408.422-.11a.383.383,0,0,1,.272.715A25.685,25.685,0,0,1,399.592,2.24Z" transform="translate(-393.91 0.134)" fill="#533f28"/>
            </g>
            <g id="Group_3186" data-name="Group 3186" transform="translate(22.351 17.37)">
              <path id="Path_9823" data-name="Path 9823" d="M391.056-85.252a47.569,47.569,0,0,1-5.43-.3.382.382,0,0,1-.331-.427.376.376,0,0,1,.427-.332c.09.01,9.066,1.106,14.486-1.058a.382.382,0,0,1,.5.213.382.382,0,0,1-.213.5A26.932,26.932,0,0,1,391.056-85.252Z" transform="translate(-385.291 87.4)" fill="#533f28"/>
            </g>
            <g id="Group_3187" data-name="Group 3187" transform="translate(35.809)">
              <path id="Path_9824" data-name="Path 9824" d="M424.162-46.172a9.481,9.481,0,0,1-6.049-2.062.383.383,0,0,1-.061-.538.382.382,0,0,1,.538-.061c5.373,4.268,12.424.122,13.651-.659l-7.175-70.368c-7.1-2.36-11.749.97-12.6,1.656l.37,3.628a.382.382,0,0,1-.342.419.375.375,0,0,1-.42-.341l-.39-3.83a.38.38,0,0,1,.121-.32c.053-.049,5.318-4.781,13.746-1.858a.382.382,0,0,1,.255.323l7.224,70.844a.383.383,0,0,1-.162.353A17.391,17.391,0,0,1,424.162-46.172Z" transform="translate(-411.678 121.458)" fill="#533f28"/>
            </g>
            <g id="Group_3188" data-name="Group 3188" transform="translate(43.458 52.85)">
              <path id="Path_9825" data-name="Path 9825" d="M428.167-3.013a.384.384,0,0,1-.241-.085.381.381,0,0,1-.14-.264c-.009-.1-.869-9.873-1.1-12.181a.954.954,0,0,1,.281-.75c.861-.953,3.642-1.538,5.257-1.538,1.1,0,1.744.232,1.959.71.517,1.147,2.156,10.678.876,13.1a.384.384,0,0,1-.292.2l-6.55.806A.369.369,0,0,1,428.167-3.013Zm4.053-14.053c-1.748,0-4.114.648-4.689,1.286a.272.272,0,0,0-.088.159c.209,2.046.906,9.935,1.07,11.8l5.946-.732c.909-2.322-.473-11.133-.976-12.25C433.452-16.874,433.154-17.066,432.22-17.066Z" transform="translate(-426.678 17.831)" fill="#533f28"/>
            </g>
            <g id="Group_3189" data-name="Group 3189" transform="translate(37.468 17.644)">
              <path id="Path_9826" data-name="Path 9826" d="M418.14-84.672c-1.62,0-2.734-.078-2.853-.086a.383.383,0,0,1-.354-.409.392.392,0,0,1,.409-.354c.079.005,7.915.544,12.97-1.317a.382.382,0,0,1,.491.227.383.383,0,0,1-.227.491A32.716,32.716,0,0,1,418.14-84.672Z" transform="translate(-414.932 86.862)" fill="#533f28"/>
            </g>
            <g id="Group_3190" data-name="Group 3190" transform="translate(12.075 14.544)">
              <path id="Path_9827" data-name="Path 9827" d="M375.645-31.459a10,10,0,0,1-4.418-.993.383.383,0,0,1-.2-.3l-5.885-57.715a.381.381,0,0,1,.121-.32c3.128-2.887,9.387-2.054,9.652-2.018a.383.383,0,0,1,.326.432.382.382,0,0,1-.431.326c-.06-.008-5.971-.792-8.886,1.7l5.843,57.307a9.742,9.742,0,0,0,8.922-.627.382.382,0,0,1,.525.13.382.382,0,0,1-.13.525A10.382,10.382,0,0,1,375.645-31.459Z" transform="translate(-365.141 92.941)" fill="#533f28"/>
            </g>
            <g id="Group_3191" data-name="Group 3191" transform="translate(15.999 50.129)">
              <path id="Path_9828" data-name="Path 9828" d="M376.679-20.993a11.739,11.739,0,0,1-3.587-.537.382.382,0,0,1-.235-.487.383.383,0,0,1,.487-.235,10.956,10.956,0,0,0,8.43-.86.384.384,0,0,1,.525.132.383.383,0,0,1-.132.525A10.6,10.6,0,0,1,376.679-20.993Z" transform="translate(-372.836 23.166)" fill="#533f28"/>
            </g>
            <g id="Group_3192" data-name="Group 3192" transform="translate(13.224 22.926)">
              <path id="Path_9829" data-name="Path 9829" d="M370.708-74.636a18.551,18.551,0,0,1-3-.231.383.383,0,0,1-.31-.444.386.386,0,0,1,.444-.31c.048.008,4.852.836,8.385-.847a.381.381,0,0,1,.509.181.382.382,0,0,1-.181.509A13.9,13.9,0,0,1,370.708-74.636Z" transform="translate(-367.394 76.505)" fill="#533f28"/>
            </g>
            <g id="Group_3193" data-name="Group 3193" transform="translate(17.938 69.276)">
              <path id="Path_9830" data-name="Path 9830" d="M380.308,16.34a11.668,11.668,0,0,1-3.409-.462.382.382,0,0,1,.24-.726,12.669,12.669,0,0,0,8.487-.74.382.382,0,0,1,.32.695A13.434,13.434,0,0,1,380.308,16.34Z" transform="translate(-376.637 -14.377)" fill="#533f28"/>
            </g>
            <g id="Group_3194" data-name="Group 3194" transform="translate(0 16.541)">
              <path id="Path_9831" data-name="Path 9831" d="M353.367-28.749a21.957,21.957,0,0,1-5.733-.8.382.382,0,0,1-.261-.274c-.235-.942-5.326-50.837-5.906-56.523a.381.381,0,0,1,.121-.32c3.117-2.874,11.983-2.324,12.36-2.3a.382.382,0,0,1,.356.407.38.38,0,0,1-.407.356c-.087-.005-8.637-.538-11.649,1.974,1.887,18.5,5.416,52.853,5.835,56.009,1.284.337,7.631,1.806,11.5-.961a.383.383,0,0,1,.534.088.383.383,0,0,1-.089.534A11.442,11.442,0,0,1,353.367-28.749Z" transform="translate(-341.465 89.024)" fill="#533f28"/>
            </g>
            <g id="Group_3195" data-name="Group 3195" transform="translate(4.007 31.45)">
              <path id="Path_9832" data-name="Path 9832" d="M354.619-33.041a5.372,5.372,0,0,1-2.131-.409.383.383,0,0,1-.229-.306l-2.935-24.713a.383.383,0,0,1,.235-.4,13.572,13.572,0,0,1,4.57-.924,6.794,6.794,0,0,1,1.979.27.382.382,0,0,1,.268.327L358.9-34.439a.381.381,0,0,1-.2.377A9.855,9.855,0,0,1,354.619-33.041Zm-1.626-1.031a4.755,4.755,0,0,0,1.626.266,9.052,9.052,0,0,0,3.493-.824l-2.471-24.227a6.3,6.3,0,0,0-1.513-.17,12.766,12.766,0,0,0-4.009.765Z" transform="translate(-349.322 59.791)" fill="#533f28"/>
            </g>
            <g id="Group_3196" data-name="Group 3196" transform="translate(50.807 11.404)">
              <path id="Path_9833" data-name="Path 9833" d="M451.183-37.75a39.441,39.441,0,0,1-4.172-.213.382.382,0,0,1-.336-.424.386.386,0,0,1,.424-.336c.092.01,9.138,1.022,13.324-1.63-1.941-19.024-5.6-54.37-6.13-57.695-1.563-.176-9.483-.937-12.61,1.172a.383.383,0,0,1-.531-.1.383.383,0,0,1,.1-.531c3.7-2.494,13.012-1.315,13.406-1.265a.383.383,0,0,1,.306.238c.372.932,5.263,48.759,6.24,58.337a.382.382,0,0,1-.164.354C458.528-38.122,454.335-37.75,451.183-37.75Z" transform="translate(-441.086 99.097)" fill="#533f28"/>
            </g>
            <g id="Group_3197" data-name="Group 3197" transform="translate(51.744 22.268)">
              <path id="Path_9834" data-name="Path 9834" d="M447.263-75.682c-2.179,0-3.832-.134-3.988-.147a.382.382,0,0,1-.349-.413.38.38,0,0,1,.413-.349c.089.007,8.869.718,12.951-1.168a.383.383,0,0,1,.508.187.382.382,0,0,1-.187.507C454.153-75.93,450.223-75.682,447.263-75.682Z" transform="translate(-442.924 77.795)" fill="#533f28"/>
            </g>
            <g id="Group_3198" data-name="Group 3198" transform="translate(52.475 25.386)">
              <path id="Path_9835" data-name="Path 9835" d="M449.515-69.4a34.99,34.99,0,0,1-4.833-.328.383.383,0,0,1-.32-.436.387.387,0,0,1,.436-.32c.081.013,8.079,1.2,12.778-1.152a.382.382,0,0,1,.513.171.382.382,0,0,1-.171.513A19.675,19.675,0,0,1,449.515-69.4Z" transform="translate(-444.357 71.682)" fill="#533f28"/>
            </g>
            <g id="Group_3199" data-name="Group 3199" transform="translate(57.32 46.557)">
              <path id="Path_9836" data-name="Path 9836" d="M459.16-14.607h0c-3,0-5.076-4.435-5.285-8.543-.206-4.047,1.332-6.731,4.014-7,2.812-.3,4.744,4.183,4.964,8.5.163,3.216-.639,6.751-3.38,7.03A3.077,3.077,0,0,1,459.16-14.607Zm-1.013-14.8a1.792,1.792,0,0,0-.181.01c-2.672.272-3.472,3.383-3.328,6.2.192,3.775,2.054,7.817,4.521,7.817h0a2.29,2.29,0,0,0,.235-.012c2.211-.225,2.833-3.5,2.694-6.23C461.9-25.375,460.269-29.4,458.148-29.4Z" transform="translate(-453.857 30.169)" fill="#533f28"/>
            </g>
          </g>
        </g>
        <g id="Group_3208" data-name="Group 3208" transform="translate(71.598 70.557)">
          <g id="Group_3207" data-name="Group 3207">
            <g id="Group_3202" data-name="Group 3202" transform="translate(0 5.554)">
              <path id="Path_9837" data-name="Path 9837" d="M195.317,212.545c-3.8,0-30.366-4.494-32.689-4.925a5.971,5.971,0,0,0-2.631.412,7.372,7.372,0,0,1-2.113.45,2.34,2.34,0,0,1-1.878-.864c-.906-1.062-5.153-14.417-8.688-26.443-1.735-5.9-7.356-25.335-6.9-27.779.534-2.88,4.759-4.159,6.274-4.159.162,0,.654,0,.749.4s-.383.657-.588.761a5.48,5.48,0,0,0-3.232,5.137c.07.6.309,1.013.642,1.094a3.754,3.754,0,0,0,.656.029c1.463,0,4.736-.179,8.881-.4,6.462-.352,14.5-.791,20.092-.791,5.218,0,6.3.38,6.666.753,1.11,1.124,5.925,16.982,8.89,27.368,1.749,6.128,7.4,26.293,6.7,28.516a.556.556,0,0,1-.429.422A2.324,2.324,0,0,1,195.317,212.545Zm-33.182-5.733a3.48,3.48,0,0,1,.632.056c2.317.43,28.795,4.912,32.55,4.912l.123,0c.24-1.305-1.709-10.371-6.665-27.753-4.411-15.468-8.093-26.591-8.765-27.274-.122-.123-.924-.526-6.122-.526-5.568,0-13.6.438-20.05.79-4.157.227-7.439.406-8.923.406a3.761,3.761,0,0,1-.837-.05,1.846,1.846,0,0,1-1.22-1.75,6.147,6.147,0,0,1,2.947-5.5c-1.595.34-4.27,1.438-4.638,3.417-.276,1.491,2.426,12.255,6.884,27.424,4,13.593,7.825,25.329,8.536,26.161a1.6,1.6,0,0,0,1.3.6,6.757,6.757,0,0,0,1.884-.414A8.029,8.029,0,0,1,162.135,206.811Z" transform="translate(-140.389 -149.236)" fill="#533f28"/>
            </g>
            <g id="Group_3203" data-name="Group 3203" transform="translate(5.905)">
              <path id="Path_9838" data-name="Path 9838" d="M205,200.337a.383.383,0,0,1-.106-.75l1.841-.529c-.526-2.349-4.006-16.214-7.582-29.71-6.74-25.434-8.5-29.674-8.954-30.237h-.019c-2.71,0-31.789,4.27-37.725,5.978a.383.383,0,0,1-.211-.735c6.066-1.745,36.209-6.153,38.109-6,.521.041,1.391.11,9.352,30.091,3.869,14.571,7.741,30.013,7.855,30.833a.383.383,0,0,1-.273.42l-2.18.627A.378.378,0,0,1,205,200.337Z" transform="translate(-151.968 -138.347)" fill="#533f28"/>
            </g>
            <g id="Group_3204" data-name="Group 3204" transform="translate(4.689 2.302)">
              <path id="Path_9839" data-name="Path 9839" d="M182.292,152.526a.383.383,0,0,1-.348-.543l3.808-8.286c-12.015,1.356-34.037,3.957-35.648,4.583a.382.382,0,1,1-.277-.713c2.144-.834,35.111-4.548,36.513-4.706a.383.383,0,0,1,.391.54l-4.091,8.9A.383.383,0,0,1,182.292,152.526Z" transform="translate(-149.583 -142.859)" fill="#533f28"/>
            </g>
            <g id="Group_3205" data-name="Group 3205" transform="translate(41.107 2.302)">
              <path id="Path_9840" data-name="Path 9840" d="M234.976,205.586a.383.383,0,0,1-.232-.687l3.43-2.6-17.169-58.945a.382.382,0,0,1,.734-.214l17.243,59.2a.382.382,0,0,1-.136.412l-3.64,2.764A.379.379,0,0,1,234.976,205.586Z" transform="translate(-220.99 -142.86)" fill="#533f28"/>
            </g>
            <g id="Group_3206" data-name="Group 3206" transform="translate(4.735 16.841)">
              <path id="Path_9841" data-name="Path 9841" d="M156.631,195.99a.381.381,0,0,1-.351-.232c-1.737-4.058-6.4-23.108-6.6-23.917a.382.382,0,0,1,.743-.181c.048.2,4.844,19.8,6.557,23.8a.382.382,0,0,1-.352.532Z" transform="translate(-149.673 -171.368)" fill="#533f28"/>
            </g>
          </g>
        </g>
        <g id="Group_3215" data-name="Group 3215" transform="translate(154.276 368.974)">
          <g id="Group_3214" data-name="Group 3214">
            <g id="Group_3209" data-name="Group 3209" transform="translate(0 13.082)">
              <path id="Path_9842" data-name="Path 9842" d="M335.191,806.076a2.389,2.389,0,0,1-1.268-.379c-1.187-.734-9.307-12.156-16.343-22.53-3.452-5.088-14.737-21.882-15.051-24.347a4.467,4.467,0,0,1,1.319-3.467,7.73,7.73,0,0,1,3.781-2.483.48.48,0,0,1,.471.287c.143.348-.2.682-.359.844a5.51,5.51,0,0,0-1.551,5.782c.239.581.6.943.948.943.534-.037,4.652-1.609,9.011-3.273,9.2-3.513,21.809-8.324,24.808-8.324a1.425,1.425,0,0,1,.656.123c1.4.731,10.825,14.364,16.818,23.349,3.536,5.3,15.074,22.779,15.085,25.109a.556.556,0,0,1-.279.533c-1.969,1.052-31.461,5.238-33.006,5.435a5.714,5.714,0,0,0-2.379,1.195A4.941,4.941,0,0,1,335.191,806.076Zm-28.528-52.027a9.032,9.032,0,0,0-2.27,1.844,3.809,3.809,0,0,0-1.1,2.83c.191,1.5,6.05,10.93,14.926,24.014,7.952,11.725,15.181,21.733,16.112,22.309a1.62,1.62,0,0,0,.865.265,4.379,4.379,0,0,0,2.219-1.063,6.263,6.263,0,0,1,2.724-1.329c3.515-.448,29.992-4.295,32.614-5.294-.166-1.31-4.787-9.348-14.818-24.4-8.921-13.384-15.823-22.853-16.671-23.3a.756.756,0,0,0-.3-.037c-2.858,0-15.9,4.98-24.535,8.274-5.64,2.153-8.61,3.278-9.191,3.319-.711.046-1.368-.487-1.749-1.414A6.167,6.167,0,0,1,306.662,754.049Z" transform="translate(-302.503 -749.129)" fill="#533f28"/>
            </g>
            <g id="Group_3210" data-name="Group 3210" transform="translate(4.587)">
              <path id="Path_9843" data-name="Path 9843" d="M378.876,778.072a.382.382,0,0,1-.213-.7l1.591-1.065c-1.218-2.078-8.764-14.22-16.288-25.979-14.182-22.164-17.15-25.664-17.755-26.062-2.468.769-28.976,13.766-34.121,17.212a.383.383,0,0,1-.425-.636c5.244-3.513,32.632-16.915,34.46-17.346.516-.121,1.366-.307,18.089,25.8,8.13,12.692,16.531,26.218,16.89,26.965a.382.382,0,0,1-.132.484l-1.885,1.262A.379.379,0,0,1,378.876,778.072Z" transform="translate(-311.496 -723.478)" fill="#533f28"/>
            </g>
            <g id="Group_3211" data-name="Group 3211" transform="translate(3.732 3.043)">
              <path id="Path_9844" data-name="Path 9844" d="M310.2,745.782a.383.383,0,0,1-.241-.68c1.788-1.448,32.049-15.047,33.336-15.625a.383.383,0,0,1,.537.395l-1.18,9.726a.382.382,0,1,1-.759-.092l1.1-9.053c-11.028,4.958-31.206,14.156-32.549,15.244A.385.385,0,0,1,310.2,745.782Z" transform="translate(-309.82 -729.444)" fill="#533f28"/>
            </g>
            <g id="Group_3212" data-name="Group 3212" transform="translate(36.984 3.042)">
              <path id="Path_9845" data-name="Path 9845" d="M407.265,785.062a.382.382,0,0,1-.313-.6l2.471-3.527L375.085,730.04a.383.383,0,1,1,.634-.428l34.486,51.111a.382.382,0,0,1,0,.434l-2.622,3.742A.381.381,0,0,1,407.265,785.062Z" transform="translate(-375.019 -729.443)" fill="#533f28"/>
            </g>
            <g id="Group_3213" data-name="Group 3213" transform="translate(6.784 27.988)">
              <path id="Path_9846" data-name="Path 9846" d="M329.73,799.834a.381.381,0,0,1-.289-.132c-2.893-3.334-13.145-20.052-13.581-20.763a.382.382,0,1,1,.652-.4c.106.173,10.655,17.374,13.506,20.661a.382.382,0,0,1-.289.633Z" transform="translate(-315.805 -778.357)" fill="#533f28"/>
            </g>
          </g>
        </g>
        <g id="Group_3228" data-name="Group 3228" transform="translate(170.009 38.976)">
          <g id="Group_3227" data-name="Group 3227">
            <g id="Group_3216" data-name="Group 3216" transform="translate(1.416 29.007)">
              <path id="Path_9847" data-name="Path 9847" d="M374.209,172.832h-.02c-2.082-.161-37.573-26.215-38.018-29.474-.422-3.1,2.384-9.555,2.5-9.829a.382.382,0,0,1,.589-.145c12.907,10.293,32.616,25.68,34.373,26.17,2.251-.645,30.927-15.847,34.446-18.22-1.421-.787-4.885-2.823-5.052-2.922a.382.382,0,1,1,.387-.659c.047.028,4.673,2.748,5.476,3.15a.432.432,0,0,1,.222.419c-.037.279-.107.8-17.271,9.848-7.014,3.7-17.268,8.98-18.1,9.147-.364.069-1.032.207-18.147-13.1-7.355-5.717-14.662-11.525-16.415-12.92-.633,1.537-2.584,6.525-2.252,8.958.368,2.7,35.251,28.415,37.33,28.817,1.768-.092,34.377-18.4,37.507-21.029A14.916,14.916,0,0,0,408.24,150a.382.382,0,0,1-.3-.448.378.378,0,0,1,.448-.3c1.125.216,3.791.8,4.243,1.553a.428.428,0,0,1-.014.451C411.534,153,376.227,172.83,374.209,172.832Z" transform="translate(-336.128 -133.299)" fill="#533f28"/>
            </g>
            <g id="Group_3217" data-name="Group 3217" transform="translate(38.987 37.667)">
              <path id="Path_9848" data-name="Path 9848" d="M410.179,178.266a.382.382,0,0,1-.182-.719l33.941-18.328c-1.56-2.163-.827-7.916-.732-8.607a.382.382,0,1,1,.758.1c-.26,1.893-.616,7.078.832,8.319a.382.382,0,0,1-.067.627L410.36,178.22A.386.386,0,0,1,410.179,178.266Z" transform="translate(-409.796 -150.28)" fill="#533f28"/>
            </g>
            <g id="Group_3218" data-name="Group 3218" transform="translate(38.211 55.265)">
              <path id="Path_9849" data-name="Path 9849" d="M409.571,198.061a.382.382,0,0,1-.352-.232c-1.672-3.9-.623-12.351-.578-12.709a.38.38,0,0,1,.428-.331.384.384,0,0,1,.331.428c-.011.086-1.068,8.6.522,12.311a.383.383,0,0,1-.351.533Z" transform="translate(-408.275 -184.785)" fill="#533f28"/>
            </g>
            <g id="Group_3219" data-name="Group 3219" transform="translate(0.792 17.871)">
              <path id="Path_9850" data-name="Path 9850" d="M376.368,139.587c-3.46,0-40.533-16.492-41.32-18.382-.845-2.027,2.308-9.44,2.34-9.514a.383.383,0,0,1,.7.311c-.888,2-2.887,7.583-2.334,8.908,1.192,1.714,33.594,16.087,39.781,17.754a15.429,15.429,0,0,1-1.687-12.166L343.5,113.3a.382.382,0,1,1,.305-.7l30.657,13.334a.382.382,0,0,1,.215.458,14.761,14.761,0,0,0,1.995,12.578.382.382,0,0,1-.3.62Z" transform="translate(-334.904 -111.465)" fill="#533f28"/>
            </g>
            <g id="Group_3220" data-name="Group 3220" transform="translate(39.811 19.522)">
              <path id="Path_9851" data-name="Path 9851" d="M411.8,128.251a.383.383,0,0,1-.156-.732l28.732-12.785a.383.383,0,1,1,.311.7l-28.732,12.785A.381.381,0,0,1,411.8,128.251Z" transform="translate(-411.413 -114.702)" fill="#533f28"/>
            </g>
            <g id="Group_3221" data-name="Group 3221" transform="translate(41.873 29.97)">
              <path id="Path_9852" data-name="Path 9852" d="M415.838,151.211a.382.382,0,0,1-.161-.729c10.835-5.029,26.912-12.543,29.116-13.71a13.105,13.105,0,0,0-2.644-.829.383.383,0,0,1,.166-.747c3.217.715,3.351,1.293,3.4,1.483a.549.549,0,0,1-.215.565c-.7.562-26.552,12.566-29.5,13.933A.383.383,0,0,1,415.838,151.211Z" transform="translate(-415.456 -135.187)" fill="#533f28"/>
            </g>
            <g id="Group_3222" data-name="Group 3222" transform="translate(40.911 20.346)">
              <path id="Path_9853" data-name="Path 9853" d="M413.952,139.765a.383.383,0,0,1-.158-.731l26.877-12.217c-.53-1.285-2.117-5.777-.547-10.245a.383.383,0,1,1,.722.254c-1.715,4.882.648,9.969.672,10.02a.382.382,0,0,1-.187.512l-27.22,12.373A.388.388,0,0,1,413.952,139.765Z" transform="translate(-413.569 -116.316)" fill="#533f28"/>
            </g>
            <g id="Group_3223" data-name="Group 3223" transform="translate(0 8.936)">
              <path id="Path_9854" data-name="Path 9854" d="M378.511,112.39c-3.806,0-43.035-9.117-44.073-9.765-1.411-.882-1.388-6.387-.273-8.477a.38.38,0,0,1,.426-.192l45.092,10.723a.383.383,0,0,1,.265.518c-.018.045-1.845,4.539-.836,6.557a.453.453,0,0,1-.016.407A.638.638,0,0,1,378.511,112.39Zm-43.8-17.619c-.949,2.19-.624,6.735.128,7.205,1.311.678,38.418,9.28,43.4,9.638-.609-2.013.424-5.161.842-6.293Z" transform="translate(-333.352 -93.944)" fill="#533f28"/>
            </g>
            <g id="Group_3224" data-name="Group 3224" transform="translate(45.035 14.71)">
              <path id="Path_9855" data-name="Path 9855" d="M422.039,117.854a.383.383,0,0,1-.11-.749l32.058-9.7-1.68-1.47a.383.383,0,0,1,.5-.576l2.2,1.925a.382.382,0,0,1-.142.654l-32.719,9.9A.361.361,0,0,1,422.039,117.854Z" transform="translate(-421.656 -105.267)" fill="#533f28"/>
            </g>
            <g id="Group_3225" data-name="Group 3225" transform="translate(46.45 10.447)">
              <path id="Path_9856" data-name="Path 9856" d="M426.01,111.559a1.436,1.436,0,0,1-1.288-.632c-.837-1.289.385-4.124.526-4.443a.383.383,0,1,1,.7.311c-.471,1.059-1.046,3-.584,3.715a.678.678,0,0,0,.647.284c.763-.1,16.659-5.046,27.35-8.41l-.647-5.044a.383.383,0,1,1,.759-.1l.688,5.361a.384.384,0,0,1-.265.414C447.529,105.021,426.7,111.559,426.01,111.559Z" transform="translate(-424.431 -96.908)" fill="#533f28"/>
            </g>
            <g id="Group_3226" data-name="Group 3226" transform="translate(0.768)">
              <path id="Path_9857" data-name="Path 9857" d="M380.333,96.847a.383.383,0,0,1-.122-.745c1.085-.363,24.08-8.064,29.157-9.729-.79-.231-1.987-.537-3.1-.8-1.386-.019-10.721-1.909-29.191-5.746-6.459-1.342-12.559-2.609-12.974-2.638-.831.092-17.649,5.384-28.742,8.918a.383.383,0,0,1-.232-.729c4.692-1.495,28.144-8.954,28.986-8.954.314,0,3.846.728,13.119,2.654,11.148,2.316,27.98,5.835,29.023,5.738a.281.281,0,0,1,.151,0c4.46,1.05,4.462,1.237,4.464,1.576a.414.414,0,0,1-.335.405c-.526.14-19.9,6.62-30.078,10.027A.388.388,0,0,1,380.333,96.847Z" transform="translate(-334.858 -76.423)" fill="#533f28"/>
            </g>
          </g>
        </g>
        <g id="Group_3241" data-name="Group 3241" transform="translate(-31.686 146.318)">
          <g id="Group_3240" data-name="Group 3240">
            <g id="Group_3229" data-name="Group 3229" transform="translate(7.617 25.184)">
              <path id="Path_9858" data-name="Path 9858" d="M-2.618,377.51c-2.85,0-42.818-16.157-44.041-19.173-1.174-2.9-.051-9.847,0-10.142a.384.384,0,0,1,.2-.275.389.389,0,0,1,.339-.011c15.049,6.785,37.946,16.824,39.773,16.866,2.022-1.181,26.053-23,28.877-26.166-1.571-.412-5.43-1.529-5.617-1.584a.383.383,0,0,1,.213-.735c.052.015,5.206,1.509,6.084,1.7a.431.431,0,0,1,.319.351c.032.279.094.8-14.3,13.809-5.883,5.316-14.514,12.968-15.282,13.337-.33.157-.949.453-20.821-8.209-8.538-3.722-17.054-7.545-19.1-8.464-.235,1.646-.892,6.961.031,9.237,1.018,2.512,40.87,18.7,43.266,18.7h.026c1.691-.526,28.764-26.328,31.15-29.644a14.873,14.873,0,0,0-3.674-.132.383.383,0,1,1-.046-.764c1.143-.068,3.871-.16,4.495.457a.429.429,0,0,1,.1.442c-.616,1.964-30.133,30.088-31.9,30.4A.5.5,0,0,1-2.618,377.51Z" transform="translate(47.193 -336.277)" fill="#533f28"/>
            </g>
            <g id="Group_3230" data-name="Group 3230" transform="translate(50.977 28.26)">
              <path id="Path_9859" data-name="Path 9859" d="M38.209,377.7a.382.382,0,0,1-.26-.664l28.362-26.145c-2.046-1.712-2.758-7.466-2.837-8.159a.383.383,0,0,1,.76-.087c.216,1.9,1.152,7.01,2.862,7.854a.383.383,0,0,1,.09.625L38.468,377.6A.382.382,0,0,1,38.209,377.7Z" transform="translate(-37.826 -342.309)" fill="#533f28"/>
            </g>
            <g id="Group_3231" data-name="Group 3231" transform="translate(48.2 53.666)">
              <path id="Path_9860" data-name="Path 9860" d="M36.387,404.876a.381.381,0,0,1-.3-.149c-2.584-3.367-3.655-11.815-3.7-12.173a.382.382,0,1,1,.759-.094c.01.085,1.091,8.6,3.547,11.8a.382.382,0,0,1-.3.616Z" transform="translate(-32.381 -392.125)" fill="#533f28"/>
            </g>
            <g id="Group_3232" data-name="Group 3232" transform="translate(4.202 25.765)">
              <path id="Path_9861" data-name="Path 9861" d="M-9.648,355.6c-6.952,0-42.472-6.136-43.629-7.678-1.32-1.755-.1-9.717-.082-9.8a.382.382,0,0,1,.441-.313.382.382,0,0,1,.313.441c-.367,2.156-.924,8.061-.06,9.209,1.578,1.367,36.524,7.288,42.934,7.375a15.43,15.43,0,0,1-4.64-11.371l-32.672-5.294a.382.382,0,0,1-.316-.439.378.378,0,0,1,.439-.316l33,5.347a.383.383,0,0,1,.321.391,14.721,14.721,0,0,0,5.04,11.694.383.383,0,0,1,.144.381.384.384,0,0,1-.28.295A4.335,4.335,0,0,1-9.648,355.6Z" transform="translate(53.89 -337.417)" fill="#533f28"/>
            </g>
            <g id="Group_3233" data-name="Group 3233" transform="translate(43.726 11.626)">
              <path id="Path_9862" data-name="Path 9862" d="M23.992,329.946a.382.382,0,0,1-.237-.683l24.682-19.488a.383.383,0,0,1,.474.6L24.229,329.863A.38.38,0,0,1,23.992,329.946Z" transform="translate(-23.609 -309.693)" fill="#533f28"/>
            </g>
            <g id="Group_3234" data-name="Group 3234" transform="translate(48.918 21.806)">
              <path id="Path_9863" data-name="Path 9863" d="M34.171,351.739a.383.383,0,0,1-.242-.679c9.258-7.551,22.979-18.8,24.826-20.479a13.062,13.062,0,0,0-2.766-.15.391.391,0,0,1-.394-.371.382.382,0,0,1,.371-.394c3.3-.1,3.566.425,3.656.6a.547.547,0,0,1-.068.6c-.543.719-22.625,18.737-25.141,20.789A.383.383,0,0,1,34.171,351.739Z" transform="translate(-33.788 -329.654)" fill="#533f28"/>
            </g>
            <g id="Group_3235" data-name="Group 3235" transform="translate(47.442 12.697)">
              <path id="Path_9864" data-name="Path 9864" d="M31.277,341.093a.383.383,0,0,1-.24-.681l23.026-18.478c-.831-1.114-3.479-5.075-3.062-9.792a.383.383,0,0,1,.762.067c-.456,5.154,3.091,9.5,3.126,9.543a.383.383,0,0,1-.055.543l-23.32,18.714A.38.38,0,0,1,31.277,341.093Z" transform="translate(-30.894 -311.793)" fill="#533f28"/>
            </g>
            <g id="Group_3236" data-name="Group 3236" transform="translate(0 17.363)">
              <path id="Path_9865" data-name="Path 9865" d="M-56.363,330.236a16.858,16.858,0,0,1-3.276-.1c-1.585-.506-2.922-5.847-2.358-8.149a.383.383,0,0,1,.366-.291l46.343-.75a.426.426,0,0,1,.293.13.382.382,0,0,1,.092.307c-.007.048-.667,4.854.81,6.56a.454.454,0,0,1,.066.448c-.152.333-.342.747-17.624,1.329C-40.461,330.013-51.085,330.236-56.363,330.236Zm-4.949-7.784c-.378,2.357,1.059,6.681,1.9,6.951a27.623,27.623,0,0,0,3.044.068c10.394,0,37.669-.764,41.392-1.442-1.093-1.8-.869-5.112-.744-6.314Z" transform="translate(62.129 -320.943)" fill="#533f28"/>
            </g>
            <g id="Group_3237" data-name="Group 3237" transform="translate(47.362 5.232)">
              <path id="Path_9866" data-name="Path 9866" d="M31.121,316.917a.382.382,0,0,1-.2-.709l28.669-17.319-1.992-1.01a.382.382,0,1,1,.346-.682l2.607,1.321a.383.383,0,0,1,.025.669L31.319,316.861A.381.381,0,0,1,31.121,316.917Z" transform="translate(-30.738 -297.155)" fill="#533f28"/>
            </g>
            <g id="Group_3238" data-name="Group 3238" transform="translate(47.682 1.306)">
              <path id="Path_9867" data-name="Path 9867" d="M33.04,310.418a1.343,1.343,0,0,1-.934-.357c-1.129-1.041-.646-4.091-.587-4.435a.383.383,0,0,1,.754.129c-.194,1.143-.271,3.171.352,3.745a.682.682,0,0,0,.7.114c.716-.284,14.9-9.005,24.424-14.906l-1.873-4.728a.383.383,0,0,1,.711-.281l1.991,5.026a.382.382,0,0,1-.155.466c-5.674,3.514-24.239,14.994-24.91,15.165A1.9,1.9,0,0,1,33.04,310.418Z" transform="translate(-31.366 -289.457)" fill="#533f28"/>
            </g>
            <g id="Group_3239" data-name="Group 3239" transform="translate(0.12)">
              <path id="Path_9868" data-name="Path 9868" d="M-61.51,305.775a.381.381,0,0,1-.324-.18.382.382,0,0,1,.121-.527c4.177-2.608,25.06-15.629,25.875-15.837.3-.078,3.908-.245,13.368-.67,11.377-.511,28.57-1.282,29.54-1.61a.269.269,0,0,1,.147-.033c4.58-.085,4.628.1,4.714.424a.413.413,0,0,1-.223.475c-.477.267-17.653,11.333-26.669,17.147a.381.381,0,0,1-.528-.114.382.382,0,0,1,.114-.528c.961-.62,21.341-13.763,25.85-16.632-.822-.028-2.058-.029-3.205-.009-1.347.324-10.86.8-29.7,1.644-6.59.3-12.815.575-13.225.649-.783.294-15.771,9.577-25.647,15.742A.382.382,0,0,1-61.51,305.775Z" transform="translate(61.893 -286.897)" fill="#533f28"/>
            </g>
          </g>
        </g>
        <g id="Group_3254" data-name="Group 3254" transform="translate(347.48 355.67)">
          <g id="Group_3253" data-name="Group 3253">
            <g id="Group_3242" data-name="Group 3242" transform="translate(1.416 29.007)">
              <path id="Path_9869" data-name="Path 9869" d="M722.191,793.8h-.02c-2.082-.16-37.573-26.213-38.018-29.474-.422-3.1,2.384-9.555,2.5-9.828a.382.382,0,0,1,.589-.145c12.907,10.293,32.615,25.679,34.373,26.17,2.251-.645,30.927-15.847,34.446-18.22-1.421-.786-4.884-2.823-5.051-2.922a.383.383,0,0,1,.388-.66c.047.028,4.672,2.747,5.476,3.149a.431.431,0,0,1,.223.419c-.038.279-.107.8-17.272,9.847-7.014,3.7-17.268,8.981-18.1,9.147-.364.071-1.031.207-18.147-13.1-7.355-5.717-14.662-11.525-16.415-12.92-.633,1.537-2.584,6.525-2.252,8.958.368,2.7,35.251,28.414,37.33,28.816,1.769-.092,34.377-18.405,37.507-21.029a14.915,14.915,0,0,0-3.527-1.036.382.382,0,0,1-.3-.448.378.378,0,0,1,.448-.3c1.125.216,3.791.8,4.242,1.553a.425.425,0,0,1-.014.451C759.517,773.971,724.209,793.8,722.191,793.8Z" transform="translate(-684.11 -754.268)" fill="#533f28"/>
            </g>
            <g id="Group_3243" data-name="Group 3243" transform="translate(38.987 37.668)">
              <path id="Path_9870" data-name="Path 9870" d="M758.161,799.235a.382.382,0,0,1-.182-.719l33.942-18.329c-1.56-2.163-.828-7.916-.733-8.607a.383.383,0,0,1,.758.1c-.26,1.893-.616,7.078.832,8.319a.383.383,0,0,1-.067.627l-34.368,18.559A.382.382,0,0,1,758.161,799.235Z" transform="translate(-757.778 -771.25)" fill="#533f28"/>
            </g>
            <g id="Group_3244" data-name="Group 3244" transform="translate(38.211 55.264)">
              <path id="Path_9871" data-name="Path 9871" d="M757.553,819.028a.384.384,0,0,1-.352-.232c-1.671-3.9-.623-12.351-.577-12.709a.379.379,0,0,1,.428-.331.383.383,0,0,1,.331.428c-.011.086-1.067,8.6.522,12.31a.382.382,0,0,1-.351.533Z" transform="translate(-756.258 -805.753)" fill="#533f28"/>
            </g>
            <g id="Group_3245" data-name="Group 3245" transform="translate(0.792 17.871)">
              <path id="Path_9872" data-name="Path 9872" d="M724.351,760.556c-3.461,0-40.533-16.492-41.321-18.382-.845-2.026,2.308-9.44,2.341-9.513a.383.383,0,1,1,.7.31c-.888,2-2.886,7.583-2.334,8.909,1.191,1.714,33.593,16.087,39.781,17.754a15.429,15.429,0,0,1-1.687-12.166l-30.351-13.2a.382.382,0,0,1,.305-.7L722.441,746.9a.381.381,0,0,1,.215.457,14.764,14.764,0,0,0,1.995,12.579.383.383,0,0,1-.3.62Z" transform="translate(-682.886 -732.433)" fill="#533f28"/>
            </g>
            <g id="Group_3246" data-name="Group 3246" transform="translate(39.811 19.521)">
              <path id="Path_9873" data-name="Path 9873" d="M759.778,749.218a.382.382,0,0,1-.156-.732L788.355,735.7a.383.383,0,0,1,.311.7l-28.732,12.785A.378.378,0,0,1,759.778,749.218Z" transform="translate(-759.395 -735.668)" fill="#533f28"/>
            </g>
            <g id="Group_3247" data-name="Group 3247" transform="translate(41.873 29.97)">
              <path id="Path_9874" data-name="Path 9874" d="M763.821,772.18a.383.383,0,0,1-.161-.73c10.835-5.029,26.913-12.543,29.116-13.71a13.082,13.082,0,0,0-2.643-.829.383.383,0,0,1,.166-.747c3.217.714,3.351,1.293,3.4,1.483a.55.55,0,0,1-.215.564c-.7.563-26.553,12.566-29.5,13.934A.382.382,0,0,1,763.821,772.18Z" transform="translate(-763.438 -756.157)" fill="#533f28"/>
            </g>
            <g id="Group_3248" data-name="Group 3248" transform="translate(40.911 20.346)">
              <path id="Path_9875" data-name="Path 9875" d="M761.934,760.734a.383.383,0,0,1-.159-.731l26.878-12.217c-.53-1.285-2.118-5.777-.548-10.245a.383.383,0,0,1,.722.254c-1.712,4.872.649,9.969.673,10.021a.382.382,0,0,1-.188.511L762.092,760.7A.378.378,0,0,1,761.934,760.734Z" transform="translate(-761.551 -737.287)" fill="#533f28"/>
            </g>
            <g id="Group_3249" data-name="Group 3249" transform="translate(0 8.936)">
              <path id="Path_9876" data-name="Path 9876" d="M726.494,733.359c-3.806,0-43.035-9.117-44.074-9.766-1.411-.882-1.388-6.387-.272-8.478a.381.381,0,0,1,.426-.192l45.092,10.723a.383.383,0,0,1,.265.518c-.018.045-1.845,4.539-.836,6.557a.453.453,0,0,1-.017.408A.637.637,0,0,1,726.494,733.359Zm-43.8-17.62c-.948,2.191-.624,6.735.129,7.206,1.311.678,38.418,9.279,43.4,9.638-.609-2.014.424-5.161.842-6.293Z" transform="translate(-681.334 -714.913)" fill="#533f28"/>
            </g>
            <g id="Group_3250" data-name="Group 3250" transform="translate(45.035 14.71)">
              <path id="Path_9877" data-name="Path 9877" d="M770.021,738.822a.383.383,0,0,1-.111-.749l32.058-9.7-1.68-1.47a.383.383,0,1,1,.5-.576l2.2,1.924a.383.383,0,0,1-.141.654l-32.719,9.9A.38.38,0,0,1,770.021,738.822Z" transform="translate(-769.639 -726.235)" fill="#533f28"/>
            </g>
            <g id="Group_3251" data-name="Group 3251" transform="translate(46.45 10.448)">
              <path id="Path_9878" data-name="Path 9878" d="M773.993,732.529a1.436,1.436,0,0,1-1.289-.632c-.836-1.288.385-4.124.527-4.443a.383.383,0,1,1,.7.311c-.471,1.059-1.045,3-.584,3.715a.678.678,0,0,0,.647.284c.763-.1,16.659-5.047,27.35-8.41l-.647-5.043a.383.383,0,0,1,.759-.1l.688,5.362a.383.383,0,0,1-.264.414C795.511,725.991,774.685,732.529,773.993,732.529Z" transform="translate(-772.413 -717.878)" fill="#533f28"/>
            </g>
            <g id="Group_3252" data-name="Group 3252" transform="translate(0.768)">
              <path id="Path_9879" data-name="Path 9879" d="M728.315,717.816a.382.382,0,0,1-.121-.745c1.085-.363,24.079-8.064,29.157-9.73-.79-.23-1.988-.536-3.1-.8-1.385-.019-10.718-1.909-29.184-5.746-6.462-1.342-12.566-2.61-12.981-2.639-.832.091-17.649,5.384-28.743,8.918a.383.383,0,0,1-.232-.729c4.693-1.495,28.144-8.954,28.986-8.954.314,0,3.848.728,13.125,2.655,11.15,2.316,27.984,5.83,29.016,5.737a.282.282,0,0,1,.151,0c4.46,1.049,4.462,1.236,4.464,1.575a.413.413,0,0,1-.335.405c-.526.141-19.905,6.621-30.078,10.027A.374.374,0,0,1,728.315,717.816Z" transform="translate(-682.84 -697.392)" fill="#533f28"/>
            </g>
          </g>
        </g>
        <g id="Group_3261" data-name="Group 3261" transform="translate(288.911 259.628)">
          <g id="Group_3260" data-name="Group 3260">
            <g id="Group_3258" data-name="Group 3258">
              <g id="Group_3255" data-name="Group 3255">
                <path id="Path_9880" data-name="Path 9880" d="M610.71,560.8c-1.4,0-8.777-.875-16.569-1.8-7.835-.93-16.726-2-17.808-1.915a16.239,16.239,0,0,0-1.758.254c-2.006.359-4.5.807-6.6-.741-2.865-2.111-.919-13.031.434-15.739,1.5-3,32.032-30.6,33.725-31.383,1.917-.883,5.373-.16,6.819.706.6.31,7.114.782,12.858,1.2,15.654,1.134,19.556,1.61,19.882,2.425a.384.384,0,0,1-.074.4l-1.532,1.661a.384.384,0,0,1,.12.3c-.092,1.665-.059,5.324-.028,7.486a.38.38,0,0,1,.2-.054c.16,0,1.575.021,2.132.77a1.187,1.187,0,0,1,.159,1.1c-.271.9-9.263,11.356-15.254,18.135-10.021,11.339-15.595,17.123-16.567,17.192C610.807,560.8,610.763,560.8,610.71,560.8Zm-34.276-4.483c1.587,0,9.469.935,17.8,1.924,7.7.912,15.65,1.851,16.557,1.792.662-.2,5.3-4.773,16.113-17.008,8.247-9.335,14.739-17.09,15.033-17.789a.422.422,0,0,0-.043-.407,2.281,2.281,0,0,0-1.519-.462.381.381,0,0,1-.186-.048c.01.623.018,1.016.018,1.032a.385.385,0,0,1-.1.264c-10.714,11.9-28.83,31.88-29.787,32.016-.4.06-4.2-.262-12.761-1.008-8.524-.742-20.2-1.757-21.191-1.6-.263.04-.5.081-.711.118a8.323,8.323,0,0,1-4.389-.263,2.568,2.568,0,0,1-1.749-1.479c-.944-2-.318-5.8,1.633-9.917a4.041,4.041,0,0,1,2.447-2.49c1.461-.372,2.886.679,4.034,1.521a4.979,4.979,0,0,0,1.489.893c1.741.29,30.409,2.684,32.433,2.387,1.625-1.855,25.141-27.372,29.184-31.76-1.94-.65-11.718-1.359-18.986-1.885-8.715-.632-12.6-.946-13.2-1.305-1.323-.793-4.468-1.423-6.1-.668-1.542.711-32,28.311-33.362,31.03-1.4,2.794-3.025,13.042-.665,14.781,1.836,1.352,4.056.954,6.014.6a16.927,16.927,0,0,1,1.845-.265C576.326,556.319,576.376,556.318,576.434,556.318Zm.264-2.075c2.147,0,10.447.706,20.927,1.619,5.8.5,11.766,1.013,12.54,1.014,1.433-.972,18.185-19.349,29.272-31.66-.019-.972-.111-6.106-.018-8.625-10.372,11.255-26.929,29.241-27.338,29.758-.183.246-.4.527-16.229-.71-8.072-.63-16.016-1.341-16.857-1.482a5.1,5.1,0,0,1-1.816-1.031c-1.071-.786-2.286-1.677-3.394-1.4-.724.184-1.378.882-1.944,2.077-1.828,3.858-2.468,7.494-1.633,9.262a1.815,1.815,0,0,0,1.243,1.064,7.666,7.666,0,0,0,4.073.251c.219-.038.457-.079.725-.12A3.263,3.263,0,0,1,576.7,554.243Z" transform="translate(-566.493 -509.075)" fill="#533f28"/>
              </g>
              <g id="Group_3256" data-name="Group 3256" transform="translate(42.81 37.73)">
                <path id="Path_9881" data-name="Path 9881" d="M650.434,583.056" transform="translate(-650.434 -583.056)" fill="#533f28"/>
              </g>
              <g id="Group_3257" data-name="Group 3257" transform="translate(43.115 36.935)">
                <path id="Path_9882" data-name="Path 9882" d="M651.689,593.122a.383.383,0,0,1-.383-.371c0-.089-.275-8.964-.275-10.872a.382.382,0,1,1,.765,0c0,1.9.272,10.76.275,10.849a.382.382,0,0,1-.37.394Z" transform="translate(-651.032 -581.497)" fill="#533f28"/>
              </g>
            </g>
            <g id="Group_3259" data-name="Group 3259" transform="translate(9.159 38.86)">
              <path id="Path_9883" data-name="Path 9883" d="M590.883,591.4a.385.385,0,0,1-.2-.056l-2.986-1.817L585,590.81a.382.382,0,0,1-.532-.45l1.375-4.811a.384.384,0,0,1,.394-.277l5.911.413a.383.383,0,0,1,.345.474l-1.238,4.949a.382.382,0,0,1-.225.261A.378.378,0,0,1,590.883,591.4Zm-3.162-2.689a.384.384,0,0,1,.2.056l2.718,1.654,1-4-5.147-.36-1.057,3.7,2.122-1.01A.379.379,0,0,1,587.721,588.708Z" transform="translate(-584.451 -585.272)" fill="#533f28"/>
            </g>
          </g>
        </g>
        <circle id="Ellipse_1208" data-name="Ellipse 1208" cx="1.53" cy="1.53" r="1.53" transform="translate(269.01 33.66)" fill="#84cacb"/>
        <circle id="Ellipse_1209" data-name="Ellipse 1209" cx="4.08" cy="4.08" r="4.08" transform="translate(290.431 15.3)" fill="#84cacb"/>
        <circle id="Ellipse_1210" data-name="Ellipse 1210" cx="3.06" cy="3.06" r="3.06" transform="translate(233.141 112.2)" fill="#84cacb"/>
        <circle id="Ellipse_1211" data-name="Ellipse 1211" cx="1.53" cy="1.53" r="1.53" transform="translate(138.961 60.69)" fill="#84cacb"/>
        <circle id="Ellipse_1212" data-name="Ellipse 1212" cx="4.08" cy="4.08" r="4.08" transform="translate(17.071 70.38)" fill="#84cacb"/>
        <circle id="Ellipse_1213" data-name="Ellipse 1213" cx="3.06" cy="3.06" r="3.06" transform="translate(55.831 148.41)" fill="#84cacb"/>
        <circle id="Ellipse_1214" data-name="Ellipse 1214" cx="2.04" cy="2.04" r="2.04" transform="translate(82.861 2.55)" fill="#84cacb"/>
        <circle id="Ellipse_1215" data-name="Ellipse 1215" cx="4.08" cy="4.08" r="4.08" transform="translate(387.33 73.44)" fill="#84cacb"/>
        <circle id="Ellipse_1216" data-name="Ellipse 1216" cx="3.06" cy="3.06" r="3.06" transform="translate(333.27 233.58)" fill="#84cacb"/>
        <circle id="Ellipse_1217" data-name="Ellipse 1217" cx="2.55" cy="2.55" r="2.55" transform="translate(384.27 316.71)" fill="#84cacb"/>
        <circle id="Ellipse_1218" data-name="Ellipse 1218" cx="3.57" cy="3.57" r="3.57" transform="translate(374.07 324.87)" fill="#84cacb"/>
        <circle id="Ellipse_1219" data-name="Ellipse 1219" cx="2.04" cy="2.04" r="2.04" transform="translate(293.49 370.77)" fill="#84cacb"/>
        <circle id="Ellipse_1220" data-name="Ellipse 1220" cx="3.57" cy="3.57" r="3.57" transform="translate(162.421 252.45)" fill="#84cacb"/>
        <circle id="Ellipse_1221" data-name="Ellipse 1221" cx="2.55" cy="2.55" r="2.55" transform="translate(134.371 277.95)" fill="#84cacb"/>
        <circle id="Ellipse_1222" data-name="Ellipse 1222" cx="2.55" cy="2.55" r="2.55" transform="translate(45.121 336.6)" fill="#84cacb"/>
        <circle id="Ellipse_1223" data-name="Ellipse 1223" cx="3.57" cy="3.57" r="3.57" transform="translate(17.581 223.89)" fill="#84cacb"/>
        <circle id="Ellipse_1224" data-name="Ellipse 1224" cx="3.57" cy="3.57" r="3.57" transform="translate(118.051 386.07)" fill="#84cacb"/>
        <circle id="Ellipse_1225" data-name="Ellipse 1225" cx="3.06" cy="3.06" r="3.06" transform="translate(321.54 334.05)" fill="#ec9394"/>
        <circle id="Ellipse_1226" data-name="Ellipse 1226" cx="3.06" cy="3.06" r="3.06" transform="translate(187.921 337.11)" fill="#ec9394"/>
        <circle id="Ellipse_1227" data-name="Ellipse 1227" cx="3.06" cy="3.06" r="3.06" transform="translate(72.151 377.91)" fill="#ec9394"/>
        <circle id="Ellipse_1228" data-name="Ellipse 1228" cx="2.55" cy="2.55" r="2.55" transform="translate(68.581 221.85)" fill="#ec9394"/>
        <circle id="Ellipse_1229" data-name="Ellipse 1229" cx="4.08" cy="4.08" r="4.08" transform="translate(258.81 248.88)" fill="#ec9394"/>
        <circle id="Ellipse_1230" data-name="Ellipse 1230" cx="2.04" cy="2.04" r="2.04" transform="translate(386.31 232.05)" fill="#ec9394"/>
        <circle id="Ellipse_1231" data-name="Ellipse 1231" cx="1.53" cy="1.53" r="1.53" transform="translate(343.47 153.51)" fill="#ec9394"/>
        <circle id="Ellipse_1232" data-name="Ellipse 1232" cx="2.04" cy="2.04" r="2.04" transform="translate(303.181 47.43)" fill="#ec9394"/>
        <circle id="Ellipse_1233" data-name="Ellipse 1233" cx="1.53" cy="1.53" r="1.53" transform="translate(148.651 17.85)" fill="#ec9394"/>
        <circle id="Ellipse_1234" data-name="Ellipse 1234" cx="2.04" cy="2.04" r="2.04" transform="translate(13.501 121.89)" fill="#ec9394"/>
        <circle id="Ellipse_1235" data-name="Ellipse 1235" cx="3.57" cy="3.57" r="3.57" transform="translate(189.111 130.22)" fill="#ec9394"/>
        <circle id="Ellipse_1236" data-name="Ellipse 1236" cx="2.04" cy="2.04" r="2.04" transform="translate(398.55 60.18)" fill="#ec9394"/>
        <circle id="Ellipse_1237" data-name="Ellipse 1237" cx="2.04" cy="2.04" r="2.04" transform="translate(210.871 235.11)" fill="#f5c75f"/>
        <circle id="Ellipse_1238" data-name="Ellipse 1238" cx="2.55" cy="2.55" r="2.55" transform="translate(264.421 341.19)" fill="#f5c75f"/>
        <circle id="Ellipse_1239" data-name="Ellipse 1239" cx="2.55" cy="2.55" r="2.55" transform="translate(120.601 335.07)" fill="#f5c75f"/>
        <circle id="Ellipse_1240" data-name="Ellipse 1240" cx="4.59" cy="4.59" r="4.59" transform="translate(5.341 285.6)" fill="#f5c75f"/>
        <circle id="Ellipse_1241" data-name="Ellipse 1241" cx="3.06" cy="3.06" r="3.06" transform="translate(50.221 94.35)" fill="#f5c75f"/>
        <circle id="Ellipse_1242" data-name="Ellipse 1242" cx="2.04" cy="2.04" r="2.04" transform="translate(98.671 32.64)" fill="#f5c75f"/>
        <circle id="Ellipse_1243" data-name="Ellipse 1243" cx="2.04" cy="2.04" r="2.04" transform="translate(266.461 80.58)" fill="#f5c75f"/>
        <circle id="Ellipse_1244" data-name="Ellipse 1244" cx="5.1" cy="5.1" r="5.1" transform="translate(356.73 70.89)" fill="#f5c75f"/>
        <circle id="Ellipse_1245" data-name="Ellipse 1245" cx="2.04" cy="2.04" r="2.04" transform="translate(355.2 208.59)" fill="#f5c75f"/>
        <circle id="Ellipse_1246" data-name="Ellipse 1246" cx="2.55" cy="2.55" r="2.55" transform="translate(383.76 273.36)" fill="#f5c75f"/>
        <circle id="Ellipse_1247" data-name="Ellipse 1247" cx="3.06" cy="3.06" r="3.06" transform="translate(321.03 385.56)" fill="#f5c75f"/>
        <circle id="Ellipse_1248" data-name="Ellipse 1248" cx="3.06" cy="3.06" r="3.06" transform="translate(146.441 105.23)" fill="#f5c75f"/>
        <circle id="Ellipse_1249" data-name="Ellipse 1249" cx="2.295" cy="2.295" r="2.295" transform="translate(95.638 351.843)" fill="#b4d06d"/>
        <circle id="Ellipse_1250" data-name="Ellipse 1250" cx="1.53" cy="1.53" r="1.53" transform="translate(120.601 240.72)" fill="#b4d06d"/>
        <circle id="Ellipse_1251" data-name="Ellipse 1251" cx="2.55" cy="2.55" r="2.55" transform="translate(252.18 143.82)" fill="#b4d06d"/>
        <circle id="Ellipse_1252" data-name="Ellipse 1252" cx="2.04" cy="2.04" r="2.04" transform="translate(156.301 134.64)" fill="#b4d06d"/>
        <circle id="Ellipse_1253" data-name="Ellipse 1253" cx="2.55" cy="2.55" r="2.55" transform="translate(9.421 4.08)" fill="#b4d06d"/>
        <circle id="Ellipse_1254" data-name="Ellipse 1254" cx="2.04" cy="2.04" r="2.04" transform="translate(320.52 3.57)" fill="#b4d06d"/>
        <circle id="Ellipse_1255" data-name="Ellipse 1255" cx="2.04" cy="2.04" r="2.04" transform="translate(181.801 24.48)" fill="#b4d06d"/>
        <circle id="Ellipse_1256" data-name="Ellipse 1256" cx="3.57" cy="3.57" r="3.57" transform="translate(362.34 114.24)" fill="#b4d06d"/>
      </g>
    </g>
  </g>
</svg>
