<svg id="Layer_2" height="512" viewBox="0 0 24 24" width="512" xmlns="http://www.w3.org/2000/svg" data-name="Layer 2"><path d="m8 2h-3c-1.66 0-3 1.34-3 3v3c0 1.66 1.34 3 3 3h3c1.66 0 3-1.34 3-3v-3c0-1.66-1.34-3-3-3zm1.5 6c0 .83-.67 1.5-1.5 1.5h-3c-.83 0-1.5-.67-1.5-1.5v-3c0-.83.67-1.5 1.5-1.5h3c.83 0 1.5.67 1.5 1.5z"/><path d="m19 2h-3c-1.66 0-3 1.34-3 3v3c0 1.66 1.34 3 3 3h3c1.66 0 3-1.34 3-3v-3c0-1.66-1.34-3-3-3zm1.5 6c0 .83-.67 1.5-1.5 1.5h-3c-.83 0-1.5-.67-1.5-1.5v-3c0-.83.67-1.5 1.5-1.5h3c.83 0 1.5.67 1.5 1.5z"/><path d="m8 13h-3c-1.66 0-3 1.34-3 3v3c0 1.66 1.34 3 3 3h3c1.66 0 3-1.34 3-3v-3c0-1.66-1.34-3-3-3zm1.5 6c0 .83-.67 1.5-1.5 1.5h-3c-.83 0-1.5-.67-1.5-1.5v-3c0-.83.67-1.5 1.5-1.5h3c.83 0 1.5.67 1.5 1.5z"/><path d="m20.5 16.75h-2.25v-2.25c0-.41-.34-.75-.75-.75s-.75.34-.75.75v2.25h-2.25c-.41 0-.75.34-.75.75s.34.75.75.75h2.25v2.25c0 .41.34.75.75.75s.75-.34.75-.75v-2.25h2.25c.41 0 .75-.34.75-.75s-.34-.75-.75-.75z"/></svg>