<?xml version="1.0"?>
<svg xmlns="http://www.w3.org/2000/svg" id="Line_Expand" data-name="Line Expand" viewBox="0 0 64 64" width="512" height="512"><path d="M63,54H61.446a3.9542,3.9542,0,0,0,.5564-2V34a4.0045,4.0045,0,0,0-4-4h-23a3.9753,3.9753,0,0,0-1.535.3085A10.9349,10.9349,0,0,0,31.0024,30h-3.5v-.7685A9.4988,9.4988,0,0,0,31.3722,23h.13a4.0045,4.0045,0,0,0,4-4V14.5a13.5,13.5,0,0,0-27,0V19a4.0046,4.0046,0,0,0,4,4h.13a9.499,9.499,0,0,0,3.87,6.2315V30h-3.5a11.0125,11.0125,0,0,0-11,11V51A4.9514,4.9514,0,0,0,3.028,54H1a1,1,0,0,0-1,1v7a1,1,0,0,0,1,1H63a1,1,0,0,0,1-1V55A1,1,0,0,0,63,54ZM58.0024,32a2.0019,2.0019,0,0,1,2,2V52a2.0019,2.0019,0,0,1-2,2h-25V34a2.002,2.002,0,0,1,2-2ZM27.933,54a7.9322,7.9322,0,0,0-1.013-3h4.0824v3Zm-6.9306-4.9092A6.01,6.01,0,0,1,25.9189,54H21.0024ZM31.5024,21V17a2,2,0,0,1,0,4Zm-9.5-18a11.5127,11.5127,0,0,1,11.5,11.5v1.0565a3.953,3.953,0,0,0-2-.5565h-.5088L27.43,10.3887a1,1,0,0,0-1.5249-.0684A14.6659,14.6659,0,0,1,15.1836,15H12.5024a3.9536,3.9536,0,0,0-2,.5565V14.5A11.5128,11.5128,0,0,1,22.0024,3Zm-11.5,16a2.002,2.002,0,0,1,2-2v4A2.002,2.002,0,0,1,10.5024,19Zm4,2.5V17h.6812a16.6812,16.6812,0,0,0,11.36-4.4878l2.9589,3.8291V21.5a7.5,7.5,0,1,1-15,0Zm7.5,9.5a9.4376,9.4376,0,0,0,3.5-.6765V31.5a3.5,3.5,0,0,1-7,0V30.3235A9.4379,9.4379,0,0,0,22.0024,31Zm-18,20V41a9.01,9.01,0,0,1,9-9h3.5254a5.4972,5.4972,0,0,0,10.9493,0h3.5253c.1769,0,.3576.0258.5363.0372A3.9513,3.9513,0,0,0,31.0024,34V49H25.2762a7.9577,7.9577,0,0,0-5.2738-2h-10a1,1,0,0,0,0,2h9v5h-12A3.0033,3.0033,0,0,1,4.0024,51ZM62,61H2V56H62Z"/><path d="M46.5024,48a5,5,0,1,0-5-5A5.0059,5.0059,0,0,0,46.5024,48Zm0-8a3,3,0,1,1-3,3A3.0033,3.0033,0,0,1,46.5024,40Z"/></svg>
