<svg id="Layer_2" height="512" viewBox="0 0 24 24" width="512" xmlns="http://www.w3.org/2000/svg" data-name="Layer 2"><g><path d="m18 15.33h-7.5c-.41 0-.75-.34-.75-.75s.34-.75.75-.75h7.5c.41 0 .75.34.75.75s-.34.75-.75.75z"/><path d="m18 10.13h-7.5c-.41 0-.75-.34-.75-.75s.34-.75.75-.75h7.5c.41 0 .75.34.75.75s-.34.75-.75.75z"/><path d="m6.89 10.96c-.19 0-.37-.07-.51-.2l-.89-.83c-.3-.28-.32-.76-.03-1.06.28-.3.76-.32 1.06-.03l.34.31 1-1.08c.28-.3.76-.32 1.06-.04s.32.76.04 1.06l-1.51 1.63c-.14.15-.32.23-.52.24h-.03z"/><path d="m6.89 16.17c-.19 0-.37-.07-.51-.2l-.89-.83c-.3-.28-.32-.76-.03-1.06.28-.3.76-.32 1.06-.03l.34.31 1-1.08c.28-.3.76-.32 1.06-.04s.32.76.04 1.06l-1.51 1.63c-.14.15-.32.23-.52.24h-.03z"/></g><path d="m19 3.5c.83 0 1.5.67 1.5 1.5v14c0 .83-.67 1.5-1.5 1.5h-14c-.83 0-1.5-.67-1.5-1.5v-14c0-.83.67-1.5 1.5-1.5zm0-1.5h-14c-1.66 0-3 1.34-3 3v14c0 1.66 1.34 3 3 3h14c1.66 0 3-1.34 3-3v-14c0-1.66-1.34-3-3-3z"/></svg>