<svg id="ICE-details-bg" xmlns="http://www.w3.org/2000/svg" width="320.008" height="185.227" viewBox="0 0 320.008 185.227">
  <g id="Group_4733" data-name="Group 4733">
    <path id="Path_10790" data-name="Path 10790" d="M668.253,333.256s-55.184-49.9-24.106-117.34c14.91-32.357,54.617-39.951,66.654-33.329,15.871,8.731,36.921-14.856,82.419-31.05,34.2-12.172,111.6,12.646,86.4,88.982-15.291,46.3,43.571,34.124,34.442,93.3Z" transform="translate(-595.016 -148.595)" fill="#fbecdb"/>
    <g id="Group_4721" data-name="Group 4721" transform="translate(24.374 99.288)">
      <g id="Group_4718" data-name="Group 4718" transform="translate(21.562)">
        <rect id="Rectangle_672" data-name="Rectangle 672" width="43.806" height="59.819" transform="translate(3.017 25.518)" fill="#f9ddbf"/>
        <rect id="Rectangle_673" data-name="Rectangle 673" width="34.03" height="59.821" transform="translate(46.823 25.518)" fill="#fff3e9"/>
        <path id="Path_10791" data-name="Path 10791" d="M739.348,885.524l-14.353,29.55H681.39l22.734-29.442Z" transform="translate(-681.39 -885.524)" fill="#ed9f4a"/>
        <path id="Path_10792" data-name="Path 10792" d="M752.12,885.524l-14.353,29.55H694.162L716.9,885.632Z" transform="translate(-692.441 -885.524)" fill="#f9ddbf"/>
        <path id="Path_10793" data-name="Path 10793" d="M823.741,995.186h-.916a5.633,5.633,0,0,0-5.633,5.633v14.315h12v-14.5A5.45,5.45,0,0,0,823.741,995.186Z" transform="translate(-798.895 -980.411)" fill="#efcdaf"/>
        <g id="Group_4717" data-name="Group 4717" transform="translate(22.618)">
          <path id="Path_10794" data-name="Path 10794" d="M912.237,916.711H872.656l-23.394-31.19,13.17,0,25.729,0Z" transform="translate(-849.262 -885.521)" fill="#ed9f4a"/>
          <path id="Path_10795" data-name="Path 10795" d="M996.816,916.728h-7.253l-42.553-31.187,25.729,0Z" transform="translate(-933.841 -885.538)" fill="#e58638"/>
        </g>
      </g>
      <g id="Group_4720" data-name="Group 4720" transform="translate(0 37.804)">
        <path id="Path_10796" data-name="Path 10796" d="M562.619,1166.106,552.4,1187.144H521.355l16.185-20.961Z" transform="translate(-521.355 -1166.106)" fill="#ed9f4a"/>
        <g id="Group_4719" data-name="Group 4719" transform="translate(0.93)">
          <path id="Path_10797" data-name="Path 10797" d="M569.523,1166.106,559.3,1187.144H528.26l16.185-20.961Z" transform="translate(-528.26 -1166.106)" fill="#f9ddbf"/>
          <path id="Path_10798" data-name="Path 10798" d="M559.24,1322.252v22.531H548.963c-.344-.051-.519-.085-.519-.085a39.188,39.188,0,0,1-11.45-2.128,32.772,32.772,0,0,1-8.729-4.478v-15.84Z" transform="translate(-528.263 -1301.214)" fill="#f9ddbf"/>
          <path id="Path_10799" data-name="Path 10799" d="M784.4,1322.252v18.315q-2.811.819-5.432,1.463a112.246,112.246,0,0,1-15.659,2.753h-5.14v-22.531Z" transform="translate(-727.197 -1301.214)" fill="#fff3e9"/>
          <path id="Path_10800" data-name="Path 10800" d="M686.317,1188.878H658.138l-16.657-22.206h8.394l19.3,0Z" transform="translate(-626.227 -1166.595)" fill="#ed9f4a"/>
          <path id="Path_10801" data-name="Path 10801" d="M606.106,1315.7v17.86h-1.081c-.344-.051-.519-.085-.519-.085a39.188,39.188,0,0,1-11.45-2.128v-15.431a6.634,6.634,0,0,1,6.633-6.633,6.42,6.42,0,0,1,6.417,6.418Z" transform="translate(-584.326 -1289.995)" fill="#efcdaf"/>
          <circle id="Ellipse_1645" data-name="Ellipse 1645" cx="1.465" cy="1.465" r="1.465" transform="translate(13.79 10.292)" fill="#efcdaf"/>
          <path id="Path_10802" data-name="Path 10802" d="M740.223,1188.887h-5.348l-31.094-22.2,19.3,0Z" transform="translate(-680.133 -1166.605)" fill="#e58638"/>
        </g>
      </g>
    </g>
    <path id="Path_10803" data-name="Path 10803" d="M566.526,1322.818c-22.484-6.666-49.739-12.793-72.129-7.43s-30.992,12.6-55.579-4.048a35.3,35.3,0,0,0-6.218-3.43c4.341-.787,10.143-2.162,7.571-3.552-2.681-1.45-7.167,1.028-9.761,2.761q-.973-.3-1.905-.487c5.924-4.241,16.429-12.265,11.543-12.534-4.821-.266-10.649,7.784-13.494,12.239q-.731-.071-1.443-.083c-.252-2.314-1.178-6.413-4.58-6.669-3.478-.261.629,4.259,3.088,6.708-13.238.881-22.2,15.909-49.995,6.424a23.83,23.83,0,0,0-12.832-.47c-2.614-5.774-10.375-21.479-16.794-19.845s9.47,15.231,15.5,20.154q-1.077.279-2.123.621c-3.649-2.691-10.493-7.041-14.4-5.131-3.822,1.867,5.759,4.538,12,6a55.553,55.553,0,0,0-14.515,8.756Z" transform="translate(-340.45 -1138.191)" fill="#a8d29f"/>
    <path id="Path_10804" data-name="Path 10804" d="M2459.607,1332.534h-26.152c-1.414-1.186.959-3.891,3.442-4.075a15.234,15.234,0,0,1,3.991.471c.361-4.782,2.417-26.262,10.159-25.4,8.708.969,0,9.462-2.461,14.491a118.533,118.533,0,0,0-4.625,11.591c.707.153,1.437.306,2.186.443,1.151-3.545,5.447-15.467,10.91-14.773,6.414.813,3.834,5.592-.709,8.43-3.337,2.086-7.434,5.053-9.379,6.485a27.83,27.83,0,0,0,5.118.408C2456.577,1330.5,2458.765,1331.826,2459.607,1332.534Z" transform="translate(-2151.092 -1147.901)" fill="#a8d29f"/>
    <g id="Group_4725" data-name="Group 4725" transform="translate(148.438 15.588)">
      <g id="Group_4722" data-name="Group 4722" transform="translate(19.506 22.144)">
        <path id="Path_10805" data-name="Path 10805" d="M1589.9,428.644s6.223,2.944,7.638,2.573,6.786-1.32,7.541-.985c0,0,.856,1.365.21,2.262s-5.872,3.326-7.76,3.414-9.055-1.21-10.576-2.4Z" transform="translate(-1586.947 -428.644)" fill="#e8945b"/>
        <path id="Path_10806" data-name="Path 10806" d="M1718.159,438s2.4-1,3.186.117a4.884,4.884,0,0,1,1.133,2.811c-.1.57-1.718.821-2.366.378a15.751,15.751,0,0,0-2.253-1.063Z" transform="translate(-1700.221 -436.38)" fill="#e8945b"/>
      </g>
      <path id="Path_10807" data-name="Path 10807" d="M1796.529,1465.609a10.131,10.131,0,0,0-1.354,4.631,1,1,0,0,0,1,1h8.259a1.229,1.229,0,0,0,1.193-1.528,10.184,10.184,0,0,0-2.857-5.185C1800.138,1462.318,1796.529,1465.609,1796.529,1465.609Z" transform="translate(-1747.615 -1302.158)" fill="#163560"/>
      <path id="Path_10808" data-name="Path 10808" d="M1586.8,1445.34s-.475,7.657-1.956,7.767c-.2.015-7.514.015-7.514.015h-9.438a3.226,3.226,0,0,1,2.889-2.781c2.73-.476,7.3-2.395,8.954-6C1581.473,1440.542,1586.8,1445.34,1586.8,1445.34Z" transform="translate(-1550.952 -1284.083)" fill="#163560"/>
      <g id="Group_4723" data-name="Group 4723" transform="translate(21.429 73.589)">
        <path id="Path_10809" data-name="Path 10809" d="M1619.6,850.84c-.331,4.254-.373,7.612.063,9.2,1.948,7.122-3.51,39.28-3.51,39.28-4.024,1.925-9.739-.02-9.739-.02.347-4.455-1.771-44.333-3.741-68.661-.825-10.213-1.444-17.359-1.444-17.359l24.106-2.807S1620.738,836.065,1619.6,850.84Z" transform="translate(-1601.225 -810.477)" fill="#2b478b"/>
        <path id="Path_10810" data-name="Path 10810" d="M1625.331,810.477s-4.593,25.588-5.734,40.363l-16.928-20.2c-.825-10.213-1.444-17.359-1.444-17.359Z" transform="translate(-1601.225 -810.477)" fill="#233862"/>
      </g>
      <path id="Path_10811" data-name="Path 10811" d="M1692.374,830.061s12.2,71.051,14.3,84.809a15.411,15.411,0,0,0,9.236-.7s.6-33.016-.994-42.962.851-40.692-1.723-43.552S1692.374,830.061,1692.374,830.061Z" transform="translate(-1658.664 -751.015)" fill="#2b478b"/>
      <path id="Path_10812" data-name="Path 10812" d="M1697.656,398.106s-.936,6.314-.526,8.2,6.683,2.911,9.307,1.353,1.835-2.137,1.835-2.137-.4-7.229-.769-7.744S1697.656,398.106,1697.656,398.106Z" transform="translate(-1662.689 -379.649)" fill="#ffb27d"/>
      <path id="Path_10813" data-name="Path 10813" d="M1521.345,482.2a67.6,67.6,0,0,0-.165-18.393c-2.292-13.18-9.471-13.619-9.471-13.534,0,1.774-3.816,3.411-6.893,3.209-2.594-.17-4.277-2.142-4.277-3.209,0-.009-.048-.008-.135,0a45.494,45.494,0,0,0-6.658.566c-2.11.364-4.129.963-5.078,1.951-.49.509-2.235,1.936-4.477,3.876-5.711,4.939-14.642,13.206-14.247,18.132,0,0,11.039,8.106,18.034,3.025-.381,13.191-2.775,27.164-2.188,27.153,0,0,3.9,3.377,15.746,3.377a74.979,74.979,0,0,0,14.411-1.2,21.975,21.975,0,0,0,6.191-1.906C1523.123,505.234,1521.058,484.936,1521.345,482.2Z" transform="translate(-1466.191 -425.207)" fill="#f99746"/>
      <path id="Path_10814" data-name="Path 10814" d="M1697.176,572.277a21.972,21.972,0,0,1-6.191,1.906c-6.121-2.711-18.271-9.718-18.745-21.484-.63-15.651,18.478-24.971,18.478-24.971s2.563,1.424,5.5,3.1a67.6,67.6,0,0,1,.165,18.393C1696.1,551.964,1698.163,572.262,1697.176,572.277Z" transform="translate(-1641.23 -492.235)" fill="#ed7d2b"/>
      <path id="Path_10815" data-name="Path 10815" d="M1700.966,406.565s2.433,3.43,5.006,3.461,5.2-3.407,5.2-3.407Z" transform="translate(-1666.098 -387.396)" fill="#e8945b"/>
      <path id="Path_10816" data-name="Path 10816" d="M1690.137,317.484a16.5,16.5,0,0,0,3.41,1.746,4.214,4.214,0,0,0,2.916.062,38.669,38.669,0,0,0,4.114-1.583c1.288-.781,1.205-2.362,1.271-4.56.079-2.6.342-4.645.051-6.145-.345-1.794-1.483-2.815-4.668-3.092-5.846-.507-8.282.957-8.384,2.917-.026.526-.051,1.028-.068,1.5C1688.547,314.445,1689.03,316.613,1690.137,317.484Z" transform="translate(-1655.505 -298.486)" fill="#ffb27d"/>
      <path id="Path_10817" data-name="Path 10817" d="M1678.557,273.356a2.456,2.456,0,0,1,2.757-.858c1.8.554,1.983,2.091,5.059,1.845s3.813-1.7,4.367-.974.873,5.027.873,5.027,6.183-14.1-6.348-14.1c0,0-12.915-.78-6.707,13.55Z" transform="translate(-1645.249 -264.291)" fill="#2c3a64"/>
      <path id="Path_10818" data-name="Path 10818" d="M1520.4,430.671l.017.01C1520.4,430.688,1520.4,430.671,1520.4,430.671Z" transform="translate(-1509.856 -408.254)" fill="#ffb27d"/>
      <path id="Path_10819" data-name="Path 10819" d="M1573.817,637.25a7.051,7.051,0,0,1-4.039,1.292s-2.446-2.7-4.508-5.3a17.7,17.7,0,0,1-2.749-4.2c-.615-2.182-12.125-2.8-13.534-4.335s5.719-5.4,5.719-5.4,11.684,1.787,13.441,4.082a32.136,32.136,0,0,1,2.74,5.832C1572.4,633.059,1573.817,637.25,1573.817,637.25Z" transform="translate(-1534.436 -571.476)" fill="#e8945b"/>
      <path id="Path_10820" data-name="Path 10820" d="M1613.082,487.9s2.215-4.3,3.309-4.174-2.514,8.9-2.842,13.164S1613.082,487.9,1613.082,487.9Z" transform="translate(-1590.055 -454.156)" fill="#ed7d2b"/>
      <path id="Path_10821" data-name="Path 10821" d="M1508.32,628.42a64.869,64.869,0,0,1-3.781,7.539l-.027.045h-.036c-.373,0-3.581-.074-3.894-1.362,0,0-.1-4.458.074-8a18.747,18.747,0,0,1,.44-3.72s-17.4-.117-17.093-5.038,9.4-7.526,14.63-4.973c0,0,6.934,2.519,10.583,5.847C1511.009,620.4,1509.906,624.582,1508.32,628.42Z" transform="translate(-1478.363 -565.081)" fill="#ffb27d"/>
      <path id="Path_10822" data-name="Path 10822" d="M1475.953,605s-2.316,3.4-1.773,6.582,7.153,4.874,11.778,5.076c0,0,13.229-3.032,11.177-8.305C1496.67,607.153,1475.953,605,1475.953,605Z" transform="translate(-1469.796 -559.092)" fill="#2b478b"/>
      <g id="Group_4724" data-name="Group 4724" transform="translate(0 1.54)">
        <path id="Path_10823" data-name="Path 10823" d="M1453.135,278.243s-2.1-4.3-7.176-1.671-.134,12.537-2.8,15.014.965,4.1.425,5.873,1,3.795,4.555,3.557,7.291-.046,8.9-3.153,1.24-9.944.62-10.9S1453.135,278.243,1453.135,278.243Z" transform="translate(-1442.174 -275.721)" fill="#aa443e"/>
        <path id="Path_10824" data-name="Path 10824" d="M1529.148,400.022l-8.63-5.207a7.856,7.856,0,0,0,.868-2.146,10.438,10.438,0,0,0,.492-2.034c.007-.055.014-.108.019-.16a5.582,5.582,0,0,0,.024-1.255l1.89.683,3.5,1.267a4.329,4.329,0,0,0,.272,1.938,1.556,1.556,0,0,0,1.331,1.047Z" transform="translate(-1509.962 -373.928)" fill="#ffb27d"/>
        <path id="Path_10825" data-name="Path 10825" d="M1535.715,397.5a6.484,6.484,0,0,1-5.7-2.473c-.062-.081-.093-.127-.093-.127l.112-.034c.275-.081,1.021-.306,1.914-.571l3.5,1.266A4.321,4.321,0,0,0,1535.715,397.5Z" transform="translate(-1518.097 -378.317)" fill="#ed985f"/>
        <path id="Path_10826" data-name="Path 10826" d="M1523.682,330.9s-7.507.825-7.661-4.251-1.263-7.4,3.931-7.851,6.421,1.419,6.727,3.136C1527.635,327.3,1525.8,330.676,1523.682,330.9Z" transform="translate(-1505.895 -312.937)" fill="#ffb27d"/>
        <path id="Path_10827" data-name="Path 10827" d="M1499,292.917c-2.656-.672-1.641,4.034-2.312,3.712-.751-.361-2.042-.355-1.838.552a17.543,17.543,0,0,0,.651,1.8c.154.566,0,1.687-.619,1.461s-6.362-6.786-2.306-11.9,16.152-1.962,12.343,3.383C1504.252,292.866,1500.894,293.4,1499,292.917Z" transform="translate(-1484.542 -284.574)" fill="#aa443e"/>
        <path id="Path_10828" data-name="Path 10828" d="M1500.355,448.743a12.928,12.928,0,0,1-5.807,1.141,40.377,40.377,0,0,1-10.156-2.133c-1.76-.634-2.964-1.311-2.819-1.88.208-.82,1.716-7.112,3.11-12.934,1.274-5.324,2.452-10.255,2.452-10.255s3.516,2.5,5.565,1.617,1.786-1.878,1.786-1.878a24.95,24.95,0,0,1,3.069-.219,41.641,41.641,0,0,1,4.738,1.469s.485,1.364-.8,3.492a4.627,4.627,0,0,1-2.1,2.105A43.352,43.352,0,0,1,1500.355,448.743Z" transform="translate(-1476.254 -402.454)" fill="#739af0"/>
        <path id="Path_10829" data-name="Path 10829" d="M1534.966,555.329s2.168-.4,3.016.15,1.1,1.424.488,1.779a3.952,3.952,0,0,1-3.854-.118Z" transform="translate(-1522.162 -517.534)" fill="#ffb27d"/>
        <path id="Path_10830" data-name="Path 10830" d="M1484.391,509.037c-1.76-.633-2.964-1.311-2.819-1.88.208-.82,1.716-7.112,3.11-12.934.412-.755.673-1.205.673-1.205S1488,505.1,1484.391,509.037Z" transform="translate(-1476.254 -463.74)" fill="#4a82d3"/>
        <path id="Path_10831" data-name="Path 10831" d="M1463.152,430.887s-6.678,1.414-9.312,11.8a3.147,3.147,0,0,0,.71,2.878c1.211,1.342,3.881,3.3,10.089,4.027.678.079.769-1.641.769-1.641a44.577,44.577,0,0,1-5.984-4.2.974.974,0,0,1-.075-1.2,28.22,28.22,0,0,0,1.935-3.294C1461.776,438.078,1465.019,431.422,1463.152,430.887Z" transform="translate(-1452.185 -409.981)" fill="#ffb27d"/>
        <path id="Path_10832" data-name="Path 10832" d="M1477.155,425.847s-3.927.279-7.128,4.548c0,0,1.083,3.927,6.169,4.975C1476.2,435.37,1479.331,428.3,1477.155,425.847Z" transform="translate(-1466.274 -405.62)" fill="#739af0"/>
      </g>
      <path id="Path_10833" data-name="Path 10833" d="M1614.624,723a64.882,64.882,0,0,1-3.781,7.539l-.063.046c-.373,0-3.581-.074-3.895-1.362,0,0-.1-4.458.074-8C1607.47,721.711,1609.441,723.173,1614.624,723Z" transform="translate(-1584.668 -659.659)" fill="#ebf2f9"/>
      <path id="Path_10834" data-name="Path 10834" d="M1679.578,700.921a7.049,7.049,0,0,1-4.038,1.292s-2.447-2.7-4.509-5.3a22.536,22.536,0,0,0,5.615-4.015C1678.159,696.73,1679.578,700.921,1679.578,700.921Z" transform="translate(-1640.197 -635.147)" fill="#ebf2f9"/>
      <path id="Path_10835" data-name="Path 10835" d="M1606.037,784.507a.738.738,0,0,1-.876.585,34.047,34.047,0,0,1-3.42-.83c-1.022-.372-2.984-1.531-4.006-1.9-.351-.128-1.2-.469-1.742-.691a.609.609,0,0,1-.356-.735,12.925,12.925,0,0,1,1.032-2.573.936.936,0,0,1,.426-.378,3.97,3.97,0,0,0,2.486.9,5.435,5.435,0,0,0,2.242-.472c.07.142,1.464,2.954,2.452,3.314A2.45,2.45,0,0,1,1606.037,784.507Z" transform="translate(-1574.938 -708.771)" fill="#aa443e"/>
      <path id="Path_10836" data-name="Path 10836" d="M1709.573,738.737a.738.738,0,0,1-.326,1,34.113,34.113,0,0,1-3.2,1.467c-1.033.341-3.291.646-4.323.987-.355.117-1.229.373-1.8.537a.609.609,0,0,1-.735-.357,12.886,12.886,0,0,1-.784-2.659.941.941,0,0,1,.1-.561,3.969,3.969,0,0,0,2.508-.834,5.436,5.436,0,0,0,1.468-1.759c.143.069,2.98,1.413,3.977,1.083A2.45,2.45,0,0,1,1709.573,738.737Z" transform="translate(-1663.878 -672.93)" fill="#aa443e"/>
      <path id="Path_10837" data-name="Path 10837" d="M1484.543,619.54s-.5,2.9-2.388,4.238c0,0-7.662-1.054-14.8-2.859-5.243-1.326-10.2-3.057-11.621-5.073-3.351-4.755,1.752-10.544,1.752-10.544s9.837,4.747,20.487,10.563C1480.159,617.055,1482.372,618.292,1484.543,619.54Z" transform="translate(-1452.925 -559.357)" fill="#f99746"/>
      <path id="Path_10838" data-name="Path 10838" d="M1561.144,742.427s-2.276.185-3.136,1.046-2.166,3.365-1.237,4.358,5.357-1.183,5.48-1.54A24.8,24.8,0,0,0,1561.144,742.427Z" transform="translate(-1541.054 -678.007)" fill="#ffb27d"/>
      <path id="Path_10839" data-name="Path 10839" d="M1566.5,687.375s-.5,2.9-2.388,4.238c0,0-7.662-1.054-14.8-2.859a25.623,25.623,0,0,1,10.618-5.054C1562.114,684.89,1564.327,686.126,1566.5,687.375Z" transform="translate(-1534.88 -627.191)" fill="#ed7d2b"/>
      <path id="Path_10840" data-name="Path 10840" d="M1624.837,454.435c-1.531-3.638-11.605-3.777-11.605-3.777-5.125,13.449-6.357,22.27-7.712,27.939a2.88,2.88,0,0,0-.613,0s-7.2,2.809-17.9,10.581a6.166,6.166,0,0,0,.89,5.581s18.44-4.07,23.59-7.089h.008l.154-.1c.078-.048.153-.1.224-.144C1628.621,476.546,1627.028,459.641,1624.837,454.435Z" transform="translate(-1567.223 -425.548)" fill="#f99746"/>
    </g>
    <g id="Group_4727" data-name="Group 4727" transform="translate(105.635 42.523)">
      <path id="Path_10841" data-name="Path 10841" d="M1527.7,957.647a7.09,7.09,0,0,1,4.443,7.741s-.478,2.417-1.966,1.345-.791-.874-2.916-2.34-3.513-3.776-3.271-5.612Z" transform="translate(-1470.142 -891.165)" fill="#ffb27d"/>
      <path id="Path_10842" data-name="Path 10842" d="M1348.648,700.671l-3.062,3.715a.614.614,0,0,1-.588.212c-2.871-.527-12.75-6.9-15.986-9.494a9.611,9.611,0,0,1-.8-.7c-1.207-1.229-5.367-7.3-8.321-12.7-1.7-3.111-3-6-3.1-7.622-.368-5.783,2.674-13.87,2.674-13.87,9,3.132,9.946,10.317,9.946,10.317L1334.4,689.1l14.13,10.561A.7.7,0,0,1,1348.648,700.671Z" transform="translate(-1290.85 -633.806)" fill="#739af0"/>
      <path id="Path_10843" data-name="Path 10843" d="M1348.111,778.75a9.6,9.6,0,0,1-.8-.7c-1.207-1.229-5.367-7.3-8.321-12.7-.382-3.265-.12-6.327,1.226-8.468C1340.215,756.884,1347.865,770.345,1348.111,778.75Z" transform="translate(-1309.95 -717.451)" fill="#4a82d3"/>
      <path id="Path_10844" data-name="Path 10844" d="M1290.892,1296.186l-1.53,6.379-.947,3.948-3.152,13.144a10.569,10.569,0,0,1-5.5,0,47.949,47.949,0,0,1-1.068-9.774,32.806,32.806,0,0,1,1.073-8.927,20.505,20.505,0,0,1,1.314-3.491C1285.528,1288.383,1290.892,1296.186,1290.892,1296.186Z" transform="translate(-1257.916 -1181.393)" fill="#ffb27d"/>
      <path id="Path_10845" data-name="Path 10845" d="M1293.238,1484.71h-14.812a12.59,12.59,0,0,1,.418-4.385,7.586,7.586,0,0,1,.352-.941,15.01,15.01,0,0,0,6.158,0,24.7,24.7,0,0,0,4.3,2.983C1291.276,1483.067,1293.066,1482.686,1293.238,1484.71Z" transform="translate(-1257.65 -1342.606)" fill="#2b478b"/>
      <path id="Path_10846" data-name="Path 10846" d="M1289.363,1347.414l-.947,3.948a22.828,22.828,0,0,1-9.722,3.369,32.806,32.806,0,0,1,1.073-8.927,6.555,6.555,0,0,1,3.93-.847A11.247,11.247,0,0,1,1289.363,1347.414Z" transform="translate(-1257.916 -1226.243)" fill="#e8945b"/>
      <path id="Path_10847" data-name="Path 10847" d="M1285.545,1490.755h-7.118a12.589,12.589,0,0,1,.418-4.385C1280.632,1486.927,1284.269,1488.322,1285.545,1490.755Z" transform="translate(-1257.65 -1348.652)" fill="#1f396d"/>
      <path id="Path_10848" data-name="Path 10848" d="M1203.262,1296.186l-1.53,6.379-.947,3.948-3.152,13.144a10.569,10.569,0,0,1-5.5,0,47.969,47.969,0,0,1-1.068-9.774,32.806,32.806,0,0,1,1.073-8.927,20.485,20.485,0,0,1,1.314-3.491C1197.9,1288.383,1203.262,1296.186,1203.262,1296.186Z" transform="translate(-1182.092 -1181.393)" fill="#ffb27d"/>
      <path id="Path_10849" data-name="Path 10849" d="M1191.564,1479.379a15,15,0,0,0,6.158,0,24.69,24.69,0,0,0,4.3,2.984c1.62.7,3.411.32,3.582,2.343h-14.811A11.819,11.819,0,0,1,1191.564,1479.379Z" transform="translate(-1181.825 -1342.603)" fill="#2b478b"/>
      <path id="Path_10850" data-name="Path 10850" d="M1201.731,1347.414l-.947,3.948a22.823,22.823,0,0,1-9.722,3.369,32.806,32.806,0,0,1,1.073-8.927,6.555,6.555,0,0,1,3.93-.847A11.243,11.243,0,0,1,1201.731,1347.414Z" transform="translate(-1182.092 -1226.243)" fill="#e8945b"/>
      <path id="Path_10851" data-name="Path 10851" d="M1185.141,1002.87a3.018,3.018,0,0,1-2.914,2.229h-23.749a3.068,3.068,0,0,1-3.06-3.3c.25-3.235,1.14-8.518,1.529-12.086a16.026,16.026,0,0,0,.142-3.287c-2.4-15.861-4.409-34.545-4.165-38.116.035-.5.059-.762.059-.762s1.729-.146,4.361-.248c7.648-.3,22.915-.25,25.452,4.752,2.584,5.095,4.144,38.923,4.144,38.923C1187.317,994.133,1185.983,999.755,1185.141,1002.87Z" transform="translate(-1149.075 -882.121)" fill="#c65447"/>
      <path id="Path_10852" data-name="Path 10852" d="M1156.948,990.367a16.026,16.026,0,0,0,.142-3.287c-2.4-15.862-4.409-34.545-4.165-38.116.035-.5.059-.762.059-.762s1.729-.146,4.361-.248a22.437,22.437,0,0,1,6.532,6.3S1163.079,983.937,1156.948,990.367Z" transform="translate(-1149.075 -882.777)" fill="#b2443b"/>
      <path id="Path_10853" data-name="Path 10853" d="M1273.1,464.3c-1.9-.474-3,1.02-3,2.781a3.187,3.187,0,0,0,3.187,3.187c1.76,0,3.187-2.039,3.187-3.8S1274.812,464.724,1273.1,464.3Z" transform="translate(-1250.485 -464.208)" fill="#b2443b"/>
      <path id="Path_10854" data-name="Path 10854" d="M1255.018,497.807s-9.883-8.9-.936-15.2a12.774,12.774,0,0,1,4.027-.457s4.863-1.423,7.709,1.88,4.083,5.692,1.643,8.639S1255.018,497.807,1255.018,497.807Z" transform="translate(-1233.378 -479.467)" fill="#c65447"/>
      <path id="Path_10855" data-name="Path 10855" d="M1167.511,987.839a7.09,7.09,0,0,1-2.25,8.637s-2.034,1.391-2.345-.417.048-1.178-.443-3.713.137-5.156,1.6-6.3Z" transform="translate(-1157.212 -915.741)" fill="#ffb27d"/>
      <path id="Path_10856" data-name="Path 10856" d="M1272.163,585.368s-.122,1.333-.348,3.134c-.11.88-.245,1.873-.4,2.876-.113.72-.238,1.447-.375,2.141l-3.06,10.334-7.185-11.627s1.689-1.4,3.977-8.968c.022-.081.037-.124.037-.124Z" transform="translate(-1242.427 -567.11)" fill="#ffb27d"/>
      <path id="Path_10857" data-name="Path 10857" d="M1172.859,694.744c.093,1.161-.2,1.372-.2,1.372s-4.418,1.6-15.529,1.048q-1.8-.09-3.392-.184c-7.161-.422-10.99-.864-10.99-.864s-5.865-13.537,5.153-30.216a53.465,53.465,0,0,1,4.418-5.763c1.785-2.035,2.178-4.758,2.854-7.346.193-.742-.366-.906-.087-1.605,0,0,2.009-.568,2.217-.568,1.141,1.005,2.647,2.96,6.383,3.346a3.421,3.421,0,0,0,3.874-2.013,30.544,30.544,0,0,1,2.778,1.342,12.821,12.821,0,0,1,7.392,9.554s-6.222,20.459-6.608,23.013C1170.949,687,1172.376,688.762,1172.859,694.744Z" transform="translate(-1138.936 -625.503)" fill="#739af0"/>
      <path id="Path_10858" data-name="Path 10858" d="M1296.349,588.5c-.11.88-.482,3.289-.641,4.292-7.608-2.966-6.612-8.747-6.4-9.536.022-.081.037-.124.037-.124S1293.366,585.991,1296.349,588.5Z" transform="translate(-1266.961 -567.11)" fill="#e8945b"/>
      <g id="Group_4726" data-name="Group 4726" transform="translate(21.972 7.63)">
        <path id="Path_10859" data-name="Path 10859" d="M1296.608,535.626s-8.788.282-8.879-5.193-1.287-9.126,4.319-9.538,6.732,1.66,7.207,3.48S1298.891,535.411,1296.608,535.626Z" transform="translate(-1287.561 -520.842)" fill="#ffb27d"/>
      </g>
      <path id="Path_10860" data-name="Path 10860" d="M1288.063,508.936s-.552,9.141-11.265,8.16C1276.8,517.1,1277.026,504.437,1288.063,508.936Z" transform="translate(-1256.276 -502.073)" fill="#c65447"/>
      <path id="Path_10861" data-name="Path 10861" d="M1345.185,521.892a60.209,60.209,0,0,0,4.364,4.9S1352.888,522,1345.185,521.892Z" transform="translate(-1315.449 -514.12)" fill="#c65447"/>
      <path id="Path_10862" data-name="Path 10862" d="M1345.185,521.892s2.7,4.554,4.059,5.74c0,0,3.644-5.631-4.059-5.74Z" transform="translate(-1315.449 -514.12)" fill="#c65447"/>
      <path id="Path_10863" data-name="Path 10863" d="M1153.736,795.123c-7.161-.422-10.99-.864-10.99-.864s-5.865-13.537,5.153-30.216C1150.13,769.243,1155.391,783.14,1153.736,795.123Z" transform="translate(-1138.936 -723.646)" fill="#4a82d3"/>
      <path id="Path_10864" data-name="Path 10864" d="M1142.848,650.618s-8.5,1.744-12.289,6.13c-2.9,3.361-6.077,19.791-6.077,22.506,0,2.594,2.982,16.388,4.844,19.032a.616.616,0,0,0,.568.261l4.788-.507a.7.7,0,0,0,.621-.807l-2.69-17.436,9.442-16.747S1147.623,656.451,1142.848,650.618Z" transform="translate(-1124.482 -625.503)" fill="#739af0"/>
    </g>
    <g id="Group_4728" data-name="Group 4728" transform="translate(131.515 76.761)">
      <path id="Path_10865" data-name="Path 10865" d="M1497.446,1480.626a3.67,3.67,0,0,0,2.315,1.753,3.993,3.993,0,0,1,2.4,1.476.937.937,0,0,1-.753,1.492h-8.1a1.165,1.165,0,0,1-1.159-1.281c.061-.6.124-1.3.151-1.835a3.45,3.45,0,0,1,1.231-2.111Z" transform="translate(-1468.49 -1377.481)" fill="#2c3a64"/>
      <path id="Path_10866" data-name="Path 10866" d="M1439.906,1160.983c.338,6.159-.5,20.157-.5,20.157s-.564,1.561-4.13,1.934a10.689,10.689,0,0,1-3.63-.3q-1.079-4.971-2-9.487c-4.4-21.6-6.12-34.94-6.12-34.94l17.378-4.04s-.761,12.194-.985,20.509C1439.849,1157.415,1439.832,1159.633,1439.906,1160.983Z" transform="translate(-1409.115 -1078.263)" fill="#35488b"/>
      <path id="Path_10867" data-name="Path 10867" d="M1440.9,1134.31s-.761,12.194-.985,20.509l-10.273,18.471c-4.4-21.6-6.12-34.94-6.12-34.94Z" transform="translate(-1409.115 -1078.263)" fill="#2c3a64"/>
      <path id="Path_10868" data-name="Path 10868" d="M1330.885,917.519s-6.725-3.061-11.812-.383-1.977,24.779,5.3,26.921h0S1338,948.415,1330.885,917.519Z" transform="translate(-1316.568 -889.4)" fill="#35488b"/>
      <path id="Path_10869" data-name="Path 10869" d="M1535.012,938.057a.839.839,0,0,0-.066-.086,11.268,11.268,0,0,1-.63-1.324h0c1.353-6.622.442-10.451.442-10.451.16-1.928,1.312-15.4-1.339-21.636-1.279-3.011-3.421-3.016-3.421-3.016a43.558,43.558,0,0,1,.171,7.4c-.3,2.373,1.958,24.615,2.332,28.25-.006,0-.011,0-.012,0l.107,3.7,1.085-.256a.8.8,0,0,0,.136-.048h0a.77.77,0,0,0,.331-.289l.876-1.388a.782.782,0,0,0-.011-.848Zm-2.064-.6.046-.027-.023.03S1532.961,937.462,1532.948,937.457Z" transform="translate(-1501.243 -876.858)" fill="#e8945b"/>
      <path id="Path_10870" data-name="Path 10870" d="M1392.8,1480.626a3.67,3.67,0,0,0,2.316,1.753,3.993,3.993,0,0,1,2.4,1.476.937.937,0,0,1-.753,1.492h-8.1a1.165,1.165,0,0,1-1.159-1.281c.06-.6.124-1.3.151-1.835a3.448,3.448,0,0,1,1.231-2.111Z" transform="translate(-1377.94 -1377.481)" fill="#2c3a64"/>
      <path id="Path_10871" data-name="Path 10871" d="M1405.938,718.326a7.983,7.983,0,0,0-5.075,1.88c-1.24,1.205-2.531,1.267-3.449,2.689a6.209,6.209,0,0,0-1.07,5.111c.526,2.279.419,4.484,1.85,6.158.709.828,1.864.922,2.669,1.683a6.911,6.911,0,0,0,5.075,1.84c3.614,0,5.863-2.141,7.712-4.808,1.482-2.137,1.188-3.578,1.536-5.406C1416.281,721.72,1411.481,718.326,1405.938,718.326Z" transform="translate(-1385.447 -718.326)" fill="#35488b"/>
      <path id="Path_10872" data-name="Path 10872" d="M1453.163,828.953l-6.908,3.531-1.384-4.792a14.69,14.69,0,0,0,1.278-4.375,18.242,18.242,0,0,0,.143-3.945l5.628,2.882a10.7,10.7,0,0,0-.224,1.288,9.365,9.365,0,0,0,.1,3.012A4.168,4.168,0,0,0,1453.163,828.953Z" transform="translate(-1427.584 -805.757)" fill="#ffb27d"/>
      <path id="Path_10873" data-name="Path 10873" d="M1380.807,1145.354s-1.313,17.408-1.021,45.151a10.688,10.688,0,0,0,3.5,1.023c3.568.355,4.437-1.06,4.437-1.06s3.649-13.54,4.561-19.641c.841-5.625,6.363-25.922,6.363-25.922Z" transform="translate(-1371.232 -1087.432)" fill="#35488b"/>
      <path id="Path_10874" data-name="Path 10874" d="M1369.468,882.868a22.131,22.131,0,0,0-5.444-1.544c.031.993-.23,1.928-1.973,2.156-2.319.3-4.392-1.28-5.441-2.356h0s-1.635.176-3.541.593a22.208,22.208,0,0,0-2.894.82,6.147,6.147,0,0,0-2.589,1.55h0c-1.784,2.189-4.719,8.783-4.719,8.783s4.885,1.811,6.118,2.868l.028.236.765,6.35-2.277,12.647a1.909,1.909,0,0,0-.031.33,1.865,1.865,0,0,0,1.428,1.81s.2.033.557.082c2.414.339,12.215,1.508,19.9-.578a3.731,3.731,0,0,0,2.723-3.905l-1.253-15.72c.669-.115,1.44-.237,2.068-.306a3.893,3.893,0,0,1,1.115-.024S1373.137,884.383,1369.468,882.868Z" transform="translate(-1339.323 -859.189)" fill="#f99746"/>
      <path id="Path_10875" data-name="Path 10875" d="M1384.53,1000.472c-.1,4.413-2.989,9.6-5.514,11-.361-.05-.556-.083-.556-.083a1.865,1.865,0,0,1-1.428-1.81,1.909,1.909,0,0,1,.031-.33l2.277-12.647-.765-6.35.057-.17A10.854,10.854,0,0,1,1384.53,1000.472Z" transform="translate(-1368.885 -953.464)" fill="#ed7d2b"/>
      <path id="Path_10876" data-name="Path 10876" d="M1547.761,956.292c-.643.072-2.071.307-2.071.307l-.723-6.585A47.645,47.645,0,0,1,1547.761,956.292Z" transform="translate(-1514.194 -918.798)" fill="#ed7d2b"/>
      <path id="Path_10877" data-name="Path 10877" d="M1380.276,916.516l.592-3.285c10.016-14.492,10.775-17.092,6.27-23.6a9.6,9.6,0,0,0-4.593-3.292,22.216,22.216,0,0,1,2.894-.819,10.863,10.863,0,0,1,2.5,1.473C1401.689,898.9,1380.276,916.516,1380.276,916.516Z" transform="translate(-1371.692 -862.995)" fill="#35488b"/>
      <path id="Path_10878" data-name="Path 10878" d="M1353.918,971.2c-3.922.271-4.465,4.29-4.465,4.29s-6.582.6-7.554,1.03c0,0,.534-1.445,1.483-3.628a18.568,18.568,0,0,0-5.546-2.676,18.012,18.012,0,0,0-1.172,10.7.84.84,0,0,0,.781.646c2.095.1,9.017.063,14.084-4.134l.089-.024c1.213-.072,2.353-1.277,2.79-2.861s.472-1.1.807-2.215S1353.918,971.2,1353.918,971.2Z" transform="translate(-1333.637 -936.282)" fill="#ffb27d"/>
      <path id="Path_10879" data-name="Path 10879" d="M1460,851.886c-3.2-.085-5.645-3.237-5.645-3.237l5.547.226A9.371,9.371,0,0,0,1460,851.886Z" transform="translate(-1435.791 -831.09)" fill="#e8945b"/>
      <path id="Path_10880" data-name="Path 10880" d="M1452.094,779.386s-7.071.862-7.222-4.12,2.8-8.209,4.764-8.172c3.923.073,4.57,1.659,5.024,3.309S1455.35,779.035,1452.094,779.386Z" transform="translate(-1427.581 -760.523)" fill="#ffb27d"/>
      <path id="Path_10881" data-name="Path 10881" d="M1484.474,834.315s.154.621,1.7.507c0,0,1.3-.1,1.252-.78A4.187,4.187,0,0,0,1484.474,834.315Z" transform="translate(-1461.852 -818.324)" fill="#fff"/>
      <path id="Path_10882" data-name="Path 10882" d="M1441.3,765.579s-6.043,0-4.654,4.145c.875,2.615-2.035,3.021-2.035,3.021l-1.4-4.191.877-3.265Z" transform="translate(-1417.497 -758.961)" fill="#35488b"/>
    </g>
    <g id="Group_4730" data-name="Group 4730" transform="translate(190.581 33.493)">
      <path id="Path_10883" data-name="Path 10883" d="M1801.816,558.909c-1.506-2.5-2.44-13.664-3.527-16.654-.687-1.89-2.526-4.148-2.332-4.289-1.957-1.154-7.251-1.709-7.251-1.709s0,.008,0,.011c-.207-.043-.412-.086-.61-.125a1.462,1.462,0,0,1-1.305-1.141c0-.032-.006-.065-.01-.1a20.18,20.18,0,0,1-.089-2.3.147.147,0,0,1,0-.029c.018-1.145.105-2,.105-2l-.021,0-6.864-1.1c-.094,2.143-.218,3.738-.35,4.928a1.881,1.881,0,0,1-1.754,1.674c-.137.007-.276.016-.414.026h0s-4.424-.172-6.117.344a2.745,2.745,0,0,0-.431.178c.1.108-16.294,16.542-15.871,18.445s7.618,12.711,10.227,14.7h2.611s-5.787-13.2-5.862-14.269c-.11-1.567,14.552-10.333,14.552-11.931,0-.581,4.088-.757,6.761-.736,2.831.022,8.162-1.457,8.162-1.457s2.3,17.464,5.217,22.645c2.3,4.085,12.443,14.551,12.443,14.551l2.14-1.9S1805.462,564.965,1801.816,558.909Z" transform="translate(-1754.967 -511.65)" fill="#ffb27d"/>
      <path id="Path_10884" data-name="Path 10884" d="M1812.376,907.953c1.239,12.2-.262,28.172-.262,28.172h-4.2c-6.347-16.693-6.538-27.166-6.9-31.1-.2-2.143-3.09-10.708-5.687-18.945-2.17-6.878-4.131-13.529-4.144-16.021-.028-5.711,5.662-14.872,5.662-14.872a99.413,99.413,0,0,1,13.222,6.27,9.815,9.815,0,0,1,3.414,2.92c1.17,2.294,2.037,18.669-1.076,28.671-1.874,6.022-.914,9.111-.914,9.111A51.057,51.057,0,0,1,1812.376,907.953Z" transform="translate(-1786.302 -793.48)" fill="#c65447"/>
      <path id="Path_10885" data-name="Path 10885" d="M1812.4,893.049c-1.874,6.022-.914,9.111-.914,9.111a51.057,51.057,0,0,1,.888,5.792l-17.051-21.872c-2.17-6.878-4.131-13.529-4.144-16.021-.028-5.711,5.662-14.872,5.662-14.872a99.413,99.413,0,0,1,13.222,6.27,9.815,9.815,0,0,1,3.414,2.92C1814.648,866.672,1815.516,883.047,1812.4,893.049Z" transform="translate(-1786.302 -793.48)" fill="#b2443b"/>
      <path id="Path_10886" data-name="Path 10886" d="M1844.547,1455.912a14.923,14.923,0,0,1-.591,3.305,8.75,8.75,0,0,1-3.525,3.1c-1.692.634-6.533.306-6.909,2.065h17.062a12.062,12.062,0,0,0-.423-4.371c-.658-1.736-1.41-4.1-1.41-4.1Z" transform="translate(-1822.938 -1313.267)" fill="#2b478b"/>
      <path id="Path_10887" data-name="Path 10887" d="M2096.555,1446.961a35.368,35.368,0,0,1,2.378,3.642c.469,1.034,3.571,5.412,3.2,5.449s-8.648,0-8.648,0a10,10,0,0,1-.752-3.475c.094-1.41-1.128-4.087-.893-5.616S2096.555,1446.961,2096.555,1446.961Z" transform="translate(-2046.422 -1304.934)" fill="#2b478b"/>
      <path id="Path_10888" data-name="Path 10888" d="M1931.453,930.527h-4.72s-18.4-26.6-19.036-33.369c-.791-8.459-6.7-41.849-6.7-41.849l18.879-5.877s1.649,4.243,3.033,8.521c.6,1.866,1.153,3.738,1.5,5.268.756,3.377-1.372,16.138-2.824,25.211a87.611,87.611,0,0,0-1.234,9.16C1920.454,900.977,1926.659,901.416,1931.453,930.527Z" transform="translate(-1881.32 -788.5)" fill="#c65447"/>
      <path id="Path_10889" data-name="Path 10889" d="M1939.2,543.218c-.01.171-.021.337-.032.5C1939.174,543.555,1939.186,543.389,1939.2,543.218Z" transform="translate(-1914.347 -523.542)" fill="#2b478b"/>
      <path id="Path_10890" data-name="Path 10890" d="M1939.509,537.99c-.009.182-.019.36-.03.534C1939.49,538.35,1939.5,538.172,1939.509,537.99Z" transform="translate(-1914.619 -519.018)" fill="#2b478b"/>
      <path id="Path_10891" data-name="Path 10891" d="M1940,529.474q-.008.2-.019.4.009-.194.017-.4Z" transform="translate(-1915.053 -511.65)" fill="#2b478b"/>
      <path id="Path_10892" data-name="Path 10892" d="M1859.427,622.937c.615,1.85-8.268,2.931-18.126,2.8a32.2,32.2,0,0,1-7.508-.929c-4.512-1.167-7-3.29-5.014-5.542.563-.64,6.812-9.582,6.812-9.582.369-.8-.031-3.424-1.939-9.659a6.79,6.79,0,0,1,.6-5.147,0,0,0,0,1,0,0,1.021,1.021,0,0,0,.039-.864,21.2,21.2,0,0,0-3.2-4.031,31.642,31.642,0,0,0-2.677-2.44s3.659-3.988,5.7-5.013c2.108,2.209,6.678,6.167,12.418,6.212,4.952.038,9.763-2.752,12.692-4.868a2.037,2.037,0,0,1,.521.411c1.83,2.147,2.352,6.022,2.352,6.022s-5.89,3.25-5.784,4.308c.292,2.916.568,3.769.44,4.81v.01a7.058,7.058,0,0,1-.3,1.268c-1,3.155-3.179,8.028-2.636,9.669C1853.957,610.8,1858.545,620.281,1859.427,622.937Z" transform="translate(-1818.238 -557.558)" fill="#2b478b"/>
      <path id="Path_10893" data-name="Path 10893" d="M1876.027,580.689c.095-.029.2-.056.309-.08-.111.025-.215.053-.31.081Z" transform="translate(-1859.716 -555.895)" fill="#ffb27d"/>
      <path id="Path_10894" data-name="Path 10894" d="M1993.505,575.322a1.626,1.626,0,0,0,.528.349A1.617,1.617,0,0,1,1993.505,575.322Z" transform="translate(-1961.367 -551.321)" fill="#ffb27d"/>
      <path id="Path_10895" data-name="Path 10895" d="M1997.424,577.915a2.329,2.329,0,0,0,.227.082A1.888,1.888,0,0,1,1997.424,577.915Z" transform="translate(-1964.757 -553.564)" fill="#ffb27d"/>
      <path id="Path_10896" data-name="Path 10896" d="M2158.25,879.81s3.608.934,4.1,1.438,1.907,4.416,1.41,4.452a5.172,5.172,0,0,1-3.948-1.2c-1.563-1.72-3.9-1.994-3.782-3.253S2158.25,879.81,2158.25,879.81Z" transform="translate(-2101.99 -814.784)" fill="#ffb27d"/>
      <path id="Path_10897" data-name="Path 10897" d="M1814.155,828.565s-2.612,3.3-2.612,3.9.529,3.1,1.164,3.137.846-2.044,1.339-2.432,2.256-1.117,2.5-1.792a13.258,13.258,0,0,0,.218-2.812Z" transform="translate(-1803.92 -770.444)" fill="#ffb27d"/>
      <path id="Path_10898" data-name="Path 10898" d="M1937.694,533.786c3.242-.417,7.19-3.613,7.19-3.613a7.793,7.793,0,0,0-5.855-.941,5.833,5.833,0,0,0-1.034.393Z" transform="translate(-1913.075 -511.247)" fill="#e8945b"/>
      <g id="Group_4729" data-name="Group 4729" transform="translate(22.496 6.196)">
        <path id="Path_10899" data-name="Path 10899" d="M1922.885,456.371s8.02,2.676,9.61-2.344,3.7-8.055-1.357-9.976-6.66-.322-7.6,1.224S1920.839,455.545,1922.885,456.371Z" transform="translate(-1921.937 -443.17)" fill="#ffb27d"/>
        <path id="Path_10900" data-name="Path 10900" d="M1931.714,518.577s-.3.583-1.81.113c0,0-1.271-.394-1.067-1.064A4.273,4.273,0,0,1,1931.714,518.577Z" transform="translate(-1927.888 -507.586)" fill="#fff"/>
      </g>
      <path id="Path_10901" data-name="Path 10901" d="M1949.6,404.792c-.9-1.154,2.051-3.534-3.94-6.395-4.544-2.17-5.952,1.117-6.368,2.831-2.7-1.542-7.112-5.984-9.924-3.09-3.368,3.465.285,6.514.285,6.514,1.277.93,1.9.673,3.765,1.083s.674,2.571.82,3.3a2.337,2.337,0,0,0,3.147,1.458c1.727-.744,1.529,2.1-.113,2.686-.468.167-.954,2.782-.276,2.893.57.093,2.628.112,2.837-1.567.124-1,1.391-1.517,2.733-2.547a4.2,4.2,0,0,0,2.956,1.231c1.061-.152,1.072-1,3.345-2.52S1950.493,405.946,1949.6,404.792Z" transform="translate(-1904.632 -397.181)" fill="#c65447"/>
      <path id="Path_10902" data-name="Path 10902" d="M1833.792,799.195c-4.512-1.167-7-3.29-5.014-5.543.563-.64,6.812-9.582,6.812-9.582S1837.265,794.168,1833.792,799.195Z" transform="translate(-1818.238 -731.944)" fill="#233862"/>
    </g>
    <g id="Group_4732" data-name="Group 4732" transform="translate(223.003 36.778)">
      <g id="Group_4731" data-name="Group 4731" transform="translate(1.451 70.28)">
        <path id="Path_10903" data-name="Path 10903" d="M2017.312,1020.756l-.676-72.351s-.583-5.211-5.129-5.211c-4.851,0-5.129,5.211-5.129,5.211a.551.551,0,0,0,.567.45.587.587,0,0,0,.608-.45s.215-4.017,3.954-4.017c3.5,0,3.955,4.017,3.955,4.017v72.351Z" transform="translate(-2006.378 -943.194)" fill="#233862"/>
        <path id="Path_10904" data-name="Path 10904" d="M2069.17,1495.474h3.017l-.269-3.155s.026-.438-.584-.463c-.567-.023-1.685-.1-1.791.239C2069.449,1492.4,2069.17,1495.474,2069.17,1495.474Z" transform="translate(-2060.71 -1417.912)" fill="#233862"/>
      </g>
      <path id="Path_10905" data-name="Path 10905" d="M2002.149,914.737l-.206,1.035a6.63,6.63,0,0,0-6.311,5.462s-.324,2.281,1.32,1.794,1.389-1.651,3.717-2.289,3.846-1.126,4.2-2.821l.381-1.886Z" transform="translate(-1995.606 -848.291)" fill="#ffb27d"/>
      <path id="Path_10906" data-name="Path 10906" d="M2059.841,581.784s-1.353,5.324-2.52,10.191c-.47,1.961-.909,3.846-1.219,5.28a12.155,12.155,0,0,0-.427,2.582c1.015,1.647-.839,11.691-2.3,15.338-.13.323-.308.7-.522,1.123-2.051,4.02-7.51,11.909-7.51,11.909a6.829,6.829,0,0,1-2.547-.219,3.358,3.358,0,0,1-1.414-1.346c.488-.786,2.464-10.068,5-15.272,1.088-2.226,2.689-22.883,4.795-25.664C2052.933,583.387,2059.841,581.784,2059.841,581.784Z" transform="translate(-2035.21 -560.198)" fill="#f99746"/>
      <path id="Path_10907" data-name="Path 10907" d="M2125.31,686.963c1.015,1.647-.839,11.691-2.305,15.338-.129.323-.308.7-.522,1.123-1.959-8.668,1.288-20.948,1.288-20.948C2124.582,682.8,2125.241,686.853,2125.31,686.963Z" transform="translate(-2104.844 -647.323)" fill="#ed7d2b"/>
      <path id="Path_10908" data-name="Path 10908" d="M2137.843,1444.859s.521,7.845-.96,7.955c-.2.015-7.514.015-7.514.015h-9.438a3.227,3.227,0,0,1,2.889-2.78c2.731-.476,7.3-2.395,8.954-6C2133.513,1440.248,2137.843,1444.859,2137.843,1444.859Z" transform="translate(-2103.18 -1304.987)" fill="#0f2949"/>
      <path id="Path_10909" data-name="Path 10909" d="M2243.2,1444.859s.521,7.845-.96,7.955c-.2.015-7.514.015-7.514.015h-9.438a3.226,3.226,0,0,1,2.889-2.78c2.73-.476,7.3-2.395,8.954-6C2238.875,1440.248,2243.2,1444.859,2243.2,1444.859Z" transform="translate(-2194.346 -1304.987)" fill="#163560"/>
      <path id="Path_10910" data-name="Path 10910" d="M2152.263,941.594a102.583,102.583,0,0,1,.537,11.428c-.236,5.377-.407,9.911-.407,9.911-3.544,1.205-10.048-.257-10.048-.257s-2.308-13.588-4.208-24.434c-.853-4.86-1.56-9.064-1.824-11.05-.855-6.417.91-40.537.91-40.537s9.592-6.148,13.555-2.978,6.4,6.266.016,40.984C2150.31,927.3,2151.743,934.163,2152.263,941.594Z" transform="translate(-2117.153 -820.631)" fill="#2b478b"/>
      <path id="Path_10911" data-name="Path 10911" d="M2152.263,941.594a123.279,123.279,0,0,1,.491,12.472c-3.334-3.529-9.906-10.975-14.617-15.824-.853-4.86-1.56-9.064-1.824-11.05-.855-6.417.91-40.537.91-40.537s9.592-6.148,13.555-2.978,6.4,6.266.016,40.984C2150.31,927.3,2151.743,934.163,2152.263,941.594Z" transform="translate(-2117.153 -820.631)" fill="#233862"/>
      <path id="Path_10912" data-name="Path 10912" d="M2208.906,886.539s.862,34.155,2.208,40.487,8.371,35.321,8.371,35.321,6.584.6,10.026-.875c0,0-.219-13.425-1.387-21.314-1.091-7.369-3.047-14.106-2.767-16.769,3.7-35.106,1.028-38.006-3.166-40.862S2208.906,886.539,2208.906,886.539Z" transform="translate(-2180.168 -819.821)" fill="#2b478b"/>
      <path id="Path_10913" data-name="Path 10913" d="M2301.715,928.211a6.63,6.63,0,0,0,2.1,8.077s1.9,1.3,2.193-.39-.045-1.1.414-3.472-.128-4.822-1.492-5.889Z" transform="translate(-2259.959 -858.502)" fill="#ffb27d"/>
      <path id="Path_10914" data-name="Path 10914" d="M2162.777,503.954s2.633,4,2.108,7.738l3.9,9.389,7.031-10.749a24.669,24.669,0,0,1-5.1-9.554Z" transform="translate(-2140.254 -490.107)" fill="#ffb27d"/>
      <path id="Path_10915" data-name="Path 10915" d="M2133.146,450.271s9.59.415,9.765-5.342,2.766-9.587-4.407-10.093c-5.9-.416-7.859,2.044-8.385,3.951S2129.591,449.962,2133.146,450.271Z" transform="translate(-2111.777 -433.008)" fill="#ffb27d"/>
      <path id="Path_10916" data-name="Path 10916" d="M2133.031,619.794c-2.06.192-4.9.429-8.339.646q-1.031.064-2.133.126c-10.392.582-14.522-1.1-14.522-1.1s-.275-.223-.188-1.443c.451-6.284,1.786-8.141,1.625-9.335-.362-2.684-6.873-24.588-6.873-24.588s-.126-6.919,7.57-10.167a18.245,18.245,0,0,1,2.635-.876,3.174,3.174,0,0,0,3.624,2.116,12.352,12.352,0,0,0,7.047-3.523c.193,0,.27.006.27.006a21.061,21.061,0,0,1,.644,2.283c.631,2.719,1,5.581,2.669,7.72a58.476,58.476,0,0,1,4.26,6.231,51.966,51.966,0,0,1,2.595,4.98C2140.725,607.927,2135.455,619.566,2133.031,619.794Z" transform="translate(-2088.185 -551.429)" fill="#f99746"/>
      <path id="Path_10917" data-name="Path 10917" d="M2274.266,720.165c-2.06.192-4.9.429-8.338.646-1-16.915,5.888-33.16,5.888-33.16a6.132,6.132,0,0,1,.738.612,10.706,10.706,0,0,1,2.594,4.98C2277.2,700.913,2275.482,713.373,2274.266,720.165Z" transform="translate(-2229.42 -651.801)" fill="#ed7d2b"/>
      <path id="Path_10918" data-name="Path 10918" d="M2127.752,506.218s-1.867,7.406,1.3,8.45,11.579.207,11.575-8.873c0,0-4.414,2.632-6.522,2.566s-3.469-1.283-5.418-.333C2128.689,508.027,2127.976,507.98,2127.752,506.218Z" transform="translate(-2109.475 -494.446)" fill="#c8d9e8"/>
      <path id="Path_10919" data-name="Path 10919" d="M2245.694,571.69s6.7.151,10.245,4.759c2.714,3.531,5.583,22.479,5.583,25.332s-3.055,18.6-4.766,20.308a6.445,6.445,0,0,1-2.585,0,5.226,5.226,0,0,1-2.492-1.21s.851-17.529.851-19.174c0-2.38-7.442-16.952-7.442-16.952S2241.229,577.819,2245.694,571.69Z" transform="translate(-2210.135 -551.464)" fill="#f99746"/>
      <path id="Path_10920" data-name="Path 10920" d="M2157.616,425.187a1.665,1.665,0,0,0-.885-.9,10.255,10.255,0,0,0-9.347.221c3.311-4.444,11.3-3.511,12.983.5,2.748,6.544-2.279,7.907-2.279,7.907s-5.019-2.109-2.112-4.753a4.729,4.729,0,0,0,1.583-2.333h0A2.324,2.324,0,0,0,2157.616,425.187Z" transform="translate(-2126.934 -421.568)" fill="#c8d9e8"/>
      <path id="Path_10921" data-name="Path 10921" d="M2140.488,531.933s-.176.629-1.753.464c0,0-1.324-.138-1.254-.834A4.274,4.274,0,0,1,2140.488,531.933Z" transform="translate(-2118.364 -516.639)" fill="#fff"/>
    </g>
  </g>
</svg>
